G04 start of page 3 for group 1 idx 1 *
G04 Title: (unknown), bottom *
G04 Creator: pcb 1.99z *
G04 CreationDate: Wed Nov 29 11:54:27 2017 UTC *
G04 For: matt *
G04 Format: Gerber/RS-274X *
G04 PCB-Dimensions (mm): 60.96 109.22 *
G04 PCB-Coordinate-Origin: lower left *
%MOMM*%
%FSLAX43Y43*%
%LNBOTTOM*%
%ADD38C,3.100*%
%ADD37C,0.850*%
%ADD36C,1.000*%
%ADD35C,0.600*%
%ADD34C,4.730*%
%ADD33C,1.600*%
%ADD32C,2.400*%
%ADD31C,2.200*%
%ADD30C,0.140*%
%ADD29C,0.300*%
%ADD28C,0.150*%
%ADD27C,1.016*%
%ADD26C,0.002*%
G54D26*G36*
X15240Y24130D02*X16183D01*
X16011Y24025D01*
X15652Y23718D01*
X15345Y23359D01*
X15240Y23187D01*
Y24130D01*
G37*
G36*
X44270Y51071D02*X44853Y51655D01*
X44860Y51660D01*
X44883Y51687D01*
X44883Y51687D01*
X44901Y51718D01*
X44915Y51750D01*
X44923Y51785D01*
X44926Y51820D01*
X44925Y51829D01*
Y64061D01*
X44926Y64070D01*
X44923Y64105D01*
X44915Y64140D01*
X44901Y64172D01*
X44884Y64200D01*
X44896Y64249D01*
X44900Y64320D01*
X44896Y64391D01*
X44879Y64459D01*
X44852Y64525D01*
X44815Y64585D01*
X44769Y64639D01*
X44715Y64685D01*
X44655Y64722D01*
X44589Y64749D01*
X44521Y64766D01*
X44450Y64771D01*
X44379Y64766D01*
X44333Y64755D01*
X44270Y64819D01*
Y82239D01*
X45006Y82241D01*
X45052Y82252D01*
X45096Y82270D01*
X45136Y82295D01*
X45172Y82325D01*
X45203Y82361D01*
X45228Y82402D01*
X45246Y82445D01*
X45257Y82491D01*
X45259Y82538D01*
X45257Y83687D01*
X45246Y83733D01*
X45228Y83777D01*
X45203Y83817D01*
X45172Y83853D01*
X45136Y83883D01*
X45096Y83908D01*
X45052Y83926D01*
X45006Y83937D01*
X44959Y83940D01*
X44270Y83939D01*
Y84834D01*
X44546Y84949D01*
X44949Y85195D01*
X45308Y85502D01*
X45720Y85090D01*
Y24130D01*
X45308Y23718D01*
X44949Y24025D01*
X44546Y24271D01*
X44270Y24386D01*
Y51071D01*
G37*
G36*
Y59236D02*X44289Y59241D01*
X44355Y59268D01*
X44415Y59305D01*
X44469Y59351D01*
X44475Y59358D01*
Y51913D01*
X44270Y51708D01*
Y59236D01*
G37*
G36*
Y63908D02*X44311Y63891D01*
X44379Y63874D01*
X44450Y63869D01*
X44475Y63871D01*
Y59982D01*
X44469Y59989D01*
X44415Y60035D01*
X44355Y60072D01*
X44289Y60099D01*
X44270Y60104D01*
Y63908D01*
G37*
G36*
Y64819D02*X43475Y65613D01*
Y73061D01*
X43476Y73070D01*
X43473Y73105D01*
X43465Y73140D01*
X43451Y73172D01*
X43433Y73203D01*
X43433Y73203D01*
X43410Y73230D01*
X43403Y73235D01*
X40975Y75663D01*
Y78930D01*
X41015Y78955D01*
X41069Y79001D01*
X41115Y79055D01*
X41152Y79115D01*
X41179Y79181D01*
X41196Y79249D01*
X41200Y79320D01*
X41196Y79391D01*
X41179Y79459D01*
X41152Y79525D01*
X41115Y79585D01*
X41069Y79639D01*
X41015Y79685D01*
X40955Y79722D01*
X40889Y79749D01*
X40821Y79766D01*
X40750Y79771D01*
X40679Y79766D01*
X40611Y79749D01*
X40545Y79722D01*
X40485Y79685D01*
X40431Y79639D01*
X40385Y79585D01*
X40348Y79525D01*
X40321Y79459D01*
X40304Y79391D01*
X40299Y79320D01*
X40304Y79249D01*
X40321Y79181D01*
X40348Y79115D01*
X40385Y79055D01*
X40431Y79001D01*
X40485Y78955D01*
X40525Y78930D01*
Y78679D01*
X40523Y78705D01*
X40515Y78740D01*
X40501Y78772D01*
X40483Y78803D01*
X40483Y78803D01*
X40460Y78830D01*
X40453Y78835D01*
X40085Y79203D01*
X40096Y79249D01*
X40100Y79320D01*
X40096Y79391D01*
X40079Y79459D01*
X40052Y79525D01*
X40015Y79585D01*
X39969Y79639D01*
X39915Y79685D01*
X39855Y79722D01*
X39789Y79749D01*
X39721Y79766D01*
X39650Y79771D01*
X39579Y79766D01*
X39511Y79749D01*
X39445Y79722D01*
X39385Y79685D01*
X39331Y79639D01*
X39285Y79585D01*
X39248Y79525D01*
X39221Y79459D01*
X39204Y79391D01*
X39199Y79320D01*
X39204Y79249D01*
X39221Y79181D01*
X39248Y79115D01*
X39277Y79067D01*
X38720Y79624D01*
X38713Y79633D01*
X38677Y79663D01*
X38677Y79663D01*
X38637Y79688D01*
X38593Y79706D01*
X38547Y79717D01*
X38500Y79721D01*
X38488Y79720D01*
X38086D01*
X38069Y79739D01*
X38015Y79785D01*
X37955Y79822D01*
X37889Y79849D01*
X37821Y79866D01*
X37750Y79871D01*
X37679Y79866D01*
X37611Y79849D01*
X37545Y79822D01*
X37485Y79785D01*
X37431Y79739D01*
X37385Y79685D01*
X37348Y79625D01*
X37321Y79559D01*
X37304Y79491D01*
X37299Y79420D01*
X37304Y79349D01*
X37321Y79281D01*
X37348Y79215D01*
X37385Y79155D01*
X37431Y79101D01*
X37485Y79055D01*
X37545Y79018D01*
X37611Y78991D01*
X37679Y78974D01*
X37750Y78969D01*
X37821Y78974D01*
X37889Y78991D01*
X37955Y79018D01*
X38015Y79055D01*
X38069Y79101D01*
X38086Y79120D01*
X38376D01*
X39450Y78046D01*
Y76444D01*
X38977Y75971D01*
X37210Y77738D01*
X37190Y77760D01*
X37099Y77838D01*
X37025Y77884D01*
Y78145D01*
X37907D01*
X38215Y77837D01*
X38204Y77791D01*
X38199Y77720D01*
X38204Y77649D01*
X38221Y77581D01*
X38248Y77515D01*
X38285Y77455D01*
X38331Y77401D01*
X38385Y77355D01*
X38445Y77318D01*
X38511Y77291D01*
X38579Y77274D01*
X38650Y77269D01*
X38721Y77274D01*
X38789Y77291D01*
X38855Y77318D01*
X38915Y77355D01*
X38969Y77401D01*
X39015Y77455D01*
X39052Y77515D01*
X39079Y77581D01*
X39096Y77649D01*
X39100Y77720D01*
X39096Y77791D01*
X39079Y77859D01*
X39052Y77925D01*
X39015Y77985D01*
X38969Y78039D01*
X38915Y78085D01*
X38855Y78122D01*
X38789Y78149D01*
X38721Y78166D01*
X38650Y78171D01*
X38579Y78166D01*
X38533Y78155D01*
X38165Y78523D01*
X38160Y78530D01*
X38133Y78553D01*
X38133Y78553D01*
X38102Y78571D01*
X38070Y78585D01*
X38035Y78593D01*
X38000Y78596D01*
X37991Y78595D01*
X37025D01*
Y79867D01*
X39668Y82510D01*
X39690Y82530D01*
X39768Y82621D01*
X39768Y82621D01*
X39831Y82723D01*
X39877Y82834D01*
X39905Y82950D01*
X39914Y83070D01*
X39912Y83100D01*
Y86520D01*
X39905Y86640D01*
X39877Y86756D01*
X39831Y86867D01*
X39768Y86969D01*
X39690Y87060D01*
X39599Y87138D01*
X39497Y87201D01*
X39386Y87247D01*
X39270Y87275D01*
X39150Y87284D01*
X39030Y87275D01*
X38914Y87247D01*
X38803Y87201D01*
X38701Y87138D01*
X38610Y87060D01*
X38532Y86969D01*
X38469Y86867D01*
X38423Y86756D01*
X38395Y86640D01*
X38388Y86520D01*
Y83386D01*
X37025Y82023D01*
Y90170D01*
X40640D01*
X41052Y89758D01*
X40745Y89399D01*
X40499Y88996D01*
X40318Y88560D01*
X40208Y88101D01*
X40171Y87630D01*
X40208Y87159D01*
X40318Y86700D01*
X40499Y86264D01*
X40745Y85861D01*
X41052Y85502D01*
X41411Y85195D01*
X41814Y84949D01*
X42250Y84768D01*
X42709Y84658D01*
X43180Y84621D01*
X43651Y84658D01*
X44110Y84768D01*
X44270Y84834D01*
Y83939D01*
X43533Y83937D01*
X43487Y83926D01*
X43443Y83908D01*
X43403Y83883D01*
X43367Y83853D01*
X43336Y83817D01*
X43312Y83777D01*
X43294Y83733D01*
X43283Y83687D01*
X43280Y83640D01*
X43283Y82491D01*
X43294Y82445D01*
X43312Y82402D01*
X43336Y82361D01*
X43367Y82325D01*
X43403Y82295D01*
X43443Y82270D01*
X43487Y82252D01*
X43533Y82241D01*
X43580Y82238D01*
X44270Y82239D01*
Y64819D01*
G37*
G36*
X31726Y90170D02*X37025D01*
Y82023D01*
X35884Y80882D01*
X34900D01*
X34780Y80875D01*
X34664Y80847D01*
X34553Y80801D01*
X34451Y80738D01*
X34360Y80660D01*
X34282Y80569D01*
X34219Y80467D01*
X34173Y80356D01*
X34145Y80240D01*
X34136Y80120D01*
X34145Y80000D01*
X34173Y79884D01*
X34219Y79773D01*
X34282Y79671D01*
X34360Y79580D01*
X34451Y79502D01*
X34553Y79439D01*
X34664Y79393D01*
X34780Y79365D01*
X34900Y79358D01*
X36170D01*
X36200Y79356D01*
X36320Y79365D01*
X36320Y79365D01*
X36436Y79393D01*
X36547Y79439D01*
X36649Y79502D01*
X36740Y79580D01*
X36760Y79602D01*
X37025Y79867D01*
Y78595D01*
X34243D01*
X31726Y81112D01*
Y90170D01*
G37*
G36*
X37025Y77884D02*X36997Y77901D01*
X36886Y77947D01*
X36770Y77975D01*
X36650Y77984D01*
X36620Y77982D01*
X31726D01*
Y78512D01*
X31735Y78520D01*
X31748Y78539D01*
X31819Y78661D01*
X31877Y78789D01*
X31923Y78923D01*
X31955Y79060D01*
X31975Y79199D01*
X31982Y79340D01*
X31975Y79481D01*
X31955Y79620D01*
X31923Y79757D01*
X31877Y79891D01*
X31819Y80019D01*
X31750Y80142D01*
X31736Y80161D01*
X31726Y80170D01*
Y80476D01*
X33985Y78217D01*
X33990Y78210D01*
X34017Y78187D01*
X34017Y78187D01*
X34048Y78169D01*
X34080Y78155D01*
X34115Y78147D01*
X34150Y78144D01*
X34159Y78145D01*
X37025D01*
Y77884D01*
G37*
G36*
X30479Y90170D02*X31726D01*
Y81112D01*
X31265Y81573D01*
X31260Y81580D01*
X31233Y81603D01*
X31233Y81603D01*
X31202Y81621D01*
X31170Y81635D01*
X31135Y81643D01*
X31100Y81646D01*
X31091Y81645D01*
X30479D01*
Y90170D01*
G37*
G36*
X31726Y77982D02*X31118D01*
X31159Y78001D01*
X31282Y78070D01*
X31301Y78084D01*
X31317Y78101D01*
X31331Y78121D01*
X31342Y78142D01*
X31349Y78165D01*
X31352Y78189D01*
X31352Y78212D01*
X31348Y78236D01*
X31340Y78258D01*
X31329Y78280D01*
X31315Y78299D01*
X31298Y78315D01*
X31278Y78329D01*
X31257Y78339D01*
X31234Y78347D01*
X31211Y78350D01*
X31187Y78350D01*
X31163Y78346D01*
X31141Y78338D01*
X31120Y78326D01*
X31023Y78270D01*
X30920Y78224D01*
X30813Y78187D01*
X30704Y78161D01*
X30592Y78145D01*
X30480Y78140D01*
X30479Y78140D01*
Y80540D01*
X30480Y80540D01*
X30592Y80535D01*
X30704Y80519D01*
X30813Y80493D01*
X30920Y80456D01*
X31023Y80410D01*
X31121Y80355D01*
X31141Y80343D01*
X31164Y80336D01*
X31187Y80332D01*
X31211Y80331D01*
X31234Y80335D01*
X31256Y80342D01*
X31278Y80352D01*
X31297Y80366D01*
X31314Y80382D01*
X31328Y80401D01*
X31339Y80422D01*
X31347Y80444D01*
X31351Y80468D01*
X31351Y80491D01*
X31347Y80515D01*
X31340Y80537D01*
X31330Y80558D01*
X31316Y80578D01*
X31300Y80595D01*
X31281Y80608D01*
X31159Y80679D01*
X31031Y80737D01*
X30897Y80783D01*
X30760Y80815D01*
X30621Y80835D01*
X30480Y80842D01*
X30479Y80842D01*
Y81195D01*
X31007D01*
X31726Y80476D01*
Y80170D01*
X31719Y80177D01*
X31699Y80191D01*
X31678Y80202D01*
X31655Y80209D01*
X31631Y80212D01*
X31608Y80212D01*
X31584Y80208D01*
X31562Y80200D01*
X31540Y80189D01*
X31521Y80175D01*
X31505Y80158D01*
X31491Y80138D01*
X31481Y80117D01*
X31473Y80094D01*
X31470Y80071D01*
X31470Y80047D01*
X31474Y80023D01*
X31482Y80001D01*
X31494Y79980D01*
X31550Y79883D01*
X31596Y79780D01*
X31633Y79673D01*
X31659Y79564D01*
X31675Y79452D01*
X31680Y79340D01*
X31675Y79228D01*
X31659Y79116D01*
X31633Y79007D01*
X31596Y78900D01*
X31550Y78797D01*
X31495Y78699D01*
X31483Y78679D01*
X31476Y78656D01*
X31472Y78633D01*
X31471Y78609D01*
X31475Y78586D01*
X31482Y78564D01*
X31492Y78542D01*
X31506Y78523D01*
X31522Y78506D01*
X31541Y78492D01*
X31562Y78481D01*
X31584Y78473D01*
X31608Y78469D01*
X31631Y78469D01*
X31655Y78473D01*
X31677Y78480D01*
X31698Y78490D01*
X31718Y78504D01*
X31726Y78512D01*
Y77982D01*
G37*
G36*
X29234Y90170D02*X30479D01*
Y81645D01*
X29234D01*
Y90170D01*
G37*
G36*
X30479Y78140D02*X30368Y78145D01*
X30256Y78161D01*
X30147Y78187D01*
X30040Y78224D01*
X29937Y78270D01*
X29839Y78325D01*
X29819Y78337D01*
X29796Y78344D01*
X29773Y78348D01*
X29749Y78349D01*
X29726Y78345D01*
X29704Y78338D01*
X29682Y78328D01*
X29663Y78314D01*
X29646Y78298D01*
X29632Y78279D01*
X29621Y78258D01*
X29613Y78236D01*
X29609Y78212D01*
X29609Y78189D01*
X29613Y78165D01*
X29620Y78143D01*
X29630Y78122D01*
X29644Y78102D01*
X29660Y78085D01*
X29679Y78072D01*
X29801Y78001D01*
X29842Y77982D01*
X29234D01*
Y78510D01*
X29241Y78503D01*
X29261Y78489D01*
X29282Y78478D01*
X29305Y78471D01*
X29329Y78468D01*
X29352Y78468D01*
X29376Y78472D01*
X29398Y78480D01*
X29420Y78491D01*
X29439Y78505D01*
X29455Y78522D01*
X29469Y78542D01*
X29479Y78563D01*
X29487Y78586D01*
X29490Y78609D01*
X29490Y78633D01*
X29486Y78657D01*
X29478Y78679D01*
X29466Y78700D01*
X29410Y78797D01*
X29364Y78900D01*
X29327Y79007D01*
X29301Y79116D01*
X29285Y79228D01*
X29280Y79340D01*
X29285Y79452D01*
X29301Y79564D01*
X29327Y79673D01*
X29364Y79780D01*
X29410Y79883D01*
X29465Y79981D01*
X29477Y80001D01*
X29484Y80024D01*
X29488Y80047D01*
X29489Y80071D01*
X29485Y80094D01*
X29478Y80116D01*
X29468Y80138D01*
X29454Y80157D01*
X29438Y80174D01*
X29419Y80188D01*
X29398Y80199D01*
X29376Y80207D01*
X29352Y80211D01*
X29329Y80211D01*
X29305Y80207D01*
X29283Y80200D01*
X29262Y80190D01*
X29242Y80176D01*
X29234Y80168D01*
Y81195D01*
X30479D01*
Y80842D01*
X30339Y80835D01*
X30200Y80815D01*
X30063Y80783D01*
X29929Y80737D01*
X29801Y80679D01*
X29678Y80610D01*
X29659Y80596D01*
X29643Y80579D01*
X29629Y80559D01*
X29618Y80538D01*
X29611Y80515D01*
X29608Y80491D01*
X29608Y80468D01*
X29612Y80444D01*
X29620Y80422D01*
X29631Y80400D01*
X29645Y80381D01*
X29662Y80365D01*
X29682Y80351D01*
X29703Y80341D01*
X29726Y80333D01*
X29749Y80330D01*
X29773Y80330D01*
X29797Y80334D01*
X29819Y80342D01*
X29840Y80354D01*
X29937Y80410D01*
X30040Y80456D01*
X30147Y80493D01*
X30256Y80519D01*
X30368Y80535D01*
X30479Y80540D01*
Y78140D01*
G37*
G36*
X29234Y77982D02*X20980D01*
X20950Y77984D01*
X20830Y77975D01*
X20714Y77947D01*
X20603Y77901D01*
X20501Y77838D01*
X20501Y77838D01*
X20410Y77760D01*
X20390Y77738D01*
X15382Y72730D01*
X15360Y72710D01*
X15282Y72619D01*
X15240Y72551D01*
Y85090D01*
X15652Y85502D01*
X16011Y85195D01*
X16414Y84949D01*
X16850Y84768D01*
X17309Y84658D01*
X17780Y84621D01*
X18251Y84658D01*
X18710Y84768D01*
X19146Y84949D01*
X19549Y85195D01*
X19908Y85502D01*
X20215Y85861D01*
X20461Y86264D01*
X20642Y86700D01*
X20752Y87159D01*
X20780Y87630D01*
X20752Y88101D01*
X20642Y88560D01*
X20461Y88996D01*
X20215Y89399D01*
X19908Y89758D01*
X20320Y90170D01*
X29234D01*
Y81645D01*
X25340D01*
X25315Y81685D01*
X25269Y81739D01*
X25215Y81785D01*
X25155Y81822D01*
X25089Y81849D01*
X25021Y81866D01*
X24950Y81871D01*
X24879Y81866D01*
X24811Y81849D01*
X24745Y81822D01*
X24685Y81785D01*
X24631Y81739D01*
X24585Y81685D01*
X24548Y81625D01*
X24521Y81559D01*
X24504Y81491D01*
X24499Y81420D01*
X24504Y81349D01*
X24521Y81281D01*
X24548Y81215D01*
X24585Y81155D01*
X24631Y81101D01*
X24685Y81055D01*
X24745Y81018D01*
X24811Y80991D01*
X24879Y80974D01*
X24950Y80969D01*
X25021Y80974D01*
X25089Y80991D01*
X25155Y81018D01*
X25215Y81055D01*
X25269Y81101D01*
X25315Y81155D01*
X25340Y81195D01*
X29234D01*
Y80168D01*
X29225Y80160D01*
X29212Y80141D01*
X29141Y80019D01*
X29083Y79891D01*
X29037Y79757D01*
X29005Y79620D01*
X28985Y79481D01*
X28978Y79340D01*
X28985Y79199D01*
X29005Y79060D01*
X29037Y78923D01*
X29083Y78789D01*
X29141Y78661D01*
X29210Y78538D01*
X29224Y78519D01*
X29234Y78510D01*
Y77982D01*
G37*
G36*
X24899Y72151D02*X25593Y72845D01*
X27859D01*
X27753Y72801D01*
X27651Y72738D01*
X27560Y72660D01*
X27482Y72569D01*
X27419Y72467D01*
X27373Y72356D01*
X27345Y72240D01*
X27336Y72120D01*
X27345Y72000D01*
X27373Y71884D01*
X27419Y71773D01*
X27482Y71671D01*
X27560Y71580D01*
X27651Y71502D01*
X27753Y71439D01*
X27864Y71393D01*
X27980Y71365D01*
X28100Y71358D01*
X36084D01*
X37488Y69954D01*
Y59236D01*
X36584Y58332D01*
X35800D01*
X35788Y58331D01*
X35750Y58334D01*
X35720Y58332D01*
X32480D01*
X36803Y62655D01*
X36810Y62660D01*
X36833Y62687D01*
X36833Y62687D01*
X36851Y62718D01*
X36865Y62750D01*
X36873Y62785D01*
X36876Y62820D01*
X36875Y62829D01*
Y64430D01*
X36915Y64455D01*
X36969Y64501D01*
X37015Y64555D01*
X37052Y64615D01*
X37079Y64681D01*
X37096Y64749D01*
X37100Y64820D01*
X37096Y64891D01*
X37079Y64959D01*
X37052Y65025D01*
X37015Y65085D01*
X36969Y65139D01*
X36915Y65185D01*
X36855Y65222D01*
X36789Y65249D01*
X36721Y65266D01*
X36650Y65271D01*
X36579Y65266D01*
X36511Y65249D01*
X36445Y65222D01*
X36385Y65185D01*
X36331Y65139D01*
X36285Y65085D01*
X36260Y65045D01*
X24899D01*
Y72151D01*
G37*
G36*
Y73495D02*X30560D01*
X30585Y73455D01*
X30631Y73401D01*
X30685Y73355D01*
X30745Y73318D01*
X30800Y73295D01*
X25509D01*
X25500Y73296D01*
X25465Y73293D01*
X25430Y73285D01*
X25398Y73271D01*
X25367Y73253D01*
X25367Y73253D01*
X25340Y73230D01*
X25335Y73223D01*
X24899Y72788D01*
Y73495D01*
G37*
G36*
Y55695D02*X27201D01*
X27185Y55685D01*
X27131Y55639D01*
X27085Y55585D01*
X27048Y55525D01*
X27021Y55459D01*
X27004Y55391D01*
X26999Y55320D01*
X27004Y55249D01*
X27021Y55181D01*
X27048Y55115D01*
X27085Y55055D01*
X27131Y55001D01*
X27185Y54955D01*
X27245Y54918D01*
X27258Y54912D01*
X27231Y54889D01*
X27185Y54835D01*
X27148Y54775D01*
X27121Y54709D01*
X27104Y54641D01*
X27099Y54570D01*
X27104Y54499D01*
X27121Y54431D01*
X27148Y54365D01*
X27185Y54305D01*
X27192Y54296D01*
X26822Y54666D01*
X26852Y54715D01*
X26879Y54781D01*
X26896Y54849D01*
X26900Y54920D01*
X26896Y54991D01*
X26879Y55059D01*
X26852Y55125D01*
X26815Y55185D01*
X26769Y55239D01*
X26715Y55285D01*
X26655Y55322D01*
X26589Y55349D01*
X26521Y55366D01*
X26450Y55371D01*
X26379Y55366D01*
X26311Y55349D01*
X26245Y55322D01*
X26185Y55285D01*
X26131Y55239D01*
X26085Y55185D01*
X26048Y55125D01*
X26021Y55059D01*
X26004Y54991D01*
X25999Y54920D01*
X26004Y54849D01*
X26021Y54781D01*
X26045Y54721D01*
X25979Y54716D01*
X25911Y54699D01*
X25845Y54672D01*
X25785Y54635D01*
X25731Y54589D01*
X25685Y54535D01*
X25648Y54475D01*
X25621Y54409D01*
X25604Y54341D01*
X25599Y54270D01*
X25604Y54199D01*
X25621Y54131D01*
X25648Y54065D01*
X25685Y54005D01*
X25731Y53951D01*
X25785Y53905D01*
X25845Y53868D01*
X25911Y53841D01*
X25979Y53824D01*
X26050Y53819D01*
X26121Y53824D01*
X26189Y53841D01*
X26255Y53868D01*
X26315Y53905D01*
X26369Y53951D01*
X26407Y53995D01*
X26625Y53777D01*
Y52629D01*
X26624Y52620D01*
X26627Y52585D01*
X26635Y52550D01*
X26649Y52518D01*
X26667Y52487D01*
X26667Y52487D01*
X26690Y52460D01*
X26697Y52455D01*
X29685Y49467D01*
X29690Y49460D01*
X29717Y49437D01*
X29717Y49437D01*
X29748Y49419D01*
X29780Y49405D01*
X29815Y49397D01*
X29850Y49394D01*
X29859Y49395D01*
X33757D01*
X33865Y49287D01*
X33854Y49241D01*
X33849Y49170D01*
X33854Y49099D01*
X33871Y49031D01*
X33898Y48965D01*
X33935Y48905D01*
X33981Y48851D01*
X34035Y48805D01*
X34095Y48768D01*
X34161Y48741D01*
X34229Y48724D01*
X34300Y48719D01*
X34371Y48724D01*
X34439Y48741D01*
X34505Y48768D01*
X34565Y48805D01*
X34619Y48851D01*
X34665Y48905D01*
X34702Y48965D01*
X34729Y49031D01*
X34746Y49099D01*
X34750Y49170D01*
X34746Y49241D01*
X34729Y49309D01*
X34702Y49375D01*
X34665Y49435D01*
X34619Y49489D01*
X34565Y49535D01*
X34549Y49545D01*
X34565Y49555D01*
X34619Y49601D01*
X34665Y49655D01*
X34702Y49715D01*
X34729Y49781D01*
X34746Y49849D01*
X34750Y49920D01*
X34746Y49991D01*
X34729Y50059D01*
X34702Y50125D01*
X34665Y50185D01*
X34619Y50239D01*
X34565Y50285D01*
X34505Y50322D01*
X34439Y50349D01*
X34371Y50366D01*
X34300Y50371D01*
X34229Y50366D01*
X34161Y50349D01*
X34095Y50322D01*
X34035Y50285D01*
X33981Y50239D01*
X33935Y50185D01*
X33910Y50145D01*
X30093D01*
X27375Y52863D01*
Y54011D01*
X27376Y54020D01*
X27373Y54055D01*
X27365Y54090D01*
X27351Y54122D01*
X27333Y54153D01*
X27333Y54153D01*
X27310Y54180D01*
X27303Y54185D01*
X27276Y54212D01*
X27285Y54205D01*
X27345Y54168D01*
X27411Y54141D01*
X27479Y54124D01*
X27550Y54119D01*
X27621Y54124D01*
X27689Y54141D01*
X27755Y54168D01*
X27815Y54205D01*
X27869Y54251D01*
X27915Y54305D01*
X27952Y54365D01*
X27979Y54431D01*
X27996Y54499D01*
X28000Y54570D01*
X27996Y54641D01*
X27985Y54687D01*
X28393Y55095D01*
X32857D01*
X32925Y55027D01*
Y53679D01*
X32924Y53670D01*
X32927Y53635D01*
X32935Y53600D01*
X32949Y53568D01*
X32967Y53537D01*
X32967Y53537D01*
X32990Y53510D01*
X32997Y53505D01*
X33485Y53017D01*
X33490Y53010D01*
X33517Y52987D01*
X33517Y52987D01*
X33548Y52969D01*
X33580Y52955D01*
X33615Y52947D01*
X33650Y52944D01*
X33659Y52945D01*
X33957D01*
X33567Y52555D01*
X33521Y52566D01*
X33450Y52571D01*
X33379Y52566D01*
X33311Y52549D01*
X33245Y52522D01*
X33185Y52485D01*
X33131Y52439D01*
X33085Y52385D01*
X33048Y52325D01*
X33021Y52259D01*
X33004Y52191D01*
X32999Y52120D01*
X33004Y52049D01*
X33021Y51981D01*
X33048Y51915D01*
X33085Y51855D01*
X33131Y51801D01*
X33185Y51755D01*
X33245Y51718D01*
X33311Y51691D01*
X33379Y51674D01*
X33450Y51669D01*
X33521Y51674D01*
X33589Y51691D01*
X33655Y51718D01*
X33715Y51755D01*
X33769Y51801D01*
X33815Y51855D01*
X33852Y51915D01*
X33879Y51981D01*
X33896Y52049D01*
X33900Y52120D01*
X33896Y52191D01*
X33885Y52237D01*
X34293Y52645D01*
X34791D01*
X34800Y52644D01*
X34835Y52647D01*
X34870Y52655D01*
X34902Y52669D01*
X34933Y52687D01*
X34960Y52710D01*
X34965Y52717D01*
X36473Y54225D01*
X36539Y54241D01*
X36605Y54268D01*
X36665Y54305D01*
X36719Y54351D01*
X36738Y54373D01*
Y43132D01*
X32000D01*
Y46484D01*
X32019Y46501D01*
X32065Y46555D01*
X32102Y46615D01*
X32129Y46681D01*
X32146Y46749D01*
X32150Y46820D01*
X32146Y46891D01*
X32129Y46959D01*
X32102Y47025D01*
X32065Y47085D01*
X32019Y47139D01*
X31965Y47185D01*
X31905Y47222D01*
X31839Y47249D01*
X31771Y47266D01*
X31700Y47271D01*
X31629Y47266D01*
X31561Y47249D01*
X31495Y47222D01*
X31435Y47185D01*
X31381Y47139D01*
X31335Y47085D01*
X31298Y47025D01*
X31271Y46959D01*
X31254Y46891D01*
X31249Y46820D01*
X31254Y46749D01*
X31271Y46681D01*
X31298Y46615D01*
X31335Y46555D01*
X31381Y46501D01*
X31400Y46484D01*
Y43132D01*
X29930D01*
X29900Y43134D01*
X29780Y43125D01*
X29664Y43097D01*
X29553Y43051D01*
X29451Y42988D01*
X29451Y42988D01*
X29360Y42910D01*
X29340Y42888D01*
X24899Y38447D01*
Y47645D01*
X34191D01*
X34200Y47644D01*
X34235Y47647D01*
X34270Y47655D01*
X34302Y47669D01*
X34333Y47687D01*
X34360Y47710D01*
X34365Y47717D01*
X35153Y48505D01*
X35160Y48510D01*
X35183Y48537D01*
X35183Y48537D01*
X35201Y48568D01*
X35215Y48600D01*
X35223Y48635D01*
X35226Y48670D01*
X35225Y48679D01*
Y50887D01*
X35433Y51095D01*
X35479Y51084D01*
X35550Y51079D01*
X35621Y51084D01*
X35689Y51101D01*
X35755Y51128D01*
X35815Y51165D01*
X35869Y51211D01*
X35915Y51265D01*
X35952Y51325D01*
X35979Y51391D01*
X35996Y51459D01*
X36000Y51530D01*
X35996Y51601D01*
X35979Y51669D01*
X35952Y51735D01*
X35915Y51795D01*
X35869Y51849D01*
X35815Y51895D01*
X35755Y51932D01*
X35689Y51959D01*
X35621Y51976D01*
X35550Y51981D01*
X35479Y51976D01*
X35411Y51959D01*
X35345Y51932D01*
X35285Y51895D01*
X35231Y51849D01*
X35185Y51795D01*
X35148Y51735D01*
X35121Y51669D01*
X35104Y51601D01*
X35099Y51530D01*
X35104Y51459D01*
X35115Y51413D01*
X34847Y51145D01*
X34840Y51140D01*
X34817Y51113D01*
X34799Y51082D01*
X34785Y51050D01*
X34777Y51015D01*
X34774Y50980D01*
X34775Y50971D01*
Y48763D01*
X34107Y48095D01*
X24899D01*
Y49345D01*
X28310D01*
X28335Y49305D01*
X28381Y49251D01*
X28435Y49205D01*
X28495Y49168D01*
X28561Y49141D01*
X28629Y49124D01*
X28700Y49119D01*
X28771Y49124D01*
X28839Y49141D01*
X28905Y49168D01*
X28965Y49205D01*
X29019Y49251D01*
X29065Y49305D01*
X29102Y49365D01*
X29129Y49431D01*
X29146Y49499D01*
X29150Y49570D01*
X29146Y49641D01*
X29129Y49709D01*
X29102Y49775D01*
X29065Y49835D01*
X29019Y49889D01*
X28965Y49935D01*
X28905Y49972D01*
X28839Y49999D01*
X28771Y50016D01*
X28700Y50021D01*
X28629Y50016D01*
X28561Y49999D01*
X28495Y49972D01*
X28435Y49935D01*
X28381Y49889D01*
X28335Y49835D01*
X28310Y49795D01*
X24899D01*
Y55695D01*
G37*
G36*
X42809Y48891D02*X42893Y49029D01*
X42959Y49189D01*
X43000Y49357D01*
X43010Y49530D01*
X43000Y49703D01*
X42981Y49782D01*
X44270Y51071D01*
Y24386D01*
X44110Y24452D01*
X43651Y24562D01*
X43180Y24599D01*
X42809Y24570D01*
Y43879D01*
X42826Y43886D01*
X42846Y43899D01*
X42864Y43914D01*
X42879Y43932D01*
X42891Y43952D01*
X42934Y44046D01*
X42968Y44144D01*
X42992Y44244D01*
X43006Y44347D01*
X43011Y44450D01*
X43006Y44553D01*
X42992Y44656D01*
X42968Y44756D01*
X42934Y44854D01*
X42892Y44948D01*
X42880Y44969D01*
X42864Y44987D01*
X42846Y45002D01*
X42826Y45015D01*
X42809Y45022D01*
Y46351D01*
X42893Y46489D01*
X42959Y46649D01*
X43000Y46817D01*
X43010Y46990D01*
X43000Y47163D01*
X42959Y47331D01*
X42893Y47491D01*
X42809Y47629D01*
Y48891D01*
G37*
G36*
Y24570D02*X42709Y24562D01*
X42250Y24452D01*
X41910Y24311D01*
Y43349D01*
X42013Y43354D01*
X42116Y43368D01*
X42216Y43392D01*
X42314Y43426D01*
X42408Y43468D01*
X42429Y43480D01*
X42447Y43496D01*
X42462Y43514D01*
X42475Y43534D01*
X42484Y43556D01*
X42489Y43579D01*
X42491Y43603D01*
X42489Y43626D01*
X42484Y43649D01*
X42475Y43671D01*
X42462Y43692D01*
X42447Y43710D01*
X42429Y43725D01*
X42409Y43738D01*
X42387Y43747D01*
X42364Y43752D01*
X42340Y43754D01*
X42316Y43752D01*
X42293Y43747D01*
X42272Y43737D01*
X42204Y43706D01*
X42132Y43682D01*
X42059Y43664D01*
X41985Y43654D01*
X41910Y43650D01*
Y45250D01*
X41985Y45246D01*
X42059Y45236D01*
X42132Y45218D01*
X42204Y45194D01*
X42272Y45163D01*
X42294Y45154D01*
X42317Y45149D01*
X42340Y45147D01*
X42364Y45149D01*
X42387Y45154D01*
X42408Y45163D01*
X42429Y45176D01*
X42446Y45191D01*
X42462Y45209D01*
X42474Y45229D01*
X42483Y45251D01*
X42489Y45274D01*
X42490Y45297D01*
X42488Y45321D01*
X42483Y45344D01*
X42474Y45366D01*
X42461Y45386D01*
X42446Y45404D01*
X42428Y45419D01*
X42408Y45431D01*
X42314Y45474D01*
X42216Y45508D01*
X42116Y45532D01*
X42013Y45546D01*
X41910Y45551D01*
Y45887D01*
X42083Y45900D01*
X42251Y45941D01*
X42411Y46007D01*
X42559Y46097D01*
X42690Y46210D01*
X42803Y46341D01*
X42809Y46351D01*
Y45022D01*
X42804Y45024D01*
X42781Y45029D01*
X42757Y45031D01*
X42734Y45029D01*
X42711Y45024D01*
X42689Y45015D01*
X42668Y45002D01*
X42650Y44987D01*
X42635Y44969D01*
X42622Y44949D01*
X42613Y44927D01*
X42608Y44904D01*
X42606Y44880D01*
X42608Y44856D01*
X42613Y44833D01*
X42623Y44812D01*
X42654Y44744D01*
X42678Y44672D01*
X42696Y44599D01*
X42706Y44525D01*
X42710Y44450D01*
X42706Y44375D01*
X42696Y44301D01*
X42678Y44228D01*
X42654Y44156D01*
X42623Y44088D01*
X42614Y44066D01*
X42609Y44043D01*
X42607Y44020D01*
X42609Y43996D01*
X42614Y43973D01*
X42623Y43952D01*
X42636Y43931D01*
X42651Y43914D01*
X42669Y43898D01*
X42689Y43886D01*
X42711Y43877D01*
X42734Y43871D01*
X42757Y43870D01*
X42781Y43872D01*
X42804Y43877D01*
X42809Y43879D01*
Y24570D01*
G37*
G36*
X41910Y48427D02*X42083Y48440D01*
X42251Y48481D01*
X42411Y48547D01*
X42559Y48637D01*
X42690Y48750D01*
X42803Y48881D01*
X42809Y48891D01*
Y47629D01*
X42803Y47639D01*
X42690Y47770D01*
X42559Y47883D01*
X42411Y47973D01*
X42251Y48039D01*
X42083Y48080D01*
X41910Y48093D01*
Y48427D01*
G37*
G36*
Y58587D02*X42083Y58600D01*
X42251Y58641D01*
X42411Y58707D01*
X42559Y58797D01*
X42690Y58910D01*
X42803Y59041D01*
X42893Y59189D01*
X42959Y59349D01*
X42982Y59445D01*
X43760D01*
X43785Y59405D01*
X43831Y59351D01*
X43885Y59305D01*
X43945Y59268D01*
X44011Y59241D01*
X44079Y59224D01*
X44150Y59219D01*
X44221Y59224D01*
X44270Y59236D01*
Y51708D01*
X42774Y50212D01*
X42690Y50310D01*
X42559Y50423D01*
X42411Y50513D01*
X42251Y50579D01*
X42083Y50620D01*
X41910Y50633D01*
Y50967D01*
X42083Y50980D01*
X42251Y51021D01*
X42411Y51087D01*
X42559Y51177D01*
X42690Y51290D01*
X42803Y51421D01*
X42893Y51569D01*
X42959Y51729D01*
X43000Y51897D01*
X43010Y52070D01*
X43000Y52243D01*
X42959Y52411D01*
X42893Y52571D01*
X42803Y52719D01*
X42690Y52850D01*
X42559Y52963D01*
X42411Y53053D01*
X42251Y53119D01*
X42083Y53160D01*
X41910Y53173D01*
Y53507D01*
X42083Y53520D01*
X42251Y53561D01*
X42411Y53627D01*
X42559Y53717D01*
X42690Y53830D01*
X42803Y53961D01*
X42893Y54109D01*
X42959Y54269D01*
X43000Y54437D01*
X43010Y54610D01*
X43000Y54783D01*
X42959Y54951D01*
X42893Y55111D01*
X42803Y55259D01*
X42690Y55390D01*
X42559Y55503D01*
X42411Y55593D01*
X42251Y55659D01*
X42083Y55700D01*
X41910Y55713D01*
Y56047D01*
X42083Y56060D01*
X42251Y56101D01*
X42411Y56167D01*
X42559Y56257D01*
X42690Y56370D01*
X42803Y56501D01*
X42893Y56649D01*
X42959Y56809D01*
X43000Y56977D01*
X43010Y57150D01*
X43000Y57323D01*
X42959Y57491D01*
X42893Y57651D01*
X42803Y57799D01*
X42690Y57930D01*
X42559Y58043D01*
X42411Y58133D01*
X42251Y58199D01*
X42083Y58240D01*
X41910Y58253D01*
Y58587D01*
G37*
G36*
Y73641D02*X42725Y72827D01*
Y65213D01*
X42667Y65155D01*
X42621Y65166D01*
X42550Y65171D01*
X42479Y65166D01*
X42411Y65149D01*
X42345Y65122D01*
X42285Y65085D01*
X42231Y65039D01*
X42185Y64985D01*
X42148Y64925D01*
X42121Y64859D01*
X42104Y64791D01*
X42099Y64720D01*
X42104Y64649D01*
X42121Y64581D01*
X42148Y64515D01*
X42185Y64455D01*
X42231Y64401D01*
X42285Y64355D01*
X42345Y64318D01*
X42411Y64291D01*
X42479Y64274D01*
X42550Y64269D01*
X42621Y64274D01*
X42689Y64291D01*
X42755Y64318D01*
X42815Y64355D01*
X42869Y64401D01*
X42915Y64455D01*
X42952Y64515D01*
X42979Y64581D01*
X42996Y64649D01*
X43000Y64720D01*
X42996Y64791D01*
X42985Y64837D01*
X43103Y64955D01*
X43110Y64960D01*
X43133Y64987D01*
X43133Y64987D01*
X43151Y65018D01*
X43165Y65050D01*
X43173Y65085D01*
X43176Y65120D01*
X43175Y65129D01*
Y65277D01*
X44015Y64437D01*
X44004Y64391D01*
X43999Y64320D01*
X44004Y64249D01*
X44021Y64181D01*
X44048Y64115D01*
X44085Y64055D01*
X44131Y64001D01*
X44185Y63955D01*
X44245Y63918D01*
X44270Y63908D01*
Y60104D01*
X44221Y60116D01*
X44150Y60121D01*
X44079Y60116D01*
X44011Y60099D01*
X43945Y60072D01*
X43885Y60035D01*
X43831Y59989D01*
X43785Y59935D01*
X43760Y59895D01*
X42992D01*
X42959Y60031D01*
X42893Y60191D01*
X42803Y60339D01*
X42690Y60470D01*
X42559Y60583D01*
X42411Y60673D01*
X42251Y60739D01*
X42083Y60780D01*
X41910Y60793D01*
Y61127D01*
X42083Y61140D01*
X42251Y61181D01*
X42411Y61247D01*
X42559Y61337D01*
X42690Y61450D01*
X42803Y61581D01*
X42893Y61729D01*
X42959Y61889D01*
X43000Y62057D01*
X43010Y62230D01*
X43000Y62403D01*
X42959Y62571D01*
X42893Y62731D01*
X42803Y62879D01*
X42690Y63010D01*
X42559Y63123D01*
X42411Y63213D01*
X42251Y63279D01*
X42083Y63320D01*
X41910Y63333D01*
Y67914D01*
X41920Y67915D01*
X42036Y67943D01*
X42147Y67989D01*
X42249Y68052D01*
X42340Y68130D01*
X42418Y68221D01*
X42481Y68323D01*
X42527Y68434D01*
X42555Y68550D01*
X42562Y68670D01*
Y72040D01*
X42564Y72070D01*
X42555Y72190D01*
X42527Y72306D01*
X42481Y72417D01*
X42418Y72519D01*
X42340Y72610D01*
X42318Y72630D01*
X41910Y73037D01*
Y73641D01*
G37*
G36*
X41011Y71781D02*X41038Y71754D01*
Y68670D01*
X41045Y68550D01*
X41073Y68434D01*
X41119Y68323D01*
X41182Y68221D01*
X41260Y68130D01*
X41351Y68052D01*
X41453Y67989D01*
X41564Y67943D01*
X41680Y67915D01*
X41800Y67906D01*
X41910Y67914D01*
Y63333D01*
X41910Y63333D01*
X41737Y63320D01*
X41569Y63279D01*
X41409Y63213D01*
X41261Y63123D01*
X41130Y63010D01*
X41017Y62879D01*
X41011Y62869D01*
Y71781D01*
G37*
G36*
Y19510D02*X41052Y19462D01*
X41011Y19421D01*
Y19510D01*
G37*
G36*
Y46351D02*X41017Y46341D01*
X41130Y46210D01*
X41261Y46097D01*
X41409Y46007D01*
X41569Y45941D01*
X41737Y45900D01*
X41910Y45887D01*
X41910Y45887D01*
Y45551D01*
X41910Y45551D01*
X41807Y45546D01*
X41704Y45532D01*
X41604Y45508D01*
X41506Y45474D01*
X41412Y45432D01*
X41391Y45420D01*
X41373Y45404D01*
X41358Y45386D01*
X41345Y45366D01*
X41336Y45344D01*
X41331Y45321D01*
X41329Y45297D01*
X41331Y45274D01*
X41336Y45251D01*
X41345Y45229D01*
X41358Y45208D01*
X41373Y45190D01*
X41391Y45175D01*
X41411Y45162D01*
X41433Y45153D01*
X41456Y45148D01*
X41480Y45146D01*
X41504Y45148D01*
X41527Y45153D01*
X41548Y45163D01*
X41616Y45194D01*
X41688Y45218D01*
X41761Y45236D01*
X41835Y45246D01*
X41910Y45250D01*
X41910Y45250D01*
Y43650D01*
X41910Y43650D01*
X41835Y43654D01*
X41761Y43664D01*
X41688Y43682D01*
X41616Y43706D01*
X41548Y43737D01*
X41526Y43746D01*
X41503Y43751D01*
X41480Y43753D01*
X41456Y43751D01*
X41433Y43746D01*
X41412Y43737D01*
X41391Y43724D01*
X41374Y43709D01*
X41358Y43691D01*
X41346Y43671D01*
X41337Y43649D01*
X41331Y43626D01*
X41330Y43603D01*
X41332Y43579D01*
X41337Y43556D01*
X41346Y43534D01*
X41359Y43514D01*
X41374Y43496D01*
X41392Y43481D01*
X41412Y43469D01*
X41506Y43426D01*
X41604Y43392D01*
X41704Y43368D01*
X41807Y43354D01*
X41910Y43349D01*
X41910Y43349D01*
Y24311D01*
X41814Y24271D01*
X41411Y24025D01*
X41052Y23718D01*
X41011Y23670D01*
Y43878D01*
X41016Y43876D01*
X41039Y43871D01*
X41063Y43869D01*
X41086Y43871D01*
X41109Y43876D01*
X41131Y43885D01*
X41152Y43898D01*
X41170Y43913D01*
X41185Y43931D01*
X41198Y43951D01*
X41207Y43973D01*
X41212Y43996D01*
X41214Y44020D01*
X41212Y44044D01*
X41207Y44067D01*
X41197Y44088D01*
X41166Y44156D01*
X41142Y44228D01*
X41124Y44301D01*
X41114Y44375D01*
X41110Y44450D01*
X41114Y44525D01*
X41124Y44599D01*
X41142Y44672D01*
X41166Y44744D01*
X41197Y44812D01*
X41206Y44834D01*
X41211Y44857D01*
X41213Y44880D01*
X41211Y44904D01*
X41206Y44927D01*
X41197Y44948D01*
X41184Y44969D01*
X41169Y44986D01*
X41151Y45002D01*
X41131Y45014D01*
X41109Y45023D01*
X41086Y45029D01*
X41063Y45030D01*
X41039Y45028D01*
X41016Y45023D01*
X41011Y45021D01*
Y46351D01*
G37*
G36*
Y48891D02*X41017Y48881D01*
X41130Y48750D01*
X41261Y48637D01*
X41409Y48547D01*
X41569Y48481D01*
X41737Y48440D01*
X41910Y48427D01*
X41910Y48427D01*
Y48093D01*
X41910Y48093D01*
X41737Y48080D01*
X41569Y48039D01*
X41409Y47973D01*
X41261Y47883D01*
X41130Y47770D01*
X41017Y47639D01*
X41011Y47629D01*
Y48891D01*
G37*
G36*
Y51431D02*X41017Y51421D01*
X41130Y51290D01*
X41261Y51177D01*
X41409Y51087D01*
X41569Y51021D01*
X41737Y50980D01*
X41910Y50967D01*
X41910Y50967D01*
Y50633D01*
X41910Y50633D01*
X41737Y50620D01*
X41569Y50579D01*
X41409Y50513D01*
X41261Y50423D01*
X41130Y50310D01*
X41017Y50179D01*
X41011Y50169D01*
Y51431D01*
G37*
G36*
Y53971D02*X41017Y53961D01*
X41130Y53830D01*
X41261Y53717D01*
X41409Y53627D01*
X41569Y53561D01*
X41737Y53520D01*
X41910Y53507D01*
X41910Y53507D01*
Y53173D01*
X41910Y53173D01*
X41737Y53160D01*
X41569Y53119D01*
X41409Y53053D01*
X41261Y52963D01*
X41130Y52850D01*
X41017Y52719D01*
X41011Y52709D01*
Y53971D01*
G37*
G36*
Y56511D02*X41017Y56501D01*
X41130Y56370D01*
X41261Y56257D01*
X41409Y56167D01*
X41569Y56101D01*
X41737Y56060D01*
X41910Y56047D01*
X41910Y56047D01*
Y55713D01*
X41910Y55713D01*
X41737Y55700D01*
X41569Y55659D01*
X41409Y55593D01*
X41261Y55503D01*
X41130Y55390D01*
X41017Y55259D01*
X41011Y55249D01*
Y56511D01*
G37*
G36*
Y59051D02*X41017Y59041D01*
X41130Y58910D01*
X41261Y58797D01*
X41409Y58707D01*
X41569Y58641D01*
X41737Y58600D01*
X41910Y58587D01*
X41910Y58587D01*
Y58253D01*
X41910Y58253D01*
X41737Y58240D01*
X41569Y58199D01*
X41409Y58133D01*
X41261Y58043D01*
X41130Y57930D01*
X41017Y57799D01*
X41011Y57789D01*
Y59051D01*
G37*
G36*
X41910Y60793D02*X41910Y60793D01*
X41737Y60780D01*
X41569Y60739D01*
X41409Y60673D01*
X41261Y60583D01*
X41130Y60470D01*
X41017Y60339D01*
X41011Y60329D01*
Y61591D01*
X41017Y61581D01*
X41130Y61450D01*
X41261Y61337D01*
X41409Y61247D01*
X41569Y61181D01*
X41737Y61140D01*
X41910Y61127D01*
X41910Y61127D01*
Y60793D01*
G37*
G36*
X41011Y60329D02*X40927Y60191D01*
X40861Y60031D01*
X40820Y59863D01*
X40807Y59690D01*
X40820Y59517D01*
X40861Y59349D01*
X40927Y59189D01*
X41011Y59051D01*
Y57789D01*
X40927Y57651D01*
X40861Y57491D01*
X40820Y57323D01*
X40807Y57150D01*
X40820Y56977D01*
X40861Y56809D01*
X40927Y56649D01*
X41011Y56511D01*
Y55249D01*
X40927Y55111D01*
X40861Y54951D01*
X40820Y54783D01*
X40807Y54610D01*
X40820Y54437D01*
X40861Y54269D01*
X40927Y54109D01*
X41011Y53971D01*
Y52709D01*
X40927Y52571D01*
X40861Y52411D01*
X40820Y52243D01*
X40807Y52070D01*
X40820Y51897D01*
X40861Y51729D01*
X40927Y51569D01*
X41011Y51431D01*
Y50169D01*
X40927Y50031D01*
X40861Y49871D01*
X40820Y49703D01*
X40807Y49530D01*
X40820Y49357D01*
X40861Y49189D01*
X40927Y49029D01*
X41011Y48891D01*
Y47629D01*
X40927Y47491D01*
X40861Y47331D01*
X40820Y47163D01*
X40807Y46990D01*
X40820Y46817D01*
X40861Y46649D01*
X40927Y46489D01*
X41011Y46351D01*
Y45021D01*
X40994Y45014D01*
X40974Y45001D01*
X40956Y44986D01*
X40941Y44968D01*
X40929Y44948D01*
X40886Y44854D01*
X40852Y44756D01*
X40828Y44656D01*
X40814Y44553D01*
X40809Y44450D01*
X40814Y44347D01*
X40828Y44244D01*
X40852Y44144D01*
X40886Y44046D01*
X40928Y43952D01*
X40940Y43931D01*
X40956Y43913D01*
X40974Y43898D01*
X40994Y43885D01*
X41011Y43878D01*
Y23670D01*
X40745Y23359D01*
X40499Y22956D01*
X40318Y22520D01*
X40208Y22061D01*
X40171Y21590D01*
X40208Y21119D01*
X40318Y20660D01*
X40499Y20224D01*
X40745Y19821D01*
X41011Y19510D01*
Y19421D01*
X40640Y19050D01*
X34243D01*
X34316Y19226D01*
X34367Y19440D01*
X34380Y19660D01*
X34367Y19880D01*
X34316Y20094D01*
X34231Y20298D01*
X34116Y20485D01*
X33973Y20653D01*
X33805Y20796D01*
X33618Y20911D01*
X33414Y20996D01*
X33200Y21047D01*
X32980Y21064D01*
X32760Y21047D01*
X32546Y20996D01*
X32342Y20911D01*
X32155Y20796D01*
X31987Y20653D01*
X31844Y20485D01*
X31730Y20300D01*
X31616Y20485D01*
X31473Y20653D01*
X31305Y20796D01*
X31118Y20911D01*
X30914Y20996D01*
X30700Y21047D01*
X30480Y21064D01*
X30478Y21064D01*
Y21456D01*
X30480Y21456D01*
X30700Y21473D01*
X30914Y21524D01*
X31118Y21609D01*
X31305Y21724D01*
X31473Y21867D01*
X31616Y22035D01*
X31730Y22220D01*
X31844Y22035D01*
X31987Y21867D01*
X32155Y21724D01*
X32342Y21609D01*
X32546Y21524D01*
X32760Y21473D01*
X32980Y21456D01*
X33200Y21473D01*
X33414Y21524D01*
X33618Y21609D01*
X33805Y21724D01*
X33973Y21867D01*
X34116Y22035D01*
X34231Y22222D01*
X34316Y22426D01*
X34367Y22640D01*
X34380Y22860D01*
X34367Y23080D01*
X34316Y23294D01*
X34231Y23498D01*
X34116Y23685D01*
X33973Y23853D01*
X33805Y23996D01*
X33618Y24111D01*
X33414Y24196D01*
X33200Y24247D01*
X32980Y24264D01*
X32760Y24247D01*
X32546Y24196D01*
X32342Y24111D01*
X32155Y23996D01*
X31987Y23853D01*
X31844Y23685D01*
X31730Y23500D01*
X31616Y23685D01*
X31473Y23853D01*
X31305Y23996D01*
X31118Y24111D01*
X30914Y24196D01*
X30700Y24247D01*
X30480Y24264D01*
X30478Y24264D01*
Y25836D01*
X30480Y25835D01*
X30715Y25854D01*
X30945Y25909D01*
X31163Y25999D01*
X31364Y26123D01*
X31544Y26276D01*
X31697Y26456D01*
X31821Y26657D01*
X31911Y26875D01*
X31966Y27105D01*
X31980Y27340D01*
X31966Y27575D01*
X31911Y27805D01*
X31821Y28023D01*
X31697Y28224D01*
X31544Y28404D01*
X31364Y28557D01*
X31163Y28681D01*
X30945Y28771D01*
X30715Y28826D01*
X30480Y28845D01*
X30478Y28844D01*
Y41608D01*
X36737D01*
X36745Y41500D01*
X36773Y41384D01*
X36819Y41273D01*
X36882Y41171D01*
X36960Y41080D01*
X37051Y41002D01*
X37153Y40939D01*
X37264Y40893D01*
X37380Y40865D01*
X37500Y40856D01*
X37530Y40858D01*
X38220D01*
X38250Y40856D01*
X38370Y40865D01*
X38486Y40893D01*
X38597Y40939D01*
X38699Y41002D01*
X38790Y41080D01*
X38868Y41171D01*
X38931Y41273D01*
X38977Y41384D01*
X39005Y41500D01*
X39014Y41620D01*
X39012Y41650D01*
Y42340D01*
X39014Y42370D01*
X39012Y42400D01*
Y53388D01*
X39045Y53368D01*
X39111Y53341D01*
X39179Y53324D01*
X39250Y53319D01*
X39321Y53324D01*
X39389Y53341D01*
X39455Y53368D01*
X39515Y53405D01*
X39569Y53451D01*
X39615Y53505D01*
X39652Y53565D01*
X39679Y53631D01*
X39696Y53699D01*
X39700Y53770D01*
X39696Y53841D01*
X39679Y53909D01*
X39652Y53975D01*
X39615Y54035D01*
X39569Y54089D01*
X39515Y54135D01*
X39455Y54172D01*
X39389Y54199D01*
X39321Y54216D01*
X39250Y54221D01*
X39179Y54216D01*
X39111Y54199D01*
X39045Y54172D01*
X39012Y54152D01*
Y55040D01*
X39014Y55070D01*
X39012Y55100D01*
Y57540D01*
X39014Y57570D01*
X39012Y57600D01*
Y70240D01*
X39014Y70270D01*
X39005Y70390D01*
X38977Y70506D01*
X38931Y70617D01*
X38868Y70719D01*
X38790Y70810D01*
X38768Y70830D01*
X36960Y72638D01*
X36940Y72660D01*
X36849Y72738D01*
X36747Y72801D01*
X36636Y72847D01*
X36520Y72875D01*
X36400Y72884D01*
X36370Y72882D01*
X36209D01*
X36229Y72931D01*
X36246Y72999D01*
X36250Y73070D01*
X36246Y73141D01*
X36229Y73209D01*
X36202Y73275D01*
X36165Y73335D01*
X36119Y73389D01*
X36065Y73435D01*
X36005Y73472D01*
X35939Y73499D01*
X35871Y73516D01*
X35800Y73521D01*
X35729Y73516D01*
X35661Y73499D01*
X35595Y73472D01*
X35535Y73435D01*
X35481Y73389D01*
X35435Y73335D01*
X35410Y73295D01*
X31100D01*
X31155Y73318D01*
X31215Y73355D01*
X31269Y73401D01*
X31315Y73455D01*
X31352Y73515D01*
X31379Y73581D01*
X31396Y73649D01*
X31400Y73720D01*
X31396Y73791D01*
X31379Y73859D01*
X31352Y73925D01*
X31315Y73985D01*
X31269Y74039D01*
X31215Y74085D01*
X31155Y74122D01*
X31089Y74149D01*
X31021Y74166D01*
X30950Y74171D01*
X30879Y74166D01*
X30811Y74149D01*
X30745Y74122D01*
X30685Y74085D01*
X30631Y74039D01*
X30585Y73985D01*
X30560Y73945D01*
X30478D01*
Y76458D01*
X36334D01*
X41011Y71781D01*
Y62869D01*
X40927Y62731D01*
X40861Y62571D01*
X40820Y62403D01*
X40807Y62230D01*
X40820Y62057D01*
X40861Y61889D01*
X40927Y61729D01*
X41011Y61591D01*
Y60329D01*
G37*
G36*
X39767Y78885D02*X40075Y78577D01*
Y75579D01*
X40074Y75570D01*
X40077Y75535D01*
X40085Y75500D01*
X40099Y75468D01*
X40117Y75437D01*
X40117Y75437D01*
X40140Y75410D01*
X40147Y75405D01*
X41910Y73641D01*
Y73037D01*
X39401Y75547D01*
X39954Y76100D01*
X39963Y76107D01*
X39993Y76143D01*
X39993Y76143D01*
X40018Y76183D01*
X40036Y76227D01*
X40047Y76273D01*
X40051Y76320D01*
X40050Y76332D01*
Y78158D01*
X40051Y78170D01*
X40047Y78217D01*
X40036Y78263D01*
X40018Y78307D01*
X39993Y78347D01*
X39993Y78347D01*
X39963Y78383D01*
X39954Y78390D01*
X39397Y78947D01*
X39445Y78918D01*
X39511Y78891D01*
X39579Y78874D01*
X39650Y78869D01*
X39721Y78874D01*
X39767Y78885D01*
G37*
G36*
X30478Y73945D02*X24899D01*
Y76458D01*
X30478D01*
Y73945D01*
G37*
G36*
Y21064D02*X30260Y21047D01*
X30046Y20996D01*
X29842Y20911D01*
X29655Y20796D01*
X29487Y20653D01*
X29344Y20485D01*
X29230Y20300D01*
X29116Y20485D01*
X28973Y20653D01*
X28805Y20796D01*
X28618Y20911D01*
X28414Y20996D01*
X28200Y21047D01*
X27980Y21064D01*
X27760Y21047D01*
X27546Y20996D01*
X27342Y20911D01*
X27155Y20796D01*
X26987Y20653D01*
X26844Y20485D01*
X26729Y20298D01*
X26644Y20094D01*
X26593Y19880D01*
X26576Y19660D01*
X26593Y19440D01*
X26644Y19226D01*
X26717Y19050D01*
X24899D01*
Y36289D01*
X24900Y36290D01*
X24920Y36312D01*
X30216Y41608D01*
X30478D01*
Y28844D01*
X30245Y28826D01*
X30015Y28771D01*
X29797Y28681D01*
X29596Y28557D01*
X29416Y28404D01*
X29263Y28224D01*
X29139Y28023D01*
X29049Y27805D01*
X28994Y27575D01*
X28975Y27340D01*
X28994Y27105D01*
X29049Y26875D01*
X29139Y26657D01*
X29263Y26456D01*
X29416Y26276D01*
X29596Y26123D01*
X29797Y25999D01*
X30015Y25909D01*
X30245Y25854D01*
X30478Y25836D01*
Y24264D01*
X30260Y24247D01*
X30046Y24196D01*
X29842Y24111D01*
X29655Y23996D01*
X29487Y23853D01*
X29344Y23685D01*
X29230Y23500D01*
X29116Y23685D01*
X28973Y23853D01*
X28805Y23996D01*
X28618Y24111D01*
X28414Y24196D01*
X28200Y24247D01*
X27980Y24264D01*
X27760Y24247D01*
X27546Y24196D01*
X27342Y24111D01*
X27155Y23996D01*
X26987Y23853D01*
X26844Y23685D01*
X26729Y23498D01*
X26644Y23294D01*
X26593Y23080D01*
X26576Y22860D01*
X26593Y22640D01*
X26644Y22426D01*
X26729Y22222D01*
X26844Y22035D01*
X26987Y21867D01*
X27155Y21724D01*
X27342Y21609D01*
X27546Y21524D01*
X27760Y21473D01*
X27980Y21456D01*
X28200Y21473D01*
X28414Y21524D01*
X28618Y21609D01*
X28805Y21724D01*
X28973Y21867D01*
X29116Y22035D01*
X29230Y22220D01*
X29344Y22035D01*
X29487Y21867D01*
X29655Y21724D01*
X29842Y21609D01*
X30046Y21524D01*
X30260Y21473D01*
X30478Y21456D01*
Y21064D01*
G37*
G36*
X24899Y73945D02*X23959D01*
X23950Y73946D01*
X23915Y73943D01*
X23880Y73935D01*
X23848Y73921D01*
X23817Y73903D01*
X23817Y73903D01*
X23790Y73880D01*
X23785Y73873D01*
X21567Y71655D01*
X21521Y71666D01*
X21450Y71671D01*
X21379Y71666D01*
X21311Y71649D01*
X21245Y71622D01*
X21185Y71585D01*
X21131Y71539D01*
X21085Y71485D01*
X21048Y71425D01*
X21021Y71359D01*
X21004Y71291D01*
X20999Y71220D01*
X21004Y71149D01*
X21021Y71081D01*
X21048Y71015D01*
X21085Y70955D01*
X21131Y70901D01*
X21185Y70855D01*
X21245Y70818D01*
X21311Y70791D01*
X21379Y70774D01*
X21450Y70769D01*
X21521Y70774D01*
X21589Y70791D01*
X21655Y70818D01*
X21715Y70855D01*
X21769Y70901D01*
X21815Y70955D01*
X21852Y71015D01*
X21879Y71081D01*
X21896Y71149D01*
X21900Y71220D01*
X21896Y71291D01*
X21885Y71337D01*
X24043Y73495D01*
X24899D01*
Y72788D01*
X21567Y69455D01*
X21521Y69466D01*
X21450Y69471D01*
X21379Y69466D01*
X21311Y69449D01*
X21245Y69422D01*
X21185Y69385D01*
X21131Y69339D01*
X21085Y69285D01*
X21048Y69225D01*
X21021Y69159D01*
X21004Y69091D01*
X20999Y69020D01*
X21004Y68949D01*
X21021Y68881D01*
X21048Y68815D01*
X21085Y68755D01*
X21131Y68701D01*
X21185Y68655D01*
X21245Y68618D01*
X21311Y68591D01*
X21379Y68574D01*
X21450Y68569D01*
X21521Y68574D01*
X21589Y68591D01*
X21655Y68618D01*
X21715Y68655D01*
X21769Y68701D01*
X21815Y68755D01*
X21852Y68815D01*
X21879Y68881D01*
X21896Y68949D01*
X21900Y69020D01*
X21896Y69091D01*
X21885Y69137D01*
X24899Y72151D01*
Y65045D01*
X17809D01*
X17800Y65046D01*
X17765Y65043D01*
X17730Y65035D01*
X17698Y65021D01*
X17667Y65003D01*
X17667Y65003D01*
X17640Y64980D01*
X17635Y64973D01*
X16662Y64000D01*
Y71854D01*
X21266Y76458D01*
X24899D01*
Y73945D01*
G37*
G36*
X18923Y38271D02*X19770Y38273D01*
X19816Y38284D01*
X19860Y38302D01*
X19900Y38327D01*
X19936Y38357D01*
X19966Y38393D01*
X19991Y38433D01*
X20009Y38477D01*
X20020Y38523D01*
X20023Y38570D01*
X20020Y40149D01*
X20653Y40782D01*
X20660Y40787D01*
X20683Y40814D01*
X20683Y40814D01*
X20701Y40845D01*
X20715Y40877D01*
X20723Y40912D01*
X20726Y40947D01*
X20725Y40956D01*
Y47861D01*
X20726Y47870D01*
X20723Y47905D01*
X20715Y47940D01*
X20701Y47972D01*
X20683Y48003D01*
X20683Y48003D01*
X20660Y48030D01*
X20653Y48035D01*
X20265Y48423D01*
X20260Y48430D01*
X20233Y48453D01*
X20233Y48453D01*
X20202Y48471D01*
X20170Y48485D01*
X20135Y48493D01*
X20100Y48496D01*
X20091Y48495D01*
X19426D01*
X19551Y48547D01*
X19699Y48637D01*
X19830Y48750D01*
X19943Y48881D01*
X20033Y49029D01*
X20099Y49189D01*
X20140Y49357D01*
X20150Y49530D01*
X20140Y49703D01*
X20099Y49871D01*
X20033Y50031D01*
X19971Y50133D01*
X20603Y50765D01*
X20610Y50770D01*
X20633Y50797D01*
X20633Y50797D01*
X20651Y50828D01*
X20665Y50860D01*
X20673Y50895D01*
X20676Y50930D01*
X20675Y50939D01*
Y52877D01*
X22893Y55095D01*
X23991D01*
X24000Y55094D01*
X24035Y55097D01*
X24070Y55105D01*
X24102Y55119D01*
X24133Y55137D01*
X24160Y55160D01*
X24165Y55167D01*
X24693Y55695D01*
X24899D01*
Y49795D01*
X21490D01*
X21465Y49835D01*
X21419Y49889D01*
X21365Y49935D01*
X21305Y49972D01*
X21239Y49999D01*
X21171Y50016D01*
X21100Y50021D01*
X21029Y50016D01*
X20961Y49999D01*
X20895Y49972D01*
X20835Y49935D01*
X20781Y49889D01*
X20735Y49835D01*
X20698Y49775D01*
X20671Y49709D01*
X20654Y49641D01*
X20649Y49570D01*
X20654Y49499D01*
X20671Y49431D01*
X20698Y49365D01*
X20735Y49305D01*
X20781Y49251D01*
X20835Y49205D01*
X20895Y49168D01*
X20961Y49141D01*
X21029Y49124D01*
X21100Y49119D01*
X21171Y49124D01*
X21239Y49141D01*
X21305Y49168D01*
X21365Y49205D01*
X21419Y49251D01*
X21465Y49305D01*
X21490Y49345D01*
X24899D01*
Y48095D01*
X23493D01*
X23278Y48311D01*
X23315Y48355D01*
X23352Y48415D01*
X23379Y48481D01*
X23396Y48549D01*
X23400Y48620D01*
X23396Y48691D01*
X23379Y48759D01*
X23352Y48825D01*
X23315Y48885D01*
X23269Y48939D01*
X23215Y48985D01*
X23155Y49022D01*
X23089Y49049D01*
X23021Y49066D01*
X22950Y49071D01*
X22879Y49066D01*
X22811Y49049D01*
X22745Y49022D01*
X22685Y48985D01*
X22631Y48939D01*
X22585Y48885D01*
X22548Y48825D01*
X22521Y48759D01*
X22504Y48691D01*
X22499Y48620D01*
X22504Y48549D01*
X22521Y48481D01*
X22548Y48415D01*
X22585Y48355D01*
X22631Y48301D01*
X22685Y48255D01*
X22745Y48218D01*
X22750Y48216D01*
X22767Y48187D01*
X22767Y48187D01*
X22790Y48160D01*
X22797Y48155D01*
X23235Y47717D01*
X23240Y47710D01*
X23267Y47687D01*
X23267Y47687D01*
X23298Y47669D01*
X23330Y47655D01*
X23365Y47647D01*
X23400Y47644D01*
X23409Y47645D01*
X24899D01*
Y38447D01*
X24044Y37592D01*
X19973D01*
X19957Y37610D01*
X19826Y37723D01*
X19678Y37813D01*
X19518Y37879D01*
X19350Y37920D01*
X19177Y37933D01*
X19004Y37920D01*
X18923Y37900D01*
Y38271D01*
G37*
G36*
X19949Y46351D02*X20033Y46489D01*
X20099Y46649D01*
X20140Y46817D01*
X20150Y46990D01*
X20140Y47163D01*
X20099Y47331D01*
X20033Y47491D01*
X19949Y47629D01*
Y48045D01*
X20007D01*
X20275Y47777D01*
Y41040D01*
X19949Y40714D01*
Y43879D01*
X19966Y43886D01*
X19986Y43899D01*
X20004Y43914D01*
X20019Y43932D01*
X20031Y43952D01*
X20074Y44046D01*
X20108Y44144D01*
X20132Y44244D01*
X20146Y44347D01*
X20151Y44450D01*
X20146Y44553D01*
X20132Y44656D01*
X20108Y44756D01*
X20074Y44854D01*
X20032Y44948D01*
X20020Y44969D01*
X20004Y44987D01*
X19986Y45002D01*
X19966Y45015D01*
X19949Y45022D01*
Y46351D01*
G37*
G36*
Y47629D02*X19943Y47639D01*
X19830Y47770D01*
X19699Y47883D01*
X19551Y47973D01*
X19391Y48039D01*
X19368Y48045D01*
X19949D01*
Y47629D01*
G37*
G36*
X18923Y45897D02*X19050Y45887D01*
X19223Y45900D01*
X19391Y45941D01*
X19551Y46007D01*
X19699Y46097D01*
X19830Y46210D01*
X19943Y46341D01*
X19949Y46351D01*
Y45022D01*
X19944Y45024D01*
X19921Y45029D01*
X19897Y45031D01*
X19874Y45029D01*
X19851Y45024D01*
X19829Y45015D01*
X19808Y45002D01*
X19790Y44987D01*
X19775Y44969D01*
X19762Y44949D01*
X19753Y44927D01*
X19748Y44904D01*
X19746Y44880D01*
X19748Y44856D01*
X19753Y44833D01*
X19763Y44812D01*
X19794Y44744D01*
X19818Y44672D01*
X19836Y44599D01*
X19846Y44525D01*
X19850Y44450D01*
X19846Y44375D01*
X19836Y44301D01*
X19818Y44228D01*
X19794Y44156D01*
X19763Y44088D01*
X19754Y44066D01*
X19749Y44043D01*
X19747Y44020D01*
X19749Y43996D01*
X19754Y43973D01*
X19763Y43952D01*
X19776Y43931D01*
X19791Y43914D01*
X19809Y43898D01*
X19829Y43886D01*
X19851Y43877D01*
X19874Y43871D01*
X19897Y43870D01*
X19921Y43872D01*
X19944Y43877D01*
X19949Y43879D01*
Y40714D01*
X19705Y40470D01*
X18923Y40469D01*
Y43357D01*
X18947Y43354D01*
X19050Y43349D01*
X19153Y43354D01*
X19256Y43368D01*
X19356Y43392D01*
X19454Y43426D01*
X19548Y43468D01*
X19569Y43480D01*
X19587Y43496D01*
X19602Y43514D01*
X19615Y43534D01*
X19624Y43556D01*
X19629Y43579D01*
X19631Y43603D01*
X19629Y43626D01*
X19624Y43649D01*
X19615Y43671D01*
X19602Y43692D01*
X19587Y43710D01*
X19569Y43725D01*
X19549Y43738D01*
X19527Y43747D01*
X19504Y43752D01*
X19480Y43754D01*
X19456Y43752D01*
X19433Y43747D01*
X19412Y43737D01*
X19344Y43706D01*
X19272Y43682D01*
X19199Y43664D01*
X19125Y43654D01*
X19050Y43650D01*
X18975Y43654D01*
X18923Y43661D01*
Y45239D01*
X18975Y45246D01*
X19050Y45250D01*
X19125Y45246D01*
X19199Y45236D01*
X19272Y45218D01*
X19344Y45194D01*
X19412Y45163D01*
X19434Y45154D01*
X19457Y45149D01*
X19480Y45147D01*
X19504Y45149D01*
X19527Y45154D01*
X19548Y45163D01*
X19569Y45176D01*
X19586Y45191D01*
X19602Y45209D01*
X19614Y45229D01*
X19623Y45251D01*
X19629Y45274D01*
X19630Y45297D01*
X19628Y45321D01*
X19623Y45344D01*
X19614Y45366D01*
X19601Y45386D01*
X19586Y45404D01*
X19568Y45419D01*
X19548Y45431D01*
X19454Y45474D01*
X19356Y45508D01*
X19256Y45532D01*
X19153Y45546D01*
X19050Y45551D01*
X18947Y45546D01*
X18923Y45543D01*
Y45897D01*
G37*
G36*
X24899Y19050D02*X20320D01*
X19908Y19462D01*
X20215Y19821D01*
X20461Y20224D01*
X20642Y20660D01*
X20752Y21119D01*
X20780Y21590D01*
X20752Y22061D01*
X20642Y22520D01*
X20461Y22956D01*
X20215Y23359D01*
X19908Y23718D01*
X19822Y23792D01*
Y25775D01*
X19826Y25777D01*
X19957Y25890D01*
X20070Y26021D01*
X20160Y26169D01*
X20226Y26329D01*
X20267Y26497D01*
X20277Y26670D01*
X20267Y26843D01*
X20226Y27011D01*
X20160Y27171D01*
X20070Y27319D01*
X19957Y27450D01*
X19826Y27563D01*
X19822Y27565D01*
Y28571D01*
X19906Y28709D01*
X19972Y28869D01*
X20013Y29037D01*
X20023Y29210D01*
X20013Y29383D01*
X19972Y29551D01*
X19906Y29711D01*
X19822Y29849D01*
Y30855D01*
X19826Y30857D01*
X19957Y30970D01*
X20070Y31101D01*
X20160Y31249D01*
X20226Y31409D01*
X20267Y31577D01*
X20277Y31750D01*
X20267Y31923D01*
X20226Y32091D01*
X20160Y32251D01*
X20070Y32399D01*
X19957Y32530D01*
X19826Y32643D01*
X19822Y32645D01*
Y33719D01*
X19839Y33726D01*
X19859Y33739D01*
X19877Y33754D01*
X19892Y33772D01*
X19904Y33792D01*
X19947Y33886D01*
X19981Y33984D01*
X20005Y34084D01*
X20019Y34187D01*
X20024Y34290D01*
X20019Y34393D01*
X20005Y34496D01*
X19981Y34596D01*
X19947Y34694D01*
X19905Y34788D01*
X19893Y34809D01*
X19877Y34827D01*
X19859Y34842D01*
X19839Y34855D01*
X19822Y34862D01*
Y35935D01*
X19826Y35937D01*
X19957Y36050D01*
X19973Y36068D01*
X24330D01*
X24360Y36066D01*
X24480Y36075D01*
X24480Y36075D01*
X24596Y36103D01*
X24707Y36149D01*
X24809Y36212D01*
X24899Y36289D01*
Y19050D01*
G37*
G36*
X19822Y32645D02*X19678Y32733D01*
X19518Y32799D01*
X19350Y32840D01*
X19177Y32853D01*
X19004Y32840D01*
X18923Y32820D01*
Y33189D01*
X19026Y33194D01*
X19129Y33208D01*
X19229Y33232D01*
X19327Y33266D01*
X19421Y33308D01*
X19442Y33320D01*
X19460Y33336D01*
X19475Y33354D01*
X19488Y33374D01*
X19497Y33396D01*
X19502Y33419D01*
X19504Y33443D01*
X19502Y33466D01*
X19497Y33489D01*
X19488Y33511D01*
X19475Y33532D01*
X19460Y33550D01*
X19442Y33565D01*
X19422Y33578D01*
X19400Y33587D01*
X19377Y33592D01*
X19353Y33594D01*
X19329Y33592D01*
X19306Y33587D01*
X19285Y33577D01*
X19217Y33546D01*
X19145Y33522D01*
X19072Y33504D01*
X18998Y33494D01*
X18923Y33490D01*
Y35090D01*
X18998Y35086D01*
X19072Y35076D01*
X19145Y35058D01*
X19217Y35034D01*
X19285Y35003D01*
X19307Y34994D01*
X19330Y34989D01*
X19353Y34987D01*
X19377Y34989D01*
X19400Y34994D01*
X19421Y35003D01*
X19442Y35016D01*
X19459Y35031D01*
X19475Y35049D01*
X19487Y35069D01*
X19496Y35091D01*
X19502Y35114D01*
X19503Y35137D01*
X19501Y35161D01*
X19496Y35184D01*
X19487Y35206D01*
X19474Y35226D01*
X19459Y35244D01*
X19441Y35259D01*
X19421Y35271D01*
X19327Y35314D01*
X19229Y35348D01*
X19129Y35372D01*
X19026Y35386D01*
X18923Y35391D01*
Y35760D01*
X19004Y35740D01*
X19177Y35727D01*
X19350Y35740D01*
X19518Y35781D01*
X19678Y35847D01*
X19822Y35935D01*
Y34862D01*
X19817Y34864D01*
X19794Y34869D01*
X19770Y34871D01*
X19747Y34869D01*
X19724Y34864D01*
X19702Y34855D01*
X19681Y34842D01*
X19663Y34827D01*
X19648Y34809D01*
X19635Y34789D01*
X19626Y34767D01*
X19621Y34744D01*
X19619Y34720D01*
X19621Y34696D01*
X19626Y34673D01*
X19636Y34652D01*
X19667Y34584D01*
X19691Y34512D01*
X19709Y34439D01*
X19719Y34365D01*
X19723Y34290D01*
X19719Y34215D01*
X19709Y34141D01*
X19691Y34068D01*
X19667Y33996D01*
X19636Y33928D01*
X19627Y33906D01*
X19622Y33883D01*
X19620Y33860D01*
X19622Y33836D01*
X19627Y33813D01*
X19636Y33792D01*
X19649Y33771D01*
X19664Y33754D01*
X19682Y33738D01*
X19702Y33726D01*
X19724Y33717D01*
X19747Y33711D01*
X19770Y33710D01*
X19794Y33712D01*
X19817Y33717D01*
X19822Y33719D01*
Y32645D01*
G37*
G36*
Y29849D02*X19816Y29859D01*
X19703Y29990D01*
X19572Y30103D01*
X19424Y30193D01*
X19264Y30259D01*
X19096Y30300D01*
X18923Y30313D01*
Y30680D01*
X19004Y30660D01*
X19177Y30647D01*
X19350Y30660D01*
X19518Y30701D01*
X19678Y30767D01*
X19822Y30855D01*
Y29849D01*
G37*
G36*
Y27565D02*X19678Y27653D01*
X19518Y27719D01*
X19350Y27760D01*
X19177Y27773D01*
X19004Y27760D01*
X18923Y27740D01*
Y28107D01*
X19096Y28120D01*
X19264Y28161D01*
X19424Y28227D01*
X19572Y28317D01*
X19703Y28430D01*
X19816Y28561D01*
X19822Y28571D01*
Y27565D01*
G37*
G36*
Y23792D02*X19549Y24025D01*
X19146Y24271D01*
X18923Y24364D01*
Y25600D01*
X19004Y25580D01*
X19177Y25567D01*
X19350Y25580D01*
X19518Y25621D01*
X19678Y25687D01*
X19822Y25775D01*
Y23792D01*
G37*
G36*
X18024Y38286D02*X18030Y38284D01*
X18076Y38273D01*
X18123Y38270D01*
X18923Y38271D01*
Y37900D01*
X18836Y37879D01*
X18676Y37813D01*
X18528Y37723D01*
X18397Y37610D01*
X18284Y37479D01*
X18194Y37331D01*
X18128Y37171D01*
X18087Y37003D01*
X18074Y36830D01*
X18087Y36657D01*
X18128Y36489D01*
X18194Y36329D01*
X18284Y36181D01*
X18397Y36050D01*
X18528Y35937D01*
X18676Y35847D01*
X18836Y35781D01*
X18923Y35760D01*
Y35391D01*
X18923Y35391D01*
X18820Y35386D01*
X18717Y35372D01*
X18617Y35348D01*
X18519Y35314D01*
X18425Y35272D01*
X18404Y35260D01*
X18386Y35244D01*
X18371Y35226D01*
X18358Y35206D01*
X18349Y35184D01*
X18344Y35161D01*
X18342Y35137D01*
X18344Y35114D01*
X18349Y35091D01*
X18358Y35069D01*
X18371Y35048D01*
X18386Y35030D01*
X18404Y35015D01*
X18424Y35002D01*
X18446Y34993D01*
X18469Y34988D01*
X18493Y34986D01*
X18517Y34988D01*
X18540Y34993D01*
X18561Y35003D01*
X18629Y35034D01*
X18701Y35058D01*
X18774Y35076D01*
X18848Y35086D01*
X18923Y35090D01*
X18923Y35090D01*
Y33490D01*
X18923Y33490D01*
X18848Y33494D01*
X18774Y33504D01*
X18701Y33522D01*
X18629Y33546D01*
X18561Y33577D01*
X18539Y33586D01*
X18516Y33591D01*
X18493Y33593D01*
X18469Y33591D01*
X18446Y33586D01*
X18425Y33577D01*
X18404Y33564D01*
X18387Y33549D01*
X18371Y33531D01*
X18359Y33511D01*
X18350Y33489D01*
X18344Y33466D01*
X18343Y33443D01*
X18345Y33419D01*
X18350Y33396D01*
X18359Y33374D01*
X18372Y33354D01*
X18387Y33336D01*
X18405Y33321D01*
X18425Y33309D01*
X18519Y33266D01*
X18617Y33232D01*
X18717Y33208D01*
X18820Y33194D01*
X18923Y33189D01*
X18923Y33189D01*
Y32820D01*
X18836Y32799D01*
X18676Y32733D01*
X18528Y32643D01*
X18397Y32530D01*
X18284Y32399D01*
X18194Y32251D01*
X18128Y32091D01*
X18087Y31923D01*
X18074Y31750D01*
X18087Y31577D01*
X18128Y31409D01*
X18194Y31249D01*
X18284Y31101D01*
X18397Y30970D01*
X18528Y30857D01*
X18676Y30767D01*
X18836Y30701D01*
X18923Y30680D01*
Y30313D01*
X18923Y30313D01*
X18750Y30300D01*
X18582Y30259D01*
X18422Y30193D01*
X18274Y30103D01*
X18143Y29990D01*
X18030Y29859D01*
X18024Y29849D01*
Y33718D01*
X18029Y33716D01*
X18052Y33711D01*
X18076Y33709D01*
X18099Y33711D01*
X18122Y33716D01*
X18144Y33725D01*
X18165Y33738D01*
X18183Y33753D01*
X18198Y33771D01*
X18211Y33791D01*
X18220Y33813D01*
X18225Y33836D01*
X18227Y33860D01*
X18225Y33884D01*
X18220Y33907D01*
X18210Y33928D01*
X18179Y33996D01*
X18155Y34068D01*
X18137Y34141D01*
X18127Y34215D01*
X18123Y34290D01*
X18127Y34365D01*
X18137Y34439D01*
X18155Y34512D01*
X18179Y34584D01*
X18210Y34652D01*
X18219Y34674D01*
X18224Y34697D01*
X18226Y34720D01*
X18224Y34744D01*
X18219Y34767D01*
X18210Y34788D01*
X18197Y34809D01*
X18182Y34826D01*
X18164Y34842D01*
X18144Y34854D01*
X18122Y34863D01*
X18099Y34869D01*
X18076Y34870D01*
X18052Y34868D01*
X18029Y34863D01*
X18024Y34861D01*
Y38286D01*
G37*
G36*
Y46228D02*X18254D01*
X18270Y46210D01*
X18401Y46097D01*
X18549Y46007D01*
X18709Y45941D01*
X18877Y45900D01*
X18923Y45897D01*
Y45543D01*
X18844Y45532D01*
X18744Y45508D01*
X18646Y45474D01*
X18552Y45432D01*
X18531Y45420D01*
X18513Y45404D01*
X18498Y45386D01*
X18485Y45366D01*
X18476Y45344D01*
X18471Y45321D01*
X18469Y45297D01*
X18471Y45274D01*
X18476Y45251D01*
X18485Y45229D01*
X18498Y45208D01*
X18513Y45190D01*
X18531Y45175D01*
X18551Y45162D01*
X18573Y45153D01*
X18596Y45148D01*
X18620Y45146D01*
X18644Y45148D01*
X18667Y45153D01*
X18688Y45163D01*
X18756Y45194D01*
X18828Y45218D01*
X18901Y45236D01*
X18923Y45239D01*
Y43661D01*
X18901Y43664D01*
X18828Y43682D01*
X18756Y43706D01*
X18688Y43737D01*
X18666Y43746D01*
X18643Y43751D01*
X18620Y43753D01*
X18596Y43751D01*
X18573Y43746D01*
X18552Y43737D01*
X18531Y43724D01*
X18514Y43709D01*
X18498Y43691D01*
X18486Y43671D01*
X18477Y43649D01*
X18471Y43626D01*
X18470Y43603D01*
X18472Y43579D01*
X18477Y43556D01*
X18486Y43534D01*
X18499Y43514D01*
X18514Y43496D01*
X18532Y43481D01*
X18552Y43469D01*
X18646Y43426D01*
X18744Y43392D01*
X18844Y43368D01*
X18923Y43357D01*
Y40469D01*
X18076Y40467D01*
X18030Y40456D01*
X18024Y40454D01*
Y44049D01*
X18026Y44046D01*
X18068Y43952D01*
X18080Y43931D01*
X18096Y43913D01*
X18114Y43898D01*
X18134Y43885D01*
X18156Y43876D01*
X18179Y43871D01*
X18203Y43869D01*
X18226Y43871D01*
X18249Y43876D01*
X18271Y43885D01*
X18292Y43898D01*
X18310Y43913D01*
X18325Y43931D01*
X18338Y43951D01*
X18347Y43973D01*
X18352Y43996D01*
X18354Y44020D01*
X18352Y44044D01*
X18347Y44067D01*
X18337Y44088D01*
X18306Y44156D01*
X18282Y44228D01*
X18264Y44301D01*
X18254Y44375D01*
X18250Y44450D01*
X18254Y44525D01*
X18264Y44599D01*
X18282Y44672D01*
X18306Y44744D01*
X18337Y44812D01*
X18346Y44834D01*
X18351Y44857D01*
X18353Y44880D01*
X18351Y44904D01*
X18346Y44927D01*
X18337Y44948D01*
X18324Y44969D01*
X18309Y44986D01*
X18291Y45002D01*
X18271Y45014D01*
X18249Y45023D01*
X18226Y45029D01*
X18203Y45030D01*
X18179Y45028D01*
X18156Y45023D01*
X18134Y45014D01*
X18114Y45001D01*
X18096Y44986D01*
X18081Y44968D01*
X18069Y44948D01*
X18026Y44854D01*
X18024Y44851D01*
Y46228D01*
G37*
G36*
X18923Y24364D02*X18710Y24452D01*
X18251Y24562D01*
X18024Y24580D01*
Y28571D01*
X18030Y28561D01*
X18143Y28430D01*
X18274Y28317D01*
X18422Y28227D01*
X18582Y28161D01*
X18750Y28120D01*
X18923Y28107D01*
X18923Y28107D01*
Y27740D01*
X18836Y27719D01*
X18676Y27653D01*
X18528Y27563D01*
X18397Y27450D01*
X18284Y27319D01*
X18194Y27171D01*
X18128Y27011D01*
X18087Y26843D01*
X18074Y26670D01*
X18087Y26497D01*
X18128Y26329D01*
X18194Y26169D01*
X18284Y26021D01*
X18397Y25890D01*
X18528Y25777D01*
X18676Y25687D01*
X18836Y25621D01*
X18923Y25600D01*
Y24364D01*
G37*
G36*
X18024Y24580D02*X17780Y24599D01*
X17309Y24562D01*
X16850Y24452D01*
X16414Y24271D01*
X16011Y24025D01*
X15652Y23718D01*
X15240Y24130D01*
Y47639D01*
X15282Y47571D01*
X15282Y47571D01*
X15360Y47480D01*
X15382Y47460D01*
X16370Y46472D01*
X16390Y46450D01*
X16481Y46372D01*
X16481Y46372D01*
X16583Y46309D01*
X16694Y46263D01*
X16788Y46240D01*
X16810Y46235D01*
X16810D01*
X16930Y46226D01*
X16960Y46228D01*
X18024D01*
Y44851D01*
X17992Y44756D01*
X17968Y44656D01*
X17954Y44553D01*
X17949Y44450D01*
X17954Y44347D01*
X17968Y44244D01*
X17992Y44144D01*
X18024Y44049D01*
Y40454D01*
X17986Y40438D01*
X17946Y40413D01*
X17910Y40383D01*
X17880Y40347D01*
X17855Y40307D01*
X17837Y40263D01*
X17826Y40217D01*
X17823Y40170D01*
X17826Y38523D01*
X17837Y38477D01*
X17855Y38433D01*
X17880Y38393D01*
X17910Y38357D01*
X17946Y38327D01*
X17986Y38302D01*
X18024Y38286D01*
Y34861D01*
X18007Y34854D01*
X17987Y34841D01*
X17969Y34826D01*
X17954Y34808D01*
X17942Y34788D01*
X17899Y34694D01*
X17865Y34596D01*
X17841Y34496D01*
X17827Y34393D01*
X17822Y34290D01*
X17827Y34187D01*
X17841Y34084D01*
X17865Y33984D01*
X17899Y33886D01*
X17941Y33792D01*
X17953Y33771D01*
X17969Y33753D01*
X17987Y33738D01*
X18007Y33725D01*
X18024Y33718D01*
Y29849D01*
X17940Y29711D01*
X17874Y29551D01*
X17833Y29383D01*
X17820Y29210D01*
X17833Y29037D01*
X17874Y28869D01*
X17940Y28709D01*
X18024Y28571D01*
Y24580D01*
G37*
G36*
X19553Y61248D02*X19707Y61095D01*
X18359D01*
X18350Y61096D01*
X18315Y61093D01*
X18280Y61085D01*
X18248Y61071D01*
X18217Y61053D01*
X18217Y61053D01*
X18190Y61030D01*
X18185Y61023D01*
X17197Y60035D01*
X17190Y60030D01*
X17167Y60003D01*
X17149Y59972D01*
X17135Y59940D01*
X17127Y59905D01*
X17124Y59870D01*
X17125Y59861D01*
Y56319D01*
X17124Y56310D01*
X17127Y56275D01*
X17135Y56240D01*
X17149Y56208D01*
X17167Y56177D01*
X17167Y56177D01*
X17190Y56150D01*
X17197Y56145D01*
X18129Y55213D01*
X18067Y55111D01*
X18001Y54951D01*
X17960Y54783D01*
X17947Y54610D01*
X17960Y54437D01*
X18001Y54269D01*
X18067Y54109D01*
X18157Y53961D01*
X18270Y53830D01*
X18401Y53717D01*
X18549Y53627D01*
X18709Y53561D01*
X18877Y53520D01*
X19050Y53507D01*
X19223Y53520D01*
X19391Y53561D01*
X19551Y53627D01*
X19699Y53717D01*
X19830Y53830D01*
X19943Y53961D01*
X20033Y54109D01*
X20099Y54269D01*
X20140Y54437D01*
X20150Y54610D01*
X20140Y54783D01*
X20099Y54951D01*
X20033Y55111D01*
X19943Y55259D01*
X19830Y55390D01*
X19699Y55503D01*
X19551Y55593D01*
X19391Y55659D01*
X19243Y55695D01*
X22357D01*
X19653Y52991D01*
X19551Y53053D01*
X19391Y53119D01*
X19223Y53160D01*
X19050Y53173D01*
X18877Y53160D01*
X18709Y53119D01*
X18549Y53053D01*
X18401Y52963D01*
X18270Y52850D01*
X18157Y52719D01*
X18067Y52571D01*
X18001Y52411D01*
X17960Y52243D01*
X17947Y52070D01*
X17960Y51897D01*
X18001Y51729D01*
X18067Y51569D01*
X18157Y51421D01*
X18270Y51290D01*
X18401Y51177D01*
X18549Y51087D01*
X18709Y51021D01*
X18877Y50980D01*
X19050Y50967D01*
X19223Y50980D01*
X19391Y51021D01*
X19551Y51087D01*
X19699Y51177D01*
X19830Y51290D01*
X19943Y51421D01*
X20033Y51569D01*
X20099Y51729D01*
X20140Y51897D01*
X20150Y52070D01*
X20140Y52243D01*
X20099Y52411D01*
X20033Y52571D01*
X19971Y52673D01*
X20225Y52927D01*
Y51023D01*
X19653Y50451D01*
X19551Y50513D01*
X19391Y50579D01*
X19223Y50620D01*
X19050Y50633D01*
X18877Y50620D01*
X18709Y50579D01*
X18549Y50513D01*
X18401Y50423D01*
X18270Y50310D01*
X18157Y50179D01*
X18067Y50031D01*
X18001Y49871D01*
X17960Y49703D01*
X17947Y49530D01*
X17960Y49357D01*
X18001Y49189D01*
X18067Y49029D01*
X18157Y48881D01*
X18270Y48750D01*
X18401Y48637D01*
X18549Y48547D01*
X18614Y48520D01*
X18118D01*
X16875Y49763D01*
Y52820D01*
X16875Y52820D01*
X16886Y63588D01*
X17893Y64595D01*
X36260D01*
X36285Y64555D01*
X36331Y64501D01*
X36385Y64455D01*
X36425Y64430D01*
Y62913D01*
X32620Y59108D01*
X32629Y59131D01*
X32646Y59199D01*
X32650Y59270D01*
X32646Y59341D01*
X32629Y59409D01*
X32602Y59475D01*
X32565Y59535D01*
X32519Y59589D01*
X32465Y59635D01*
X32405Y59672D01*
X32339Y59699D01*
X32271Y59716D01*
X32200Y59721D01*
X32129Y59716D01*
X32061Y59699D01*
X31995Y59672D01*
X31935Y59635D01*
X31881Y59589D01*
X31835Y59535D01*
X31810Y59495D01*
X30659D01*
X30650Y59496D01*
X30615Y59493D01*
X30580Y59485D01*
X30548Y59471D01*
X30517Y59453D01*
X30517Y59453D01*
X30490Y59430D01*
X30485Y59423D01*
X30475Y59413D01*
Y59430D01*
X30515Y59455D01*
X30569Y59501D01*
X30615Y59555D01*
X30652Y59615D01*
X30679Y59681D01*
X30696Y59749D01*
X30700Y59820D01*
X30696Y59891D01*
X30679Y59959D01*
X30652Y60025D01*
X30615Y60085D01*
X30569Y60139D01*
X30515Y60185D01*
X30455Y60222D01*
X30389Y60249D01*
X30321Y60266D01*
X30250Y60271D01*
X30179Y60266D01*
X30111Y60249D01*
X30045Y60222D01*
X29985Y60185D01*
X29931Y60139D01*
X29885Y60085D01*
X29848Y60025D01*
X29821Y59959D01*
X29804Y59891D01*
X29799Y59820D01*
X29804Y59749D01*
X29821Y59681D01*
X29848Y59615D01*
X29885Y59555D01*
X29931Y59501D01*
X29985Y59455D01*
X30025Y59430D01*
Y59413D01*
X29457Y58845D01*
X21093D01*
X20625Y59313D01*
Y60711D01*
X20626Y60720D01*
X20623Y60755D01*
X20615Y60790D01*
X20601Y60822D01*
X20583Y60853D01*
X20583Y60853D01*
X20560Y60880D01*
X20553Y60885D01*
X19903Y61535D01*
X19943Y61581D01*
X20033Y61729D01*
X20099Y61889D01*
X20140Y62057D01*
X20150Y62230D01*
X20140Y62403D01*
X20099Y62571D01*
X20033Y62731D01*
X19943Y62879D01*
X19830Y63010D01*
X19699Y63123D01*
X19551Y63213D01*
X19391Y63279D01*
X19223Y63320D01*
X19050Y63333D01*
X18877Y63320D01*
X18709Y63279D01*
X18549Y63213D01*
X18401Y63123D01*
X18270Y63010D01*
X18157Y62879D01*
X18067Y62731D01*
X18001Y62571D01*
X17960Y62403D01*
X17947Y62230D01*
X17960Y62057D01*
X18001Y61889D01*
X18067Y61729D01*
X18157Y61581D01*
X18270Y61450D01*
X18401Y61337D01*
X18549Y61247D01*
X18709Y61181D01*
X18877Y61140D01*
X19050Y61127D01*
X19223Y61140D01*
X19391Y61181D01*
X19551Y61247D01*
X19553Y61248D01*
G37*
G36*
X40640Y90170D02*X41583D01*
X41411Y90065D01*
X41052Y89758D01*
X40745Y89399D01*
X40640Y89227D01*
Y90170D01*
G37*
G36*
X45720Y85090D02*X44777D01*
X44949Y85195D01*
X45308Y85502D01*
X45615Y85861D01*
X45720Y86033D01*
Y85090D01*
G37*
G36*
X20320Y90170D02*Y89227D01*
X20215Y89399D01*
X19908Y89758D01*
X19549Y90065D01*
X19377Y90170D01*
X20320D01*
G37*
G36*
X15240Y85090D02*Y86033D01*
X15345Y85861D01*
X15652Y85502D01*
X16011Y85195D01*
X16183Y85090D01*
X15240D01*
G37*
G36*
X20320Y19050D02*X19377D01*
X19549Y19155D01*
X19908Y19462D01*
X20215Y19821D01*
X20320Y19993D01*
Y19050D01*
G37*
G36*
X40640D02*Y19993D01*
X40745Y19821D01*
X41052Y19462D01*
X41411Y19155D01*
X41583Y19050D01*
X40640D01*
G37*
G36*
X45720Y24130D02*Y23187D01*
X45615Y23359D01*
X45308Y23718D01*
X44949Y24025D01*
X44777Y24130D01*
X45720D01*
G37*
G54D27*X37500Y41620D02*X38250D01*
X19177Y36830D02*X24360D01*
X26300Y38770D01*
X38250Y42370D02*X29900D01*
X26275Y38745D01*
G54D28*X18923Y39370D02*X20500Y40947D01*
G54D29*X31700Y46820D02*Y42370D01*
G54D27*X19050Y46990D02*X16930D01*
X15900Y48020D01*
G54D28*X20500Y40947D02*Y47870D01*
X20100Y48270D01*
X18050D01*
X34200Y47870D02*X23400D01*
X22950Y48620D02*Y48320D01*
X23400Y47870D01*
X33950Y55970D02*X33700Y56220D01*
X34300Y49170D02*X33850Y49620D01*
X35000Y50980D02*Y48670D01*
X34200Y47870D01*
X34500Y53470D02*X33800D01*
X34800Y52870D02*X34200D01*
X34700Y54120D02*X34400D01*
X34650Y54820D02*X34350D01*
X34650D02*X33900D01*
X33750Y54970D01*
Y55420D01*
X24450Y56220D02*X23850Y55620D01*
X33700Y56220D02*X24450D01*
X24600Y55920D02*X33250D01*
X26450Y54270D02*X26850Y53870D01*
X26050Y54270D02*X26450D01*
X26845Y53875D01*
X26450Y54920D02*Y54720D01*
X27150Y54020D02*X26450Y54720D01*
X27550Y54570D02*X28000Y55020D01*
X27450Y55320D02*X27750Y55620D01*
X28300Y55320D02*X27550Y54570D01*
X24600Y55920D02*X24000Y55320D01*
X22800D01*
X23850Y55620D02*X22600D01*
X20450Y52970D02*Y50930D01*
X19050Y49530D01*
X20450Y52970D02*X22800Y55320D01*
X19050Y52070D02*X22600Y55620D01*
X23700Y55920D02*X18200D01*
X23550Y56220D02*X19980D01*
X26850Y52620D02*Y53870D01*
X34300Y49920D02*X30000D01*
X27150Y52770D02*X30000Y49920D01*
X33850Y49620D02*X29850D01*
X26850Y52620D01*
X21100Y49570D02*X28700D01*
X27150Y52770D02*Y54020D01*
X34200Y52870D02*X33450Y52120D01*
X35550Y51530D02*X35000Y50980D01*
X33450Y55270D02*Y53820D01*
X33750Y55420D02*X33250Y55920D01*
X33450Y55270D02*X33100Y55620D01*
X33150Y53670D02*Y55120D01*
X32950Y55320D01*
X33450Y53820D02*X33800Y53470D01*
X34650Y53170D02*X33650D01*
X33150Y53670D01*
X34600Y55570D02*Y56170D01*
X27750Y55620D02*X33100D01*
X28300Y55320D02*X32950D01*
X35850Y55920D02*X35500Y55570D01*
X36400Y55420D02*X36150D01*
X35500Y55570D02*Y54470D01*
X36150Y55420D02*X35800Y55070D01*
Y54320D01*
X36400Y54620D02*Y54470D01*
X35500D02*X34500Y53470D01*
X35800Y54320D02*X34650Y53170D01*
X36400Y54470D02*X34800Y52870D01*
X35200Y54620D02*X34700Y54120D01*
G54D27*X38250Y41620D02*Y55070D01*
X37500Y41620D02*Y55820D01*
G54D29*X39250Y53770D02*X38250D01*
G54D28*X41910Y49530D02*X42410D01*
X43450Y50570D01*
X43425Y50545D02*X44700Y51820D01*
G54D27*X38250Y70270D02*X37700Y70820D01*
X36400Y72120D02*X38250Y70270D01*
X36400Y72120D02*X28100D01*
X36650Y77220D02*X33600D01*
G54D28*X31100Y81420D02*X34150Y78370D01*
X30950Y73720D02*X23950D01*
X35800Y73070D02*X25500D01*
G54D27*X33650Y77220D02*X20950D01*
X15900Y72170D01*
G54D28*X23950Y73720D02*X21450Y71220D01*
X25500Y73070D02*X21450Y69020D01*
G54D27*X34900Y80120D02*X36200D01*
G54D28*X31100Y81420D02*X24900D01*
G54D27*X39150Y86520D02*Y83070D01*
X36200Y80120D01*
G54D29*X37750Y79420D02*X38500D01*
X39750Y78170D01*
G54D28*X39650Y79320D02*X40300Y78670D01*
G54D27*X41800Y72070D02*X36650Y77220D01*
G54D29*X39750Y77870D02*Y76320D01*
X38650Y75220D01*
G54D28*Y77720D02*X38000Y78370D01*
X34150D01*
G54D29*X39750Y78170D02*Y77820D01*
G54D28*X40300Y78670D02*Y75570D01*
X42950Y72920D01*
X40750Y79320D02*Y75570D01*
X43250Y73070D01*
G54D27*X35750Y57570D02*X25350D01*
G54D28*X34250Y56520D02*X24300D01*
X30250Y59320D02*X29550Y58620D01*
G54D27*X36750Y56570D02*X35750Y57570D01*
X38250Y55070D02*X35750Y57570D01*
X37500Y55820D02*X35750Y57570D01*
X35800D02*X38250D01*
X36800D02*X38050Y56320D01*
X36900Y57570D02*X38100Y58770D01*
X23250Y56970D02*X23850Y57570D01*
G54D28*X24300Y56520D02*X23700Y55920D01*
G54D27*X23850Y57570D02*X25400D01*
G54D28*X44150Y59670D02*X41930D01*
X41910Y59690D01*
X19050D02*X18370D01*
X17650Y58970D01*
X19800Y60870D02*X18350D01*
X17350Y59870D01*
X19450Y62220D02*X19050D01*
X19100Y62020D02*Y62070D01*
X17350Y56310D02*X19050Y54610D01*
X17650Y58970D02*Y56470D01*
X17350Y59870D02*Y56310D01*
X19980Y56220D02*X19065Y57135D01*
X17650Y56470D02*X18200Y55920D01*
X16650Y52820D02*X16662Y63682D01*
X17800Y64820D01*
G54D27*X38250Y54970D02*Y70270D01*
G54D28*X36650Y62820D02*Y64820D01*
Y62820D02*X32150Y58320D01*
X34600Y56170D02*X34250Y56520D01*
X35200Y56420D02*X34800Y56820D01*
X35200Y54620D02*Y56420D01*
X30650Y58520D02*X30850Y58320D01*
X32150D01*
X32200Y59270D02*X30650D01*
X29700Y58320D01*
G54D27*X41800Y68670D02*Y72070D01*
G54D28*X42950Y72920D02*Y65120D01*
X42550Y64720D01*
X43250Y73070D02*Y65520D01*
X44700Y51820D02*Y64070D01*
X43250Y65520D02*X44700Y64070D01*
X34800Y56820D02*X24150D01*
X23550Y56220D01*
X17800Y64820D02*X36650D01*
X29700Y58320D02*X20850D01*
X20400Y60720D02*X19100Y62020D01*
G54D27*X15900Y72170D02*Y50220D01*
Y50140D02*Y50370D01*
Y48020D02*Y50270D01*
G54D28*X18050Y48270D02*X16650Y49670D01*
Y52820D01*
X30250Y59820D02*Y59320D01*
X29550Y58620D02*X21000D01*
X20850Y58320D02*X20100Y59070D01*
Y60570D01*
X19800Y60870D01*
X21000Y58620D02*X20400Y59220D01*
Y60720D01*
G54D30*X43886Y83570D02*X43827Y83452D01*
X43650Y83275D01*
X44889D01*
X43886Y82903D02*X43827Y82785D01*
X43650Y82608D01*
X44889D01*
G54D31*X27980Y19660D03*
X30480D03*
X32980D03*
Y22860D03*
X30480D03*
X27980D03*
G54D32*X30480Y27340D03*
G54D26*G36*
X18123Y40170D02*Y38570D01*
X19723D01*
Y40170D01*
X18123D01*
G37*
G54D33*X19177Y36830D03*
X18923Y34290D03*
X19177Y31750D03*
X18923Y29210D03*
X19177Y26670D03*
G54D34*X17780Y21590D03*
G54D32*X30480Y79340D03*
G54D33*X19050Y62230D03*
Y59690D03*
Y57150D03*
Y54610D03*
Y52070D03*
Y49530D03*
Y46990D03*
Y44450D03*
G54D34*X17780Y87630D03*
G54D33*X41910Y44450D03*
Y46990D03*
Y49530D03*
Y52070D03*
Y54610D03*
Y57150D03*
Y59690D03*
Y62230D03*
G54D34*X43180Y87630D03*
Y21590D03*
G54D35*X38250Y41620D03*
Y42370D03*
Y43120D03*
X37500D03*
Y42370D03*
Y41620D03*
X29500Y52370D03*
X34300Y49920D03*
Y49170D03*
X35560Y50165D03*
X28700Y49570D03*
X21100D03*
X25400Y50800D03*
X34925Y44450D03*
X22950Y48620D03*
X17650Y53270D03*
X23495Y41910D03*
X24130Y26670D03*
X29210Y36830D03*
X32385Y32385D03*
X31750Y40640D03*
X36830Y21590D03*
X38735Y27940D03*
X42545Y40005D03*
X43815Y29845D03*
X36830Y27940D03*
X34925D03*
X34290Y37465D03*
Y40640D03*
Y39370D03*
X35550Y51530D03*
X39400Y51520D03*
X36300Y48120D03*
X39250Y53770D03*
X36400Y55420D03*
X42750Y55820D03*
X33950Y72120D03*
X34700D03*
X28100D03*
X28850D03*
X31115Y70485D03*
X36650Y64820D03*
X40640Y64770D03*
X41800Y69420D03*
Y68670D03*
X35300Y66370D03*
X21450Y69020D03*
X24765Y67310D03*
X30000Y66220D03*
X20800Y63570D03*
X35800Y73070D03*
X38650Y77720D03*
X43900Y69520D03*
X44000Y75170D03*
X29500Y54270D03*
X30250Y59820D03*
X30450Y53320D03*
X27305Y61595D03*
X27550Y54570D03*
X31400Y54270D03*
X26450Y54920D03*
X26050Y54270D03*
X27450Y55320D03*
X31300Y57520D03*
X23250Y56970D03*
X30650Y58520D03*
X24400Y59920D03*
X31400Y52370D03*
X32200Y59270D03*
X31700Y46820D03*
X33020Y60960D03*
X33450Y52120D03*
X44150Y59670D03*
X34925Y59055D03*
X39400Y57820D03*
X42600Y60970D03*
X33950Y55970D03*
X34600Y55570D03*
X35850Y55920D03*
X34650Y54820D03*
X36400Y54670D03*
X34400Y54120D03*
X44450Y64320D03*
X42550Y64720D03*
X35050Y63220D03*
X21450Y71220D03*
X24950Y81420D03*
X22860Y88900D03*
X20320Y83185D03*
X24130Y79375D03*
X22225Y75565D03*
X30950Y73720D03*
X31500Y77220D03*
X30750D03*
X28575Y88900D03*
X33020D03*
X30480Y86360D03*
X35650Y80120D03*
X34900D03*
X39150Y86520D03*
Y85770D03*
X39370Y89535D03*
X35450Y83320D03*
X37750Y79420D03*
X39650Y79320D03*
X40750D03*
X42200Y80320D03*
G54D29*G54D36*G54D37*G54D36*G54D38*G54D37*G54D36*G54D38*G54D36*G54D38*M02*
