G04 start of page 3 for group 1 idx 1 *
G04 Title: (unknown), bottom *
G04 Creator: pcb 1.99z *
G04 CreationDate: Tue Jan  9 22:59:25 2018 UTC *
G04 For: matt *
G04 Format: Gerber/RS-274X *
G04 PCB-Dimensions (mm): 60.96 109.22 *
G04 PCB-Coordinate-Origin: lower left *
%MOMM*%
%FSLAX43Y43*%
%LNBOTTOM*%
%ADD42C,0.800*%
%ADD41C,1.000*%
%ADD40C,0.850*%
%ADD39C,3.100*%
%ADD38C,0.600*%
%ADD37C,2.200*%
%ADD36C,1.400*%
%ADD35C,1.600*%
%ADD34C,2.400*%
%ADD33C,4.730*%
%ADD32C,0.140*%
%ADD31C,0.150*%
%ADD30C,0.300*%
%ADD29C,1.016*%
%ADD28C,0.002*%
G54D28*G36*
X15240Y24130D02*X16183D01*
X16011Y24025D01*
X15652Y23718D01*
X15345Y23359D01*
X15240Y23187D01*
Y24130D01*
G37*
G36*
X41908Y58561D02*X41910Y58561D01*
X42087Y58575D01*
X42259Y58616D01*
X42422Y58684D01*
X42574Y58777D01*
X42708Y58892D01*
X42823Y59026D01*
X42916Y59178D01*
X42984Y59341D01*
X43009Y59445D01*
X43760D01*
X43785Y59405D01*
X43831Y59351D01*
X43885Y59305D01*
X43945Y59268D01*
X44011Y59241D01*
X44079Y59224D01*
X44150Y59219D01*
X44221Y59224D01*
X44289Y59241D01*
X44355Y59268D01*
X44415Y59305D01*
X44469Y59351D01*
X44475Y59358D01*
Y51913D01*
X42792Y50230D01*
X42708Y50328D01*
X42574Y50443D01*
X42422Y50536D01*
X42259Y50604D01*
X42087Y50645D01*
X41910Y50659D01*
X41908Y50659D01*
Y50941D01*
X41910Y50941D01*
X42087Y50955D01*
X42259Y50996D01*
X42422Y51064D01*
X42574Y51157D01*
X42708Y51272D01*
X42823Y51406D01*
X42916Y51558D01*
X42984Y51721D01*
X43025Y51893D01*
X43035Y52070D01*
X43025Y52247D01*
X42984Y52419D01*
X42916Y52582D01*
X42823Y52734D01*
X42708Y52868D01*
X42574Y52983D01*
X42422Y53076D01*
X42259Y53144D01*
X42087Y53185D01*
X41910Y53199D01*
X41908Y53199D01*
Y53481D01*
X41910Y53481D01*
X42087Y53495D01*
X42259Y53536D01*
X42422Y53604D01*
X42574Y53697D01*
X42708Y53812D01*
X42823Y53946D01*
X42916Y54098D01*
X42984Y54261D01*
X43025Y54433D01*
X43035Y54610D01*
X43025Y54787D01*
X42984Y54959D01*
X42916Y55122D01*
X42823Y55274D01*
X42708Y55408D01*
X42578Y55519D01*
X42574Y55523D01*
X42422Y55616D01*
X42259Y55684D01*
X42087Y55725D01*
X41910Y55739D01*
X41908Y55739D01*
Y56021D01*
X41910Y56021D01*
X42087Y56035D01*
X42259Y56076D01*
X42422Y56144D01*
X42574Y56237D01*
X42708Y56352D01*
X42823Y56486D01*
X42916Y56638D01*
X42984Y56801D01*
X43025Y56973D01*
X43035Y57150D01*
X43025Y57327D01*
X42984Y57499D01*
X42916Y57662D01*
X42823Y57814D01*
X42708Y57948D01*
X42574Y58063D01*
X42422Y58156D01*
X42259Y58224D01*
X42087Y58265D01*
X41910Y58279D01*
X41908Y58279D01*
Y58561D01*
G37*
G36*
Y67173D02*X41947Y67189D01*
X42049Y67252D01*
X42140Y67330D01*
X42218Y67421D01*
X42281Y67523D01*
X42327Y67634D01*
X42355Y67750D01*
X42362Y67870D01*
Y72265D01*
X42364Y72295D01*
X42355Y72415D01*
X42327Y72531D01*
X42281Y72642D01*
X42218Y72744D01*
X42140Y72835D01*
X42118Y72855D01*
X41908Y73064D01*
Y73644D01*
X42725Y72827D01*
Y65213D01*
X42667Y65155D01*
X42621Y65166D01*
X42550Y65171D01*
X42479Y65166D01*
X42411Y65149D01*
X42345Y65122D01*
X42285Y65085D01*
X42231Y65039D01*
X42185Y64985D01*
X42148Y64925D01*
X42121Y64859D01*
X42104Y64791D01*
X42099Y64720D01*
X42104Y64649D01*
X42121Y64581D01*
X42148Y64515D01*
X42185Y64455D01*
X42231Y64401D01*
X42285Y64355D01*
X42345Y64318D01*
X42411Y64291D01*
X42479Y64274D01*
X42550Y64269D01*
X42621Y64274D01*
X42689Y64291D01*
X42755Y64318D01*
X42815Y64355D01*
X42869Y64401D01*
X42915Y64455D01*
X42952Y64515D01*
X42979Y64581D01*
X42996Y64649D01*
X43000Y64720D01*
X42996Y64791D01*
X42985Y64837D01*
X43103Y64955D01*
X43110Y64960D01*
X43133Y64987D01*
X43133Y64987D01*
X43151Y65018D01*
X43165Y65050D01*
X43173Y65085D01*
X43176Y65120D01*
X43175Y65129D01*
Y65277D01*
X44015Y64437D01*
X44004Y64391D01*
X43999Y64320D01*
X44004Y64249D01*
X44021Y64181D01*
X44048Y64115D01*
X44085Y64055D01*
X44131Y64001D01*
X44185Y63955D01*
X44245Y63918D01*
X44311Y63891D01*
X44379Y63874D01*
X44450Y63869D01*
X44475Y63871D01*
Y59982D01*
X44469Y59989D01*
X44415Y60035D01*
X44355Y60072D01*
X44289Y60099D01*
X44221Y60116D01*
X44150Y60121D01*
X44079Y60116D01*
X44011Y60099D01*
X43945Y60072D01*
X43885Y60035D01*
X43831Y59989D01*
X43785Y59935D01*
X43760Y59895D01*
X43018D01*
X42984Y60039D01*
X42916Y60202D01*
X42823Y60354D01*
X42708Y60488D01*
X42574Y60603D01*
X42422Y60696D01*
X42259Y60764D01*
X42087Y60805D01*
X41910Y60819D01*
X41908Y60819D01*
Y61101D01*
X41910Y61101D01*
X42087Y61115D01*
X42259Y61156D01*
X42422Y61224D01*
X42499Y61271D01*
X42574Y61317D01*
X42708Y61432D01*
X42823Y61566D01*
X42916Y61718D01*
X42984Y61881D01*
X43025Y62053D01*
X43035Y62230D01*
X43025Y62407D01*
X42984Y62579D01*
X42916Y62742D01*
X42823Y62894D01*
X42708Y63028D01*
X42574Y63143D01*
X42422Y63236D01*
X42259Y63304D01*
X42087Y63345D01*
X41910Y63359D01*
X41908Y63359D01*
Y67173D01*
G37*
G36*
X45363Y34807D02*X45374Y34831D01*
X45385Y34878D01*
X45388Y34925D01*
X45385Y36242D01*
X45374Y36289D01*
X45363Y36313D01*
Y37347D01*
X45374Y37371D01*
X45385Y37418D01*
X45388Y37465D01*
X45385Y38782D01*
X45374Y38829D01*
X45363Y38853D01*
Y73925D01*
X45365Y73928D01*
X45448Y74062D01*
X45509Y74209D01*
X45545Y74362D01*
X45555Y74520D01*
X45545Y74678D01*
X45509Y74831D01*
X45448Y74978D01*
X45365Y75112D01*
X45363Y75115D01*
Y75925D01*
X45365Y75928D01*
X45448Y76062D01*
X45509Y76209D01*
X45545Y76362D01*
X45555Y76520D01*
X45545Y76678D01*
X45509Y76831D01*
X45448Y76978D01*
X45365Y77112D01*
X45363Y77115D01*
Y77925D01*
X45365Y77928D01*
X45448Y78062D01*
X45509Y78209D01*
X45545Y78362D01*
X45555Y78520D01*
X45545Y78678D01*
X45509Y78831D01*
X45448Y78978D01*
X45365Y79112D01*
X45363Y79115D01*
Y80019D01*
X45379Y80023D01*
X45401Y80033D01*
X45421Y80047D01*
X45438Y80063D01*
X45453Y80082D01*
X45464Y80103D01*
X45501Y80191D01*
X45528Y80283D01*
X45546Y80377D01*
X45555Y80472D01*
Y80568D01*
X45546Y80663D01*
X45528Y80757D01*
X45501Y80849D01*
X45465Y80937D01*
X45454Y80958D01*
X45439Y80977D01*
X45421Y80994D01*
X45401Y81007D01*
X45379Y81018D01*
X45363Y81022D01*
Y85447D01*
X45720Y85090D01*
Y24130D01*
X45363Y23773D01*
Y34807D01*
G37*
G36*
Y79115D02*X45263Y79233D01*
X45142Y79335D01*
X45008Y79418D01*
X44861Y79479D01*
X44708Y79515D01*
X44649Y79520D01*
X44693Y79524D01*
X44787Y79542D01*
X44879Y79569D01*
X44967Y79605D01*
X44988Y79616D01*
X45007Y79631D01*
X45024Y79649D01*
X45037Y79669D01*
X45048Y79691D01*
X45054Y79714D01*
X45057Y79738D01*
X45056Y79762D01*
X45052Y79786D01*
X45043Y79808D01*
X45032Y79829D01*
X45017Y79848D01*
X44999Y79865D01*
X44979Y79878D01*
X44957Y79888D01*
X44934Y79895D01*
X44910Y79898D01*
X44886Y79897D01*
X44863Y79892D01*
X44840Y79884D01*
X44779Y79858D01*
X44715Y79840D01*
X44649Y79827D01*
X44583Y79821D01*
X44550D01*
Y81219D01*
X44583D01*
X44649Y81213D01*
X44715Y81200D01*
X44779Y81182D01*
X44840Y81157D01*
X44863Y81148D01*
X44886Y81144D01*
X44910Y81143D01*
X44934Y81146D01*
X44957Y81152D01*
X44979Y81163D01*
X44999Y81176D01*
X45016Y81192D01*
X45031Y81211D01*
X45043Y81232D01*
X45051Y81255D01*
X45056Y81278D01*
X45056Y81302D01*
X45053Y81326D01*
X45047Y81349D01*
X45037Y81371D01*
X45023Y81391D01*
X45007Y81408D01*
X44988Y81423D01*
X44967Y81434D01*
X44879Y81471D01*
X44787Y81498D01*
X44693Y81516D01*
X44598Y81525D01*
X44550D01*
Y81858D01*
X44983Y81858D01*
X45006Y81864D01*
X45028Y81873D01*
X45048Y81885D01*
X45066Y81901D01*
X45081Y81919D01*
X45093Y81939D01*
X45102Y81960D01*
X45108Y81983D01*
X45109Y82007D01*
X45108Y83664D01*
X45102Y83686D01*
X45093Y83708D01*
X45081Y83728D01*
X45066Y83746D01*
X45048Y83762D01*
X45028Y83774D01*
X45006Y83783D01*
X44983Y83789D01*
X44959Y83790D01*
X44550Y83790D01*
Y84951D01*
X44949Y85195D01*
X45308Y85502D01*
X45363Y85447D01*
Y81022D01*
X45356Y81024D01*
X45332Y81027D01*
X45308Y81026D01*
X45284Y81022D01*
X45262Y81013D01*
X45241Y81002D01*
X45222Y80987D01*
X45205Y80969D01*
X45192Y80949D01*
X45182Y80927D01*
X45175Y80904D01*
X45172Y80880D01*
X45173Y80856D01*
X45178Y80833D01*
X45186Y80810D01*
X45212Y80749D01*
X45230Y80685D01*
X45243Y80619D01*
X45249Y80553D01*
Y80487D01*
X45243Y80421D01*
X45230Y80355D01*
X45212Y80291D01*
X45187Y80230D01*
X45178Y80207D01*
X45174Y80184D01*
X45173Y80160D01*
X45176Y80136D01*
X45182Y80113D01*
X45193Y80091D01*
X45206Y80071D01*
X45222Y80054D01*
X45241Y80039D01*
X45262Y80027D01*
X45285Y80019D01*
X45308Y80014D01*
X45332Y80014D01*
X45356Y80017D01*
X45363Y80019D01*
Y79115D01*
G37*
G36*
X43737Y84678D02*X44110Y84768D01*
X44546Y84949D01*
X44550Y84951D01*
Y83790D01*
X43737Y83789D01*
Y84678D01*
G37*
G36*
Y77925D02*X43837Y77807D01*
X43958Y77705D01*
X44092Y77622D01*
X44239Y77561D01*
X44392Y77525D01*
X44450Y77520D01*
X44392Y77515D01*
X44239Y77479D01*
X44092Y77418D01*
X43958Y77335D01*
X43837Y77233D01*
X43737Y77115D01*
Y77925D01*
G37*
G36*
X44550Y79821D02*X44517D01*
X44451Y79827D01*
X44385Y79840D01*
X44321Y79858D01*
X44260Y79883D01*
X44237Y79892D01*
X44214Y79896D01*
X44190Y79897D01*
X44166Y79894D01*
X44143Y79888D01*
X44121Y79877D01*
X44101Y79864D01*
X44084Y79848D01*
X44069Y79829D01*
X44057Y79808D01*
X44049Y79785D01*
X44044Y79762D01*
X44044Y79738D01*
X44047Y79714D01*
X44053Y79691D01*
X44063Y79669D01*
X44077Y79649D01*
X44093Y79632D01*
X44112Y79617D01*
X44133Y79606D01*
X44221Y79569D01*
X44313Y79542D01*
X44407Y79524D01*
X44451Y79520D01*
X44392Y79515D01*
X44239Y79479D01*
X44092Y79418D01*
X43958Y79335D01*
X43837Y79233D01*
X43737Y79115D01*
Y80018D01*
X43744Y80016D01*
X43768Y80013D01*
X43792Y80014D01*
X43816Y80018D01*
X43838Y80027D01*
X43859Y80038D01*
X43878Y80053D01*
X43895Y80071D01*
X43908Y80091D01*
X43918Y80113D01*
X43925Y80136D01*
X43928Y80160D01*
X43927Y80184D01*
X43922Y80207D01*
X43914Y80230D01*
X43888Y80291D01*
X43870Y80355D01*
X43857Y80421D01*
X43851Y80487D01*
Y80553D01*
X43857Y80619D01*
X43870Y80685D01*
X43888Y80749D01*
X43913Y80810D01*
X43922Y80833D01*
X43926Y80856D01*
X43927Y80880D01*
X43924Y80904D01*
X43918Y80927D01*
X43907Y80949D01*
X43894Y80969D01*
X43878Y80986D01*
X43859Y81001D01*
X43838Y81013D01*
X43815Y81021D01*
X43792Y81026D01*
X43768Y81026D01*
X43744Y81023D01*
X43737Y81021D01*
Y81857D01*
X44550Y81858D01*
Y81525D01*
X44502D01*
X44407Y81516D01*
X44313Y81498D01*
X44221Y81471D01*
X44133Y81435D01*
X44112Y81424D01*
X44093Y81409D01*
X44076Y81391D01*
X44063Y81371D01*
X44052Y81349D01*
X44046Y81326D01*
X44043Y81302D01*
X44044Y81278D01*
X44048Y81254D01*
X44057Y81232D01*
X44068Y81211D01*
X44083Y81192D01*
X44101Y81175D01*
X44121Y81162D01*
X44143Y81152D01*
X44166Y81145D01*
X44190Y81142D01*
X44214Y81143D01*
X44237Y81148D01*
X44260Y81156D01*
X44321Y81182D01*
X44385Y81200D01*
X44451Y81213D01*
X44517Y81219D01*
X44550D01*
Y79821D01*
G37*
G36*
X43737Y79115D02*X43735Y79112D01*
X43652Y78978D01*
X43591Y78831D01*
X43555Y78678D01*
X43542Y78520D01*
X43555Y78362D01*
X43591Y78209D01*
X43652Y78062D01*
X43735Y77928D01*
X43737Y77925D01*
Y77115D01*
X43735Y77112D01*
X43652Y76978D01*
X43591Y76831D01*
X43555Y76678D01*
X43542Y76520D01*
X43555Y76362D01*
X43591Y76209D01*
X43652Y76062D01*
X43698Y75987D01*
X43097Y75385D01*
X43090Y75380D01*
X43067Y75353D01*
X43049Y75322D01*
X43035Y75290D01*
X43027Y75255D01*
X43024Y75220D01*
X43025Y75211D01*
Y73613D01*
X42825Y73813D01*
Y84649D01*
X43180Y84621D01*
X43651Y84658D01*
X43737Y84678D01*
Y83789D01*
X43556Y83789D01*
X43533Y83783D01*
X43512Y83774D01*
X43491Y83762D01*
X43473Y83746D01*
X43458Y83728D01*
X43446Y83708D01*
X43437Y83686D01*
X43431Y83664D01*
X43430Y83640D01*
X43431Y81983D01*
X43437Y81960D01*
X43446Y81939D01*
X43458Y81919D01*
X43473Y81901D01*
X43491Y81885D01*
X43512Y81873D01*
X43533Y81864D01*
X43556Y81858D01*
X43580Y81857D01*
X43737Y81857D01*
Y81021D01*
X43721Y81017D01*
X43699Y81007D01*
X43679Y80993D01*
X43662Y80977D01*
X43647Y80958D01*
X43636Y80937D01*
X43599Y80849D01*
X43572Y80757D01*
X43554Y80663D01*
X43545Y80568D01*
Y80472D01*
X43554Y80377D01*
X43572Y80283D01*
X43599Y80191D01*
X43635Y80103D01*
X43646Y80082D01*
X43661Y80063D01*
X43679Y80046D01*
X43699Y80033D01*
X43721Y80022D01*
X43737Y80018D01*
Y79115D01*
G37*
G36*
X45363Y77115D02*X45263Y77233D01*
X45142Y77335D01*
X45008Y77418D01*
X44861Y77479D01*
X44708Y77515D01*
X44650Y77520D01*
X44708Y77525D01*
X44861Y77561D01*
X45008Y77622D01*
X45142Y77705D01*
X45263Y77807D01*
X45363Y77925D01*
Y77115D01*
G37*
G36*
Y75115D02*X45263Y75233D01*
X45142Y75335D01*
X45008Y75418D01*
X44861Y75479D01*
X44708Y75515D01*
X44650Y75520D01*
X44708Y75525D01*
X44861Y75561D01*
X45008Y75622D01*
X45142Y75705D01*
X45263Y75807D01*
X45363Y75925D01*
Y75115D01*
G37*
G36*
Y38853D02*X45355Y38873D01*
X45330Y38913D01*
X45300Y38950D01*
X45263Y38980D01*
X45223Y39005D01*
X45179Y39024D01*
X45132Y39035D01*
X45085Y39038D01*
X44526Y39037D01*
X43874Y39037D01*
X42825Y39036D01*
Y43878D01*
X42832Y43880D01*
X42855Y43890D01*
X42877Y43904D01*
X42896Y43921D01*
X42912Y43941D01*
X42925Y43963D01*
X42965Y44055D01*
X42996Y44151D01*
X43019Y44249D01*
X43032Y44349D01*
X43037Y44450D01*
X43032Y44551D01*
X43019Y44651D01*
X42996Y44749D01*
X42965Y44845D01*
X42926Y44937D01*
X42913Y44960D01*
X42897Y44980D01*
X42877Y44997D01*
X42856Y45011D01*
X42832Y45021D01*
X42825Y45023D01*
Y46330D01*
X42916Y46478D01*
X42984Y46641D01*
X43025Y46813D01*
X43035Y46990D01*
X43025Y47167D01*
X42984Y47339D01*
X42916Y47502D01*
X42825Y47650D01*
Y48870D01*
X42916Y49018D01*
X42984Y49181D01*
X43025Y49353D01*
X43035Y49530D01*
X43025Y49707D01*
X43002Y49804D01*
X44853Y51655D01*
X44860Y51660D01*
X44883Y51687D01*
X44883Y51687D01*
X44901Y51718D01*
X44915Y51750D01*
X44923Y51785D01*
X44926Y51820D01*
X44925Y51829D01*
Y64061D01*
X44926Y64070D01*
X44923Y64105D01*
X44915Y64140D01*
X44901Y64172D01*
X44884Y64200D01*
X44896Y64249D01*
X44900Y64320D01*
X44896Y64391D01*
X44879Y64459D01*
X44852Y64525D01*
X44815Y64585D01*
X44769Y64639D01*
X44715Y64685D01*
X44655Y64722D01*
X44589Y64749D01*
X44521Y64766D01*
X44450Y64771D01*
X44379Y64766D01*
X44333Y64755D01*
X43475Y65613D01*
Y73061D01*
X43476Y73070D01*
X43475Y73079D01*
Y75127D01*
X44017Y75668D01*
X44092Y75622D01*
X44239Y75561D01*
X44392Y75525D01*
X44450Y75520D01*
X44392Y75515D01*
X44239Y75479D01*
X44092Y75418D01*
X43958Y75335D01*
X43837Y75233D01*
X43735Y75112D01*
X43652Y74978D01*
X43591Y74831D01*
X43555Y74678D01*
X43542Y74520D01*
X43555Y74362D01*
X43591Y74209D01*
X43652Y74062D01*
X43735Y73928D01*
X43837Y73807D01*
X43958Y73705D01*
X44092Y73622D01*
X44239Y73561D01*
X44392Y73525D01*
X44550Y73512D01*
X44708Y73525D01*
X44861Y73561D01*
X45008Y73622D01*
X45142Y73705D01*
X45263Y73807D01*
X45363Y73925D01*
Y38853D01*
G37*
G36*
Y36313D02*X45355Y36333D01*
X45330Y36373D01*
X45300Y36410D01*
X45263Y36440D01*
X45223Y36465D01*
X45179Y36484D01*
X45132Y36495D01*
X45085Y36498D01*
X42825Y36496D01*
Y37164D01*
X44636Y37165D01*
X45132Y37165D01*
X45179Y37176D01*
X45223Y37195D01*
X45263Y37220D01*
X45300Y37250D01*
X45330Y37287D01*
X45355Y37327D01*
X45363Y37347D01*
Y36313D01*
G37*
G36*
X42825Y34624D02*X45132Y34625D01*
X45179Y34636D01*
X45223Y34655D01*
X45263Y34680D01*
X45300Y34710D01*
X45330Y34747D01*
X45355Y34787D01*
X45363Y34807D01*
Y23773D01*
X45308Y23718D01*
X44949Y24025D01*
X44546Y24271D01*
X44110Y24452D01*
X43651Y24562D01*
X43180Y24599D01*
X42825Y24571D01*
Y34624D01*
G37*
G36*
Y73813D02*X41908Y74730D01*
Y84910D01*
X42250Y84768D01*
X42709Y84658D01*
X42825Y84649D01*
Y73813D01*
G37*
G36*
Y47650D02*X42823Y47654D01*
X42708Y47788D01*
X42574Y47903D01*
X42422Y47996D01*
X42259Y48064D01*
X42087Y48105D01*
X41910Y48119D01*
X41908Y48119D01*
Y48401D01*
X41910Y48401D01*
X42087Y48415D01*
X42259Y48456D01*
X42422Y48524D01*
X42574Y48617D01*
X42708Y48732D01*
X42823Y48866D01*
X42825Y48870D01*
Y47650D01*
G37*
G36*
Y39036D02*X42486Y39036D01*
Y39036D01*
X41908Y39035D01*
Y43324D01*
X41910Y43323D01*
X42011Y43328D01*
X42111Y43341D01*
X42209Y43364D01*
X42305Y43395D01*
X42397Y43434D01*
X42420Y43447D01*
X42440Y43463D01*
X42457Y43483D01*
X42471Y43504D01*
X42481Y43528D01*
X42488Y43553D01*
X42490Y43578D01*
X42489Y43604D01*
X42484Y43629D01*
X42474Y43653D01*
X42461Y43675D01*
X42445Y43695D01*
X42426Y43712D01*
X42404Y43726D01*
X42381Y43737D01*
X42356Y43743D01*
X42330Y43746D01*
X42305Y43745D01*
X42280Y43739D01*
X42256Y43729D01*
X42190Y43701D01*
X42122Y43679D01*
X42052Y43663D01*
X41981Y43653D01*
X41910Y43650D01*
X41908Y43650D01*
Y45250D01*
X41910Y45250D01*
X41981Y45247D01*
X42052Y45237D01*
X42122Y45221D01*
X42190Y45199D01*
X42256Y45171D01*
X42280Y45162D01*
X42305Y45156D01*
X42330Y45155D01*
X42356Y45157D01*
X42381Y45164D01*
X42404Y45174D01*
X42426Y45188D01*
X42445Y45205D01*
X42461Y45225D01*
X42474Y45247D01*
X42483Y45271D01*
X42488Y45296D01*
X42490Y45322D01*
X42487Y45347D01*
X42480Y45372D01*
X42470Y45395D01*
X42456Y45417D01*
X42439Y45436D01*
X42419Y45452D01*
X42397Y45465D01*
X42305Y45505D01*
X42209Y45536D01*
X42111Y45559D01*
X42011Y45572D01*
X41910Y45577D01*
X41908Y45576D01*
Y45861D01*
X41910Y45861D01*
X42087Y45875D01*
X42259Y45916D01*
X42422Y45984D01*
X42574Y46077D01*
X42708Y46192D01*
X42823Y46326D01*
X42825Y46330D01*
Y45023D01*
X42807Y45028D01*
X42782Y45030D01*
X42756Y45029D01*
X42731Y45024D01*
X42707Y45014D01*
X42685Y45001D01*
X42665Y44985D01*
X42648Y44966D01*
X42634Y44944D01*
X42623Y44921D01*
X42617Y44896D01*
X42614Y44870D01*
X42615Y44845D01*
X42621Y44820D01*
X42631Y44796D01*
X42659Y44730D01*
X42681Y44662D01*
X42697Y44592D01*
X42707Y44521D01*
X42710Y44450D01*
X42707Y44379D01*
X42697Y44308D01*
X42681Y44238D01*
X42659Y44170D01*
X42631Y44104D01*
X42622Y44080D01*
X42616Y44055D01*
X42615Y44030D01*
X42617Y44004D01*
X42624Y43979D01*
X42634Y43956D01*
X42648Y43934D01*
X42665Y43915D01*
X42685Y43899D01*
X42707Y43886D01*
X42731Y43877D01*
X42756Y43872D01*
X42782Y43870D01*
X42807Y43873D01*
X42825Y43878D01*
Y39036D01*
G37*
G36*
Y36496D02*X41908Y36495D01*
Y37163D01*
X42825Y37164D01*
Y36496D01*
G37*
G36*
X41908Y34623D02*X42825Y34624D01*
Y24571D01*
X42709Y24562D01*
X42250Y24452D01*
X41908Y24310D01*
Y34623D01*
G37*
G36*
Y73064D02*X39413Y75559D01*
X39954Y76100D01*
X39963Y76107D01*
X39993Y76143D01*
X39993Y76143D01*
X40018Y76183D01*
X40036Y76227D01*
X40047Y76273D01*
X40051Y76320D01*
X40050Y76332D01*
Y77958D01*
X40051Y77970D01*
X40047Y78017D01*
X40036Y78063D01*
X40018Y78107D01*
X39993Y78147D01*
X39993Y78147D01*
X39963Y78183D01*
X39954Y78190D01*
X38520Y79624D01*
X38513Y79633D01*
X38477Y79663D01*
X38477Y79663D01*
X38437Y79688D01*
X38393Y79706D01*
X38347Y79717D01*
X38300Y79721D01*
X38288Y79720D01*
X38086D01*
X38069Y79739D01*
X38015Y79785D01*
X37955Y79822D01*
X37889Y79849D01*
X37821Y79866D01*
X37750Y79871D01*
X37679Y79866D01*
X37611Y79849D01*
X37545Y79822D01*
X37485Y79785D01*
X37431Y79739D01*
X37385Y79685D01*
X37348Y79625D01*
X37321Y79559D01*
X37304Y79491D01*
X37299Y79420D01*
X37304Y79349D01*
X37321Y79281D01*
X37348Y79215D01*
X37385Y79155D01*
X37431Y79101D01*
X37485Y79055D01*
X37545Y79018D01*
X37611Y78991D01*
X37679Y78974D01*
X37750Y78969D01*
X37821Y78974D01*
X37889Y78991D01*
X37955Y79018D01*
X38015Y79055D01*
X38069Y79101D01*
X38086Y79120D01*
X38176D01*
X39450Y77846D01*
Y76444D01*
X38969Y75963D01*
X38947Y75976D01*
X38836Y76022D01*
X38720Y76050D01*
X38600Y76059D01*
X38570Y76057D01*
X31799D01*
Y76395D01*
X37541D01*
X37550Y76394D01*
X37585Y76397D01*
X37620Y76405D01*
X37652Y76419D01*
X37683Y76437D01*
X37710Y76460D01*
X37715Y76467D01*
X38533Y77285D01*
X38579Y77274D01*
X38650Y77269D01*
X38721Y77274D01*
X38789Y77291D01*
X38855Y77318D01*
X38915Y77355D01*
X38969Y77401D01*
X39015Y77455D01*
X39052Y77515D01*
X39079Y77581D01*
X39096Y77649D01*
X39100Y77720D01*
X39096Y77791D01*
X39079Y77859D01*
X39052Y77925D01*
X39015Y77985D01*
X38969Y78039D01*
X38915Y78085D01*
X38855Y78122D01*
X38789Y78149D01*
X38721Y78166D01*
X38650Y78171D01*
X38579Y78166D01*
X38511Y78149D01*
X38445Y78122D01*
X38385Y78085D01*
X38331Y78039D01*
X38285Y77985D01*
X38248Y77925D01*
X38221Y77859D01*
X38204Y77791D01*
X38199Y77720D01*
X38204Y77649D01*
X38215Y77603D01*
X37457Y76845D01*
X31799D01*
Y78475D01*
X31823Y78481D01*
X31856Y78495D01*
X31887Y78513D01*
X31914Y78536D01*
X31937Y78564D01*
X31955Y78594D01*
X32020Y78735D01*
X32069Y78881D01*
X32105Y79032D01*
X32127Y79185D01*
X32134Y79340D01*
X32127Y79495D01*
X32105Y79648D01*
X32069Y79799D01*
X32020Y79945D01*
X31956Y80087D01*
X31938Y80117D01*
X31915Y80144D01*
X31887Y80168D01*
X31857Y80187D01*
X31824Y80200D01*
X31799Y80206D01*
Y90170D01*
X40640D01*
X41052Y89758D01*
X40745Y89399D01*
X40499Y88996D01*
X40318Y88560D01*
X40208Y88101D01*
X40171Y87630D01*
X40208Y87159D01*
X40318Y86700D01*
X40499Y86264D01*
X40745Y85861D01*
X41052Y85502D01*
X41411Y85195D01*
X41814Y84949D01*
X41908Y84910D01*
Y74730D01*
X40975Y75663D01*
Y78861D01*
X40976Y78870D01*
X40973Y78905D01*
X40965Y78940D01*
X40951Y78972D01*
X40933Y79003D01*
X40933Y79003D01*
X40910Y79030D01*
X40903Y79035D01*
X40785Y79153D01*
X40796Y79199D01*
X40800Y79270D01*
X40796Y79341D01*
X40779Y79409D01*
X40752Y79475D01*
X40715Y79535D01*
X40669Y79589D01*
X40615Y79635D01*
X40555Y79672D01*
X40489Y79699D01*
X40421Y79716D01*
X40350Y79721D01*
X40279Y79716D01*
X40211Y79699D01*
X40145Y79672D01*
X40085Y79635D01*
X40031Y79589D01*
X39985Y79535D01*
X39950Y79478D01*
X39915Y79535D01*
X39869Y79589D01*
X39815Y79635D01*
X39755Y79672D01*
X39689Y79699D01*
X39621Y79716D01*
X39550Y79721D01*
X39479Y79716D01*
X39411Y79699D01*
X39345Y79672D01*
X39285Y79635D01*
X39231Y79589D01*
X39185Y79535D01*
X39148Y79475D01*
X39121Y79409D01*
X39104Y79341D01*
X39099Y79270D01*
X39104Y79199D01*
X39121Y79131D01*
X39148Y79065D01*
X39185Y79005D01*
X39231Y78951D01*
X39285Y78905D01*
X39345Y78868D01*
X39411Y78841D01*
X39479Y78824D01*
X39550Y78819D01*
X39621Y78824D01*
X39667Y78835D01*
X40075Y78427D01*
Y75579D01*
X40074Y75570D01*
X40077Y75535D01*
X40085Y75500D01*
X40099Y75468D01*
X40117Y75437D01*
X40117Y75437D01*
X40140Y75410D01*
X40147Y75405D01*
X41908Y73644D01*
Y73064D01*
G37*
G36*
X30481Y90170D02*X31799D01*
Y80206D01*
X31789Y80209D01*
X31753Y80212D01*
X31718Y80209D01*
X31683Y80201D01*
X31650Y80187D01*
X31619Y80169D01*
X31592Y80145D01*
X31568Y80118D01*
X31550Y80088D01*
X31536Y80055D01*
X31527Y80020D01*
X31525Y79984D01*
X31527Y79949D01*
X31535Y79914D01*
X31550Y79881D01*
X31597Y79779D01*
X31633Y79673D01*
X31659Y79563D01*
X31675Y79452D01*
X31680Y79340D01*
X31675Y79228D01*
X31659Y79117D01*
X31633Y79007D01*
X31597Y78901D01*
X31551Y78798D01*
X31537Y78766D01*
X31529Y78731D01*
X31526Y78696D01*
X31529Y78660D01*
X31537Y78626D01*
X31551Y78593D01*
X31570Y78562D01*
X31593Y78535D01*
X31620Y78512D01*
X31650Y78494D01*
X31683Y78480D01*
X31718Y78472D01*
X31753Y78470D01*
X31789Y78472D01*
X31799Y78475D01*
Y76845D01*
X30481D01*
Y77686D01*
X30635Y77693D01*
X30788Y77715D01*
X30939Y77751D01*
X31085Y77800D01*
X31227Y77864D01*
X31257Y77882D01*
X31284Y77905D01*
X31308Y77933D01*
X31327Y77963D01*
X31340Y77996D01*
X31349Y78031D01*
X31352Y78067D01*
X31349Y78102D01*
X31341Y78137D01*
X31327Y78170D01*
X31309Y78201D01*
X31285Y78228D01*
X31258Y78252D01*
X31228Y78270D01*
X31195Y78284D01*
X31160Y78293D01*
X31124Y78295D01*
X31089Y78293D01*
X31054Y78285D01*
X31021Y78270D01*
X30919Y78223D01*
X30813Y78187D01*
X30703Y78161D01*
X30592Y78145D01*
X30481Y78140D01*
Y80540D01*
X30592Y80535D01*
X30703Y80519D01*
X30813Y80493D01*
X30919Y80457D01*
X31022Y80411D01*
X31054Y80397D01*
X31089Y80389D01*
X31124Y80386D01*
X31160Y80389D01*
X31194Y80397D01*
X31227Y80411D01*
X31258Y80430D01*
X31285Y80453D01*
X31308Y80480D01*
X31326Y80510D01*
X31340Y80543D01*
X31348Y80578D01*
X31350Y80613D01*
X31348Y80649D01*
X31339Y80683D01*
X31325Y80716D01*
X31307Y80747D01*
X31284Y80774D01*
X31256Y80797D01*
X31226Y80815D01*
X31085Y80880D01*
X30939Y80929D01*
X30788Y80965D01*
X30635Y80987D01*
X30481Y80994D01*
Y90170D01*
G37*
G36*
X31799Y76057D02*X30481D01*
Y76395D01*
X31799D01*
Y76057D01*
G37*
G36*
X29131Y90170D02*X30481D01*
Y80994D01*
X30480Y80994D01*
X30325Y80987D01*
X30172Y80965D01*
X30021Y80929D01*
X29875Y80880D01*
X29733Y80816D01*
X29703Y80798D01*
X29676Y80775D01*
X29652Y80747D01*
X29633Y80717D01*
X29620Y80684D01*
X29611Y80649D01*
X29608Y80613D01*
X29611Y80578D01*
X29619Y80543D01*
X29633Y80510D01*
X29651Y80479D01*
X29675Y80452D01*
X29702Y80428D01*
X29732Y80410D01*
X29765Y80396D01*
X29800Y80387D01*
X29836Y80385D01*
X29871Y80387D01*
X29906Y80395D01*
X29939Y80410D01*
X30041Y80457D01*
X30147Y80493D01*
X30257Y80519D01*
X30368Y80535D01*
X30480Y80540D01*
X30481Y80540D01*
Y78140D01*
X30480Y78140D01*
X30368Y78145D01*
X30257Y78161D01*
X30147Y78187D01*
X30041Y78223D01*
X29938Y78269D01*
X29906Y78283D01*
X29871Y78291D01*
X29836Y78294D01*
X29800Y78291D01*
X29766Y78283D01*
X29733Y78269D01*
X29702Y78250D01*
X29675Y78227D01*
X29652Y78200D01*
X29634Y78170D01*
X29620Y78137D01*
X29612Y78102D01*
X29609Y78067D01*
X29612Y78031D01*
X29621Y77997D01*
X29635Y77964D01*
X29653Y77933D01*
X29676Y77906D01*
X29704Y77883D01*
X29734Y77865D01*
X29875Y77800D01*
X30021Y77751D01*
X30172Y77715D01*
X30325Y77693D01*
X30480Y77686D01*
X30481Y77686D01*
Y76845D01*
X29131D01*
Y78482D01*
X29136Y78480D01*
X29171Y78471D01*
X29207Y78468D01*
X29242Y78471D01*
X29277Y78479D01*
X29310Y78493D01*
X29341Y78511D01*
X29368Y78535D01*
X29392Y78562D01*
X29410Y78592D01*
X29424Y78625D01*
X29433Y78660D01*
X29435Y78696D01*
X29433Y78731D01*
X29425Y78766D01*
X29410Y78799D01*
X29363Y78901D01*
X29327Y79007D01*
X29301Y79117D01*
X29285Y79228D01*
X29280Y79340D01*
X29285Y79452D01*
X29301Y79563D01*
X29327Y79673D01*
X29363Y79779D01*
X29409Y79882D01*
X29423Y79914D01*
X29431Y79949D01*
X29434Y79984D01*
X29431Y80020D01*
X29423Y80054D01*
X29409Y80087D01*
X29390Y80118D01*
X29367Y80145D01*
X29340Y80168D01*
X29310Y80186D01*
X29277Y80200D01*
X29242Y80208D01*
X29207Y80211D01*
X29171Y80208D01*
X29137Y80199D01*
X29131Y80197D01*
Y90170D01*
G37*
G36*
X30481Y76057D02*X29131D01*
Y76395D01*
X30481D01*
Y76057D01*
G37*
G36*
X29131D02*X23705D01*
X23675Y76059D01*
X23555Y76050D01*
X23439Y76022D01*
X23328Y75976D01*
X23226Y75913D01*
X23226Y75913D01*
X23135Y75835D01*
X23115Y75813D01*
X18436Y71134D01*
Y77755D01*
X19740Y77756D01*
X19794Y77769D01*
X19846Y77790D01*
X19893Y77819D01*
X19935Y77855D01*
X19971Y77897D01*
X20000Y77944D01*
X20021Y77996D01*
X20034Y78050D01*
X20038Y78105D01*
X20037Y78495D01*
X20510D01*
X20535Y78455D01*
X20581Y78401D01*
X20635Y78355D01*
X20695Y78318D01*
X20761Y78291D01*
X20829Y78274D01*
X20900Y78269D01*
X20971Y78274D01*
X21039Y78291D01*
X21105Y78318D01*
X21165Y78355D01*
X21219Y78401D01*
X21265Y78455D01*
X21302Y78515D01*
X21329Y78581D01*
X21346Y78649D01*
X21350Y78720D01*
X21346Y78791D01*
X21329Y78859D01*
X21302Y78925D01*
X21265Y78985D01*
X21219Y79039D01*
X21165Y79085D01*
X21105Y79122D01*
X21039Y79149D01*
X20971Y79166D01*
X20900Y79171D01*
X20829Y79166D01*
X20761Y79149D01*
X20695Y79122D01*
X20635Y79085D01*
X20581Y79039D01*
X20535Y78985D01*
X20510Y78945D01*
X20035D01*
X20034Y79430D01*
X20021Y79484D01*
X20000Y79536D01*
X19971Y79583D01*
X19935Y79625D01*
X19893Y79661D01*
X19846Y79690D01*
X19794Y79711D01*
X19740Y79724D01*
X19685Y79728D01*
X18436Y79726D01*
Y80295D01*
X19740Y80296D01*
X19794Y80309D01*
X19846Y80330D01*
X19893Y80359D01*
X19935Y80395D01*
X19971Y80437D01*
X20000Y80484D01*
X20021Y80536D01*
X20034Y80590D01*
X20038Y80645D01*
X20034Y81970D01*
X20021Y82024D01*
X20000Y82076D01*
X19971Y82123D01*
X19935Y82165D01*
X19893Y82201D01*
X19846Y82230D01*
X19794Y82251D01*
X19740Y82264D01*
X19685Y82268D01*
X18783Y82267D01*
X18436Y82266D01*
Y84702D01*
X18710Y84768D01*
X19146Y84949D01*
X19549Y85195D01*
X19908Y85502D01*
X20215Y85861D01*
X20461Y86264D01*
X20642Y86700D01*
X20752Y87159D01*
X20780Y87630D01*
X20752Y88101D01*
X20642Y88560D01*
X20461Y88996D01*
X20215Y89399D01*
X19908Y89758D01*
X20320Y90170D01*
X29131D01*
Y80197D01*
X29104Y80185D01*
X29073Y80167D01*
X29046Y80144D01*
X29023Y80116D01*
X29005Y80086D01*
X28940Y79945D01*
X28891Y79799D01*
X28855Y79648D01*
X28833Y79495D01*
X28826Y79340D01*
X28833Y79185D01*
X28855Y79032D01*
X28891Y78881D01*
X28940Y78735D01*
X29004Y78593D01*
X29022Y78563D01*
X29045Y78536D01*
X29073Y78512D01*
X29103Y78493D01*
X29131Y78482D01*
Y76845D01*
X27593D01*
X25175Y79263D01*
Y81030D01*
X25215Y81055D01*
X25269Y81101D01*
X25315Y81155D01*
X25352Y81215D01*
X25379Y81281D01*
X25396Y81349D01*
X25400Y81420D01*
X25396Y81491D01*
X25379Y81559D01*
X25352Y81625D01*
X25315Y81685D01*
X25269Y81739D01*
X25215Y81785D01*
X25155Y81822D01*
X25089Y81849D01*
X25021Y81866D01*
X24950Y81871D01*
X24879Y81866D01*
X24811Y81849D01*
X24745Y81822D01*
X24685Y81785D01*
X24631Y81739D01*
X24585Y81685D01*
X24548Y81625D01*
X24521Y81559D01*
X24504Y81491D01*
X24499Y81420D01*
X24504Y81349D01*
X24521Y81281D01*
X24548Y81215D01*
X24585Y81155D01*
X24631Y81101D01*
X24685Y81055D01*
X24725Y81030D01*
Y79179D01*
X24724Y79170D01*
X24727Y79135D01*
X24735Y79100D01*
X24749Y79068D01*
X24767Y79037D01*
X24767Y79037D01*
X24790Y79010D01*
X24797Y79005D01*
X27335Y76467D01*
X27340Y76460D01*
X27367Y76437D01*
X27367Y76437D01*
X27398Y76419D01*
X27430Y76405D01*
X27465Y76397D01*
X27500Y76394D01*
X27509Y76395D01*
X29131D01*
Y76057D01*
G37*
G36*
X18436Y71134D02*X15382Y68080D01*
X15360Y68060D01*
X15282Y67969D01*
X15240Y67901D01*
Y85090D01*
X15652Y85502D01*
X16011Y85195D01*
X16414Y84949D01*
X16850Y84768D01*
X17309Y84658D01*
X17780Y84621D01*
X18251Y84658D01*
X18436Y84702D01*
Y82266D01*
X17076Y82265D01*
X16414Y82265D01*
Y82265D01*
X15820Y82264D01*
X15766Y82251D01*
X15714Y82230D01*
X15667Y82201D01*
X15625Y82165D01*
X15589Y82123D01*
X15560Y82076D01*
X15539Y82024D01*
X15526Y81970D01*
X15522Y81915D01*
X15526Y80590D01*
X15539Y80536D01*
X15560Y80484D01*
X15589Y80437D01*
X15625Y80395D01*
X15667Y80359D01*
X15714Y80330D01*
X15766Y80309D01*
X15820Y80296D01*
X15875Y80292D01*
X18436Y80295D01*
Y79726D01*
X15820Y79724D01*
X15766Y79711D01*
X15714Y79690D01*
X15667Y79661D01*
X15625Y79625D01*
X15589Y79583D01*
X15560Y79536D01*
X15539Y79484D01*
X15526Y79430D01*
X15522Y79375D01*
X15526Y78050D01*
X15539Y77996D01*
X15560Y77944D01*
X15589Y77897D01*
X15625Y77855D01*
X15667Y77819D01*
X15714Y77790D01*
X15766Y77769D01*
X15820Y77756D01*
X15875Y77752D01*
X18436Y77755D01*
Y71134D01*
G37*
G36*
X40995Y46330D02*X40997Y46326D01*
X41112Y46192D01*
X41246Y46077D01*
X41398Y45984D01*
X41561Y45916D01*
X41733Y45875D01*
X41908Y45861D01*
Y45576D01*
X41809Y45572D01*
X41709Y45559D01*
X41611Y45536D01*
X41515Y45505D01*
X41423Y45466D01*
X41400Y45453D01*
X41380Y45437D01*
X41363Y45417D01*
X41349Y45396D01*
X41339Y45372D01*
X41332Y45347D01*
X41330Y45322D01*
X41331Y45296D01*
X41336Y45271D01*
X41346Y45247D01*
X41359Y45225D01*
X41375Y45205D01*
X41394Y45188D01*
X41416Y45174D01*
X41439Y45163D01*
X41464Y45157D01*
X41490Y45154D01*
X41515Y45155D01*
X41540Y45161D01*
X41564Y45171D01*
X41630Y45199D01*
X41698Y45221D01*
X41768Y45237D01*
X41839Y45247D01*
X41908Y45250D01*
Y43650D01*
X41839Y43653D01*
X41768Y43663D01*
X41698Y43679D01*
X41630Y43701D01*
X41564Y43729D01*
X41540Y43738D01*
X41515Y43744D01*
X41490Y43745D01*
X41464Y43743D01*
X41439Y43736D01*
X41416Y43726D01*
X41394Y43712D01*
X41375Y43695D01*
X41359Y43675D01*
X41346Y43653D01*
X41337Y43629D01*
X41332Y43604D01*
X41330Y43578D01*
X41333Y43553D01*
X41340Y43528D01*
X41350Y43505D01*
X41364Y43483D01*
X41381Y43464D01*
X41401Y43448D01*
X41423Y43435D01*
X41515Y43395D01*
X41611Y43364D01*
X41709Y43341D01*
X41809Y43328D01*
X41908Y43324D01*
Y39035D01*
X41784Y39035D01*
Y39035D01*
X41228Y39035D01*
X41181Y39024D01*
X41137Y39005D01*
X41097Y38980D01*
X41060Y38950D01*
X41030Y38913D01*
X41005Y38873D01*
X40995Y38849D01*
Y43877D01*
X41013Y43872D01*
X41038Y43870D01*
X41064Y43871D01*
X41089Y43876D01*
X41113Y43886D01*
X41135Y43899D01*
X41155Y43915D01*
X41172Y43934D01*
X41186Y43956D01*
X41197Y43979D01*
X41203Y44004D01*
X41206Y44030D01*
X41205Y44055D01*
X41199Y44080D01*
X41189Y44104D01*
X41161Y44170D01*
X41139Y44238D01*
X41123Y44308D01*
X41113Y44379D01*
X41110Y44450D01*
X41113Y44521D01*
X41123Y44592D01*
X41139Y44662D01*
X41161Y44730D01*
X41189Y44796D01*
X41198Y44820D01*
X41204Y44845D01*
X41205Y44870D01*
X41203Y44896D01*
X41196Y44921D01*
X41186Y44944D01*
X41172Y44966D01*
X41155Y44985D01*
X41135Y45001D01*
X41113Y45014D01*
X41089Y45023D01*
X41064Y45028D01*
X41038Y45030D01*
X41013Y45027D01*
X40995Y45022D01*
Y46330D01*
G37*
G36*
Y48870D02*X40997Y48866D01*
X41112Y48732D01*
X41246Y48617D01*
X41398Y48524D01*
X41561Y48456D01*
X41733Y48415D01*
X41908Y48401D01*
Y48119D01*
X41733Y48105D01*
X41561Y48064D01*
X41398Y47996D01*
X41246Y47903D01*
X41112Y47788D01*
X40997Y47654D01*
X40995Y47650D01*
Y48870D01*
G37*
G36*
Y51410D02*X40997Y51406D01*
X41112Y51272D01*
X41246Y51157D01*
X41398Y51064D01*
X41561Y50996D01*
X41733Y50955D01*
X41908Y50941D01*
Y50659D01*
X41733Y50645D01*
X41561Y50604D01*
X41398Y50536D01*
X41246Y50443D01*
X41112Y50328D01*
X40997Y50194D01*
X40995Y50190D01*
Y51410D01*
G37*
G36*
Y53950D02*X40997Y53946D01*
X41112Y53812D01*
X41246Y53697D01*
X41398Y53604D01*
X41561Y53536D01*
X41733Y53495D01*
X41908Y53481D01*
Y53199D01*
X41733Y53185D01*
X41561Y53144D01*
X41398Y53076D01*
X41246Y52983D01*
X41112Y52868D01*
X40997Y52734D01*
X40995Y52730D01*
Y53950D01*
G37*
G36*
Y56490D02*X40997Y56486D01*
X41112Y56352D01*
X41246Y56237D01*
X41398Y56144D01*
X41561Y56076D01*
X41733Y56035D01*
X41908Y56021D01*
Y55739D01*
X41733Y55725D01*
X41561Y55684D01*
X41398Y55616D01*
X41246Y55523D01*
X41112Y55408D01*
X40997Y55274D01*
X40995Y55270D01*
Y56490D01*
G37*
G36*
Y59030D02*X40997Y59026D01*
X41112Y58892D01*
X41246Y58777D01*
X41398Y58684D01*
X41561Y58616D01*
X41733Y58575D01*
X41908Y58561D01*
Y58279D01*
X41733Y58265D01*
X41561Y58224D01*
X41398Y58156D01*
X41246Y58063D01*
X41112Y57948D01*
X40997Y57814D01*
X40995Y57810D01*
Y59030D01*
G37*
G36*
Y61570D02*X40997Y61566D01*
X41112Y61432D01*
X41246Y61317D01*
X41398Y61224D01*
X41561Y61156D01*
X41733Y61115D01*
X41908Y61101D01*
Y60819D01*
X41733Y60805D01*
X41561Y60764D01*
X41398Y60696D01*
X41246Y60603D01*
X41112Y60488D01*
X40997Y60354D01*
X40995Y60350D01*
Y61570D01*
G37*
G36*
Y67405D02*X41060Y67330D01*
X41151Y67252D01*
X41253Y67189D01*
X41364Y67143D01*
X41480Y67115D01*
X41600Y67106D01*
X41720Y67115D01*
X41836Y67143D01*
X41908Y67173D01*
Y63359D01*
X41733Y63345D01*
X41561Y63304D01*
X41398Y63236D01*
X41246Y63143D01*
X41112Y63028D01*
X40997Y62894D01*
X40995Y62890D01*
Y67405D01*
G37*
G36*
X41908Y36495D02*X41228Y36495D01*
X41181Y36484D01*
X41137Y36465D01*
X41097Y36440D01*
X41060Y36410D01*
X41030Y36373D01*
X41005Y36333D01*
X40995Y36309D01*
Y37351D01*
X41005Y37327D01*
X41030Y37287D01*
X41060Y37250D01*
X41097Y37220D01*
X41137Y37195D01*
X41181Y37176D01*
X41228Y37165D01*
X41275Y37162D01*
X41724Y37163D01*
X41908Y37163D01*
Y36495D01*
G37*
G36*
X40995Y36309D02*X40986Y36289D01*
X40975Y36242D01*
X40972Y36195D01*
X40973Y35785D01*
X19661D01*
X19701Y35801D01*
X19856Y35896D01*
X19993Y36014D01*
X20040Y36068D01*
X24330D01*
X24360Y36066D01*
X24480Y36075D01*
X24480D01*
X24480Y36075D01*
X24596Y36103D01*
X24707Y36149D01*
X24809Y36212D01*
X24900Y36290D01*
X24920Y36312D01*
X30216Y41608D01*
X36737D01*
X36745Y41500D01*
X36773Y41384D01*
X36819Y41273D01*
X36882Y41171D01*
X36960Y41080D01*
X37051Y41002D01*
X37153Y40939D01*
X37264Y40893D01*
X37380Y40865D01*
X37500Y40856D01*
X37530Y40858D01*
X38220D01*
X38250Y40856D01*
X38370Y40865D01*
X38486Y40893D01*
X38597Y40939D01*
X38699Y41002D01*
X38790Y41080D01*
X38868Y41171D01*
X38931Y41273D01*
X38977Y41384D01*
X39005Y41500D01*
X39014Y41620D01*
X39012Y41650D01*
Y42340D01*
X39014Y42370D01*
X39012Y42400D01*
Y53388D01*
X39045Y53368D01*
X39111Y53341D01*
X39179Y53324D01*
X39250Y53319D01*
X39321Y53324D01*
X39389Y53341D01*
X39455Y53368D01*
X39515Y53405D01*
X39569Y53451D01*
X39615Y53505D01*
X39652Y53565D01*
X39679Y53631D01*
X39696Y53699D01*
X39700Y53770D01*
X39696Y53841D01*
X39679Y53909D01*
X39652Y53975D01*
X39615Y54035D01*
X39569Y54089D01*
X39515Y54135D01*
X39455Y54172D01*
X39389Y54199D01*
X39321Y54216D01*
X39250Y54221D01*
X39179Y54216D01*
X39111Y54199D01*
X39045Y54172D01*
X39012Y54152D01*
Y55040D01*
X39014Y55070D01*
X39012Y55100D01*
Y57540D01*
X39014Y57570D01*
X39012Y57600D01*
Y70240D01*
X39014Y70270D01*
X39005Y70390D01*
X38977Y70506D01*
X38931Y70617D01*
X38868Y70719D01*
X38790Y70810D01*
X38768Y70830D01*
X36960Y72638D01*
X36940Y72660D01*
X36849Y72738D01*
X36747Y72801D01*
X36636Y72847D01*
X36520Y72875D01*
X36400Y72884D01*
X36370Y72882D01*
X36182D01*
X36202Y72915D01*
X36229Y72981D01*
X36246Y73049D01*
X36250Y73120D01*
X36246Y73191D01*
X36229Y73259D01*
X36202Y73325D01*
X36165Y73385D01*
X36119Y73439D01*
X36065Y73485D01*
X36005Y73522D01*
X35939Y73549D01*
X35871Y73566D01*
X35800Y73571D01*
X35729Y73566D01*
X35661Y73549D01*
X35595Y73522D01*
X35535Y73485D01*
X35481Y73439D01*
X35435Y73385D01*
X35398Y73325D01*
X35385Y73295D01*
X31100D01*
X31155Y73318D01*
X31215Y73355D01*
X31269Y73401D01*
X31315Y73455D01*
X31352Y73515D01*
X31379Y73581D01*
X31396Y73649D01*
X31400Y73720D01*
X31396Y73791D01*
X31379Y73859D01*
X31352Y73925D01*
X31315Y73985D01*
X31269Y74039D01*
X31215Y74085D01*
X31155Y74122D01*
X31089Y74149D01*
X31021Y74166D01*
X30950Y74171D01*
X30879Y74166D01*
X30811Y74149D01*
X30745Y74122D01*
X30685Y74085D01*
X30631Y74039D01*
X30585Y73985D01*
X30560Y73945D01*
X25059D01*
X25050Y73946D01*
X25015Y73943D01*
X24980Y73935D01*
X24948Y73921D01*
X24917Y73903D01*
X24917Y73903D01*
X24890Y73880D01*
X24885Y73873D01*
X21567Y70555D01*
X21521Y70566D01*
X21450Y70571D01*
X21379Y70566D01*
X21311Y70549D01*
X21245Y70522D01*
X21185Y70485D01*
X21131Y70439D01*
X21085Y70385D01*
X21048Y70325D01*
X21021Y70259D01*
X21004Y70191D01*
X20999Y70120D01*
X21004Y70049D01*
X21021Y69981D01*
X21048Y69915D01*
X21085Y69855D01*
X21131Y69801D01*
X21185Y69755D01*
X21245Y69718D01*
X21311Y69691D01*
X21379Y69674D01*
X21450Y69669D01*
X21521Y69674D01*
X21589Y69691D01*
X21655Y69718D01*
X21715Y69755D01*
X21769Y69801D01*
X21815Y69855D01*
X21852Y69915D01*
X21879Y69981D01*
X21896Y70049D01*
X21900Y70120D01*
X21896Y70191D01*
X21885Y70237D01*
X25143Y73495D01*
X30560D01*
X30585Y73455D01*
X30631Y73401D01*
X30685Y73355D01*
X30745Y73318D01*
X30800Y73295D01*
X26609D01*
X26600Y73296D01*
X26565Y73293D01*
X26530Y73285D01*
X26498Y73271D01*
X26467Y73253D01*
X26467Y73253D01*
X26440Y73230D01*
X26435Y73223D01*
X21567Y68355D01*
X21521Y68366D01*
X21450Y68371D01*
X21379Y68366D01*
X21311Y68349D01*
X21245Y68322D01*
X21185Y68285D01*
X21131Y68239D01*
X21085Y68185D01*
X21048Y68125D01*
X21021Y68059D01*
X21004Y67991D01*
X20999Y67920D01*
X21004Y67849D01*
X21021Y67781D01*
X21048Y67715D01*
X21085Y67655D01*
X21131Y67601D01*
X21185Y67555D01*
X21245Y67518D01*
X21311Y67491D01*
X21379Y67474D01*
X21450Y67469D01*
X21521Y67474D01*
X21589Y67491D01*
X21655Y67518D01*
X21715Y67555D01*
X21769Y67601D01*
X21815Y67655D01*
X21852Y67715D01*
X21879Y67781D01*
X21896Y67849D01*
X21900Y67920D01*
X21896Y67991D01*
X21885Y68037D01*
X26693Y72845D01*
X27859D01*
X27753Y72801D01*
X27651Y72738D01*
X27560Y72660D01*
X27482Y72569D01*
X27419Y72467D01*
X27373Y72356D01*
X27345Y72240D01*
X27336Y72120D01*
X27345Y72000D01*
X27373Y71884D01*
X27419Y71773D01*
X27482Y71671D01*
X27560Y71580D01*
X27651Y71502D01*
X27753Y71439D01*
X27864Y71393D01*
X27980Y71365D01*
X28100Y71358D01*
X36084D01*
X37488Y69954D01*
Y59236D01*
X36584Y58332D01*
X35800D01*
X35788Y58331D01*
X35750Y58334D01*
X35720Y58332D01*
X32480D01*
X36803Y62655D01*
X36810Y62660D01*
X36833Y62687D01*
X36833Y62687D01*
X36851Y62718D01*
X36865Y62750D01*
X36873Y62785D01*
X36876Y62820D01*
X36875Y62829D01*
Y64430D01*
X36915Y64455D01*
X36969Y64501D01*
X37015Y64555D01*
X37052Y64615D01*
X37079Y64681D01*
X37096Y64749D01*
X37100Y64820D01*
X37096Y64891D01*
X37079Y64959D01*
X37052Y65025D01*
X37015Y65085D01*
X36969Y65139D01*
X36915Y65185D01*
X36855Y65222D01*
X36789Y65249D01*
X36721Y65266D01*
X36650Y65271D01*
X36579Y65266D01*
X36511Y65249D01*
X36445Y65222D01*
X36385Y65185D01*
X36331Y65139D01*
X36285Y65085D01*
X36260Y65045D01*
X17809D01*
X17800Y65046D01*
X17765Y65043D01*
X17730Y65035D01*
X17698Y65021D01*
X17667Y65003D01*
X17667Y65003D01*
X17640Y64980D01*
X17635Y64973D01*
X16662Y64000D01*
Y67204D01*
X23991Y74533D01*
X38284D01*
X40838Y71979D01*
Y67870D01*
X40845Y67750D01*
X40873Y67634D01*
X40919Y67523D01*
X40982Y67421D01*
X40995Y67405D01*
Y62890D01*
X40904Y62742D01*
X40836Y62579D01*
X40795Y62407D01*
X40781Y62230D01*
X40795Y62053D01*
X40836Y61881D01*
X40904Y61718D01*
X40995Y61570D01*
Y60350D01*
X40904Y60202D01*
X40836Y60039D01*
X40795Y59867D01*
X40781Y59690D01*
X40795Y59513D01*
X40836Y59341D01*
X40904Y59178D01*
X40995Y59030D01*
Y57810D01*
X40904Y57662D01*
X40836Y57499D01*
X40795Y57327D01*
X40781Y57150D01*
X40795Y56973D01*
X40836Y56801D01*
X40904Y56638D01*
X40995Y56490D01*
Y55270D01*
X40904Y55122D01*
X40836Y54959D01*
X40795Y54787D01*
X40781Y54610D01*
X40795Y54433D01*
X40836Y54261D01*
X40904Y54098D01*
X40995Y53950D01*
Y52730D01*
X40904Y52582D01*
X40836Y52419D01*
X40795Y52247D01*
X40781Y52070D01*
X40795Y51893D01*
X40836Y51721D01*
X40904Y51558D01*
X40995Y51410D01*
Y50190D01*
X40904Y50042D01*
X40836Y49879D01*
X40795Y49707D01*
X40781Y49530D01*
X40795Y49353D01*
X40836Y49181D01*
X40904Y49018D01*
X40995Y48870D01*
Y47650D01*
X40904Y47502D01*
X40836Y47339D01*
X40795Y47167D01*
X40781Y46990D01*
X40795Y46813D01*
X40836Y46641D01*
X40904Y46478D01*
X40995Y46330D01*
Y45022D01*
X40988Y45020D01*
X40965Y45010D01*
X40943Y44996D01*
X40924Y44979D01*
X40908Y44959D01*
X40895Y44937D01*
X40855Y44845D01*
X40824Y44749D01*
X40801Y44651D01*
X40788Y44551D01*
X40783Y44450D01*
X40788Y44349D01*
X40801Y44249D01*
X40824Y44151D01*
X40855Y44055D01*
X40894Y43963D01*
X40907Y43940D01*
X40923Y43920D01*
X40943Y43903D01*
X40964Y43889D01*
X40988Y43879D01*
X40995Y43877D01*
Y38849D01*
X40986Y38829D01*
X40975Y38782D01*
X40972Y38735D01*
X40975Y37418D01*
X40986Y37371D01*
X40995Y37351D01*
Y36309D01*
G37*
G36*
X30478Y35335D02*X40974D01*
X40975Y34878D01*
X40986Y34831D01*
X41005Y34787D01*
X41030Y34747D01*
X41060Y34710D01*
X41097Y34680D01*
X41137Y34655D01*
X41181Y34636D01*
X41228Y34625D01*
X41275Y34622D01*
X41908Y34623D01*
Y24310D01*
X41814Y24271D01*
X41411Y24025D01*
X41052Y23718D01*
X40745Y23359D01*
X40499Y22956D01*
X40318Y22520D01*
X40208Y22061D01*
X40171Y21590D01*
X40208Y21119D01*
X40318Y20660D01*
X40499Y20224D01*
X40745Y19821D01*
X41052Y19462D01*
X40640Y19050D01*
X34353D01*
X34413Y19195D01*
X34468Y19424D01*
X34482Y19660D01*
X34468Y19896D01*
X34413Y20125D01*
X34322Y20344D01*
X34199Y20545D01*
X34045Y20725D01*
X33865Y20879D01*
X33664Y21002D01*
X33445Y21093D01*
X33216Y21148D01*
X32980Y21166D01*
X32744Y21148D01*
X32515Y21093D01*
X32296Y21002D01*
X32095Y20879D01*
X31915Y20725D01*
X31761Y20545D01*
X31730Y20494D01*
X31699Y20545D01*
X31545Y20725D01*
X31365Y20879D01*
X31164Y21002D01*
X30945Y21093D01*
X30716Y21148D01*
X30480Y21166D01*
X30478Y21166D01*
Y21354D01*
X30480Y21354D01*
X30716Y21372D01*
X30945Y21427D01*
X31164Y21518D01*
X31365Y21641D01*
X31545Y21795D01*
X31699Y21975D01*
X31730Y22026D01*
X31761Y21975D01*
X31915Y21795D01*
X31961Y21756D01*
X32095Y21641D01*
X32296Y21518D01*
X32515Y21427D01*
X32744Y21372D01*
X32980Y21354D01*
X33216Y21372D01*
X33445Y21427D01*
X33664Y21518D01*
X33865Y21641D01*
X34045Y21795D01*
X34199Y21975D01*
X34322Y22176D01*
X34413Y22395D01*
X34468Y22624D01*
X34482Y22860D01*
X34468Y23096D01*
X34413Y23325D01*
X34322Y23544D01*
X34199Y23745D01*
X34045Y23925D01*
X33865Y24079D01*
X33664Y24202D01*
X33445Y24293D01*
X33216Y24348D01*
X32980Y24366D01*
X32744Y24348D01*
X32515Y24293D01*
X32296Y24202D01*
X32095Y24079D01*
X31961Y23964D01*
X31915Y23925D01*
X31761Y23745D01*
X31730Y23694D01*
X31699Y23745D01*
X31545Y23925D01*
X31365Y24079D01*
X31164Y24202D01*
X30945Y24293D01*
X30716Y24348D01*
X30480Y24366D01*
X30478Y24366D01*
Y25683D01*
X30480Y25683D01*
X30739Y25703D01*
X30992Y25764D01*
X31232Y25863D01*
X31454Y25999D01*
X31652Y26168D01*
X31821Y26366D01*
X31957Y26588D01*
X32056Y26828D01*
X32117Y27081D01*
X32132Y27340D01*
X32117Y27599D01*
X32056Y27852D01*
X31957Y28092D01*
X31821Y28314D01*
X31652Y28512D01*
X31454Y28681D01*
X31232Y28817D01*
X30992Y28916D01*
X30739Y28977D01*
X30480Y28997D01*
X30478Y28997D01*
Y35335D01*
G37*
G36*
X19854D02*X30478D01*
Y28997D01*
X30221Y28977D01*
X29968Y28916D01*
X29728Y28817D01*
X29506Y28681D01*
X29308Y28512D01*
X29139Y28314D01*
X29003Y28092D01*
X28904Y27852D01*
X28843Y27599D01*
X28823Y27340D01*
X28843Y27081D01*
X28904Y26828D01*
X29003Y26588D01*
X29139Y26366D01*
X29308Y26168D01*
X29506Y25999D01*
X29728Y25863D01*
X29968Y25764D01*
X30221Y25703D01*
X30478Y25683D01*
Y24366D01*
X30244Y24348D01*
X30015Y24293D01*
X29796Y24202D01*
X29595Y24079D01*
X29461Y23964D01*
X29415Y23925D01*
X29261Y23745D01*
X29230Y23694D01*
X29199Y23745D01*
X29045Y23925D01*
X28865Y24079D01*
X28664Y24202D01*
X28445Y24293D01*
X28216Y24348D01*
X27980Y24366D01*
X27744Y24348D01*
X27515Y24293D01*
X27296Y24202D01*
X27095Y24079D01*
X26915Y23925D01*
X26761Y23745D01*
X26638Y23544D01*
X26547Y23325D01*
X26492Y23096D01*
X26474Y22860D01*
X26492Y22624D01*
X26547Y22395D01*
X26638Y22176D01*
X26761Y21975D01*
X26915Y21795D01*
X27095Y21641D01*
X27296Y21518D01*
X27515Y21427D01*
X27744Y21372D01*
X27980Y21354D01*
X28216Y21372D01*
X28445Y21427D01*
X28664Y21518D01*
X28865Y21641D01*
X29045Y21795D01*
X29199Y21975D01*
X29230Y22026D01*
X29261Y21975D01*
X29415Y21795D01*
X29461Y21756D01*
X29595Y21641D01*
X29796Y21518D01*
X30015Y21427D01*
X30244Y21372D01*
X30478Y21354D01*
Y21166D01*
X30244Y21148D01*
X30015Y21093D01*
X29796Y21002D01*
X29595Y20879D01*
X29415Y20725D01*
X29261Y20545D01*
X29230Y20494D01*
X29199Y20545D01*
X29045Y20725D01*
X28865Y20879D01*
X28664Y21002D01*
X28445Y21093D01*
X28216Y21148D01*
X27980Y21166D01*
X27744Y21148D01*
X27515Y21093D01*
X27296Y21002D01*
X27095Y20879D01*
X26915Y20725D01*
X26761Y20545D01*
X26638Y20344D01*
X26547Y20125D01*
X26492Y19896D01*
X26474Y19660D01*
X26492Y19424D01*
X26547Y19195D01*
X26607Y19050D01*
X20320D01*
X19908Y19462D01*
X20215Y19821D01*
X20461Y20224D01*
X20642Y20660D01*
X20752Y21119D01*
X20780Y21590D01*
X20752Y22061D01*
X20642Y22520D01*
X20461Y22956D01*
X20215Y23359D01*
X19908Y23718D01*
X19854Y23764D01*
Y25735D01*
X19856Y25736D01*
X19993Y25854D01*
X20111Y25991D01*
X20206Y26146D01*
X20275Y26313D01*
X20317Y26489D01*
X20328Y26670D01*
X20317Y26851D01*
X20275Y27027D01*
X20206Y27194D01*
X20111Y27349D01*
X19993Y27486D01*
X19856Y27604D01*
X19854Y27605D01*
Y28528D01*
X19857Y28531D01*
X19952Y28686D01*
X20021Y28853D01*
X20063Y29029D01*
X20074Y29210D01*
X20063Y29391D01*
X20021Y29567D01*
X19952Y29734D01*
X19857Y29889D01*
X19854Y29892D01*
Y30815D01*
X19856Y30816D01*
X19993Y30934D01*
X20111Y31071D01*
X20206Y31226D01*
X20275Y31393D01*
X20317Y31569D01*
X20328Y31750D01*
X20317Y31931D01*
X20275Y32107D01*
X20206Y32274D01*
X20111Y32429D01*
X19993Y32566D01*
X19856Y32684D01*
X19854Y32685D01*
Y33717D01*
X19873Y33722D01*
X19898Y33734D01*
X19921Y33750D01*
X19941Y33769D01*
X19958Y33790D01*
X19971Y33815D01*
X20012Y33915D01*
X20043Y34020D01*
X20064Y34127D01*
X20074Y34236D01*
Y34344D01*
X20064Y34453D01*
X20043Y34560D01*
X20012Y34665D01*
X19972Y34766D01*
X19959Y34790D01*
X19942Y34812D01*
X19922Y34831D01*
X19899Y34847D01*
X19874Y34858D01*
X19854Y34864D01*
Y35335D01*
G37*
G36*
Y29892D02*X19739Y30026D01*
X19602Y30144D01*
X19447Y30239D01*
X19280Y30308D01*
X19104Y30350D01*
X19050Y30354D01*
Y30606D01*
X19177Y30596D01*
X19358Y30610D01*
X19534Y30652D01*
X19701Y30721D01*
X19854Y30815D01*
Y29892D01*
G37*
G36*
Y27605D02*X19701Y27699D01*
X19534Y27768D01*
X19358Y27810D01*
X19177Y27824D01*
X19050Y27814D01*
Y28066D01*
X19104Y28070D01*
X19280Y28112D01*
X19447Y28181D01*
X19602Y28276D01*
X19739Y28394D01*
X19854Y28528D01*
Y27605D01*
G37*
G36*
Y23764D02*X19549Y24025D01*
X19146Y24271D01*
X19050Y24311D01*
Y25526D01*
X19177Y25516D01*
X19358Y25530D01*
X19534Y25572D01*
X19701Y25641D01*
X19854Y25735D01*
Y23764D01*
G37*
G36*
X19050Y35079D02*X19110Y35068D01*
X19183Y35047D01*
X19253Y35019D01*
X19279Y35009D01*
X19306Y35003D01*
X19334Y35003D01*
X19361Y35006D01*
X19388Y35014D01*
X19413Y35025D01*
X19436Y35041D01*
X19456Y35060D01*
X19473Y35081D01*
X19486Y35106D01*
X19495Y35132D01*
X19501Y35159D01*
X19502Y35186D01*
X19498Y35214D01*
X19491Y35240D01*
X19479Y35265D01*
X19463Y35288D01*
X19444Y35308D01*
X19423Y35325D01*
X19404Y35335D01*
X19854D01*
Y34864D01*
X19847Y34866D01*
X19819Y34870D01*
X19792Y34869D01*
X19764Y34863D01*
X19738Y34854D01*
X19714Y34840D01*
X19692Y34823D01*
X19673Y34803D01*
X19658Y34780D01*
X19646Y34755D01*
X19638Y34728D01*
X19635Y34701D01*
X19636Y34673D01*
X19641Y34646D01*
X19651Y34620D01*
X19680Y34550D01*
X19701Y34477D01*
X19715Y34403D01*
X19722Y34328D01*
Y34252D01*
X19715Y34177D01*
X19701Y34103D01*
X19680Y34030D01*
X19652Y33960D01*
X19642Y33934D01*
X19636Y33907D01*
X19636Y33879D01*
X19639Y33852D01*
X19647Y33825D01*
X19658Y33800D01*
X19674Y33777D01*
X19693Y33757D01*
X19714Y33740D01*
X19739Y33727D01*
X19765Y33718D01*
X19792Y33712D01*
X19819Y33711D01*
X19847Y33715D01*
X19854Y33717D01*
Y32685D01*
X19701Y32779D01*
X19534Y32848D01*
X19358Y32890D01*
X19177Y32904D01*
X19050Y32894D01*
Y33146D01*
X19086Y33149D01*
X19193Y33170D01*
X19298Y33201D01*
X19399Y33241D01*
X19423Y33254D01*
X19445Y33271D01*
X19464Y33291D01*
X19480Y33314D01*
X19491Y33339D01*
X19499Y33366D01*
X19502Y33394D01*
X19502Y33421D01*
X19496Y33449D01*
X19487Y33475D01*
X19473Y33499D01*
X19456Y33521D01*
X19436Y33540D01*
X19413Y33555D01*
X19388Y33567D01*
X19361Y33575D01*
X19334Y33578D01*
X19306Y33577D01*
X19279Y33572D01*
X19253Y33562D01*
X19183Y33533D01*
X19110Y33512D01*
X19050Y33501D01*
Y35079D01*
G37*
G36*
X19965Y48045D02*X20007D01*
X20275Y47777D01*
Y41040D01*
X19965Y40730D01*
Y43878D01*
X19972Y43880D01*
X19995Y43890D01*
X20017Y43904D01*
X20036Y43921D01*
X20052Y43941D01*
X20065Y43963D01*
X20105Y44055D01*
X20136Y44151D01*
X20159Y44249D01*
X20172Y44349D01*
X20177Y44450D01*
X20172Y44551D01*
X20159Y44651D01*
X20136Y44749D01*
X20105Y44845D01*
X20066Y44937D01*
X20053Y44960D01*
X20037Y44980D01*
X20017Y44997D01*
X19996Y45011D01*
X19972Y45021D01*
X19965Y45023D01*
Y46330D01*
X20056Y46478D01*
X20124Y46641D01*
X20165Y46813D01*
X20175Y46990D01*
X20165Y47167D01*
X20124Y47339D01*
X20056Y47502D01*
X19965Y47650D01*
Y48045D01*
G37*
G36*
Y40730D02*X19754Y40519D01*
X19723Y40521D01*
X19050Y40519D01*
Y43323D01*
X19151Y43328D01*
X19251Y43341D01*
X19349Y43364D01*
X19445Y43395D01*
X19537Y43434D01*
X19560Y43447D01*
X19580Y43463D01*
X19597Y43483D01*
X19611Y43504D01*
X19621Y43528D01*
X19628Y43553D01*
X19630Y43578D01*
X19629Y43604D01*
X19624Y43629D01*
X19614Y43653D01*
X19601Y43675D01*
X19585Y43695D01*
X19566Y43712D01*
X19544Y43726D01*
X19521Y43737D01*
X19496Y43743D01*
X19470Y43746D01*
X19445Y43745D01*
X19420Y43739D01*
X19396Y43729D01*
X19330Y43701D01*
X19262Y43679D01*
X19192Y43663D01*
X19121Y43653D01*
X19050Y43650D01*
Y45250D01*
X19121Y45247D01*
X19192Y45237D01*
X19262Y45221D01*
X19330Y45199D01*
X19396Y45171D01*
X19420Y45162D01*
X19445Y45156D01*
X19470Y45155D01*
X19496Y45157D01*
X19521Y45164D01*
X19544Y45174D01*
X19566Y45188D01*
X19585Y45205D01*
X19601Y45225D01*
X19614Y45247D01*
X19623Y45271D01*
X19628Y45296D01*
X19630Y45322D01*
X19627Y45347D01*
X19620Y45372D01*
X19610Y45395D01*
X19596Y45417D01*
X19579Y45436D01*
X19559Y45452D01*
X19537Y45465D01*
X19445Y45505D01*
X19349Y45536D01*
X19251Y45559D01*
X19151Y45572D01*
X19050Y45577D01*
Y45861D01*
X19227Y45875D01*
X19399Y45916D01*
X19562Y45984D01*
X19714Y46077D01*
X19848Y46192D01*
X19963Y46326D01*
X19965Y46330D01*
Y45023D01*
X19947Y45028D01*
X19922Y45030D01*
X19896Y45029D01*
X19871Y45024D01*
X19847Y45014D01*
X19825Y45001D01*
X19805Y44985D01*
X19788Y44966D01*
X19774Y44944D01*
X19763Y44921D01*
X19757Y44896D01*
X19754Y44870D01*
X19755Y44845D01*
X19761Y44820D01*
X19771Y44796D01*
X19799Y44730D01*
X19821Y44662D01*
X19837Y44592D01*
X19847Y44521D01*
X19850Y44450D01*
X19847Y44379D01*
X19837Y44308D01*
X19821Y44238D01*
X19799Y44170D01*
X19771Y44104D01*
X19762Y44080D01*
X19756Y44055D01*
X19755Y44030D01*
X19757Y44004D01*
X19764Y43979D01*
X19774Y43956D01*
X19788Y43934D01*
X19805Y43915D01*
X19825Y43899D01*
X19847Y43886D01*
X19871Y43877D01*
X19896Y43872D01*
X19922Y43870D01*
X19947Y43873D01*
X19965Y43878D01*
Y40730D01*
G37*
G36*
X19444Y48045D02*X19965D01*
Y47650D01*
X19963Y47654D01*
X19848Y47788D01*
X19714Y47903D01*
X19562Y47996D01*
X19444Y48045D01*
G37*
G36*
X18135Y26179D02*X18148Y26146D01*
X18243Y25991D01*
X18361Y25854D01*
X18498Y25736D01*
X18653Y25641D01*
X18820Y25572D01*
X18996Y25530D01*
X19050Y25526D01*
Y24311D01*
X18710Y24452D01*
X18251Y24562D01*
X18135Y24571D01*
Y26179D01*
G37*
G36*
Y28370D02*X18244Y28276D01*
X18399Y28181D01*
X18566Y28112D01*
X18742Y28070D01*
X18923Y28056D01*
X19050Y28066D01*
Y27814D01*
X18996Y27810D01*
X18820Y27768D01*
X18653Y27699D01*
X18498Y27604D01*
X18361Y27486D01*
X18243Y27349D01*
X18148Y27194D01*
X18135Y27161D01*
Y28370D01*
G37*
G36*
Y31259D02*X18148Y31226D01*
X18243Y31071D01*
X18361Y30934D01*
X18498Y30816D01*
X18653Y30721D01*
X18820Y30652D01*
X18996Y30610D01*
X19050Y30606D01*
Y30354D01*
X18923Y30364D01*
X18742Y30350D01*
X18566Y30308D01*
X18399Y30239D01*
X18244Y30144D01*
X18135Y30050D01*
Y31259D01*
G37*
G36*
Y35335D02*X18439D01*
X18423Y35326D01*
X18401Y35309D01*
X18382Y35289D01*
X18366Y35266D01*
X18355Y35241D01*
X18347Y35214D01*
X18343Y35186D01*
X18344Y35159D01*
X18350Y35131D01*
X18359Y35105D01*
X18373Y35081D01*
X18390Y35059D01*
X18410Y35040D01*
X18433Y35025D01*
X18458Y35013D01*
X18485Y35005D01*
X18512Y35002D01*
X18540Y35003D01*
X18567Y35008D01*
X18593Y35018D01*
X18663Y35047D01*
X18736Y35068D01*
X18810Y35082D01*
X18885Y35089D01*
X18961D01*
X19036Y35082D01*
X19050Y35079D01*
Y33501D01*
X19036Y33498D01*
X18961Y33491D01*
X18885D01*
X18810Y33498D01*
X18736Y33512D01*
X18663Y33533D01*
X18593Y33561D01*
X18567Y33571D01*
X18540Y33577D01*
X18512Y33577D01*
X18485Y33574D01*
X18458Y33566D01*
X18433Y33555D01*
X18410Y33539D01*
X18390Y33520D01*
X18373Y33499D01*
X18360Y33474D01*
X18351Y33448D01*
X18345Y33421D01*
X18344Y33394D01*
X18348Y33366D01*
X18355Y33340D01*
X18367Y33315D01*
X18383Y33292D01*
X18402Y33272D01*
X18423Y33255D01*
X18448Y33242D01*
X18548Y33201D01*
X18653Y33170D01*
X18760Y33149D01*
X18869Y33139D01*
X18977D01*
X19050Y33146D01*
Y32894D01*
X18996Y32890D01*
X18820Y32848D01*
X18653Y32779D01*
X18498Y32684D01*
X18361Y32566D01*
X18243Y32429D01*
X18148Y32274D01*
X18135Y32241D01*
Y33742D01*
X18154Y33757D01*
X18173Y33777D01*
X18188Y33800D01*
X18200Y33825D01*
X18208Y33852D01*
X18211Y33879D01*
X18210Y33907D01*
X18205Y33934D01*
X18195Y33960D01*
X18166Y34030D01*
X18145Y34103D01*
X18135Y34158D01*
Y34422D01*
X18145Y34477D01*
X18166Y34550D01*
X18194Y34620D01*
X18204Y34646D01*
X18210Y34673D01*
X18210Y34701D01*
X18207Y34728D01*
X18199Y34755D01*
X18188Y34780D01*
X18172Y34803D01*
X18153Y34823D01*
X18135Y34837D01*
Y35335D01*
G37*
G36*
X19050Y40519D02*X18135Y40518D01*
Y43877D01*
X18153Y43872D01*
X18178Y43870D01*
X18204Y43871D01*
X18229Y43876D01*
X18253Y43886D01*
X18275Y43899D01*
X18295Y43915D01*
X18312Y43934D01*
X18326Y43956D01*
X18337Y43979D01*
X18343Y44004D01*
X18346Y44030D01*
X18345Y44055D01*
X18339Y44080D01*
X18329Y44104D01*
X18301Y44170D01*
X18279Y44238D01*
X18263Y44308D01*
X18253Y44379D01*
X18250Y44450D01*
X18253Y44521D01*
X18263Y44592D01*
X18279Y44662D01*
X18301Y44730D01*
X18329Y44796D01*
X18338Y44820D01*
X18344Y44845D01*
X18345Y44870D01*
X18343Y44896D01*
X18336Y44921D01*
X18326Y44944D01*
X18312Y44966D01*
X18295Y44985D01*
X18275Y45001D01*
X18253Y45014D01*
X18229Y45023D01*
X18204Y45028D01*
X18178Y45030D01*
X18153Y45027D01*
X18135Y45022D01*
Y46228D01*
X18221D01*
X18252Y46192D01*
X18386Y46077D01*
X18538Y45984D01*
X18701Y45916D01*
X18873Y45875D01*
X19050Y45861D01*
X19050Y45861D01*
Y45577D01*
X19050Y45577D01*
X18949Y45572D01*
X18849Y45559D01*
X18751Y45536D01*
X18655Y45505D01*
X18563Y45466D01*
X18540Y45453D01*
X18520Y45437D01*
X18503Y45417D01*
X18489Y45396D01*
X18479Y45372D01*
X18472Y45347D01*
X18470Y45322D01*
X18471Y45296D01*
X18476Y45271D01*
X18486Y45247D01*
X18499Y45225D01*
X18515Y45205D01*
X18534Y45188D01*
X18556Y45174D01*
X18579Y45163D01*
X18604Y45157D01*
X18630Y45154D01*
X18655Y45155D01*
X18680Y45161D01*
X18704Y45171D01*
X18770Y45199D01*
X18838Y45221D01*
X18908Y45237D01*
X18979Y45247D01*
X19050Y45250D01*
X19050Y45250D01*
Y43650D01*
X19050Y43650D01*
X18979Y43653D01*
X18908Y43663D01*
X18838Y43679D01*
X18770Y43701D01*
X18704Y43729D01*
X18680Y43738D01*
X18655Y43744D01*
X18630Y43745D01*
X18604Y43743D01*
X18579Y43736D01*
X18556Y43726D01*
X18534Y43712D01*
X18515Y43695D01*
X18499Y43675D01*
X18486Y43653D01*
X18477Y43629D01*
X18472Y43604D01*
X18470Y43578D01*
X18473Y43553D01*
X18480Y43528D01*
X18490Y43505D01*
X18504Y43483D01*
X18521Y43464D01*
X18541Y43448D01*
X18563Y43435D01*
X18655Y43395D01*
X18751Y43364D01*
X18849Y43341D01*
X18949Y43328D01*
X19050Y43323D01*
X19050Y43323D01*
Y40519D01*
G37*
G36*
X18135Y34158D02*X18131Y34177D01*
X18124Y34252D01*
Y34328D01*
X18131Y34403D01*
X18135Y34422D01*
Y34158D01*
G37*
G36*
Y40518D02*X18068Y40518D01*
X18014Y40505D01*
X17963Y40484D01*
X17916Y40455D01*
X17874Y40419D01*
X17838Y40377D01*
X17809Y40330D01*
X17788Y40279D01*
X17775Y40225D01*
X17772Y40170D01*
X17775Y38541D01*
X17221Y37986D01*
X17215Y37981D01*
X17192Y37954D01*
X17173Y37924D01*
X17159Y37891D01*
X17151Y37856D01*
X17148Y37821D01*
X17149Y37812D01*
Y36109D01*
X17148Y36100D01*
X17151Y36065D01*
X17159Y36030D01*
X17173Y35998D01*
X17192Y35968D01*
X17192Y35968D01*
X17215Y35941D01*
X17221Y35935D01*
X17749Y35407D01*
X17755Y35400D01*
X17782Y35377D01*
X17782Y35377D01*
X17794Y35370D01*
X17812Y35359D01*
X17845Y35345D01*
X17879Y35337D01*
X17914Y35334D01*
X17923Y35335D01*
X18135D01*
Y34837D01*
X18132Y34840D01*
X18107Y34853D01*
X18081Y34862D01*
X18054Y34868D01*
X18027Y34869D01*
X17999Y34865D01*
X17973Y34858D01*
X17948Y34846D01*
X17925Y34830D01*
X17905Y34811D01*
X17888Y34790D01*
X17875Y34765D01*
X17834Y34665D01*
X17803Y34560D01*
X17782Y34453D01*
X17772Y34344D01*
Y34236D01*
X17782Y34127D01*
X17803Y34020D01*
X17834Y33915D01*
X17874Y33814D01*
X17887Y33790D01*
X17904Y33768D01*
X17924Y33749D01*
X17947Y33733D01*
X17972Y33722D01*
X17999Y33714D01*
X18027Y33710D01*
X18054Y33711D01*
X18082Y33717D01*
X18108Y33726D01*
X18132Y33740D01*
X18135Y33742D01*
Y32241D01*
X18079Y32107D01*
X18037Y31931D01*
X18023Y31750D01*
X18037Y31569D01*
X18079Y31393D01*
X18135Y31259D01*
Y30050D01*
X18107Y30026D01*
X17989Y29889D01*
X17894Y29734D01*
X17825Y29567D01*
X17783Y29391D01*
X17769Y29210D01*
X17783Y29029D01*
X17825Y28853D01*
X17894Y28686D01*
X17989Y28531D01*
X18107Y28394D01*
X18135Y28370D01*
Y27161D01*
X18079Y27027D01*
X18037Y26851D01*
X18023Y26670D01*
X18037Y26489D01*
X18079Y26313D01*
X18135Y26179D01*
Y24571D01*
X17780Y24599D01*
X17309Y24562D01*
X16850Y24452D01*
X16414Y24271D01*
X16011Y24025D01*
X15652Y23718D01*
X15240Y24130D01*
Y47639D01*
X15282Y47571D01*
X15282Y47571D01*
X15360Y47480D01*
X15382Y47460D01*
X16370Y46472D01*
X16390Y46450D01*
X16481Y46372D01*
X16481Y46372D01*
X16583Y46309D01*
X16694Y46263D01*
X16761Y46247D01*
X16810Y46235D01*
X16810Y46235D01*
X16930Y46226D01*
X16960Y46228D01*
X18135D01*
Y45022D01*
X18128Y45020D01*
X18105Y45010D01*
X18083Y44996D01*
X18064Y44979D01*
X18048Y44959D01*
X18035Y44937D01*
X17995Y44845D01*
X17964Y44749D01*
X17941Y44651D01*
X17928Y44551D01*
X17923Y44450D01*
X17928Y44349D01*
X17941Y44249D01*
X17964Y44151D01*
X17995Y44055D01*
X18034Y43963D01*
X18047Y43940D01*
X18063Y43920D01*
X18083Y43903D01*
X18104Y43889D01*
X18128Y43879D01*
X18135Y43877D01*
Y40518D01*
G37*
G36*
X19574Y61095D02*X18359D01*
X18350Y61096D01*
X18315Y61093D01*
X18280Y61085D01*
X18248Y61071D01*
X18217Y61053D01*
X18217Y61053D01*
X18190Y61030D01*
X18185Y61023D01*
X17197Y60035D01*
X17190Y60030D01*
X17167Y60003D01*
X17149Y59972D01*
X17135Y59940D01*
X17127Y59905D01*
X17124Y59870D01*
X17125Y59861D01*
Y56319D01*
X17124Y56310D01*
X17127Y56275D01*
X17135Y56240D01*
X17149Y56208D01*
X17167Y56177D01*
X17167Y56177D01*
X17190Y56150D01*
X17197Y56145D01*
X18111Y55231D01*
X18044Y55122D01*
X17976Y54959D01*
X17935Y54787D01*
X17921Y54610D01*
X17935Y54433D01*
X17976Y54261D01*
X18044Y54098D01*
X18137Y53946D01*
X18252Y53812D01*
X18386Y53697D01*
X18538Y53604D01*
X18701Y53536D01*
X18873Y53495D01*
X19050Y53481D01*
X19227Y53495D01*
X19399Y53536D01*
X19562Y53604D01*
X19714Y53697D01*
X19848Y53812D01*
X19963Y53946D01*
X20056Y54098D01*
X20124Y54261D01*
X20165Y54433D01*
X20175Y54610D01*
X20165Y54787D01*
X20124Y54959D01*
X20056Y55122D01*
X19963Y55274D01*
X19848Y55408D01*
X19714Y55523D01*
X19562Y55616D01*
X19399Y55684D01*
X19351Y55695D01*
X22357D01*
X19671Y53009D01*
X19562Y53076D01*
X19399Y53144D01*
X19227Y53185D01*
X19050Y53199D01*
X18873Y53185D01*
X18701Y53144D01*
X18538Y53076D01*
X18386Y52983D01*
X18252Y52868D01*
X18137Y52734D01*
X18044Y52582D01*
X17976Y52419D01*
X17935Y52247D01*
X17921Y52070D01*
X17935Y51893D01*
X17976Y51721D01*
X18044Y51558D01*
X18137Y51406D01*
X18252Y51272D01*
X18386Y51157D01*
X18538Y51064D01*
X18701Y50996D01*
X18873Y50955D01*
X19050Y50941D01*
X19227Y50955D01*
X19399Y50996D01*
X19562Y51064D01*
X19714Y51157D01*
X19848Y51272D01*
X19963Y51406D01*
X20056Y51558D01*
X20124Y51721D01*
X20165Y51893D01*
X20175Y52070D01*
X20165Y52247D01*
X20124Y52419D01*
X20056Y52582D01*
X19989Y52691D01*
X20225Y52927D01*
Y51023D01*
X19671Y50469D01*
X19562Y50536D01*
X19399Y50604D01*
X19227Y50645D01*
X19050Y50659D01*
X18873Y50645D01*
X18701Y50604D01*
X18538Y50536D01*
X18386Y50443D01*
X18252Y50328D01*
X18137Y50194D01*
X18044Y50042D01*
X17976Y49879D01*
X17935Y49707D01*
X17921Y49530D01*
X17935Y49353D01*
X17976Y49181D01*
X18044Y49018D01*
X18137Y48866D01*
X18252Y48732D01*
X18386Y48617D01*
X18538Y48524D01*
X18548Y48520D01*
X18118D01*
X16875Y49763D01*
Y52820D01*
X16875Y52820D01*
X16886Y63588D01*
X17893Y64595D01*
X36260D01*
X36285Y64555D01*
X36331Y64501D01*
X36385Y64455D01*
X36425Y64430D01*
Y62913D01*
X32620Y59108D01*
X32629Y59131D01*
X32646Y59199D01*
X32650Y59270D01*
X32646Y59341D01*
X32629Y59409D01*
X32602Y59475D01*
X32565Y59535D01*
X32519Y59589D01*
X32465Y59635D01*
X32405Y59672D01*
X32339Y59699D01*
X32271Y59716D01*
X32200Y59721D01*
X32129Y59716D01*
X32061Y59699D01*
X31995Y59672D01*
X31935Y59635D01*
X31881Y59589D01*
X31835Y59535D01*
X31811Y59496D01*
X31810Y59495D01*
X30562D01*
X30563Y59496D01*
X30569Y59501D01*
X30615Y59555D01*
X30652Y59615D01*
X30679Y59681D01*
X30696Y59749D01*
X30700Y59820D01*
X30696Y59891D01*
X30679Y59959D01*
X30652Y60025D01*
X30615Y60085D01*
X30569Y60139D01*
X30515Y60185D01*
X30455Y60222D01*
X30389Y60249D01*
X30321Y60266D01*
X30250Y60271D01*
X30179Y60266D01*
X30111Y60249D01*
X30045Y60222D01*
X29985Y60185D01*
X29931Y60139D01*
X29885Y60085D01*
X29860Y60045D01*
X21393D01*
X19921Y61517D01*
X19963Y61566D01*
X20056Y61718D01*
X20124Y61881D01*
X20165Y62053D01*
X20175Y62230D01*
X20174Y62246D01*
X20165Y62407D01*
X20124Y62579D01*
X20056Y62742D01*
X19963Y62894D01*
X19848Y63028D01*
X19714Y63143D01*
X19562Y63236D01*
X19399Y63304D01*
X19227Y63345D01*
X19050Y63359D01*
X18873Y63345D01*
X18701Y63304D01*
X18538Y63236D01*
X18386Y63143D01*
X18252Y63028D01*
X18137Y62894D01*
X18044Y62742D01*
X17976Y62579D01*
X17935Y62407D01*
X17921Y62230D01*
X17935Y62053D01*
X17976Y61881D01*
X18044Y61718D01*
X18137Y61566D01*
X18252Y61432D01*
X18386Y61317D01*
X18538Y61224D01*
X18701Y61156D01*
X18873Y61115D01*
X19050Y61101D01*
X19227Y61115D01*
X19399Y61156D01*
X19562Y61224D01*
X19572Y61230D01*
X19707Y61095D01*
X19574D01*
G37*
G36*
X45720Y85090D02*X44777D01*
X44949Y85195D01*
X45308Y85502D01*
X45615Y85861D01*
X45720Y86033D01*
Y85090D01*
G37*
G36*
X15240D02*Y86033D01*
X15345Y85861D01*
X15652Y85502D01*
X16011Y85195D01*
X16183Y85090D01*
X15240D01*
G37*
G36*
X29657Y59295D02*X29835Y59117D01*
X29840Y59110D01*
X29867Y59087D01*
X29867Y59087D01*
X29898Y59069D01*
X29930Y59055D01*
X29965Y59047D01*
X30000Y59044D01*
X30009Y59045D01*
X31810D01*
X31835Y59005D01*
X31881Y58951D01*
X31935Y58905D01*
X31950Y58895D01*
Y58545D01*
X30999D01*
X31000Y58570D01*
X30996Y58641D01*
X30979Y58709D01*
X30952Y58775D01*
X30915Y58835D01*
X30869Y58889D01*
X30815Y58935D01*
X30755Y58972D01*
X30689Y58999D01*
X30621Y59016D01*
X30550Y59021D01*
X30479Y59016D01*
X30411Y58999D01*
X30345Y58972D01*
X30285Y58935D01*
X30231Y58889D01*
X30185Y58835D01*
X30148Y58775D01*
X30121Y58709D01*
X30104Y58641D01*
X30099Y58570D01*
X30104Y58499D01*
X30121Y58431D01*
X30148Y58365D01*
X30168Y58332D01*
X23880D01*
X23850Y58334D01*
X23730Y58325D01*
X23614Y58297D01*
X23503Y58251D01*
X23401Y58188D01*
X23401Y58188D01*
X23310Y58110D01*
X23290Y58088D01*
X22711Y57509D01*
X22632Y57419D01*
X22569Y57317D01*
X22523Y57206D01*
X22495Y57090D01*
X22486Y56970D01*
X22495Y56850D01*
X22523Y56734D01*
X22569Y56623D01*
X22632Y56521D01*
X22696Y56445D01*
X20073D01*
X19989Y56529D01*
X20056Y56638D01*
X20124Y56801D01*
X20165Y56973D01*
X20175Y57150D01*
X20165Y57327D01*
X20124Y57499D01*
X20056Y57662D01*
X19963Y57814D01*
X19848Y57948D01*
X19714Y58063D01*
X19562Y58156D01*
X19399Y58224D01*
X19227Y58265D01*
X19050Y58279D01*
X18873Y58265D01*
X18701Y58224D01*
X18538Y58156D01*
X18386Y58063D01*
X18252Y57948D01*
X18137Y57814D01*
X18044Y57662D01*
X17976Y57499D01*
X17935Y57327D01*
X17921Y57150D01*
X17935Y56973D01*
X17976Y56801D01*
X18044Y56638D01*
X18137Y56486D01*
X18252Y56352D01*
X18386Y56237D01*
X18536Y56145D01*
X18293D01*
X17900Y56538D01*
Y58902D01*
X18094Y59096D01*
X18137Y59026D01*
X18252Y58892D01*
X18386Y58777D01*
X18538Y58684D01*
X18701Y58616D01*
X18873Y58575D01*
X19050Y58561D01*
X19227Y58575D01*
X19399Y58616D01*
X19562Y58684D01*
X19714Y58777D01*
X19848Y58892D01*
X19963Y59026D01*
X20056Y59178D01*
X20124Y59341D01*
X20165Y59513D01*
X20175Y59690D01*
X20165Y59867D01*
X20124Y60039D01*
X20056Y60202D01*
X19963Y60354D01*
X19848Y60488D01*
X19714Y60603D01*
X19645Y60645D01*
X19707D01*
X20985Y59367D01*
X20990Y59360D01*
X21017Y59337D01*
X21017Y59337D01*
X21048Y59319D01*
X21080Y59305D01*
X21115Y59297D01*
X21150Y59294D01*
X21159Y59295D01*
X29657D01*
G37*
G36*
X32362Y58850D02*X32057Y58545D01*
X31500D01*
Y59045D01*
X31810D01*
X31835Y59005D01*
X31881Y58951D01*
X31935Y58905D01*
X31995Y58868D01*
X32061Y58841D01*
X32129Y58824D01*
X32200Y58819D01*
X32271Y58824D01*
X32339Y58841D01*
X32362Y58850D01*
G37*
G36*
X20320Y19050D02*X19377D01*
X19549Y19155D01*
X19908Y19462D01*
X20215Y19821D01*
X20320Y19993D01*
Y19050D01*
G37*
G36*
X40640D02*Y19993D01*
X40745Y19821D01*
X41052Y19462D01*
X41411Y19155D01*
X41583Y19050D01*
X40640D01*
G37*
G36*
X45720Y24130D02*Y23187D01*
X45615Y23359D01*
X45308Y23718D01*
X44949Y24025D01*
X44777Y24130D01*
X45720D01*
G37*
G36*
X40640Y90170D02*X41583D01*
X41411Y90065D01*
X41052Y89758D01*
X40745Y89399D01*
X40640Y89227D01*
Y90170D01*
G37*
G36*
X20320D02*Y89227D01*
X20215Y89399D01*
X19908Y89758D01*
X19549Y90065D01*
X19377Y90170D01*
X20320D01*
G37*
G36*
X36738Y54323D02*Y43132D01*
X32000D01*
Y46484D01*
X32019Y46501D01*
X32065Y46555D01*
X32102Y46615D01*
X32129Y46681D01*
X32146Y46749D01*
X32150Y46820D01*
X32146Y46891D01*
X32129Y46959D01*
X32102Y47025D01*
X32065Y47085D01*
X32019Y47139D01*
X31965Y47185D01*
X31905Y47222D01*
X31839Y47249D01*
X31771Y47266D01*
X31700Y47271D01*
X31629Y47266D01*
X31561Y47249D01*
X31495Y47222D01*
X31435Y47185D01*
X31381Y47139D01*
X31335Y47085D01*
X31298Y47025D01*
X31271Y46959D01*
X31254Y46891D01*
X31249Y46820D01*
X31254Y46749D01*
X31271Y46681D01*
X31298Y46615D01*
X31335Y46555D01*
X31381Y46501D01*
X31400Y46484D01*
Y43132D01*
X29930D01*
X29900Y43134D01*
X29780Y43125D01*
X29664Y43097D01*
X29553Y43051D01*
X29451Y42988D01*
X29451Y42988D01*
X29360Y42910D01*
X29340Y42888D01*
X24899Y38447D01*
Y47645D01*
X34191D01*
X34200Y47644D01*
X34235Y47647D01*
X34270Y47655D01*
X34302Y47669D01*
X34333Y47687D01*
X34360Y47710D01*
X34365Y47717D01*
X35153Y48505D01*
X35160Y48510D01*
X35183Y48537D01*
X35183Y48537D01*
X35201Y48568D01*
X35215Y48600D01*
X35223Y48635D01*
X35226Y48670D01*
X35225Y48679D01*
Y50887D01*
X35433Y51095D01*
X35479Y51084D01*
X35550Y51079D01*
X35621Y51084D01*
X35689Y51101D01*
X35755Y51128D01*
X35815Y51165D01*
X35869Y51211D01*
X35915Y51265D01*
X35952Y51325D01*
X35979Y51391D01*
X35996Y51459D01*
X36000Y51530D01*
X35996Y51601D01*
X35979Y51669D01*
X35952Y51735D01*
X35915Y51795D01*
X35869Y51849D01*
X35815Y51895D01*
X35755Y51932D01*
X35689Y51959D01*
X35621Y51976D01*
X35550Y51981D01*
X35479Y51976D01*
X35411Y51959D01*
X35345Y51932D01*
X35285Y51895D01*
X35231Y51849D01*
X35185Y51795D01*
X35148Y51735D01*
X35121Y51669D01*
X35104Y51601D01*
X35099Y51530D01*
X35104Y51459D01*
X35115Y51413D01*
X34847Y51145D01*
X34840Y51140D01*
X34817Y51113D01*
X34799Y51082D01*
X34785Y51050D01*
X34777Y51015D01*
X34774Y50980D01*
X34775Y50971D01*
Y48763D01*
X34107Y48095D01*
X24899D01*
Y49345D01*
X28310D01*
X28335Y49305D01*
X28381Y49251D01*
X28435Y49205D01*
X28495Y49168D01*
X28561Y49141D01*
X28629Y49124D01*
X28700Y49119D01*
X28771Y49124D01*
X28839Y49141D01*
X28905Y49168D01*
X28965Y49205D01*
X29019Y49251D01*
X29065Y49305D01*
X29102Y49365D01*
X29129Y49431D01*
X29146Y49499D01*
X29150Y49570D01*
X29146Y49641D01*
X29129Y49709D01*
X29102Y49775D01*
X29065Y49835D01*
X29019Y49889D01*
X28965Y49935D01*
X28905Y49972D01*
X28839Y49999D01*
X28771Y50016D01*
X28700Y50021D01*
X28629Y50016D01*
X28561Y49999D01*
X28495Y49972D01*
X28435Y49935D01*
X28381Y49889D01*
X28335Y49835D01*
X28310Y49795D01*
X24899D01*
Y55695D01*
X27201D01*
X27185Y55685D01*
X27131Y55639D01*
X27085Y55585D01*
X27048Y55525D01*
X27021Y55459D01*
X27004Y55391D01*
X26999Y55320D01*
X27004Y55249D01*
X27021Y55181D01*
X27048Y55115D01*
X27085Y55055D01*
X27131Y55001D01*
X27185Y54955D01*
X27245Y54918D01*
X27258Y54912D01*
X27231Y54889D01*
X27185Y54835D01*
X27148Y54775D01*
X27121Y54709D01*
X27104Y54641D01*
X27099Y54570D01*
X27104Y54499D01*
X27121Y54431D01*
X27148Y54365D01*
X27185Y54305D01*
X27192Y54296D01*
X26822Y54666D01*
X26852Y54715D01*
X26879Y54781D01*
X26896Y54849D01*
X26900Y54920D01*
X26896Y54991D01*
X26879Y55059D01*
X26852Y55125D01*
X26815Y55185D01*
X26769Y55239D01*
X26715Y55285D01*
X26655Y55322D01*
X26589Y55349D01*
X26521Y55366D01*
X26450Y55371D01*
X26379Y55366D01*
X26311Y55349D01*
X26245Y55322D01*
X26185Y55285D01*
X26131Y55239D01*
X26085Y55185D01*
X26048Y55125D01*
X26021Y55059D01*
X26004Y54991D01*
X25999Y54920D01*
X26004Y54849D01*
X26021Y54781D01*
X26045Y54721D01*
X25979Y54716D01*
X25911Y54699D01*
X25845Y54672D01*
X25785Y54635D01*
X25731Y54589D01*
X25685Y54535D01*
X25648Y54475D01*
X25621Y54409D01*
X25604Y54341D01*
X25599Y54270D01*
X25604Y54199D01*
X25621Y54131D01*
X25648Y54065D01*
X25685Y54005D01*
X25731Y53951D01*
X25785Y53905D01*
X25845Y53868D01*
X25911Y53841D01*
X25979Y53824D01*
X26050Y53819D01*
X26121Y53824D01*
X26189Y53841D01*
X26255Y53868D01*
X26315Y53905D01*
X26369Y53951D01*
X26407Y53995D01*
X26625Y53777D01*
Y52629D01*
X26624Y52620D01*
X26627Y52585D01*
X26635Y52550D01*
X26649Y52518D01*
X26667Y52487D01*
X26667Y52487D01*
X26690Y52460D01*
X26697Y52455D01*
X29685Y49467D01*
X29690Y49460D01*
X29717Y49437D01*
X29717Y49437D01*
X29748Y49419D01*
X29780Y49405D01*
X29815Y49397D01*
X29850Y49394D01*
X29859Y49395D01*
X33757D01*
X33877Y49275D01*
X33871Y49259D01*
X33854Y49191D01*
X33849Y49120D01*
X33854Y49049D01*
X33871Y48981D01*
X33898Y48915D01*
X33935Y48855D01*
X33981Y48801D01*
X34035Y48755D01*
X34095Y48718D01*
X34161Y48691D01*
X34229Y48674D01*
X34300Y48669D01*
X34371Y48674D01*
X34439Y48691D01*
X34505Y48718D01*
X34565Y48755D01*
X34619Y48801D01*
X34665Y48855D01*
X34702Y48915D01*
X34729Y48981D01*
X34746Y49049D01*
X34750Y49120D01*
X34746Y49191D01*
X34729Y49259D01*
X34702Y49325D01*
X34665Y49385D01*
X34619Y49439D01*
X34565Y49485D01*
X34508Y49520D01*
X34565Y49555D01*
X34619Y49601D01*
X34637Y49621D01*
X34665Y49655D01*
X34702Y49715D01*
X34729Y49781D01*
X34746Y49849D01*
X34750Y49920D01*
X34746Y49991D01*
X34729Y50059D01*
X34702Y50125D01*
X34665Y50185D01*
X34619Y50239D01*
X34565Y50285D01*
X34505Y50322D01*
X34439Y50349D01*
X34371Y50366D01*
X34300Y50371D01*
X34229Y50366D01*
X34161Y50349D01*
X34095Y50322D01*
X34035Y50285D01*
X33981Y50239D01*
X33935Y50185D01*
X33910Y50145D01*
X30093D01*
X27375Y52863D01*
Y54011D01*
X27376Y54020D01*
X27373Y54055D01*
X27365Y54090D01*
X27351Y54122D01*
X27333Y54153D01*
X27333Y54153D01*
X27310Y54180D01*
X27303Y54185D01*
X27276Y54212D01*
X27285Y54205D01*
X27345Y54168D01*
X27411Y54141D01*
X27479Y54124D01*
X27550Y54119D01*
X27621Y54124D01*
X27689Y54141D01*
X27755Y54168D01*
X27815Y54205D01*
X27869Y54251D01*
X27915Y54305D01*
X27952Y54365D01*
X27979Y54431D01*
X27996Y54499D01*
X28000Y54570D01*
X27996Y54641D01*
X27985Y54687D01*
X28393Y55095D01*
X32857D01*
X32925Y55027D01*
Y53679D01*
X32924Y53670D01*
X32927Y53635D01*
X32935Y53600D01*
X32949Y53568D01*
X32967Y53537D01*
X32967Y53537D01*
X32990Y53510D01*
X32997Y53505D01*
X33485Y53017D01*
X33490Y53010D01*
X33517Y52987D01*
X33517Y52987D01*
X33548Y52969D01*
X33580Y52955D01*
X33615Y52947D01*
X33650Y52944D01*
X33659Y52945D01*
X33957D01*
X33567Y52555D01*
X33521Y52566D01*
X33450Y52571D01*
X33379Y52566D01*
X33311Y52549D01*
X33245Y52522D01*
X33185Y52485D01*
X33131Y52439D01*
X33085Y52385D01*
X33048Y52325D01*
X33021Y52259D01*
X33004Y52191D01*
X32999Y52120D01*
X33004Y52049D01*
X33021Y51981D01*
X33048Y51915D01*
X33085Y51855D01*
X33131Y51801D01*
X33185Y51755D01*
X33245Y51718D01*
X33311Y51691D01*
X33379Y51674D01*
X33450Y51669D01*
X33521Y51674D01*
X33589Y51691D01*
X33655Y51718D01*
X33715Y51755D01*
X33769Y51801D01*
X33815Y51855D01*
X33852Y51915D01*
X33879Y51981D01*
X33896Y52049D01*
X33900Y52120D01*
X33896Y52191D01*
X33885Y52237D01*
X34293Y52645D01*
X34791D01*
X34800Y52644D01*
X34835Y52647D01*
X34870Y52655D01*
X34902Y52669D01*
X34933Y52687D01*
X34960Y52710D01*
X34965Y52717D01*
X36418Y54170D01*
X36471Y54174D01*
X36539Y54191D01*
X36605Y54218D01*
X36665Y54255D01*
X36719Y54301D01*
X36738Y54323D01*
G37*
G36*
X24899Y38447D02*X24044Y37592D01*
X20040D01*
X19993Y37646D01*
X19856Y37764D01*
X19701Y37859D01*
X19534Y37928D01*
X19358Y37970D01*
X19177Y37984D01*
X18996Y37970D01*
X18820Y37928D01*
X18653Y37859D01*
X18498Y37764D01*
X18361Y37646D01*
X18243Y37509D01*
X18148Y37354D01*
X18079Y37187D01*
X18037Y37011D01*
X18023Y36830D01*
X18037Y36649D01*
X18079Y36473D01*
X18148Y36306D01*
X18243Y36151D01*
X18361Y36014D01*
X18498Y35896D01*
X18653Y35801D01*
X18693Y35785D01*
X18007D01*
X17599Y36193D01*
Y37728D01*
X18092Y38221D01*
X18123Y38219D01*
X19778Y38222D01*
X19832Y38235D01*
X19883Y38256D01*
X19930Y38285D01*
X19972Y38321D01*
X20008Y38363D01*
X20037Y38410D01*
X20058Y38461D01*
X20071Y38515D01*
X20074Y38570D01*
X20071Y40199D01*
X20653Y40782D01*
X20660Y40787D01*
X20683Y40814D01*
X20683Y40814D01*
X20701Y40845D01*
X20715Y40877D01*
X20723Y40912D01*
X20726Y40947D01*
X20725Y40956D01*
Y47861D01*
X20726Y47870D01*
X20723Y47905D01*
X20715Y47940D01*
X20701Y47972D01*
X20683Y48003D01*
X20683Y48003D01*
X20660Y48030D01*
X20653Y48035D01*
X20265Y48423D01*
X20260Y48430D01*
X20233Y48453D01*
X20233Y48453D01*
X20202Y48471D01*
X20170Y48485D01*
X20135Y48493D01*
X20100Y48496D01*
X20091Y48495D01*
X19492D01*
X19562Y48524D01*
X19714Y48617D01*
X19848Y48732D01*
X19963Y48866D01*
X20056Y49018D01*
X20124Y49181D01*
X20165Y49353D01*
X20175Y49530D01*
X20165Y49707D01*
X20124Y49879D01*
X20056Y50042D01*
X19989Y50151D01*
X20603Y50765D01*
X20610Y50770D01*
X20633Y50797D01*
X20633Y50797D01*
X20651Y50828D01*
X20665Y50860D01*
X20673Y50895D01*
X20676Y50930D01*
X20675Y50939D01*
Y52877D01*
X22893Y55095D01*
X23991D01*
X24000Y55094D01*
X24035Y55097D01*
X24070Y55105D01*
X24102Y55119D01*
X24133Y55137D01*
X24160Y55160D01*
X24165Y55167D01*
X24693Y55695D01*
X24899D01*
Y49795D01*
X21490D01*
X21465Y49835D01*
X21419Y49889D01*
X21365Y49935D01*
X21305Y49972D01*
X21239Y49999D01*
X21171Y50016D01*
X21100Y50021D01*
X21029Y50016D01*
X20961Y49999D01*
X20895Y49972D01*
X20835Y49935D01*
X20781Y49889D01*
X20735Y49835D01*
X20698Y49775D01*
X20671Y49709D01*
X20654Y49641D01*
X20649Y49570D01*
X20654Y49499D01*
X20671Y49431D01*
X20698Y49365D01*
X20735Y49305D01*
X20781Y49251D01*
X20835Y49205D01*
X20895Y49168D01*
X20961Y49141D01*
X21029Y49124D01*
X21100Y49119D01*
X21171Y49124D01*
X21239Y49141D01*
X21305Y49168D01*
X21365Y49205D01*
X21419Y49251D01*
X21465Y49305D01*
X21490Y49345D01*
X24899D01*
Y48095D01*
X23493D01*
X23278Y48311D01*
X23315Y48355D01*
X23352Y48415D01*
X23379Y48481D01*
X23396Y48549D01*
X23400Y48620D01*
X23396Y48691D01*
X23379Y48759D01*
X23352Y48825D01*
X23315Y48885D01*
X23269Y48939D01*
X23215Y48985D01*
X23155Y49022D01*
X23089Y49049D01*
X23021Y49066D01*
X22950Y49071D01*
X22879Y49066D01*
X22811Y49049D01*
X22745Y49022D01*
X22685Y48985D01*
X22631Y48939D01*
X22585Y48885D01*
X22548Y48825D01*
X22521Y48759D01*
X22504Y48691D01*
X22499Y48620D01*
X22504Y48549D01*
X22521Y48481D01*
X22548Y48415D01*
X22585Y48355D01*
X22631Y48301D01*
X22685Y48255D01*
X22745Y48218D01*
X22750Y48216D01*
X22767Y48187D01*
X22767Y48187D01*
X22790Y48160D01*
X22797Y48155D01*
X23235Y47717D01*
X23240Y47710D01*
X23267Y47687D01*
X23267Y47687D01*
X23298Y47669D01*
X23330Y47655D01*
X23365Y47647D01*
X23400Y47644D01*
X23409Y47645D01*
X24899D01*
Y38447D01*
G37*
G54D29*X37500Y41620D02*X38250D01*
Y42370D02*X29900D01*
X26275Y38745D01*
G54D30*X31700Y46820D02*Y42370D01*
G54D31*X20500Y47870D02*X20100Y48270D01*
X18050D01*
X34200Y47870D02*X23400D01*
X22950Y48320D02*X23400Y47870D01*
X43180Y35560D02*X17914D01*
X42260Y39020D02*X42010Y39270D01*
X42275Y37195D02*X41950Y36870D01*
X33950Y55970D02*X33700Y56220D01*
X35850Y55920D02*X35500Y55570D01*
X34500Y53470D02*X33800D01*
X34650Y53170D02*X33650D01*
X34800Y52870D02*X34200D01*
X34650Y54820D02*X34350D01*
X34650D02*X33900D01*
X33750Y54970D01*
Y55420D01*
X35500Y55570D02*Y54470D01*
X34500Y53470D01*
X35800Y54320D02*X34650Y53170D01*
X36400Y54470D02*X34800Y52870D01*
X35200Y54620D02*X34700Y54120D01*
X34400D01*
X36400Y55420D02*X36150D01*
X35800Y55070D01*
Y54320D01*
X36400Y54620D02*Y54470D01*
X26850Y52620D02*Y53870D01*
X27150Y52770D02*Y54020D01*
X26450Y54920D02*Y54720D01*
X27150Y54020D02*X26450Y54720D01*
X27550Y54570D02*X28000Y55020D01*
X34300Y49920D02*X30000D01*
X27150Y52770D02*X30000Y49920D01*
X33850Y49620D02*X29850D01*
X26850Y52620D01*
X21100Y49570D02*X28700D01*
X34200Y52870D02*X33450Y52120D01*
X24600Y55920D02*X33250D01*
X27450Y55320D02*X27750Y55620D01*
X28300Y55320D02*X27550Y54570D01*
X33650Y53170D02*X33150Y53670D01*
X33450Y55270D02*Y53820D01*
X33800Y53470D01*
X33750Y55420D02*X33250Y55920D01*
X33150Y53670D02*Y55120D01*
X27750Y55620D02*X33100D01*
X33450Y55270D02*X33100Y55620D01*
X33150Y55120D02*X32950Y55320D01*
X28300D02*X32950D01*
X34300Y49170D02*X33850Y49620D01*
X35550Y51530D02*X35000Y50980D01*
Y48670D01*
X34200Y47870D01*
G54D29*X38250Y41620D02*Y55070D01*
X37500Y41620D02*Y55820D01*
G54D30*X39250Y53770D02*X38250D01*
G54D31*X41910Y49530D02*X42410D01*
X43450Y50570D01*
X43425Y50545D02*X44700Y51820D01*
X45440Y38100D02*X40860D01*
X43180Y37120D02*Y39060D01*
X44120Y39040D02*X42220Y37140D01*
X42240Y39040D02*X44140Y37140D01*
X44100Y39020D02*X44300Y39220D01*
X44100Y37180D02*X44410Y36870D01*
G54D29*X35750Y57570D02*X25350D01*
G54D31*X34250Y56520D02*X24300D01*
X33700Y56220D02*X24450D01*
G54D29*X36750Y56570D02*X35750Y57570D01*
X38250Y55070D02*X35750Y57570D01*
X37500Y55820D02*X35750Y57570D01*
X35800D02*X38250D01*
X36800D02*X38050Y56320D01*
X36900Y57570D02*X38100Y58770D01*
X23250Y56970D02*X23850Y57570D01*
G54D31*X24300Y56520D02*X23700Y55920D01*
G54D29*X23850Y57570D02*X25400D01*
G54D31*X44150Y59670D02*X41930D01*
X41910Y59690D01*
X32200Y59270D02*X30000D01*
X29750Y59520D01*
X19050Y59690D02*X18370D01*
X17650Y58970D01*
X18350Y60870D02*X17350Y59870D01*
X19800Y60870D02*X18350D01*
X19450Y62220D02*X19050D01*
X19100Y62020D02*Y62070D01*
X17350Y56310D02*X19050Y54610D01*
X17650Y58970D02*Y56470D01*
X17350Y59870D02*Y56310D01*
X19980Y56220D02*X19065Y57135D01*
X17650Y56470D02*X18200Y55920D01*
X16650Y52820D02*X16662Y63682D01*
X17800Y64820D01*
X26450Y54270D02*X26850Y53870D01*
X26050Y54270D02*X26450D01*
X26845Y53875D01*
X23850Y55620D02*X22600D01*
X20450Y52970D02*X22800Y55320D01*
X23700Y55920D02*X18200D01*
X19100Y62020D02*X21300Y59820D01*
X19800Y60870D02*X21150Y59520D01*
X34800Y56820D02*X24150D01*
X23550Y56220D01*
X30250Y59820D02*X21300D01*
X29750Y59520D02*X21150D01*
X17800Y64820D02*X36650D01*
G54D29*X38250Y70270D02*X37700Y70820D01*
X36400Y72120D02*X38250Y70270D01*
X36400Y72120D02*X28100D01*
G54D31*X30950Y73720D02*X25050D01*
G54D29*X38575Y75295D02*X23675D01*
G54D31*X37550Y76620D02*X27500D01*
G54D29*X38600Y75295D02*X38450D01*
G54D31*X35800Y73070D02*X26600D01*
X40300Y75570D02*X42950Y72920D01*
X40300Y75570D02*Y78520D01*
X40750Y75570D02*Y78870D01*
Y75570D02*X43250Y73070D01*
G54D29*X41600Y72295D02*X38600Y75295D01*
G54D31*X21450Y67920D02*X26600Y73070D01*
X21450Y70120D02*X25050Y73720D01*
X27500Y76620D02*X24950Y79170D01*
G54D29*X38250Y54970D02*Y70270D01*
G54D31*X36650Y62820D02*Y64820D01*
Y62820D02*X32150Y58320D01*
X34600Y56170D02*X34250Y56520D01*
X35200Y56420D02*X34800Y56820D01*
X34600Y55570D02*Y56170D01*
X35200Y54620D02*Y56420D01*
X30650Y58520D02*X30850Y58320D01*
X32150D01*
G54D30*X37750Y79420D02*X38300D01*
X39750Y77870D02*Y76320D01*
X38650Y75220D01*
X38300Y79420D02*X39750Y77970D01*
Y77820D01*
G54D31*X42950Y72920D02*Y65120D01*
X42550Y64720D01*
X44700Y51820D02*Y64070D01*
X43250Y65520D02*X44700Y64070D01*
X43250Y65520D02*Y75220D01*
X44550Y76520D01*
X38650Y77720D02*X37550Y76620D01*
X39550Y79270D02*X40300Y78520D01*
X40350Y79270D02*X40750Y78870D01*
G54D29*X41600Y67870D02*Y72295D01*
X23675Y75295D02*X15900Y67520D01*
Y48020D01*
G54D31*X20900Y78720D02*X17800D01*
X17780Y78740D01*
X24950Y79170D02*Y81320D01*
X24850Y81420D01*
X18720Y82220D02*X18920Y82420D01*
X20040Y81280D02*X15460D01*
X17780Y80300D02*Y82240D01*
X18720Y82220D02*X16820Y80320D01*
X16840Y82220D02*X18740Y80320D01*
X18720Y80340D02*X18940Y80120D01*
X16850Y82210D02*X16640Y82420D01*
X16850Y80350D02*X16620Y80120D01*
X24450Y56220D02*X23850Y55620D01*
X23550Y56220D02*X19980D01*
X20450Y52970D02*Y50930D01*
X19050Y49530D01*
Y52070D02*X22600Y55620D01*
X22950Y48620D02*Y48320D01*
G54D29*X15900Y50140D02*Y50370D01*
Y48020D02*Y50270D01*
G54D31*X18050Y48270D02*X16650Y49670D01*
Y52820D01*
X24600Y55920D02*X24000Y55320D01*
X22800D01*
G54D29*X19050Y46990D02*X16930D01*
X15900Y48020D01*
G54D31*X20500Y40947D02*Y47870D01*
G54D29*X19177Y36830D02*X24360D01*
X26300Y38770D01*
G54D31*X17914Y35560D02*X17374Y36100D01*
Y37821D01*
X20500Y40947D02*X17374Y37821D01*
G54D32*X43886Y83570D02*X43827Y83452D01*
X43650Y83275D01*
X44889D01*
X43650Y82608D02*X43709Y82785D01*
X43827Y82844D01*
X43945D01*
X44063Y82785D01*
X44122Y82667D01*
X44181Y82431D01*
X44240Y82254D01*
X44358Y82136D01*
X44476Y82077D01*
X44653D01*
X44771Y82136D01*
X44830Y82195D01*
X44889Y82372D01*
Y82608D01*
X44830Y82785D01*
X44771Y82844D01*
X44653Y82903D01*
X44476D02*X44653D01*
X44476D02*X44358Y82844D01*
X44240Y82726D01*
X44181Y82549D01*
X44122Y82313D01*
X44063Y82195D01*
X43945Y82136D01*
X43827D02*X43945D01*
X43827D02*X43709Y82195D01*
X43650Y82372D01*
Y82608D01*
G54D33*X17780Y87630D03*
G54D34*X30480Y79340D03*
G54D28*G36*
X18123Y40170D02*Y38570D01*
X19723D01*
Y40170D01*
X18123D01*
G37*
G54D35*X19177Y36830D03*
X18923Y34290D03*
X19177Y31750D03*
X18923Y29210D03*
X41910Y49530D03*
Y52070D03*
Y54610D03*
Y57150D03*
Y59690D03*
Y62230D03*
G54D33*X43180Y87630D03*
Y21590D03*
G54D36*X44550Y80520D03*
Y78520D03*
Y76520D03*
Y74520D03*
G54D35*X41910Y44450D03*
Y46990D03*
G54D33*X17780Y21590D03*
G54D35*X19177Y26670D03*
G54D34*X30480Y27340D03*
G54D37*X32980Y22860D03*
X30480D03*
X27980D03*
Y19660D03*
X30480D03*
X32980D03*
G54D35*X19050Y49530D03*
Y46990D03*
Y44450D03*
Y62230D03*
Y59690D03*
Y57150D03*
Y54610D03*
Y52070D03*
G54D28*G36*
X15875Y81915D02*Y80645D01*
X19685D01*
Y81915D01*
X15875D01*
G37*
G36*
Y79375D02*Y78105D01*
X19685D01*
Y79375D01*
X15875D01*
G37*
G36*
X41275Y36195D02*Y34925D01*
X45085D01*
Y36195D01*
X41275D01*
G37*
G36*
Y38735D02*Y37465D01*
X45085D01*
Y38735D01*
X41275D01*
G37*
G54D38*X33950Y72120D03*
X34700D03*
X35800Y73120D03*
X36650Y64820D03*
X40640Y64770D03*
X35300Y66370D03*
X38650Y77720D03*
X37750Y79420D03*
X39550Y79270D03*
X40350D03*
X42100Y78320D03*
X39057Y71580D03*
X30950Y73720D03*
X30480Y86360D03*
X31115Y70485D03*
X30000Y66220D03*
X24950Y81420D03*
X22225Y75565D03*
X20900Y78720D03*
X25150Y77470D03*
X22860Y88900D03*
X28575D03*
X33020D03*
X39370Y89535D03*
X27750Y80320D03*
X36500Y81220D03*
X22700Y68120D03*
X22900Y72620D03*
X28100Y72120D03*
X28850D03*
X27900Y75320D03*
X28700D03*
X18850Y73770D03*
Y83370D03*
X24765Y67310D03*
X21450Y70120D03*
Y67920D03*
X29500Y54270D03*
X30250Y59820D03*
X30450Y53320D03*
X27305Y61595D03*
X27550Y54570D03*
X30550Y58570D03*
X31400Y54270D03*
X26450Y54920D03*
X26050Y54270D03*
X27450Y55320D03*
X31300Y57520D03*
X23250Y56970D03*
Y58820D03*
X17650Y53270D03*
X20800Y63570D03*
X24100Y60770D03*
X28700Y49570D03*
X21100D03*
X25400Y50800D03*
X34925Y44450D03*
X16550Y42770D03*
X22950Y48620D03*
X23495Y41910D03*
X24130Y26670D03*
X29210Y36830D03*
X32385Y32385D03*
X31750Y40640D03*
X36830Y21590D03*
X38735Y27940D03*
X43815Y29845D03*
X36830Y27940D03*
X16200Y26070D03*
X34925Y27940D03*
X34150Y37920D03*
X35550Y51530D03*
X39400Y51520D03*
X36300Y48120D03*
X39250Y53770D03*
X36400Y55420D03*
Y54620D03*
X31400Y52370D03*
X32200Y59270D03*
X31700Y46820D03*
X33020Y60960D03*
X33450Y52120D03*
X44150Y59670D03*
X34925Y59055D03*
X39400Y57820D03*
X33950Y55970D03*
X34600Y55570D03*
X34650Y54820D03*
X35800Y55970D03*
X34350Y54070D03*
X44450Y64320D03*
X44600Y71670D03*
X42550Y64720D03*
X35050Y63220D03*
X43900Y69520D03*
X41600Y67870D03*
X38250Y41620D03*
Y42370D03*
Y43120D03*
X37500D03*
Y42370D03*
Y41620D03*
X29500Y52370D03*
X34300Y49920D03*
X35560Y50165D03*
X34300Y49120D03*
X39750Y44820D03*
G54D30*G54D39*G54D40*G54D41*G54D39*G54D42*G54D41*G54D39*G54D41*G54D40*G54D41*M02*
