G04 start of page 12 for group -3984 idx -3984 *
G04 Title: (unknown), fab *
G04 Creator: pcb 1.99z *
G04 CreationDate: Wed Nov 29 11:54:27 2017 UTC *
G04 For: matt *
G04 Format: Gerber/RS-274X *
G04 PCB-Dimensions (mm): 60.96 109.22 *
G04 PCB-Coordinate-Origin: lower left *
%MOMM*%
%FSLAX43Y43*%
%LNFAB*%
%ADD78C,0.254*%
%ADD77C,0.152*%
%ADD76R,0.203X0.203*%
G54D76*X42977Y87630D02*G75*G03X43383Y87630I203J0D01*G01*
G75*G03X42977Y87630I-203J0D01*G01*
X17577D02*G75*G03X17983Y87630I203J0D01*G01*
G75*G03X17577Y87630I-203J0D01*G01*
X42977Y21590D02*G75*G03X43383Y21590I203J0D01*G01*
G75*G03X42977Y21590I-203J0D01*G01*
X17577D02*G75*G03X17983Y21590I203J0D01*G01*
G75*G03X17577Y21590I-203J0D01*G01*
X3607Y112078D02*G75*G03X4013Y112078I203J0D01*G01*
G75*G03X3607Y112078I-203J0D01*G01*
G54D77*X34290Y112649D02*X34870Y111923D01*
Y111125D01*
X35451Y112649D02*X34870Y111923D01*
X35909Y112649D02*Y111125D01*
Y112649D02*X36852D01*
X35909Y111923D02*X36489D01*
X35909Y111125D02*X36852D01*
X38325Y112431D02*X38180Y112576D01*
X37962Y112649D01*
X37672D02*X37962D01*
X37672D02*X37454Y112576D01*
X37309Y112431D01*
Y112286D01*
X37381Y112141D01*
X37454Y112068D01*
X37599Y111996D01*
X38035Y111851D01*
X38180Y111778D01*
X38252Y111706D01*
X38325Y111560D01*
Y111342D01*
X38180Y111198D01*
X37962Y111125D01*
X37672D02*X37962D01*
X37672D02*X37454Y111198D01*
X37309Y111342D01*
X25617Y112649D02*X24892Y111633D01*
X25980D01*
X25617Y112649D02*Y111125D01*
X11865Y112649D02*X11648Y112577D01*
X11502Y112359D01*
X11430Y111996D01*
Y111778D01*
X11502Y111415D01*
X11648Y111198D01*
X11865Y111125D01*
X12011D01*
X12228Y111198D01*
X12373Y111415D01*
X12446Y111778D01*
Y111996D02*Y111778D01*
Y111996D02*X12373Y112359D01*
X12228Y112577D01*
X12011Y112649D01*
X11865D02*X12011D01*
X12976Y111239D02*X12903Y111167D01*
X12976Y111095D01*
X13048Y111167D01*
X12976Y111239D01*
X13505Y112359D02*X13650Y112432D01*
X13868Y112649D01*
Y111125D01*
X14398Y112359D02*Y112286D01*
Y112359D02*X14470Y112504D01*
X14542Y112577D01*
X14688Y112649D01*
X14978D01*
X15123Y112577D01*
X15196Y112504D01*
X15268Y112359D01*
Y112214D01*
X15196Y112068D01*
X15051Y111851D01*
X14325Y111125D01*
X15341D01*
X15871Y112359D02*Y112286D01*
Y112359D02*X15943Y112504D01*
X16015Y112577D01*
X16161Y112649D01*
X16451D01*
X16596Y112577D01*
X16669Y112504D01*
X16741Y112359D01*
Y112214D01*
X16669Y112068D01*
X16524Y111851D01*
X15798Y111125D01*
X16814D01*
X27675Y19965D02*X28285Y19355D01*
X27675D02*X28285Y19965D01*
X30175D02*X30785Y19355D01*
X30175D02*X30785Y19965D01*
X32675D02*X33285Y19355D01*
X32675D02*X33285Y19965D01*
X32675Y23165D02*X33285Y22555D01*
X32675D02*X33285Y23165D01*
X30175D02*X30785Y22555D01*
X30175D02*X30785Y23165D01*
X27675D02*X28285Y22555D01*
X27675D02*X28285Y23165D01*
X18618Y39675D02*X19228Y39065D01*
X18618D02*X19228Y39675D01*
X18872Y37135D02*X19482Y36525D01*
X18872D02*X19482Y37135D01*
X18618Y34595D02*X19228Y33985D01*
X18618D02*X19228Y34595D01*
X18872Y32055D02*X19482Y31445D01*
X18872D02*X19482Y32055D01*
X18618Y29515D02*X19228Y28905D01*
X18618D02*X19228Y29515D01*
X18872Y26975D02*X19482Y26365D01*
X18872D02*X19482Y26975D01*
X18745Y62535D02*X19355Y61925D01*
X18745D02*X19355Y62535D01*
X18745Y59995D02*X19355Y59385D01*
X18745D02*X19355Y59995D01*
X18745Y57455D02*X19355Y56845D01*
X18745D02*X19355Y57455D01*
X18745Y54915D02*X19355Y54305D01*
X18745D02*X19355Y54915D01*
X18745Y52375D02*X19355Y51765D01*
X18745D02*X19355Y52375D01*
X18745Y49835D02*X19355Y49225D01*
X18745D02*X19355Y49835D01*
X18745Y47295D02*X19355Y46685D01*
X18745D02*X19355Y47295D01*
X18745Y44755D02*X19355Y44145D01*
X18745D02*X19355Y44755D01*
X41605D02*X42215Y44145D01*
X41605D02*X42215Y44755D01*
X41605Y47295D02*X42215Y46685D01*
X41605D02*X42215Y47295D01*
X41605Y49835D02*X42215Y49225D01*
X41605D02*X42215Y49835D01*
X41605Y52375D02*X42215Y51765D01*
X41605D02*X42215Y52375D01*
X41605Y54915D02*X42215Y54305D01*
X41605D02*X42215Y54915D01*
X41605Y57455D02*X42215Y56845D01*
X41605D02*X42215Y57455D01*
X41605Y59995D02*X42215Y59385D01*
X41605D02*X42215Y59995D01*
X41605Y62535D02*X42215Y61925D01*
X41605D02*X42215Y62535D01*
X3505Y116192D02*X4115Y115583D01*
X3505D02*X4115Y116192D01*
X34290Y116459D02*X34870Y115733D01*
Y114935D01*
X35451Y116459D02*X34870Y115733D01*
X35909Y116459D02*Y114935D01*
Y116459D02*X36852D01*
X35909Y115733D02*X36489D01*
X35909Y114935D02*X36852D01*
X38325Y116241D02*X38180Y116386D01*
X37962Y116459D01*
X37672D02*X37962D01*
X37672D02*X37454Y116386D01*
X37309Y116241D01*
Y116096D01*
X37381Y115951D01*
X37454Y115878D01*
X37599Y115806D01*
X38035Y115661D01*
X38180Y115588D01*
X38252Y115516D01*
X38325Y115370D01*
Y115152D01*
X38180Y115008D01*
X37962Y114935D01*
X37672D02*X37962D01*
X37672D02*X37454Y115008D01*
X37309Y115152D01*
X24964Y116169D02*Y116096D01*
Y116169D02*X25037Y116314D01*
X25109Y116387D01*
X25255Y116459D01*
X25545D01*
X25690Y116387D01*
X25763Y116314D01*
X25835Y116169D01*
Y116024D01*
X25763Y115878D01*
X25617Y115661D01*
X24892Y114935D01*
X25908D01*
X26728Y116459D02*X26510Y116387D01*
X26437Y116242D01*
Y116096D01*
X26510Y115951D01*
X26655Y115878D01*
X26945Y115806D01*
X27163Y115734D01*
X27308Y115588D01*
X27381Y115443D01*
Y115225D01*
X27308Y115080D01*
X27235Y115008D01*
X27018Y114935D01*
X26728D02*X27018D01*
X26728D02*X26510Y115008D01*
X26437Y115080D01*
X26365Y115225D01*
Y115443D02*Y115225D01*
Y115443D02*X26437Y115588D01*
X26582Y115734D01*
X26800Y115806D01*
X27090Y115878D01*
X27235Y115951D01*
X27308Y116096D01*
Y116242D02*Y116096D01*
Y116242D02*X27235Y116387D01*
X27018Y116459D01*
X26728D02*X27018D01*
X11865D02*X11648Y116387D01*
X11502Y116169D01*
X11430Y115806D01*
Y115588D01*
X11502Y115225D01*
X11648Y115008D01*
X11865Y114935D01*
X12011D01*
X12228Y115008D01*
X12373Y115225D01*
X12446Y115588D01*
Y115806D02*Y115588D01*
Y115806D02*X12373Y116169D01*
X12228Y116387D01*
X12011Y116459D01*
X11865D02*X12011D01*
X12976Y115049D02*X12903Y114977D01*
X12976Y114905D01*
X13048Y114977D01*
X12976Y115049D01*
X13941Y116459D02*X13723Y116387D01*
X13578Y116169D01*
X13505Y115806D01*
Y115588D01*
X13578Y115225D01*
X13723Y115008D01*
X13941Y114935D01*
X14086D01*
X14303Y115008D01*
X14449Y115225D01*
X14521Y115588D01*
Y115806D02*Y115588D01*
Y115806D02*X14449Y116169D01*
X14303Y116387D01*
X14086Y116459D01*
X13941D02*X14086D01*
X15123D02*X15922D01*
X15486Y115878D01*
X15704D01*
X15849Y115806D01*
X15922Y115734D01*
X15994Y115516D01*
Y115371D01*
X15922Y115153D01*
X15777Y115008D01*
X15559Y114935D01*
X15341D02*X15559D01*
X15341D02*X15123Y115008D01*
X15051Y115080D01*
X14979Y115225D01*
X17395Y115951D02*X17322Y115734D01*
X17177Y115588D01*
X16959Y115516D01*
X16887D02*X16959D01*
X16887D02*X16669Y115588D01*
X16524Y115734D01*
X16452Y115951D01*
Y116024D02*Y115951D01*
Y116024D02*X16524Y116242D01*
X16669Y116387D01*
X16887Y116459D01*
X16959D01*
X17177Y116387D01*
X17322Y116242D01*
X17395Y115951D01*
Y115588D01*
X17322Y115225D01*
X17177Y115008D01*
X16959Y114935D01*
X16814D02*X16959D01*
X16814D02*X16596Y115008D01*
X16524Y115153D01*
X30480Y79746D02*Y78934D01*
X30074Y79340D02*X30886D01*
X30480Y27746D02*Y26934D01*
X30074Y27340D02*X30886D01*
X3810Y120104D02*Y119291D01*
X3404Y119698D02*X4216D01*
X34290Y120269D02*X34870Y119543D01*
Y118745D01*
X35451Y120269D02*X34870Y119543D01*
X35909Y120269D02*Y118745D01*
Y120269D02*X36852D01*
X35909Y119543D02*X36489D01*
X35909Y118745D02*X36852D01*
X38325Y120051D02*X38180Y120196D01*
X37962Y120269D01*
X37672D02*X37962D01*
X37672D02*X37454Y120196D01*
X37309Y120051D01*
Y119906D01*
X37381Y119761D01*
X37454Y119688D01*
X37599Y119616D01*
X38035Y119471D01*
X38180Y119398D01*
X38252Y119326D01*
X38325Y119180D01*
Y118962D01*
X38180Y118818D01*
X37962Y118745D01*
X37672D02*X37962D01*
X37672D02*X37454Y118818D01*
X37309Y118962D01*
X24964Y119979D02*Y119906D01*
Y119979D02*X25037Y120124D01*
X25109Y120197D01*
X25255Y120269D01*
X25545D01*
X25690Y120197D01*
X25763Y120124D01*
X25835Y119979D01*
Y119834D01*
X25763Y119688D01*
X25617Y119471D01*
X24892Y118745D01*
X25908D01*
X11865Y120269D02*X11648Y120197D01*
X11502Y119979D01*
X11430Y119616D01*
Y119398D01*
X11502Y119035D01*
X11648Y118818D01*
X11865Y118745D01*
X12011D01*
X12228Y118818D01*
X12373Y119035D01*
X12446Y119398D01*
Y119616D02*Y119398D01*
Y119616D02*X12373Y119979D01*
X12228Y120197D01*
X12011Y120269D01*
X11865D02*X12011D01*
X12976Y118859D02*X12903Y118787D01*
X12976Y118715D01*
X13048Y118787D01*
X12976Y118859D01*
X13941Y120269D02*X13723Y120197D01*
X13578Y119979D01*
X13505Y119616D01*
Y119398D01*
X13578Y119035D01*
X13723Y118818D01*
X13941Y118745D01*
X14086D01*
X14303Y118818D01*
X14449Y119035D01*
X14521Y119398D01*
Y119616D02*Y119398D01*
Y119616D02*X14449Y119979D01*
X14303Y120197D01*
X14086Y120269D01*
X13941D02*X14086D01*
X15123D02*X15922D01*
X15486Y119688D01*
X15704D01*
X15849Y119616D01*
X15922Y119544D01*
X15994Y119326D01*
Y119181D01*
X15922Y118963D01*
X15777Y118818D01*
X15559Y118745D01*
X15341D02*X15559D01*
X15341D02*X15123Y118818D01*
X15051Y118890D01*
X14979Y119035D01*
X16596Y120269D02*X17395D01*
X16959Y119688D01*
X17177D01*
X17322Y119616D01*
X17395Y119544D01*
X17467Y119326D01*
Y119181D01*
X17395Y118963D01*
X17250Y118818D01*
X17032Y118745D01*
X16814D02*X17032D01*
X16814D02*X16596Y118818D01*
X16524Y118890D01*
X16452Y119035D01*
X38250Y41620D02*Y41214D01*
Y41620D02*X38602Y41823D01*
X38250Y41620D02*X37898Y41823D01*
X38250Y42370D02*Y41964D01*
Y42370D02*X38602Y42573D01*
X38250Y42370D02*X37898Y42573D01*
X38250Y43120D02*Y42714D01*
Y43120D02*X38602Y43323D01*
X38250Y43120D02*X37898Y43323D01*
X37500Y43120D02*Y42714D01*
Y43120D02*X37852Y43323D01*
X37500Y43120D02*X37148Y43323D01*
X37500Y42370D02*Y41964D01*
Y42370D02*X37852Y42573D01*
X37500Y42370D02*X37148Y42573D01*
X37500Y41620D02*Y41214D01*
Y41620D02*X37852Y41823D01*
X37500Y41620D02*X37148Y41823D01*
X29500Y54270D02*Y53864D01*
Y54270D02*X29852Y54473D01*
X29500Y54270D02*X29148Y54473D01*
X29500Y52370D02*Y51964D01*
Y52370D02*X29852Y52573D01*
X29500Y52370D02*X29148Y52573D01*
X31400Y52370D02*Y51964D01*
Y52370D02*X31752Y52573D01*
X31400Y52370D02*X31048Y52573D01*
X31400Y54270D02*Y53864D01*
Y54270D02*X31752Y54473D01*
X31400Y54270D02*X31048Y54473D01*
X33950Y72120D02*Y71714D01*
Y72120D02*X34302Y72323D01*
X33950Y72120D02*X33598Y72323D01*
X34700Y72120D02*Y71714D01*
Y72120D02*X35052Y72323D01*
X34700Y72120D02*X34348Y72323D01*
X28100Y72120D02*Y71714D01*
Y72120D02*X28452Y72323D01*
X28100Y72120D02*X27748Y72323D01*
X28850Y72120D02*Y71714D01*
Y72120D02*X29202Y72323D01*
X28850Y72120D02*X28498Y72323D01*
X39250Y53770D02*Y53364D01*
Y53770D02*X39602Y53973D01*
X39250Y53770D02*X38898Y53973D01*
X32200Y59270D02*Y58864D01*
Y59270D02*X32552Y59473D01*
X32200Y59270D02*X31848Y59473D01*
X30250Y59820D02*Y59414D01*
Y59820D02*X30602Y60023D01*
X30250Y59820D02*X29898Y60023D01*
X36650Y64820D02*Y64414D01*
Y64820D02*X37002Y65023D01*
X36650Y64820D02*X36298Y65023D01*
X31300Y57520D02*Y57114D01*
Y57520D02*X31652Y57723D01*
X31300Y57520D02*X30948Y57723D01*
X23250Y56970D02*Y56564D01*
Y56970D02*X23602Y57173D01*
X23250Y56970D02*X22898Y57173D01*
X44150Y59670D02*Y59264D01*
Y59670D02*X44502Y59873D01*
X44150Y59670D02*X43798Y59873D01*
X34300Y49920D02*Y49514D01*
Y49920D02*X34652Y50123D01*
X34300Y49920D02*X33948Y50123D01*
X34300Y49170D02*Y48764D01*
Y49170D02*X34652Y49373D01*
X34300Y49170D02*X33948Y49373D01*
X31700Y46820D02*Y46414D01*
Y46820D02*X32052Y47023D01*
X31700Y46820D02*X31348Y47023D01*
X28700Y49570D02*Y49164D01*
Y49570D02*X29052Y49773D01*
X28700Y49570D02*X28348Y49773D01*
X21100Y49570D02*Y49164D01*
Y49570D02*X21452Y49773D01*
X21100Y49570D02*X20748Y49773D01*
X21450Y71220D02*Y70814D01*
Y71220D02*X21802Y71423D01*
X21450Y71220D02*X21098Y71423D01*
X21450Y69020D02*Y68614D01*
Y69020D02*X21802Y69223D01*
X21450Y69020D02*X21098Y69223D01*
X30950Y73720D02*Y73314D01*
Y73720D02*X31302Y73923D01*
X30950Y73720D02*X30598Y73923D01*
X35800Y73070D02*Y72664D01*
Y73070D02*X36152Y73273D01*
X35800Y73070D02*X35448Y73273D01*
X24950Y81420D02*Y81014D01*
Y81420D02*X25302Y81623D01*
X24950Y81420D02*X24598Y81623D01*
X31500Y77220D02*Y76814D01*
Y77220D02*X31852Y77423D01*
X31500Y77220D02*X31148Y77423D01*
X30750Y77220D02*Y76814D01*
Y77220D02*X31102Y77423D01*
X30750Y77220D02*X30398Y77423D01*
X35650Y80120D02*Y79714D01*
Y80120D02*X36002Y80323D01*
X35650Y80120D02*X35298Y80323D01*
X34900Y80120D02*Y79714D01*
Y80120D02*X35252Y80323D01*
X34900Y80120D02*X34548Y80323D01*
X39150Y86520D02*Y86114D01*
Y86520D02*X39502Y86723D01*
X39150Y86520D02*X38798Y86723D01*
X39150Y85770D02*Y85364D01*
Y85770D02*X39502Y85973D01*
X39150Y85770D02*X38798Y85973D01*
X30450Y53320D02*Y52914D01*
Y53320D02*X30802Y53523D01*
X30450Y53320D02*X30098Y53523D01*
X26450Y54920D02*Y54514D01*
Y54920D02*X26802Y55123D01*
X26450Y54920D02*X26098Y55123D01*
X26050Y54270D02*Y53864D01*
Y54270D02*X26402Y54473D01*
X26050Y54270D02*X25698Y54473D01*
X33950Y55970D02*Y55564D01*
Y55970D02*X34302Y56173D01*
X33950Y55970D02*X33598Y56173D01*
X34600Y55570D02*Y55164D01*
Y55570D02*X34952Y55773D01*
X34600Y55570D02*X34248Y55773D01*
X22860Y88900D02*Y88494D01*
Y88900D02*X23212Y89103D01*
X22860Y88900D02*X22508Y89103D01*
X28575Y88900D02*Y88494D01*
Y88900D02*X28927Y89103D01*
X28575Y88900D02*X28223Y89103D01*
X33020Y88900D02*Y88494D01*
Y88900D02*X33372Y89103D01*
X33020Y88900D02*X32668Y89103D01*
X30480Y86360D02*Y85954D01*
Y86360D02*X30832Y86563D01*
X30480Y86360D02*X30128Y86563D01*
X39370Y89535D02*Y89129D01*
Y89535D02*X39722Y89738D01*
X39370Y89535D02*X39018Y89738D01*
X20320Y83185D02*Y82779D01*
Y83185D02*X20672Y83388D01*
X20320Y83185D02*X19968Y83388D01*
X24130Y79375D02*Y78969D01*
Y79375D02*X24482Y79578D01*
X24130Y79375D02*X23778Y79578D01*
X22225Y75565D02*Y75159D01*
Y75565D02*X22577Y75768D01*
X22225Y75565D02*X21873Y75768D01*
X31115Y70485D02*Y70079D01*
Y70485D02*X31467Y70688D01*
X31115Y70485D02*X30763Y70688D01*
X24765Y67310D02*Y66904D01*
Y67310D02*X25117Y67513D01*
X24765Y67310D02*X24413Y67513D01*
X40640Y64770D02*Y64364D01*
Y64770D02*X40992Y64973D01*
X40640Y64770D02*X40288Y64973D01*
X27305Y61595D02*Y61189D01*
Y61595D02*X27657Y61798D01*
X27305Y61595D02*X26953Y61798D01*
X33020Y60960D02*Y60554D01*
Y60960D02*X33372Y61163D01*
X33020Y60960D02*X32668Y61163D01*
X34925Y59055D02*Y58649D01*
Y59055D02*X35277Y59258D01*
X34925Y59055D02*X34573Y59258D01*
X35560Y50165D02*Y49759D01*
Y50165D02*X35912Y50368D01*
X35560Y50165D02*X35208Y50368D01*
X25400Y50800D02*Y50394D01*
Y50800D02*X25752Y51003D01*
X25400Y50800D02*X25048Y51003D01*
X34925Y44450D02*Y44044D01*
Y44450D02*X35277Y44653D01*
X34925Y44450D02*X34573Y44653D01*
X23495Y41910D02*Y41504D01*
Y41910D02*X23847Y42113D01*
X23495Y41910D02*X23143Y42113D01*
X29210Y36830D02*Y36424D01*
Y36830D02*X29562Y37033D01*
X29210Y36830D02*X28858Y37033D01*
X32385Y32385D02*Y31979D01*
Y32385D02*X32737Y32588D01*
X32385Y32385D02*X32033Y32588D01*
X24130Y26670D02*Y26264D01*
Y26670D02*X24482Y26873D01*
X24130Y26670D02*X23778Y26873D01*
X36830Y21590D02*Y21184D01*
Y21590D02*X37182Y21793D01*
X36830Y21590D02*X36478Y21793D01*
X38735Y27940D02*Y27534D01*
Y27940D02*X39087Y28143D01*
X38735Y27940D02*X38383Y28143D01*
X36830Y27940D02*Y27534D01*
Y27940D02*X37182Y28143D01*
X36830Y27940D02*X36478Y28143D01*
X34925Y27940D02*Y27534D01*
Y27940D02*X35277Y28143D01*
X34925Y27940D02*X34573Y28143D01*
X42545Y40005D02*Y39599D01*
Y40005D02*X42897Y40208D01*
X42545Y40005D02*X42193Y40208D01*
X43815Y29845D02*Y29439D01*
Y29845D02*X44167Y30048D01*
X43815Y29845D02*X43463Y30048D01*
X34290Y37465D02*Y37059D01*
Y37465D02*X34642Y37668D01*
X34290Y37465D02*X33938Y37668D01*
X31750Y40640D02*Y40234D01*
Y40640D02*X32102Y40843D01*
X31750Y40640D02*X31398Y40843D01*
X34290Y40640D02*Y40234D01*
Y40640D02*X34642Y40843D01*
X34290Y40640D02*X33938Y40843D01*
X34290Y39370D02*Y38964D01*
Y39370D02*X34642Y39573D01*
X34290Y39370D02*X33938Y39573D01*
X35550Y51530D02*Y51124D01*
Y51530D02*X35902Y51733D01*
X35550Y51530D02*X35198Y51733D01*
X22950Y48620D02*Y48214D01*
Y48620D02*X23302Y48823D01*
X22950Y48620D02*X22598Y48823D01*
X27550Y54570D02*Y54164D01*
Y54570D02*X27902Y54773D01*
X27550Y54570D02*X27198Y54773D01*
X27450Y55320D02*Y54914D01*
Y55320D02*X27802Y55523D01*
X27450Y55320D02*X27098Y55523D01*
X35850Y55920D02*Y55514D01*
Y55920D02*X36202Y56123D01*
X35850Y55920D02*X35498Y56123D01*
X36400Y55420D02*Y55014D01*
Y55420D02*X36752Y55623D01*
X36400Y55420D02*X36048Y55623D01*
X39400Y57820D02*Y57414D01*
Y57820D02*X39752Y58023D01*
X39400Y57820D02*X39048Y58023D01*
X39400Y51520D02*Y51114D01*
Y51520D02*X39752Y51723D01*
X39400Y51520D02*X39048Y51723D01*
X36300Y48120D02*Y47714D01*
Y48120D02*X36652Y48323D01*
X36300Y48120D02*X35948Y48323D01*
X42600Y60970D02*Y60564D01*
Y60970D02*X42952Y61173D01*
X42600Y60970D02*X42248Y61173D01*
X42750Y55820D02*Y55414D01*
Y55820D02*X43102Y56023D01*
X42750Y55820D02*X42398Y56023D01*
X34650Y54820D02*Y54414D01*
Y54820D02*X35002Y55023D01*
X34650Y54820D02*X34298Y55023D01*
X30650Y58520D02*Y58114D01*
Y58520D02*X31002Y58723D01*
X30650Y58520D02*X30298Y58723D01*
X33450Y52120D02*Y51714D01*
Y52120D02*X33802Y52323D01*
X33450Y52120D02*X33098Y52323D01*
X36400Y54670D02*Y54264D01*
Y54670D02*X36752Y54873D01*
X36400Y54670D02*X36048Y54873D01*
X34400Y54120D02*Y53714D01*
Y54120D02*X34752Y54323D01*
X34400Y54120D02*X34048Y54323D01*
X44450Y64320D02*Y63914D01*
Y64320D02*X44802Y64523D01*
X44450Y64320D02*X44098Y64523D01*
X41800Y69420D02*Y69014D01*
Y69420D02*X42152Y69623D01*
X41800Y69420D02*X41448Y69623D01*
X41800Y68670D02*Y68264D01*
Y68670D02*X42152Y68873D01*
X41800Y68670D02*X41448Y68873D01*
X38650Y77720D02*Y77314D01*
Y77720D02*X39002Y77923D01*
X38650Y77720D02*X38298Y77923D01*
X37750Y79420D02*Y79014D01*
Y79420D02*X38102Y79623D01*
X37750Y79420D02*X37398Y79623D01*
X39650Y79320D02*Y78914D01*
Y79320D02*X40002Y79523D01*
X39650Y79320D02*X39298Y79523D01*
X40750Y79320D02*Y78914D01*
Y79320D02*X41102Y79523D01*
X40750Y79320D02*X40398Y79523D01*
X42550Y64720D02*Y64314D01*
Y64720D02*X42902Y64923D01*
X42550Y64720D02*X42198Y64923D01*
X43900Y69520D02*Y69114D01*
Y69520D02*X44252Y69723D01*
X43900Y69520D02*X43548Y69723D01*
X35450Y83320D02*Y82914D01*
Y83320D02*X35802Y83523D01*
X35450Y83320D02*X35098Y83523D01*
X42200Y80320D02*Y79914D01*
Y80320D02*X42552Y80523D01*
X42200Y80320D02*X41848Y80523D01*
X44000Y75170D02*Y74764D01*
Y75170D02*X44352Y75373D01*
X44000Y75170D02*X43648Y75373D01*
X30000Y66220D02*Y65814D01*
Y66220D02*X30352Y66423D01*
X30000Y66220D02*X29648Y66423D01*
X35300Y66370D02*Y65964D01*
Y66370D02*X35652Y66573D01*
X35300Y66370D02*X34948Y66573D01*
X17650Y53270D02*Y52864D01*
Y53270D02*X18002Y53473D01*
X17650Y53270D02*X17298Y53473D01*
X24400Y59920D02*Y59514D01*
Y59920D02*X24752Y60123D01*
X24400Y59920D02*X24048Y60123D01*
X20800Y63570D02*Y63164D01*
Y63570D02*X21152Y63773D01*
X20800Y63570D02*X20448Y63773D01*
X35050Y63220D02*Y62814D01*
Y63220D02*X35402Y63423D01*
X35050Y63220D02*X34698Y63423D01*
X3810Y123508D02*Y123101D01*
Y123508D02*X4162Y123711D01*
X3810Y123508D02*X3458Y123711D01*
X34290Y124079D02*X34870Y123353D01*
Y122555D01*
X35451Y124079D02*X34870Y123353D01*
X35909Y124079D02*Y122555D01*
Y124079D02*X36852D01*
X35909Y123353D02*X36489D01*
X35909Y122555D02*X36852D01*
X38325Y123861D02*X38180Y124006D01*
X37962Y124079D01*
X37672D02*X37962D01*
X37672D02*X37454Y124006D01*
X37309Y123861D01*
Y123716D01*
X37381Y123571D01*
X37454Y123498D01*
X37599Y123426D01*
X38035Y123281D01*
X38180Y123208D01*
X38252Y123136D01*
X38325Y122990D01*
Y122772D01*
X38180Y122628D01*
X37962Y122555D01*
X37672D02*X37962D01*
X37672D02*X37454Y122628D01*
X37309Y122772D01*
X24892Y123789D02*X25037Y123862D01*
X25255Y124079D01*
Y122555D01*
X26147Y124079D02*X25930Y124007D01*
X25784Y123789D01*
X25712Y123426D01*
Y123208D01*
X25784Y122845D01*
X25930Y122628D01*
X26147Y122555D01*
X26293D01*
X26510Y122628D01*
X26655Y122845D01*
X26728Y123208D01*
Y123426D02*Y123208D01*
Y123426D02*X26655Y123789D01*
X26510Y124007D01*
X26293Y124079D01*
X26147D02*X26293D01*
X28201D02*X27475Y122555D01*
X27185Y124079D02*X28201D01*
X11865D02*X11648Y124007D01*
X11502Y123789D01*
X11430Y123426D01*
Y123208D01*
X11502Y122845D01*
X11648Y122628D01*
X11865Y122555D01*
X12011D01*
X12228Y122628D01*
X12373Y122845D01*
X12446Y123208D01*
Y123426D02*Y123208D01*
Y123426D02*X12373Y123789D01*
X12228Y124007D01*
X12011Y124079D01*
X11865D02*X12011D01*
X12976Y122669D02*X12903Y122597D01*
X12976Y122525D01*
X13048Y122597D01*
X12976Y122669D01*
X13941Y124079D02*X13723Y124007D01*
X13578Y123789D01*
X13505Y123426D01*
Y123208D01*
X13578Y122845D01*
X13723Y122628D01*
X13941Y122555D01*
X14086D01*
X14303Y122628D01*
X14449Y122845D01*
X14521Y123208D01*
Y123426D02*Y123208D01*
Y123426D02*X14449Y123789D01*
X14303Y124007D01*
X14086Y124079D01*
X13941D02*X14086D01*
X14979Y123789D02*X15123Y123862D01*
X15341Y124079D01*
Y122555D01*
X15871Y123789D02*Y123716D01*
Y123789D02*X15944Y123934D01*
X16016Y124007D01*
X16161Y124079D01*
X16451D01*
X16597Y124007D01*
X16669Y123934D01*
X16742Y123789D01*
Y123644D01*
X16669Y123498D01*
X16524Y123281D01*
X15798Y122555D01*
X16814D01*
X1016Y127671D02*X871Y127816D01*
X653Y127889D01*
X363D02*X653D01*
X363D02*X145Y127816D01*
X0Y127671D01*
Y127526D01*
X72Y127381D01*
X145Y127308D01*
X290Y127236D01*
X726Y127091D01*
X871Y127018D01*
X943Y126946D01*
X1016Y126800D01*
Y126582D01*
X871Y126438D01*
X653Y126365D01*
X363D02*X653D01*
X363D02*X145Y126438D01*
X0Y126582D01*
X1545Y127381D02*X1981Y126365D01*
X2416Y127381D02*X1981Y126365D01*
X1836Y126076D01*
X1691Y125930D01*
X1545Y125857D01*
X1473D02*X1545D01*
X2874Y127381D02*Y126365D01*
Y127091D02*X3091Y127309D01*
X3236Y127381D01*
X3454D01*
X3599Y127309D01*
X3671Y127091D01*
Y126365D01*
Y127091D02*X3889Y127309D01*
X4034Y127381D01*
X4252D01*
X4397Y127309D01*
X4470Y127091D01*
Y126365D01*
X4927Y127889D02*Y126365D01*
Y127164D02*X5072Y127309D01*
X5217Y127381D01*
X5435D01*
X5579Y127309D01*
X5725Y127164D01*
X5798Y126946D01*
Y126801D01*
X5725Y126583D01*
X5579Y126438D01*
X5435Y126365D01*
X5217D02*X5435D01*
X5217D02*X5072Y126438D01*
X4927Y126583D01*
X6618Y127381D02*X6472Y127309D01*
X6327Y127164D01*
X6255Y126946D01*
Y126801D01*
X6327Y126583D01*
X6472Y126438D01*
X6618Y126365D01*
X6835D01*
X6980Y126438D01*
X7125Y126583D01*
X7198Y126801D01*
Y126946D02*Y126801D01*
Y126946D02*X7125Y127164D01*
X6980Y127309D01*
X6835Y127381D01*
X6618D02*X6835D01*
X7655Y127889D02*Y126365D01*
X0Y125603D02*X8112D01*
X10414Y127889D02*Y126365D01*
Y127889D02*X10922D01*
X11140Y127816D01*
X11285Y127671D01*
X11357Y127526D01*
X11430Y127308D01*
Y126945D01*
X11357Y126728D01*
X11285Y126582D01*
X11140Y126438D01*
X10922Y126365D01*
X10414D02*X10922D01*
X11959Y127385D02*Y126369D01*
X11887Y127893D02*X11959Y127820D01*
X12032Y127893D01*
X11959Y127965D01*
X11887Y127893D01*
X13360Y127381D02*Y126365D01*
Y127164D02*X13215Y127309D01*
X13070Y127381D01*
X12852D02*X13070D01*
X12852D02*X12707Y127309D01*
X12562Y127164D01*
X12489Y126946D01*
Y126801D01*
X12562Y126583D01*
X12707Y126438D01*
X12852Y126365D01*
X13070D01*
X13215Y126438D01*
X13360Y126583D01*
X13818Y127381D02*Y126365D01*
Y127091D02*X14035Y127309D01*
X14180Y127381D01*
X14398D01*
X14543Y127309D01*
X14615Y127091D01*
Y126365D01*
Y127091D02*X14833Y127309D01*
X14978Y127381D01*
X15196D01*
X15341Y127309D01*
X15414Y127091D01*
Y126365D01*
X15943Y126479D02*X15871Y126407D01*
X15943Y126335D01*
X16015Y126407D01*
X15943Y126479D01*
X17666Y128270D02*X17521Y128125D01*
X17376Y127907D01*
X17230Y127617D01*
X17158Y127254D01*
Y126964D01*
X17230Y126601D01*
X17376Y126311D01*
X17521Y126093D01*
X17666Y125948D01*
X18124Y127889D02*X18505D01*
X18314D02*Y126365D01*
X18124D02*X18505D01*
X18962Y127381D02*Y126365D01*
Y127091D02*X19180Y127309D01*
X19324Y127381D01*
X19542D01*
X19687Y127309D01*
X19760Y127091D01*
Y126365D01*
X21088Y127164D02*X20943Y127309D01*
X20798Y127381D01*
X20580D02*X20798D01*
X20580D02*X20435Y127309D01*
X20290Y127164D01*
X20217Y126946D01*
Y126801D01*
X20290Y126583D01*
X20435Y126438D01*
X20580Y126365D01*
X20798D01*
X20943Y126438D01*
X21088Y126583D01*
X21545Y127889D02*Y126365D01*
Y127091D02*X21762Y127309D01*
X21908Y127381D01*
X22125D01*
X22271Y127309D01*
X22343Y127091D01*
Y126365D01*
X22801Y128270D02*X22945Y128125D01*
X23091Y127907D01*
X23236Y127617D01*
X23308Y127254D01*
Y126964D01*
X23236Y126601D01*
X23091Y126311D01*
X22945Y126093D01*
X22801Y125948D01*
X10414Y125603D02*X23765D01*
X25219Y127526D02*X25146Y127671D01*
X25001Y127816D01*
X24856Y127889D01*
X24565D02*X24856D01*
X24565D02*X24420Y127816D01*
X24275Y127671D01*
X24202Y127526D01*
X24130Y127308D01*
Y126945D01*
X24202Y126728D01*
X24275Y126582D01*
X24420Y126438D01*
X24565Y126365D01*
X24856D01*
X25001Y126438D01*
X25146Y126582D01*
X25219Y126728D01*
X26038Y127381D02*X25893Y127309D01*
X25748Y127164D01*
X25676Y126946D01*
Y126801D01*
X25748Y126583D01*
X25893Y126438D01*
X26038Y126365D01*
X26256D01*
X26401Y126438D01*
X26546Y126583D01*
X26619Y126801D01*
Y126946D02*Y126801D01*
Y126946D02*X26546Y127164D01*
X26401Y127309D01*
X26256Y127381D01*
X26038D02*X26256D01*
X27076D02*Y126656D01*
X27148Y126438D01*
X27294Y126365D01*
X27511D01*
X27657Y126438D01*
X27874Y126656D01*
Y127381D02*Y126365D01*
X28331Y127381D02*Y126365D01*
Y127091D02*X28549Y127309D01*
X28694Y127381D01*
X28912D01*
X29057Y127309D01*
X29130Y127091D01*
Y126365D01*
X29805Y127889D02*Y126655D01*
X29877Y126438D01*
X30022Y126365D01*
X30167D01*
X29587Y127381D02*X30095D01*
X24130Y125603D02*X30625D01*
X33020Y127889D02*Y126365D01*
Y127889D02*X33673D01*
X33891Y127816D01*
X33963Y127744D01*
X34036Y127599D01*
Y127381D01*
X33963Y127236D01*
X33891Y127163D01*
X33673Y127091D01*
X33020D02*X33673D01*
X34493Y127889D02*Y126365D01*
X35821Y127381D02*Y126365D01*
Y127164D02*X35676Y127309D01*
X35531Y127381D01*
X35313D02*X35531D01*
X35313D02*X35168Y127309D01*
X35023Y127164D01*
X34950Y126946D01*
Y126801D01*
X35023Y126583D01*
X35168Y126438D01*
X35313Y126365D01*
X35531D01*
X35676Y126438D01*
X35821Y126583D01*
X36496Y127889D02*Y126655D01*
X36568Y126438D01*
X36714Y126365D01*
X36859D01*
X36278Y127381D02*X36786D01*
X37316Y126946D02*X38186D01*
Y127091D02*Y126946D01*
Y127091D02*X38114Y127236D01*
X38042Y127309D01*
X37896Y127381D01*
X37679D02*X37896D01*
X37679D02*X37533Y127309D01*
X37388Y127164D01*
X37316Y126946D01*
Y126801D01*
X37388Y126583D01*
X37533Y126438D01*
X37679Y126365D01*
X37896D01*
X38042Y126438D01*
X38186Y126583D01*
X39514Y127889D02*Y126365D01*
Y127164D02*X39369Y127309D01*
X39224Y127381D01*
X39006D02*X39224D01*
X39006D02*X38861Y127309D01*
X38716Y127164D01*
X38644Y126946D01*
Y126801D01*
X38716Y126583D01*
X38861Y126438D01*
X39006Y126365D01*
X39224D01*
X39369Y126438D01*
X39514Y126583D01*
X39971Y127599D02*Y127526D01*
Y127599D02*X40044Y127744D01*
X40116Y127816D01*
X40261Y127889D01*
X40551D01*
X40697Y127816D01*
X40769Y127744D01*
X40841Y127599D01*
Y127454D01*
X40769Y127309D01*
X40697Y127236D01*
X40406Y127091D01*
Y126873D01*
Y126510D02*X40334Y126438D01*
X40406Y126365D01*
X40478Y126438D01*
X40406Y126510D01*
X33020Y125603D02*X41299D01*
X508Y131699D02*Y130175D01*
X0Y131699D02*X1016D01*
X1473D02*Y130175D01*
Y130901D02*X1690Y131119D01*
X1836Y131191D01*
X2053D01*
X2198Y131119D01*
X2271Y130901D01*
Y130175D01*
X2728Y130756D02*X3599D01*
Y130901D02*Y130756D01*
Y130901D02*X3526Y131046D01*
X3454Y131119D01*
X3309Y131191D01*
X3091D02*X3309D01*
X3091D02*X2946Y131119D01*
X2800Y130974D01*
X2728Y130756D01*
Y130611D01*
X2800Y130393D01*
X2946Y130248D01*
X3091Y130175D01*
X3309D01*
X3454Y130248D01*
X3599Y130393D01*
X4056Y131191D02*Y130175D01*
Y130756D02*X4128Y130974D01*
X4274Y131119D01*
X4418Y131191D01*
X4636D01*
X5094Y130756D02*X5964D01*
Y130901D02*Y130756D01*
Y130901D02*X5891Y131046D01*
X5819Y131119D01*
X5674Y131191D01*
X5456D02*X5674D01*
X5456D02*X5311Y131119D01*
X5166Y130974D01*
X5094Y130756D01*
Y130611D01*
X5166Y130393D01*
X5311Y130248D01*
X5456Y130175D01*
X5674D01*
X5819Y130248D01*
X5964Y130393D01*
X7978Y131191D02*Y130175D01*
Y130974D02*X7832Y131119D01*
X7687Y131191D01*
X7469D02*X7687D01*
X7469D02*X7325Y131119D01*
X7179Y130974D01*
X7107Y130756D01*
Y130611D01*
X7179Y130393D01*
X7325Y130248D01*
X7469Y130175D01*
X7687D01*
X7832Y130248D01*
X7978Y130393D01*
X8435Y131191D02*Y130175D01*
Y130756D02*X8507Y130974D01*
X8653Y131119D01*
X8798Y131191D01*
X9015D01*
X9473Y130756D02*X10343D01*
Y130901D02*Y130756D01*
Y130901D02*X10271Y131046D01*
X10198Y131119D01*
X10053Y131191D01*
X9835D02*X10053D01*
X9835D02*X9690Y131119D01*
X9545Y130974D01*
X9473Y130756D01*
Y130611D01*
X9545Y130393D01*
X9690Y130248D01*
X9835Y130175D01*
X10053D01*
X10198Y130248D01*
X10343Y130393D01*
X12211Y131699D02*X11486Y130683D01*
X12574D01*
X12211Y131699D02*Y130175D01*
X14587Y131699D02*Y130175D01*
Y130974D02*X14442Y131119D01*
X14297Y131191D01*
X14080D02*X14297D01*
X14080D02*X13934Y131119D01*
X13789Y130974D01*
X13717Y130756D01*
Y130611D01*
X13789Y130393D01*
X13934Y130248D01*
X14080Y130175D01*
X14297D01*
X14442Y130248D01*
X14587Y130393D01*
X15117Y131195D02*Y130179D01*
X15044Y131703D02*X15117Y131630D01*
X15189Y131703D01*
X15117Y131775D01*
X15044Y131703D01*
X16082Y131699D02*X16227D01*
X16082D02*X15937Y131627D01*
X15864Y131409D01*
Y130175D01*
X15647Y131191D02*X16155D01*
X17120Y131699D02*X17264D01*
X17120D02*X16974Y131627D01*
X16901Y131409D01*
Y130175D01*
X16684Y131191D02*X17192D01*
X17721Y130756D02*X18592D01*
Y130901D02*Y130756D01*
Y130901D02*X18519Y131046D01*
X18447Y131119D01*
X18302Y131191D01*
X18084D02*X18302D01*
X18084D02*X17939Y131119D01*
X17793Y130974D01*
X17721Y130756D01*
Y130611D01*
X17793Y130393D01*
X17939Y130248D01*
X18084Y130175D01*
X18302D01*
X18447Y130248D01*
X18592Y130393D01*
X19049Y131191D02*Y130175D01*
Y130756D02*X19121Y130974D01*
X19267Y131119D01*
X19412Y131191D01*
X19629D01*
X20087Y130756D02*X20957D01*
Y130901D02*Y130756D01*
Y130901D02*X20885Y131046D01*
X20812Y131119D01*
X20667Y131191D01*
X20449D02*X20667D01*
X20449D02*X20304Y131119D01*
X20159Y130974D01*
X20087Y130756D01*
Y130611D01*
X20159Y130393D01*
X20304Y130248D01*
X20449Y130175D01*
X20667D01*
X20812Y130248D01*
X20957Y130393D01*
X21414Y131191D02*Y130175D01*
Y130901D02*X21632Y131119D01*
X21777Y131191D01*
X21995D01*
X22139Y131119D01*
X22212Y130901D01*
Y130175D01*
X22887Y131699D02*Y130465D01*
X22959Y130248D01*
X23105Y130175D01*
X23250D01*
X22669Y131191D02*X23177D01*
X25263Y131699D02*Y130175D01*
Y130974D02*X25118Y131119D01*
X24973Y131191D01*
X24756D02*X24973D01*
X24756D02*X24610Y131119D01*
X24465Y130974D01*
X24393Y130756D01*
Y130611D01*
X24465Y130393D01*
X24610Y130248D01*
X24756Y130175D01*
X24973D01*
X25118Y130248D01*
X25263Y130393D01*
X25720Y131191D02*Y130175D01*
Y130756D02*X25793Y130974D01*
X25938Y131119D01*
X26083Y131191D01*
X26301D01*
X26831Y131195D02*Y130179D01*
X26758Y131703D02*X26831Y131630D01*
X26903Y131703D01*
X26831Y131775D01*
X26758Y131703D01*
X27361Y131699D02*Y130175D01*
X27818Y131699D02*Y130175D01*
X29759Y130974D02*X29686Y131119D01*
X29468Y131191D01*
X29251D02*X29468D01*
X29251D02*X29033Y131119D01*
X28961Y130974D01*
X29033Y130828D01*
X29178Y130756D01*
X29541Y130683D01*
X29686Y130611D01*
X29759Y130466D01*
Y130393D01*
X29686Y130248D01*
X29468Y130175D01*
X29251D02*X29468D01*
X29251D02*X29033Y130248D01*
X28961Y130393D01*
X30288Y131195D02*Y130179D01*
X30216Y131703D02*X30288Y131630D01*
X30361Y131703D01*
X30288Y131775D01*
X30216Y131703D01*
X31616Y131191D02*X30818Y130175D01*
Y131191D02*X31616D01*
X30818Y130175D02*X31616D01*
X32074Y130756D02*X32944D01*
Y130901D02*Y130756D01*
Y130901D02*X32871Y131046D01*
X32799Y131119D01*
X32654Y131191D01*
X32436D02*X32654D01*
X32436D02*X32291Y131119D01*
X32146Y130974D01*
X32074Y130756D01*
Y130611D01*
X32146Y130393D01*
X32291Y130248D01*
X32436Y130175D01*
X32654D01*
X32799Y130248D01*
X32944Y130393D01*
X34199Y130974D02*X34126Y131119D01*
X33908Y131191D01*
X33691D02*X33908D01*
X33691D02*X33473Y131119D01*
X33401Y130974D01*
X33473Y130828D01*
X33618Y130756D01*
X33981Y130683D01*
X34126Y130611D01*
X34199Y130466D01*
Y130393D01*
X34126Y130248D01*
X33908Y130175D01*
X33691D02*X33908D01*
X33691D02*X33473Y130248D01*
X33401Y130393D01*
X35342Y131191D02*Y130466D01*
X35414Y130248D01*
X35560Y130175D01*
X35777D01*
X35922Y130248D01*
X36140Y130466D01*
Y131191D02*Y130175D01*
X37395Y130974D02*X37323Y131119D01*
X37105Y131191D01*
X36887D02*X37105D01*
X36887D02*X36669Y131119D01*
X36597Y130974D01*
X36669Y130828D01*
X36814Y130756D01*
X37177Y130683D01*
X37323Y130611D01*
X37395Y130466D01*
Y130393D01*
X37323Y130248D01*
X37105Y130175D01*
X36887D02*X37105D01*
X36887D02*X36669Y130248D01*
X36597Y130393D01*
X37852Y130756D02*X38722D01*
Y130901D02*Y130756D01*
Y130901D02*X38650Y131046D01*
X38578Y131119D01*
X38432Y131191D01*
X38215D02*X38432D01*
X38215D02*X38069Y131119D01*
X37924Y130974D01*
X37852Y130756D01*
Y130611D01*
X37924Y130393D01*
X38069Y130248D01*
X38215Y130175D01*
X38432D01*
X38578Y130248D01*
X38722Y130393D01*
X40050Y131699D02*Y130175D01*
Y130974D02*X39905Y131119D01*
X39760Y131191D01*
X39542D02*X39760D01*
X39542D02*X39397Y131119D01*
X39252Y130974D01*
X39180Y130756D01*
Y130611D01*
X39252Y130393D01*
X39397Y130248D01*
X39542Y130175D01*
X39760D01*
X39905Y130248D01*
X40050Y130393D01*
X41265Y131195D02*Y130179D01*
X41193Y131703D02*X41265Y131630D01*
X41338Y131703D01*
X41265Y131775D01*
X41193Y131703D01*
X41795Y131191D02*Y130175D01*
Y130901D02*X42013Y131119D01*
X42158Y131191D01*
X42376D01*
X42521Y131119D01*
X42593Y130901D01*
Y130175D01*
X43954Y131699D02*Y130465D01*
X44026Y130248D01*
X44172Y130175D01*
X44317D01*
X43736Y131191D02*X44244D01*
X44774Y131699D02*Y130175D01*
Y130901D02*X44991Y131119D01*
X45137Y131191D01*
X45354D01*
X45500Y131119D01*
X45572Y130901D01*
Y130175D01*
X46102Y131195D02*Y130179D01*
X46030Y131703D02*X46102Y131630D01*
X46175Y131703D01*
X46102Y131775D01*
X46030Y131703D01*
X47430Y130974D02*X47357Y131119D01*
X47139Y131191D01*
X46922D02*X47139D01*
X46922D02*X46704Y131119D01*
X46632Y130974D01*
X46704Y130828D01*
X46849Y130756D01*
X47212Y130683D01*
X47357Y130611D01*
X47430Y130466D01*
Y130393D01*
X47357Y130248D01*
X47139Y130175D01*
X46922D02*X47139D01*
X46922D02*X46704Y130248D01*
X46632Y130393D01*
X48573Y131699D02*Y130175D01*
X49901Y131191D02*Y130175D01*
Y130974D02*X49755Y131119D01*
X49611Y131191D01*
X49393D02*X49611D01*
X49393D02*X49248Y131119D01*
X49102Y130974D01*
X49030Y130756D01*
Y130611D01*
X49102Y130393D01*
X49248Y130248D01*
X49393Y130175D01*
X49611D01*
X49755Y130248D01*
X49901Y130393D01*
X50431Y131191D02*X50866Y130175D01*
X51301Y131191D02*X50866Y130175D01*
X50721Y129886D01*
X50576Y129740D01*
X50431Y129667D01*
X50358D02*X50431D01*
X52121Y131191D02*X51976Y131119D01*
X51831Y130974D01*
X51759Y130756D01*
Y130611D01*
X51831Y130393D01*
X51976Y130248D01*
X52121Y130175D01*
X52339D01*
X52484Y130248D01*
X52629Y130393D01*
X52702Y130611D01*
Y130756D02*Y130611D01*
Y130756D02*X52629Y130974D01*
X52484Y131119D01*
X52339Y131191D01*
X52121D02*X52339D01*
X53159D02*Y130466D01*
X53231Y130248D01*
X53377Y130175D01*
X53594D01*
X53740Y130248D01*
X53957Y130466D01*
Y131191D02*Y130175D01*
X54632Y131699D02*Y130465D01*
X54704Y130248D01*
X54850Y130175D01*
X54995D01*
X54414Y131191D02*X54922D01*
X55597Y130217D02*X55525Y130145D01*
X55452Y130217D01*
X55525Y130289D01*
X55597Y130217D01*
Y130072D01*
X55452Y129927D01*
X56740Y131409D02*X56885Y131482D01*
X57103Y131699D01*
Y130175D01*
X58286Y131699D02*X57560Y130683D01*
X58648D01*
X58286Y131699D02*Y130175D01*
X59105Y131409D02*X59250Y131482D01*
X59468Y131699D01*
Y130175D01*
X60611Y131699D02*Y130175D01*
Y130901D02*X60828Y131119D01*
X60974Y131191D01*
X61191D01*
X61337Y131119D01*
X61409Y130901D01*
Y130175D01*
X62229Y131191D02*X62084Y131119D01*
X61939Y130974D01*
X61867Y130756D01*
Y130611D01*
X61939Y130393D01*
X62084Y130248D01*
X62229Y130175D01*
X62447D01*
X62592Y130248D01*
X62737Y130393D01*
X62810Y130611D01*
Y130756D02*Y130611D01*
Y130756D02*X62737Y130974D01*
X62592Y131119D01*
X62447Y131191D01*
X62229D02*X62447D01*
X63267Y131699D02*Y130175D01*
X63724Y130756D02*X64594D01*
Y130901D02*Y130756D01*
Y130901D02*X64522Y131046D01*
X64449Y131119D01*
X64304Y131191D01*
X64087D02*X64304D01*
X64087D02*X63941Y131119D01*
X63796Y130974D01*
X63724Y130756D01*
Y130611D01*
X63796Y130393D01*
X63941Y130248D01*
X64087Y130175D01*
X64304D01*
X64449Y130248D01*
X64594Y130393D01*
X65849Y130974D02*X65777Y131119D01*
X65559Y131191D01*
X65341D02*X65559D01*
X65341D02*X65123Y131119D01*
X65051Y130974D01*
X65123Y130828D01*
X65269Y130756D01*
X65632Y130683D01*
X65777Y130611D01*
X65849Y130466D01*
Y130393D01*
X65777Y130248D01*
X65559Y130175D01*
X65341D02*X65559D01*
X65341D02*X65123Y130248D01*
X65051Y130393D01*
X67210Y131699D02*Y130465D01*
X67282Y130248D01*
X67428Y130175D01*
X67573D01*
X66992Y131191D02*X67500D01*
X68393D02*X68247Y131119D01*
X68102Y130974D01*
X68030Y130756D01*
Y130611D01*
X68102Y130393D01*
X68247Y130248D01*
X68393Y130175D01*
X68610D01*
X68755Y130248D01*
X68900Y130393D01*
X68973Y130611D01*
Y130756D02*Y130611D01*
Y130756D02*X68900Y130974D01*
X68755Y131119D01*
X68610Y131191D01*
X68393D02*X68610D01*
X69648Y131699D02*Y130465D01*
X69720Y130248D01*
X69866Y130175D01*
X70011D01*
X69430Y131191D02*X69938D01*
X71339D02*Y130175D01*
Y130974D02*X71194Y131119D01*
X71049Y131191D01*
X70831D02*X71049D01*
X70831D02*X70686Y131119D01*
X70541Y130974D01*
X70468Y130756D01*
Y130611D01*
X70541Y130393D01*
X70686Y130248D01*
X70831Y130175D01*
X71049D01*
X71194Y130248D01*
X71339Y130393D01*
X71796Y131699D02*Y130175D01*
G54D78*X17780Y91440D02*X43180D01*
Y17780D02*X17780D01*
X13970Y87630D02*Y21590D01*
X46990D02*Y87630D01*
X17780Y91440D02*G75*G03X13970Y87630I0J-3810D01*G01*
X46990D02*G75*G03X43180Y91440I-3810J0D01*G01*
X46990Y21590D02*G75*G02X43180Y17780I-3810J0D01*G01*
X13970Y21590D02*G75*G03X17780Y17780I3810J0D01*G01*
G54D77*X7143Y-889D02*Y-2413D01*
Y-889D02*X7796D01*
X8013Y-962D01*
X8086Y-1034D01*
X8158Y-1180D01*
Y-1324D01*
X8086Y-1470D01*
X8013Y-1542D01*
X7796Y-1615D01*
X7143D02*X7796D01*
X8013Y-1687D01*
X8086Y-1760D01*
X8158Y-1905D01*
Y-2123D01*
X8086Y-2268D01*
X8013Y-2340D01*
X7796Y-2413D01*
X7143D02*X7796D01*
X8978Y-1397D02*X8833Y-1469D01*
X8688Y-1614D01*
X8616Y-1832D01*
Y-1977D01*
X8688Y-2195D01*
X8833Y-2340D01*
X8978Y-2413D01*
X9196D01*
X9341Y-2340D01*
X9486Y-2195D01*
X9559Y-1977D01*
Y-1832D02*Y-1977D01*
Y-1832D02*X9486Y-1614D01*
X9341Y-1469D01*
X9196Y-1397D01*
X8978D02*X9196D01*
X10887D02*Y-2413D01*
Y-1614D02*X10741Y-1469D01*
X10597Y-1397D01*
X10379D02*X10597D01*
X10379D02*X10234Y-1469D01*
X10088Y-1614D01*
X10016Y-1832D01*
Y-1977D01*
X10088Y-2195D01*
X10234Y-2340D01*
X10379Y-2413D01*
X10597D01*
X10741Y-2340D01*
X10887Y-2195D01*
X11344Y-1397D02*Y-2413D01*
Y-1832D02*X11416Y-1614D01*
X11562Y-1469D01*
X11707Y-1397D01*
X11925D01*
X13252Y-889D02*Y-2413D01*
Y-1614D02*X13107Y-1469D01*
X12962Y-1397D01*
X12745D02*X12962D01*
X12745D02*X12599Y-1469D01*
X12454Y-1614D01*
X12382Y-1832D01*
Y-1977D01*
X12454Y-2195D01*
X12599Y-2340D01*
X12745Y-2413D01*
X12962D01*
X13107Y-2340D01*
X13252Y-2195D01*
X14758Y-1397D02*X14612Y-1469D01*
X14467Y-1614D01*
X14395Y-1832D01*
Y-1977D01*
X14467Y-2195D01*
X14612Y-2340D01*
X14758Y-2413D01*
X14975D01*
X15120Y-2340D01*
X15265Y-2195D01*
X15338Y-1977D01*
Y-1832D02*Y-1977D01*
Y-1832D02*X15265Y-1614D01*
X15120Y-1469D01*
X14975Y-1397D01*
X14758D02*X14975D01*
X15795D02*Y-2122D01*
X15868Y-2340D01*
X16013Y-2413D01*
X16231D01*
X16376Y-2340D01*
X16593Y-2122D01*
Y-1397D02*Y-2413D01*
X17269Y-889D02*Y-2123D01*
X17341Y-2340D01*
X17486Y-2413D01*
X17631D01*
X17051Y-1397D02*X17558D01*
X18088Y-889D02*Y-2413D01*
X18618Y-1393D02*Y-2409D01*
X18546Y-885D02*X18618Y-958D01*
X18691Y-885D01*
X18618Y-813D01*
X18546Y-885D01*
X19148Y-1397D02*Y-2413D01*
Y-1687D02*X19366Y-1469D01*
X19511Y-1397D01*
X19729D01*
X19873Y-1469D01*
X19946Y-1687D01*
Y-2413D01*
X20403Y-1832D02*X21274D01*
Y-1687D02*Y-1832D01*
Y-1687D02*X21201Y-1542D01*
X21129Y-1469D01*
X20984Y-1397D01*
X20766D02*X20984D01*
X20766D02*X20621Y-1469D01*
X20475Y-1614D01*
X20403Y-1832D01*
Y-1977D01*
X20475Y-2195D01*
X20621Y-2340D01*
X20766Y-2413D01*
X20984D01*
X21129Y-2340D01*
X21274Y-2195D01*
X22489Y-1393D02*Y-2409D01*
X22417Y-885D02*X22489Y-958D01*
X22562Y-885D01*
X22489Y-813D01*
X22417Y-885D01*
X23817Y-1614D02*X23744Y-1469D01*
X23526Y-1397D01*
X23309D02*X23526D01*
X23309D02*X23091Y-1469D01*
X23019Y-1614D01*
X23091Y-1760D01*
X23236Y-1832D01*
X23599Y-1905D01*
X23744Y-1977D01*
X23817Y-2122D01*
Y-2195D01*
X23744Y-2340D01*
X23526Y-2413D01*
X23309D02*X23526D01*
X23309D02*X23091Y-2340D01*
X23019Y-2195D01*
X25178Y-889D02*Y-2123D01*
X25250Y-2340D01*
X25395Y-2413D01*
X25540D01*
X24960Y-1397D02*X25468D01*
X25998Y-889D02*Y-2413D01*
Y-1687D02*X26215Y-1469D01*
X26360Y-1397D01*
X26578D01*
X26723Y-1469D01*
X26796Y-1687D01*
Y-2413D01*
X27253Y-1832D02*X28123D01*
Y-1687D02*Y-1832D01*
Y-1687D02*X28051Y-1542D01*
X27978Y-1469D01*
X27833Y-1397D01*
X27616D02*X27833D01*
X27616D02*X27470Y-1469D01*
X27325Y-1614D01*
X27253Y-1832D01*
Y-1977D01*
X27325Y-2195D01*
X27470Y-2340D01*
X27616Y-2413D01*
X27833D01*
X27978Y-2340D01*
X28123Y-2195D01*
X30137Y-1614D02*X29992Y-1469D01*
X29847Y-1397D01*
X29629D02*X29847D01*
X29629D02*X29484Y-1469D01*
X29339Y-1614D01*
X29266Y-1832D01*
Y-1977D01*
X29339Y-2195D01*
X29484Y-2340D01*
X29629Y-2413D01*
X29847D01*
X29992Y-2340D01*
X30137Y-2195D01*
X30594Y-1832D02*X31464D01*
Y-1687D02*Y-1832D01*
Y-1687D02*X31392Y-1542D01*
X31320Y-1469D01*
X31174Y-1397D01*
X30957D02*X31174D01*
X30957D02*X30811Y-1469D01*
X30666Y-1614D01*
X30594Y-1832D01*
Y-1977D01*
X30666Y-2195D01*
X30811Y-2340D01*
X30957Y-2413D01*
X31174D01*
X31320Y-2340D01*
X31464Y-2195D01*
X31922Y-1397D02*Y-2413D01*
Y-1687D02*X32140Y-1469D01*
X32284Y-1397D01*
X32502D01*
X32647Y-1469D01*
X32720Y-1687D01*
Y-2413D01*
X33395Y-889D02*Y-2123D01*
X33467Y-2340D01*
X33612Y-2413D01*
X33758D01*
X33177Y-1397D02*X33685D01*
X34215Y-1832D02*X35085D01*
Y-1687D02*Y-1832D01*
Y-1687D02*X35013Y-1542D01*
X34940Y-1469D01*
X34795Y-1397D01*
X34577D02*X34795D01*
X34577D02*X34432Y-1469D01*
X34287Y-1614D01*
X34215Y-1832D01*
Y-1977D01*
X34287Y-2195D01*
X34432Y-2340D01*
X34577Y-2413D01*
X34795D01*
X34940Y-2340D01*
X35085Y-2195D01*
X35542Y-1397D02*Y-2413D01*
Y-1832D02*X35615Y-1614D01*
X35760Y-1469D01*
X35905Y-1397D01*
X36123D01*
X36580Y-889D02*Y-2413D01*
X37110Y-1393D02*Y-2409D01*
X37037Y-885D02*X37110Y-958D01*
X37182Y-885D01*
X37110Y-813D01*
X37037Y-885D01*
X37640Y-1397D02*Y-2413D01*
Y-1687D02*X37858Y-1469D01*
X38002Y-1397D01*
X38220D01*
X38365Y-1469D01*
X38438Y-1687D01*
Y-2413D01*
X38895Y-1832D02*X39765D01*
Y-1687D02*Y-1832D01*
Y-1687D02*X39693Y-1542D01*
X39620Y-1469D01*
X39475Y-1397D01*
X39258D02*X39475D01*
X39258D02*X39112Y-1469D01*
X38967Y-1614D01*
X38895Y-1832D01*
Y-1977D01*
X38967Y-2195D01*
X39112Y-2340D01*
X39258Y-2413D01*
X39475D01*
X39620Y-2340D01*
X39765Y-2195D01*
X41271Y-1397D02*X41125Y-1469D01*
X40980Y-1614D01*
X40908Y-1832D01*
Y-1977D01*
X40980Y-2195D01*
X41125Y-2340D01*
X41271Y-2413D01*
X41488D01*
X41633Y-2340D01*
X41778Y-2195D01*
X41851Y-1977D01*
Y-1832D02*Y-1977D01*
Y-1832D02*X41778Y-1614D01*
X41633Y-1469D01*
X41488Y-1397D01*
X41271D02*X41488D01*
X42744Y-889D02*X42889D01*
X42744D02*X42598Y-961D01*
X42526Y-1179D01*
Y-2413D01*
X42308Y-1397D02*X42816D01*
X44249Y-889D02*Y-2123D01*
X44321Y-2340D01*
X44467Y-2413D01*
X44612D01*
X44032Y-1397D02*X44539D01*
X45069Y-889D02*Y-2413D01*
Y-1687D02*X45287Y-1469D01*
X45432Y-1397D01*
X45650D01*
X45795Y-1469D01*
X45868Y-1687D01*
Y-2413D01*
X46397Y-1393D02*Y-2409D01*
X46325Y-885D02*X46397Y-958D01*
X46470Y-885D01*
X46397Y-813D01*
X46325Y-885D01*
X47725Y-1614D02*X47653Y-1469D01*
X47435Y-1397D01*
X47217D02*X47435D01*
X47217D02*X46999Y-1469D01*
X46927Y-1614D01*
X46999Y-1760D01*
X47144Y-1832D01*
X47507Y-1905D01*
X47653Y-1977D01*
X47725Y-2122D01*
Y-2195D01*
X47653Y-2340D01*
X47435Y-2413D01*
X47217D02*X47435D01*
X47217D02*X46999Y-2340D01*
X46927Y-2195D01*
X48868Y-1397D02*Y-2921D01*
Y-1614D02*X49013Y-1469D01*
X49158Y-1397D01*
X49376D01*
X49521Y-1469D01*
X49666Y-1614D01*
X49739Y-1832D01*
Y-1977D01*
X49666Y-2195D01*
X49521Y-2340D01*
X49376Y-2413D01*
X49158D02*X49376D01*
X49158D02*X49013Y-2340D01*
X48868Y-2195D01*
X51067Y-1397D02*Y-2413D01*
Y-1614D02*X50921Y-1469D01*
X50777Y-1397D01*
X50559D02*X50777D01*
X50559D02*X50414Y-1469D01*
X50269Y-1614D01*
X50196Y-1832D01*
Y-1977D01*
X50269Y-2195D01*
X50414Y-2340D01*
X50559Y-2413D01*
X50777D01*
X50921Y-2340D01*
X51067Y-2195D01*
X51742Y-889D02*Y-2123D01*
X51814Y-2340D01*
X51960Y-2413D01*
X52105D01*
X51524Y-1397D02*X52032D01*
X52562Y-889D02*Y-2413D01*
Y-1687D02*X52779Y-1469D01*
X52925Y-1397D01*
X53142D01*
X53287Y-1469D01*
X53360Y-1687D01*
Y-2413D01*
X50800Y116459D02*Y114935D01*
Y116459D02*X51308D01*
X51526Y116386D01*
X51671Y116241D01*
X51743Y116096D01*
X51816Y115878D01*
Y115515D01*
X51743Y115298D01*
X51671Y115152D01*
X51526Y115008D01*
X51308Y114935D01*
X50800D02*X51308D01*
X53144Y115951D02*Y114935D01*
Y115734D02*X52998Y115879D01*
X52854Y115951D01*
X52636D02*X52854D01*
X52636D02*X52491Y115879D01*
X52345Y115734D01*
X52273Y115516D01*
Y115371D01*
X52345Y115153D01*
X52491Y115008D01*
X52636Y114935D01*
X52854D01*
X52998Y115008D01*
X53144Y115153D01*
X53819Y116459D02*Y115225D01*
X53891Y115008D01*
X54037Y114935D01*
X54182D01*
X53601Y115951D02*X54109D01*
X54639Y115516D02*X55509D01*
Y115661D02*Y115516D01*
Y115661D02*X55437Y115806D01*
X55364Y115879D01*
X55219Y115951D01*
X55002D02*X55219D01*
X55002D02*X54856Y115879D01*
X54711Y115734D01*
X54639Y115516D01*
Y115371D01*
X54711Y115153D01*
X54856Y115008D01*
X55002Y114935D01*
X55219D01*
X55364Y115008D01*
X55509Y115153D01*
X56039Y115545D02*X55966Y115472D01*
X56039Y115399D01*
X56111Y115472D01*
X56039Y115545D01*
Y115036D02*X55966Y114964D01*
X56039Y114892D01*
X56111Y114964D01*
X56039Y115036D01*
X57254Y116459D02*X57617Y114935D01*
X57980Y116459D02*X57617Y114935D01*
X57980Y116459D02*X58343Y114935D01*
X58705Y116459D02*X58343Y114935D01*
X59163Y115516D02*X60033D01*
Y115661D02*Y115516D01*
Y115661D02*X59960Y115806D01*
X59888Y115879D01*
X59743Y115951D01*
X59525D02*X59743D01*
X59525D02*X59380Y115879D01*
X59235Y115734D01*
X59163Y115516D01*
Y115371D01*
X59235Y115153D01*
X59380Y115008D01*
X59525Y114935D01*
X59743D01*
X59888Y115008D01*
X60033Y115153D01*
X61360Y116459D02*Y114935D01*
Y115734D02*X61215Y115879D01*
X61070Y115951D01*
X60853D02*X61070D01*
X60853D02*X60707Y115879D01*
X60562Y115734D01*
X60490Y115516D01*
Y115371D01*
X60562Y115153D01*
X60707Y115008D01*
X60853Y114935D01*
X61070D01*
X61215Y115008D01*
X61360Y115153D01*
X62503Y116459D02*Y114935D01*
Y116459D02*X63519Y114935D01*
Y116459D02*Y114935D01*
X64339Y115951D02*X64193Y115879D01*
X64048Y115734D01*
X63976Y115516D01*
Y115371D01*
X64048Y115153D01*
X64193Y115008D01*
X64339Y114935D01*
X64556D01*
X64701Y115008D01*
X64846Y115153D01*
X64919Y115371D01*
Y115516D02*Y115371D01*
Y115516D02*X64846Y115734D01*
X64701Y115879D01*
X64556Y115951D01*
X64339D02*X64556D01*
X65376D02*X65811Y114935D01*
X66246Y115951D02*X65811Y114935D01*
X67462Y116169D02*Y116096D01*
Y116169D02*X67535Y116314D01*
X67607Y116387D01*
X67752Y116459D01*
X68042D01*
X68188Y116387D01*
X68260Y116314D01*
X68332Y116169D01*
Y116024D01*
X68260Y115878D01*
X68115Y115661D01*
X67389Y114935D01*
X68405D01*
X69805Y115951D02*X69733Y115734D01*
X69588Y115588D01*
X69370Y115516D01*
X69298D02*X69370D01*
X69298D02*X69080Y115588D01*
X68934Y115734D01*
X68862Y115951D01*
Y116024D02*Y115951D01*
Y116024D02*X68934Y116242D01*
X69080Y116387D01*
X69298Y116459D01*
X69370D01*
X69588Y116387D01*
X69733Y116242D01*
X69805Y115951D01*
Y115588D01*
X69733Y115225D01*
X69588Y115008D01*
X69370Y114935D01*
X69225D02*X69370D01*
X69225D02*X69007Y115008D01*
X68934Y115153D01*
X70948Y116169D02*X71093Y116242D01*
X71311Y116459D01*
Y114935D01*
X71768Y116169D02*X71913Y116242D01*
X72131Y116459D01*
Y114935D01*
X72661Y115545D02*X72588Y115472D01*
X72661Y115399D01*
X72733Y115472D01*
X72661Y115545D01*
Y115036D02*X72588Y114964D01*
X72661Y114892D01*
X72733Y114964D01*
X72661Y115036D01*
X73335Y116459D02*X74061D01*
X73335D02*X73263Y115806D01*
X73335Y115878D01*
X73553Y115951D01*
X73771D01*
X73988Y115878D01*
X74134Y115734D01*
X74206Y115516D01*
Y115371D01*
X74134Y115153D01*
X73988Y115008D01*
X73771Y114935D01*
X73553D02*X73771D01*
X73553D02*X73335Y115008D01*
X73263Y115080D01*
X73190Y115225D01*
X75389Y116459D02*X74664Y115443D01*
X75752D01*
X75389Y116459D02*Y114935D01*
X76281Y115545D02*X76209Y115472D01*
X76281Y115399D01*
X76354Y115472D01*
X76281Y115545D01*
Y115036D02*X76209Y114964D01*
X76281Y114892D01*
X76354Y114964D01*
X76281Y115036D01*
X76883Y116169D02*Y116096D01*
Y116169D02*X76956Y116314D01*
X77028Y116387D01*
X77173Y116459D01*
X77463D01*
X77609Y116387D01*
X77681Y116314D01*
X77754Y116169D01*
Y116024D01*
X77681Y115878D01*
X77536Y115661D01*
X76811Y114935D01*
X77827D01*
X79300Y116459D02*X78574Y114935D01*
X78284Y116459D02*X79300D01*
X80515Y116169D02*Y116096D01*
Y116169D02*X80588Y116314D01*
X80660Y116387D01*
X80805Y116459D01*
X81095D01*
X81241Y116387D01*
X81313Y116314D01*
X81386Y116169D01*
Y116024D01*
X81313Y115878D01*
X81168Y115661D01*
X80443Y114935D01*
X81458D01*
X82351Y116459D02*X82134Y116387D01*
X81988Y116169D01*
X81916Y115806D01*
Y115588D01*
X81988Y115225D01*
X82134Y115008D01*
X82351Y114935D01*
X82496D01*
X82714Y115008D01*
X82859Y115225D01*
X82932Y115588D01*
Y115806D02*Y115588D01*
Y115806D02*X82859Y116169D01*
X82714Y116387D01*
X82496Y116459D01*
X82351D02*X82496D01*
X83389Y116169D02*X83534Y116242D01*
X83752Y116459D01*
Y114935D01*
X85225Y116459D02*X84499Y114935D01*
X84209Y116459D02*X85225D01*
X86368D02*Y115370D01*
X86440Y115152D01*
X86585Y115008D01*
X86803Y114935D01*
X86948D01*
X87166Y115008D01*
X87311Y115152D01*
X87383Y115370D01*
Y116459D02*Y115370D01*
X88348Y116459D02*Y114935D01*
X87841Y116459D02*X88856D01*
X90402Y116096D02*X90329Y116241D01*
X90184Y116386D01*
X90039Y116459D01*
X89749D02*X90039D01*
X89749D02*X89604Y116386D01*
X89458Y116241D01*
X89386Y116096D01*
X89314Y115878D01*
Y115515D01*
X89386Y115298D01*
X89458Y115152D01*
X89604Y115008D01*
X89749Y114935D01*
X90039D01*
X90184Y115008D01*
X90329Y115152D01*
X90402Y115298D01*
X51381Y120269D02*X50800Y118745D01*
X51381Y120269D02*X51961Y118745D01*
X51018Y119253D02*X51744D01*
X52419Y119761D02*Y119036D01*
X52491Y118818D01*
X52636Y118745D01*
X52854D01*
X52999Y118818D01*
X53217Y119036D01*
Y119761D02*Y118745D01*
X53892Y120269D02*Y119035D01*
X53964Y118818D01*
X54109Y118745D01*
X54255D01*
X53674Y119761D02*X54182D01*
X54712Y120269D02*Y118745D01*
Y119471D02*X54929Y119689D01*
X55074Y119761D01*
X55292D01*
X55437Y119689D01*
X55510Y119471D01*
Y118745D01*
X56330Y119761D02*X56184Y119689D01*
X56039Y119544D01*
X55967Y119326D01*
Y119181D01*
X56039Y118963D01*
X56184Y118818D01*
X56330Y118745D01*
X56547D01*
X56692Y118818D01*
X56837Y118963D01*
X56910Y119181D01*
Y119326D02*Y119181D01*
Y119326D02*X56837Y119544D01*
X56692Y119689D01*
X56547Y119761D01*
X56330D02*X56547D01*
X57367D02*Y118745D01*
Y119326D02*X57440Y119544D01*
X57585Y119689D01*
X57730Y119761D01*
X57948D01*
X58478Y119355D02*X58405Y119282D01*
X58478Y119209D01*
X58550Y119282D01*
X58478Y119355D01*
Y118846D02*X58405Y118774D01*
X58478Y118702D01*
X58550Y118774D01*
X58478Y118846D01*
X59693Y120269D02*Y118745D01*
Y120269D02*X60273Y118745D01*
X60854Y120269D02*X60273Y118745D01*
X60854Y120269D02*Y118745D01*
X62182Y119761D02*Y118745D01*
Y119544D02*X62037Y119689D01*
X61892Y119761D01*
X61674D02*X61892D01*
X61674D02*X61529Y119689D01*
X61384Y119544D01*
X61311Y119326D01*
Y119181D01*
X61384Y118963D01*
X61529Y118818D01*
X61674Y118745D01*
X61892D01*
X62037Y118818D01*
X62182Y118963D01*
X62857Y120269D02*Y119035D01*
X62929Y118818D01*
X63075Y118745D01*
X63220D01*
X62640Y119761D02*X63147D01*
X63895Y120269D02*Y119035D01*
X63967Y118818D01*
X64113Y118745D01*
X64258D01*
X63677Y119761D02*X64185D01*
X66127Y120269D02*Y119108D01*
X66054Y118890D01*
X65982Y118818D01*
X65836Y118745D01*
X65692D02*X65836D01*
X65692D02*X65546Y118818D01*
X65474Y118890D01*
X65401Y119108D01*
Y119253D02*Y119108D01*
X66584Y119326D02*X67454D01*
Y119471D02*Y119326D01*
Y119471D02*X67382Y119616D01*
X67309Y119689D01*
X67164Y119761D01*
X66947D02*X67164D01*
X66947D02*X66801Y119689D01*
X66656Y119544D01*
X66584Y119326D01*
Y119181D01*
X66656Y118963D01*
X66801Y118818D01*
X66947Y118745D01*
X67164D01*
X67309Y118818D01*
X67454Y118963D01*
X67911Y119761D02*Y118745D01*
Y119471D02*X68129Y119689D01*
X68274Y119761D01*
X68492D01*
X68637Y119689D01*
X68710Y119471D01*
Y118745D01*
X69167Y120269D02*Y118745D01*
X69892Y119761D02*X69167Y119035D01*
X69457Y119326D02*X69965Y118745D01*
X70495Y119765D02*Y118749D01*
X70422Y120273D02*X70495Y120200D01*
X70567Y120273D01*
X70495Y120345D01*
X70422Y120273D01*
X71025Y119761D02*Y118745D01*
Y119471D02*X71242Y119689D01*
X71387Y119761D01*
X71605D01*
X71750Y119689D01*
X71823Y119471D01*
Y118745D01*
X73078Y119544D02*X73005Y119689D01*
X72787Y119761D01*
X72570D02*X72787D01*
X72570D02*X72352Y119689D01*
X72280Y119544D01*
X72352Y119398D01*
X72497Y119326D01*
X72860Y119253D01*
X73005Y119181D01*
X73078Y119036D01*
Y118963D01*
X73005Y118818D01*
X72787Y118745D01*
X72570D02*X72787D01*
X72570D02*X72352Y118818D01*
X72280Y118963D01*
X51308Y124079D02*Y122555D01*
X50800Y124079D02*X51816D01*
X52345Y123575D02*Y122559D01*
X52273Y124083D02*X52345Y124010D01*
X52418Y124083D01*
X52345Y124155D01*
X52273Y124083D01*
X53093Y124079D02*Y122845D01*
X53165Y122628D01*
X53311Y122555D01*
X53456D01*
X52875Y123571D02*X53383D01*
X53913Y124079D02*Y122555D01*
X54370Y123136D02*X55241D01*
Y123281D02*Y123136D01*
Y123281D02*X55168Y123426D01*
X55096Y123499D01*
X54951Y123571D01*
X54733D02*X54951D01*
X54733D02*X54588Y123499D01*
X54442Y123354D01*
X54370Y123136D01*
Y122991D01*
X54442Y122773D01*
X54588Y122628D01*
X54733Y122555D01*
X54951D01*
X55096Y122628D01*
X55241Y122773D01*
X55770Y123165D02*X55698Y123092D01*
X55770Y123019D01*
X55843Y123092D01*
X55770Y123165D01*
Y122656D02*X55698Y122584D01*
X55770Y122512D01*
X55843Y122584D01*
X55770Y122656D01*
X57493Y124460D02*X57348Y124315D01*
X57203Y124097D01*
X57058Y123807D01*
X56986Y123444D01*
Y123154D01*
X57058Y122791D01*
X57203Y122501D01*
X57348Y122283D01*
X57493Y122138D01*
X57951Y123571D02*Y122846D01*
X58023Y122628D01*
X58169Y122555D01*
X58386D01*
X58531Y122628D01*
X58749Y122846D01*
Y123571D02*Y122555D01*
X59206Y123571D02*Y122555D01*
Y123281D02*X59424Y123499D01*
X59569Y123571D01*
X59787D01*
X59931Y123499D01*
X60004Y123281D01*
Y122555D01*
X60461Y124079D02*Y122555D01*
X61187Y123571D02*X60461Y122845D01*
X60751Y123136D02*X61260Y122555D01*
X61717Y123571D02*Y122555D01*
Y123281D02*X61935Y123499D01*
X62079Y123571D01*
X62297D01*
X62442Y123499D01*
X62515Y123281D01*
Y122555D01*
X63335Y123571D02*X63189Y123499D01*
X63044Y123354D01*
X62972Y123136D01*
Y122991D01*
X63044Y122773D01*
X63189Y122628D01*
X63335Y122555D01*
X63552D01*
X63697Y122628D01*
X63842Y122773D01*
X63915Y122991D01*
Y123136D02*Y122991D01*
Y123136D02*X63842Y123354D01*
X63697Y123499D01*
X63552Y123571D01*
X63335D02*X63552D01*
X64372D02*X64662Y122555D01*
X64953Y123571D02*X64662Y122555D01*
X64953Y123571D02*X65243Y122555D01*
X65533Y123571D02*X65243Y122555D01*
X65990Y123571D02*Y122555D01*
Y123281D02*X66208Y123499D01*
X66353Y123571D01*
X66571D01*
X66716Y123499D01*
X66789Y123281D01*
Y122555D01*
X67246Y124460D02*X67390Y124315D01*
X67536Y124097D01*
X67681Y123807D01*
X67753Y123444D01*
Y123154D01*
X67681Y122791D01*
X67536Y122501D01*
X67390Y122283D01*
X67246Y122138D01*
X68896Y123317D02*X69849D01*
X70992Y124079D02*Y122555D01*
Y124079D02*X71935D01*
X70992Y123353D02*X71572D01*
X73263Y123571D02*Y122555D01*
Y123354D02*X73117Y123499D01*
X72973Y123571D01*
X72755D02*X72973D01*
X72755D02*X72610Y123499D01*
X72464Y123354D01*
X72392Y123136D01*
Y122991D01*
X72464Y122773D01*
X72610Y122628D01*
X72755Y122555D01*
X72973D01*
X73117Y122628D01*
X73263Y122773D01*
X73720Y124079D02*Y122555D01*
Y123354D02*X73865Y123499D01*
X74010Y123571D01*
X74228D01*
X74373Y123499D01*
X74518Y123354D01*
X74591Y123136D01*
Y122991D01*
X74518Y122773D01*
X74373Y122628D01*
X74228Y122555D01*
X74010D02*X74228D01*
X74010D02*X73865Y122628D01*
X73720Y122773D01*
X75048Y123571D02*Y122555D01*
Y123136D02*X75121Y123354D01*
X75266Y123499D01*
X75411Y123571D01*
X75629D01*
X76158Y123575D02*Y122559D01*
X76086Y124083D02*X76158Y124010D01*
X76231Y124083D01*
X76158Y124155D01*
X76086Y124083D01*
X77559Y123354D02*X77414Y123499D01*
X77269Y123571D01*
X77051D02*X77269D01*
X77051D02*X76906Y123499D01*
X76761Y123354D01*
X76688Y123136D01*
Y122991D01*
X76761Y122773D01*
X76906Y122628D01*
X77051Y122555D01*
X77269D01*
X77414Y122628D01*
X77559Y122773D01*
X78887Y123571D02*Y122555D01*
Y123354D02*X78742Y123499D01*
X78597Y123571D01*
X78379D02*X78597D01*
X78379D02*X78234Y123499D01*
X78089Y123354D01*
X78016Y123136D01*
Y122991D01*
X78089Y122773D01*
X78234Y122628D01*
X78379Y122555D01*
X78597D01*
X78742Y122628D01*
X78887Y122773D01*
X79563Y124079D02*Y122845D01*
X79635Y122628D01*
X79780Y122555D01*
X79925D01*
X79345Y123571D02*X79852D01*
X80455Y123575D02*Y122559D01*
X80382Y124083D02*X80455Y124010D01*
X80528Y124083D01*
X80455Y124155D01*
X80382Y124083D01*
X81348Y123571D02*X81202Y123499D01*
X81057Y123354D01*
X80985Y123136D01*
Y122991D01*
X81057Y122773D01*
X81202Y122628D01*
X81348Y122555D01*
X81565D01*
X81710Y122628D01*
X81855Y122773D01*
X81928Y122991D01*
Y123136D02*Y122991D01*
Y123136D02*X81855Y123354D01*
X81710Y123499D01*
X81565Y123571D01*
X81348D02*X81565D01*
X82385D02*Y122555D01*
Y123281D02*X82603Y123499D01*
X82748Y123571D01*
X82966D01*
X83110Y123499D01*
X83183Y123281D01*
Y122555D01*
X84326Y124079D02*Y122555D01*
Y124079D02*X84834D01*
X85052Y124006D01*
X85197Y123861D01*
X85270Y123716D01*
X85342Y123498D01*
Y123135D01*
X85270Y122918D01*
X85197Y122772D01*
X85052Y122628D01*
X84834Y122555D01*
X84326D02*X84834D01*
X85799Y123571D02*Y122555D01*
Y123136D02*X85872Y123354D01*
X86017Y123499D01*
X86162Y123571D01*
X86380D01*
X87708D02*Y122555D01*
Y123354D02*X87562Y123499D01*
X87418Y123571D01*
X87200D02*X87418D01*
X87200D02*X87055Y123499D01*
X86910Y123354D01*
X86837Y123136D01*
Y122991D01*
X86910Y122773D01*
X87055Y122628D01*
X87200Y122555D01*
X87418D01*
X87562Y122628D01*
X87708Y122773D01*
X88165Y123571D02*X88455Y122555D01*
X88745Y123571D02*X88455Y122555D01*
X88745Y123571D02*X89036Y122555D01*
X89326Y123571D02*X89036Y122555D01*
X89856Y123575D02*Y122559D01*
X89783Y124083D02*X89856Y124010D01*
X89928Y124083D01*
X89856Y124155D01*
X89783Y124083D01*
X90386Y123571D02*Y122555D01*
Y123281D02*X90604Y123499D01*
X90748Y123571D01*
X90966D01*
X91111Y123499D01*
X91184Y123281D01*
Y122555D01*
X92512Y123571D02*Y122411D01*
X92439Y122193D01*
X92366Y122120D01*
X92222Y122048D01*
X92004D02*X92222D01*
X92004D02*X91859Y122120D01*
X92512Y123354D02*X92366Y123499D01*
X92222Y123571D01*
X92004D02*X92222D01*
X92004D02*X91859Y123499D01*
X91713Y123354D01*
X91641Y123136D01*
Y122991D01*
X91713Y122773D01*
X91859Y122628D01*
X92004Y122555D01*
X92222D01*
X92366Y122628D01*
X92512Y122773D01*
M02*
