G04 start of page 7 for group -4063 idx -4063 *
G04 Title: (unknown), componentmask *
G04 Creator: pcb 1.99z *
G04 CreationDate: Tue Jan  9 22:59:25 2018 UTC *
G04 For: matt *
G04 Format: Gerber/RS-274X *
G04 PCB-Dimensions (mm): 60.96 109.22 *
G04 PCB-Coordinate-Origin: lower left *
%MOMM*%
%FSLAX43Y43*%
%LNTOPMASK*%
%ADD62C,0.850*%
%ADD61C,0.650*%
%ADD60C,2.352*%
%ADD59C,1.580*%
%ADD58C,1.552*%
%ADD57C,2.393*%
%ADD56C,2.647*%
%ADD55C,1.752*%
%ADD54C,0.002*%
%ADD53C,2.552*%
%ADD52C,3.054*%
G54D52*X17780Y87630D03*
G54D53*X30480Y79340D03*
G54D54*G36*
X18047Y40246D02*Y38494D01*
X19799D01*
Y40246D01*
X18047D01*
G37*
G54D55*X19177Y36830D03*
X18923Y34290D03*
X19177Y31750D03*
X18923Y29210D03*
X41910Y49530D03*
Y52070D03*
Y54610D03*
Y57150D03*
Y59690D03*
Y62230D03*
G54D56*X43180Y87630D03*
G54D57*Y21590D03*
G54D58*X44550Y80520D03*
Y78520D03*
Y76520D03*
Y74520D03*
G54D55*X41910Y44450D03*
Y46990D03*
G54D59*X17780Y21590D03*
G54D55*X19177Y26670D03*
G54D53*X30480Y27340D03*
G54D60*X32980Y22860D03*
X30480D03*
X27980D03*
Y19660D03*
X30480D03*
X32980D03*
G54D55*X19050Y49530D03*
Y46990D03*
Y44450D03*
Y62230D03*
Y59690D03*
Y57150D03*
Y54610D03*
Y52070D03*
G54D54*G36*
X35400Y79985D02*X34550D01*
Y79055D01*
X35400D01*
Y79985D01*
G37*
G36*
X33852Y79988D02*X32998D01*
Y79052D01*
X33852D01*
Y79988D01*
G37*
G36*
X35790Y78560D02*X34410D01*
Y76980D01*
X35790D01*
Y78560D01*
G37*
G36*
X33990D02*X32610D01*
Y76980D01*
X33990D01*
Y78560D01*
G37*
G36*
X17225Y70745D02*Y69495D01*
X18475D01*
Y70745D01*
X17225D01*
G37*
G36*
X17475Y75395D02*X16325D01*
Y72145D01*
X17475D01*
Y75395D01*
G37*
G36*
X19325Y70745D02*Y69495D01*
X20575D01*
Y70745D01*
X19325D01*
G37*
G36*
X21475Y75395D02*X20325D01*
Y72145D01*
X21475D01*
Y75395D01*
G37*
G36*
X38550Y76095D02*X38000D01*
Y74545D01*
X38550D01*
Y76095D01*
G37*
G36*
X40500Y81995D02*X39950D01*
Y80445D01*
X40500D01*
Y81995D01*
G37*
G36*
X39850D02*X39300D01*
Y80445D01*
X39850D01*
Y81995D01*
G37*
G36*
X39200D02*X38650D01*
Y80445D01*
X39200D01*
Y81995D01*
G37*
G36*
X38550D02*X38000D01*
Y80445D01*
X38550D01*
Y81995D01*
G37*
G36*
X17475Y84295D02*X16325D01*
Y81045D01*
X17475D01*
Y84295D01*
G37*
G36*
X21475D02*X20325D01*
Y81045D01*
X21475D01*
Y84295D01*
G37*
G36*
X23235Y84120D02*Y83270D01*
X24165D01*
Y84120D01*
X23235D01*
G37*
G36*
X27880Y84380D02*X27080D01*
Y82780D01*
X27880D01*
Y84380D01*
G37*
G36*
X23232Y85672D02*Y84818D01*
X24168D01*
Y85672D01*
X23232D01*
G37*
G36*
X25430Y85630D02*Y84830D01*
X27030D01*
Y85630D01*
X25430D01*
G37*
G36*
Y86830D02*Y86030D01*
X27030D01*
Y86830D01*
X25430D01*
G37*
G36*
Y88030D02*Y87230D01*
X27030D01*
Y88030D01*
X25430D01*
G37*
G36*
Y89230D02*Y88430D01*
X27030D01*
Y89230D01*
X25430D01*
G37*
G36*
Y90430D02*Y89630D01*
X27030D01*
Y90430D01*
X25430D01*
G37*
G36*
X29080Y84380D02*X28280D01*
Y82780D01*
X29080D01*
Y84380D01*
G37*
G36*
X30280D02*X29480D01*
Y82780D01*
X30280D01*
Y84380D01*
G37*
G36*
X31480D02*X30680D01*
Y82780D01*
X31480D01*
Y84380D01*
G37*
G36*
X32680D02*X31880D01*
Y82780D01*
X32680D01*
Y84380D01*
G37*
G36*
X33880D02*X33080D01*
Y82780D01*
X33880D01*
Y84380D01*
G37*
G36*
X33930Y85630D02*Y84830D01*
X35530D01*
Y85630D01*
X33930D01*
G37*
G36*
Y86830D02*Y86030D01*
X35530D01*
Y86830D01*
X33930D01*
G37*
G36*
Y88030D02*Y87230D01*
X35530D01*
Y88030D01*
X33930D01*
G37*
G36*
Y89230D02*Y88430D01*
X35530D01*
Y89230D01*
X33930D01*
G37*
G36*
Y90430D02*Y89630D01*
X35530D01*
Y90430D01*
X33930D01*
G37*
G36*
X37935Y85445D02*Y84595D01*
X38865D01*
Y85445D01*
X37935D01*
G37*
G36*
X37932Y83898D02*Y83042D01*
X38868D01*
Y83898D01*
X37932D01*
G37*
G36*
X21935Y67245D02*Y66395D01*
X22865D01*
Y67245D01*
X21935D01*
G37*
G36*
X26553Y68205D02*X25903D01*
Y66605D01*
X26553D01*
Y68205D01*
G37*
G36*
X28453D02*X27803D01*
Y66605D01*
X28453D01*
Y68205D01*
G37*
G36*
X32395D02*X31745D01*
Y66605D01*
X32395D01*
Y68205D01*
G37*
G36*
X29507Y68230D02*Y67380D01*
X30437D01*
Y68230D01*
X29507D01*
G37*
G36*
X29504Y69782D02*Y68928D01*
X30440D01*
Y69782D01*
X29504D01*
G37*
G36*
X29487Y74170D02*Y73320D01*
X30417D01*
Y74170D01*
X29487D01*
G37*
G36*
X29484Y75722D02*Y74868D01*
X30420D01*
Y75722D01*
X29484D01*
G37*
G36*
X33345Y70555D02*X32695D01*
Y68955D01*
X33345D01*
Y70555D01*
G37*
G36*
X27503D02*X26853D01*
Y68955D01*
X27503D01*
Y70555D01*
G37*
G36*
X28433Y74145D02*X27783D01*
Y72545D01*
X28433D01*
Y74145D01*
G37*
G36*
X34295Y68205D02*X33645D01*
Y66605D01*
X34295D01*
Y68205D01*
G37*
G36*
X38535Y66270D02*Y65420D01*
X39465D01*
Y66270D01*
X38535D01*
G37*
G36*
X38532Y67822D02*Y66968D01*
X39468D01*
Y67822D01*
X38532D01*
G37*
G36*
X26533Y74145D02*X25883D01*
Y72545D01*
X26533D01*
Y74145D01*
G37*
G36*
X27483Y76495D02*X26833D01*
Y74895D01*
X27483D01*
Y76495D01*
G37*
G36*
X17225Y68545D02*Y67295D01*
X18475D01*
Y68545D01*
X17225D01*
G37*
G36*
X19325D02*Y67295D01*
X20575D01*
Y68545D01*
X19325D01*
G37*
G36*
X17225Y66345D02*Y65095D01*
X18475D01*
Y66345D01*
X17225D01*
G37*
G36*
X19325D02*Y65095D01*
X20575D01*
Y66345D01*
X19325D01*
G37*
G36*
X34180Y26040D02*Y24890D01*
X39480D01*
Y26040D01*
X34180D01*
G37*
G36*
X38590Y27165D02*Y26705D01*
X39480D01*
Y27165D01*
X38590D01*
G37*
G36*
X36050Y26490D02*X35510D01*
Y25890D01*
X36050D01*
Y26490D01*
G37*
G36*
X38150D02*X37610D01*
Y25890D01*
X38150D01*
Y26490D01*
G37*
G54D61*X37980Y26510D02*X38565Y26880D01*
X37980Y29370D02*X38565Y29000D01*
X39260Y28810D01*
G54D54*G36*
X38590Y29175D02*Y28715D01*
X39480D01*
Y29175D01*
X38590D01*
G37*
G54D61*X38565Y26880D02*X39260Y27070D01*
X37545Y25965D02*X37980Y26510D01*
G54D54*G36*
X38000Y26855D02*Y25890D01*
X39480D01*
Y26855D01*
X38000D01*
G37*
G36*
X34180Y29175D02*Y28715D01*
X35070D01*
Y29175D01*
X34180D01*
G37*
G36*
X41120Y29530D02*Y28150D01*
X42700D01*
Y29530D01*
X41120D01*
G37*
G36*
Y27730D02*Y26350D01*
X42700D01*
Y27730D01*
X41120D01*
G37*
G54D61*X37545Y29915D02*X37980Y29370D01*
G54D54*G36*
X34180Y30990D02*Y29840D01*
X39480D01*
Y30990D01*
X34180D01*
G37*
G36*
X38000Y29990D02*Y29025D01*
X39480D01*
Y29990D01*
X38000D01*
G37*
G36*
X38150D02*X37610D01*
Y29390D01*
X38150D01*
Y29990D01*
G37*
G36*
X36050D02*X35510D01*
Y29390D01*
X36050D01*
Y29990D01*
G37*
G54D61*X35680Y29370D02*X36115Y29915D01*
X35095Y29000D02*X35680Y29370D01*
X34400Y28810D02*X35095Y29000D01*
G54D54*G36*
X34180Y29990D02*Y29025D01*
X35660D01*
Y29990D01*
X34180D01*
G37*
G54D61*X35680Y26510D02*X36115Y25965D01*
X35095Y26880D02*X35680Y26510D01*
X34400Y27070D02*X35095Y26880D01*
G54D54*G36*
X34180Y26855D02*Y25890D01*
X35660D01*
Y26855D01*
X34180D01*
G37*
G36*
Y27165D02*Y26705D01*
X35070D01*
Y27165D01*
X34180D01*
G37*
G54D62*X37310Y35418D02*X37550Y35178D01*
X36110D02*X36350Y35418D01*
G54D54*G36*
X35755Y37473D02*X34905D01*
Y35823D01*
X35755D01*
Y37473D01*
G37*
G36*
Y35273D02*Y34323D01*
X37905D01*
Y35273D01*
X35755D01*
G37*
G36*
X37405Y37473D02*X36255D01*
Y34873D01*
X37405D01*
Y37473D01*
G37*
G36*
X42285Y32435D02*X41535D01*
Y31185D01*
X42285D01*
Y32435D01*
G37*
G54D62*X37310Y34178D02*X37550Y34418D01*
G54D54*G36*
X38755Y33773D02*X37905D01*
Y32123D01*
X38755D01*
Y33773D01*
G37*
G36*
X37405Y34773D02*X36255D01*
Y32123D01*
X37405D01*
Y34773D01*
G37*
G36*
X42285Y36135D02*X41535D01*
Y34885D01*
X42285D01*
Y36135D01*
G37*
G54D62*X36110Y34418D02*X36350Y34178D01*
G54D54*G36*
X35755Y33773D02*X34905D01*
Y32123D01*
X35755D01*
Y33773D01*
G37*
G36*
X38755Y37473D02*X37905D01*
Y35823D01*
X38755D01*
Y37473D01*
G37*
G36*
X24285Y47970D02*Y47120D01*
X25215D01*
Y47970D01*
X24285D01*
G37*
G36*
X36030Y40874D02*X34730D01*
Y38374D01*
X36030D01*
Y40874D01*
G37*
G36*
X30235Y45720D02*Y44870D01*
X31165D01*
Y45720D01*
X30235D01*
G37*
G36*
X30232Y47272D02*Y46418D01*
X31168D01*
Y47272D01*
X30232D01*
G37*
G36*
X28735Y45720D02*Y44870D01*
X29665D01*
Y45720D01*
X28735D01*
G37*
G36*
X28732Y47272D02*Y46418D01*
X29668D01*
Y47272D01*
X28732D01*
G37*
G36*
X21410Y45860D02*Y44480D01*
X22990D01*
Y45860D01*
X21410D01*
G37*
G36*
Y47660D02*Y46280D01*
X22990D01*
Y47660D01*
X21410D01*
G37*
G36*
X24282Y46422D02*Y45568D01*
X25218D01*
Y46422D01*
X24282D01*
G37*
G36*
X21538Y37774D02*Y36920D01*
X22474D01*
Y37774D01*
X21538D01*
G37*
G36*
X26785Y47970D02*Y47120D01*
X27715D01*
Y47970D01*
X26785D01*
G37*
G36*
X21541Y39322D02*Y38472D01*
X22471D01*
Y39322D01*
X21541D01*
G37*
G36*
X26782Y46422D02*Y45568D01*
X27718D01*
Y46422D01*
X26782D01*
G37*
G36*
X25256Y44496D02*X24204D01*
Y41944D01*
X25256D01*
Y44496D01*
G37*
G36*
X27796D02*X26744D01*
Y41944D01*
X27796D01*
Y44496D01*
G37*
G36*
X27276Y40246D02*X24724D01*
Y34194D01*
X27276D01*
Y40246D01*
G37*
G36*
X38930Y40874D02*X37630D01*
Y38374D01*
X38930D01*
Y40874D01*
G37*
G36*
X37110Y52210D02*Y50830D01*
X38690D01*
Y52210D01*
X37110D01*
G37*
G36*
Y50410D02*Y49030D01*
X38690D01*
Y50410D01*
X37110D01*
G37*
G36*
X37435Y55745D02*Y54895D01*
X38365D01*
Y55745D01*
X37435D01*
G37*
G36*
X37432Y54198D02*Y53342D01*
X38368D01*
Y54198D01*
X37432D01*
G37*
G36*
X22671Y54657D02*X21721D01*
Y53607D01*
X22671D01*
Y54657D01*
G37*
G36*
Y52757D02*X21721D01*
Y51707D01*
X22671D01*
Y52757D01*
G37*
G36*
X22902Y56688D02*X22048D01*
Y55752D01*
X22902D01*
Y56688D01*
G37*
G36*
X24771Y54657D02*X23821D01*
Y53607D01*
X24771D01*
Y54657D01*
G37*
G36*
Y52757D02*X23821D01*
Y51707D01*
X24771D01*
Y52757D01*
G37*
G36*
X24450Y56685D02*X23600D01*
Y55755D01*
X24450D01*
Y56685D01*
G37*
G36*
X27999Y55771D02*Y55369D01*
X28401D01*
Y55771D01*
X27999D01*
G37*
G36*
Y55271D02*Y54869D01*
X28401D01*
Y55271D01*
X27999D01*
G37*
G36*
Y54771D02*Y54369D01*
X28401D01*
Y54771D01*
X27999D01*
G37*
G36*
Y54271D02*Y53869D01*
X28401D01*
Y54271D01*
X27999D01*
G37*
G36*
Y53771D02*Y53369D01*
X28401D01*
Y53771D01*
X27999D01*
G37*
G36*
X28499Y55771D02*Y55369D01*
X28901D01*
Y55771D01*
X28499D01*
G37*
G36*
X29586Y55271D02*X28499D01*
Y51369D01*
X29586D01*
Y55271D01*
G37*
G36*
X30526D02*X29434D01*
Y51369D01*
X30526D01*
Y55271D01*
G37*
G36*
X31466D02*X30374D01*
Y51369D01*
X31466D01*
Y55271D01*
G37*
G36*
X27999Y53271D02*Y52869D01*
X28401D01*
Y53271D01*
X27999D01*
G37*
G36*
Y52771D02*Y52369D01*
X28401D01*
Y52771D01*
X27999D01*
G37*
G36*
Y52271D02*Y51869D01*
X28401D01*
Y52271D01*
X27999D01*
G37*
G36*
Y51771D02*Y51369D01*
X28401D01*
Y51771D01*
X27999D01*
G37*
G36*
Y51271D02*Y50869D01*
X28401D01*
Y51271D01*
X27999D01*
G37*
G36*
X28499D02*Y50869D01*
X28901D01*
Y51271D01*
X28499D01*
G37*
G36*
X28999D02*Y50869D01*
X29401D01*
Y51271D01*
X28999D01*
G37*
G36*
X29499D02*Y50869D01*
X29901D01*
Y51271D01*
X29499D01*
G37*
G36*
X29999D02*Y50869D01*
X30401D01*
Y51271D01*
X29999D01*
G37*
G36*
X30499D02*Y50869D01*
X30901D01*
Y51271D01*
X30499D01*
G37*
G36*
X30999D02*Y50869D01*
X31401D01*
Y51271D01*
X30999D01*
G37*
G36*
X31499D02*Y50869D01*
X31901D01*
Y51271D01*
X31499D01*
G37*
G36*
X31999D02*Y50869D01*
X32401D01*
Y51271D01*
X31999D01*
G37*
G36*
X32499D02*Y50869D01*
X32901D01*
Y51271D01*
X32499D01*
G37*
G36*
Y51771D02*Y51369D01*
X32901D01*
Y51771D01*
X32499D01*
G37*
G36*
Y52271D02*Y51869D01*
X32901D01*
Y52271D01*
X32499D01*
G37*
G36*
Y52771D02*Y52369D01*
X32901D01*
Y52771D01*
X32499D01*
G37*
G36*
Y53271D02*Y52869D01*
X32901D01*
Y53271D01*
X32499D01*
G37*
G36*
X32401Y55271D02*X31314D01*
Y51369D01*
X32401D01*
Y55271D01*
G37*
G36*
X32499Y53771D02*Y53369D01*
X32901D01*
Y53771D01*
X32499D01*
G37*
G36*
Y54271D02*Y53869D01*
X32901D01*
Y54271D01*
X32499D01*
G37*
G36*
Y54771D02*Y54369D01*
X32901D01*
Y54771D01*
X32499D01*
G37*
G36*
Y55271D02*Y54869D01*
X32901D01*
Y55271D01*
X32499D01*
G37*
G36*
Y55771D02*Y55369D01*
X32901D01*
Y55771D01*
X32499D01*
G37*
G36*
X31999D02*Y55369D01*
X32401D01*
Y55771D01*
X31999D01*
G37*
G36*
X31499D02*Y55369D01*
X31901D01*
Y55771D01*
X31499D01*
G37*
G36*
X30999D02*Y55369D01*
X31401D01*
Y55771D01*
X30999D01*
G37*
G36*
X30499D02*Y55369D01*
X30901D01*
Y55771D01*
X30499D01*
G37*
G36*
X29999D02*Y55369D01*
X30401D01*
Y55771D01*
X29999D01*
G37*
G36*
X29499D02*Y55369D01*
X29901D01*
Y55771D01*
X29499D01*
G37*
G36*
X28999D02*Y55369D01*
X29401D01*
Y55771D01*
X28999D01*
G37*
G36*
X21932Y65698D02*Y64842D01*
X22868D01*
Y65698D01*
X21932D01*
G37*
G36*
X22900Y58185D02*X22050D01*
Y57255D01*
X22900D01*
Y58185D01*
G37*
G36*
X24452Y58188D02*X23598D01*
Y57252D01*
X24452D01*
Y58188D01*
G37*
G36*
X28378Y64473D02*X27528D01*
Y63543D01*
X28378D01*
Y64473D01*
G37*
G36*
Y65997D02*X27528D01*
Y65067D01*
X28378D01*
Y65997D01*
G37*
G36*
X26830Y64476D02*X25976D01*
Y63540D01*
X26830D01*
Y64476D01*
G37*
G36*
Y66000D02*X25976D01*
Y65064D01*
X26830D01*
Y66000D01*
G37*
G36*
X34220Y65997D02*X33370D01*
Y65067D01*
X34220D01*
Y65997D01*
G37*
G36*
X32672Y66000D02*X31818D01*
Y65064D01*
X32672D01*
Y66000D01*
G37*
G36*
X34220Y64473D02*X33370D01*
Y63543D01*
X34220D01*
Y64473D01*
G37*
G36*
X32672Y64476D02*X31818D01*
Y63540D01*
X32672D01*
Y64476D01*
G37*
G36*
X30735Y62595D02*Y61745D01*
X31665D01*
Y62595D01*
X30735D01*
G37*
G36*
X30732Y61048D02*Y60192D01*
X31668D01*
Y61048D01*
X30732D01*
G37*
G36*
X38535Y63320D02*Y62470D01*
X39465D01*
Y63320D01*
X38535D01*
G37*
G36*
X38532Y61772D02*Y60918D01*
X39468D01*
Y61772D01*
X38532D01*
G37*
G36*
X37035Y63320D02*Y62470D01*
X37965D01*
Y63320D01*
X37035D01*
G37*
G36*
X37032Y61772D02*Y60918D01*
X37968D01*
Y61772D01*
X37032D01*
G37*
G36*
X44775Y69095D02*X44125D01*
Y67495D01*
X44775D01*
Y69095D01*
G37*
G36*
Y66745D02*X44125D01*
Y65145D01*
X44775D01*
Y66745D01*
G37*
G36*
X43825Y69095D02*X43175D01*
Y67495D01*
X43825D01*
Y69095D01*
G37*
G36*
X42875Y66745D02*X42225D01*
Y65145D01*
X42875D01*
Y66745D01*
G37*
G36*
X43825D02*X43175D01*
Y65145D01*
X43825D01*
Y66745D01*
G37*
G36*
X42875Y69095D02*X42225D01*
Y67495D01*
X42875D01*
Y69095D01*
G37*
G36*
X40035Y66270D02*Y65420D01*
X40965D01*
Y66270D01*
X40035D01*
G37*
G36*
X40032Y67822D02*Y66968D01*
X40968D01*
Y67822D01*
X40032D01*
G37*
G36*
X43500Y71285D02*X42650D01*
Y70355D01*
X43500D01*
Y71285D01*
G37*
G36*
X41952Y71288D02*X41098D01*
Y70352D01*
X41952D01*
Y71288D01*
G37*
G36*
X37807Y70780D02*Y69480D01*
X40307D01*
Y70780D01*
X37807D01*
G37*
G36*
Y73680D02*Y72380D01*
X40307D01*
Y73680D01*
X37807D01*
G37*
G36*
X39200Y76095D02*X38650D01*
Y74545D01*
X39200D01*
Y76095D01*
G37*
G36*
X39850D02*X39300D01*
Y74545D01*
X39850D01*
Y76095D01*
G37*
G36*
X40500D02*X39950D01*
Y74545D01*
X40500D01*
Y76095D01*
G37*
G36*
X35349Y68230D02*Y67380D01*
X36279D01*
Y68230D01*
X35349D01*
G37*
G36*
X35346Y69782D02*Y68928D01*
X36282D01*
Y69782D01*
X35346D01*
G37*
G36*
X35329Y74170D02*Y73320D01*
X36259D01*
Y74170D01*
X35329D01*
G37*
G36*
X35326Y75722D02*Y74868D01*
X36262D01*
Y75722D01*
X35326D01*
G37*
G36*
X32375Y74145D02*X31725D01*
Y72545D01*
X32375D01*
Y74145D01*
G37*
G36*
X33325Y76495D02*X32675D01*
Y74895D01*
X33325D01*
Y76495D01*
G37*
G36*
X34275Y74145D02*X33625D01*
Y72545D01*
X34275D01*
Y74145D01*
G37*
M02*
