G04 start of page 9 for group -4079 idx -4079 *
G04 Title: (unknown), topsilk *
G04 Creator: pcb 1.99z *
G04 CreationDate: Wed Nov 29 11:54:27 2017 UTC *
G04 For: matt *
G04 Format: Gerber/RS-274X *
G04 PCB-Dimensions (mm): 60.96 109.22 *
G04 PCB-Coordinate-Origin: lower left *
%MOMM*%
%FSLAX43Y43*%
%LNTOPSILK*%
%ADD68C,0.254*%
%ADD67C,0.150*%
%ADD66C,0.140*%
%ADD65C,0.150*%
G54D65*X16750Y39920D02*Y38820D01*
Y38970D02*X17200Y39420D01*
X16750Y39170D02*X17100Y39520D01*
X16750Y39370D02*X17000Y39620D01*
X16750Y39520D02*X16950Y39720D01*
X16750Y39670D02*X16850Y39770D01*
X17300Y39370D02*X16750Y39920D01*
Y38820D02*X17300Y39370D01*
G54D66*X44052Y44643D02*X44015Y44717D01*
X43941Y44790D01*
X43868Y44827D01*
X43721D02*X43868D01*
X43721D02*X43647Y44790D01*
X43574Y44717D01*
X43537Y44643D01*
X43500Y44533D01*
Y44349D01*
X43537Y44239D01*
X43574Y44165D01*
X43647Y44092D01*
X43721Y44055D01*
X43868D01*
X43941Y44092D01*
X44015Y44165D01*
X44052Y44239D01*
Y44349D02*Y44239D01*
X43868Y44349D02*X44052D01*
X44283Y44827D02*Y44055D01*
Y44827D02*X44798Y44055D01*
Y44827D02*Y44055D01*
X45030Y44827D02*Y44055D01*
Y44827D02*X45287D01*
X45397Y44790D01*
X45471Y44717D01*
X45507Y44643D01*
X45544Y44533D01*
Y44349D01*
X45507Y44239D01*
X45471Y44165D01*
X45397Y44092D01*
X45287Y44055D01*
X45030D02*X45287D01*
X43500Y47427D02*Y46655D01*
Y47427D02*X44015Y46655D01*
Y47427D02*Y46655D01*
X44798Y47243D02*X44761Y47317D01*
X44687Y47390D01*
X44614Y47427D01*
X44467D02*X44614D01*
X44467D02*X44393Y47390D01*
X44320Y47317D01*
X44283Y47243D01*
X44246Y47133D01*
Y46949D01*
X44283Y46839D01*
X44320Y46765D01*
X44393Y46692D01*
X44467Y46655D01*
X44614D01*
X44687Y46692D01*
X44761Y46765D01*
X44798Y46839D01*
X44015Y49867D02*X43941Y49940D01*
X43831Y49977D01*
X43684D02*X43831D01*
X43684D02*X43573Y49940D01*
X43500Y49867D01*
Y49793D01*
X43536Y49719D01*
X43573Y49683D01*
X43647Y49646D01*
X43868Y49573D01*
X43941Y49536D01*
X43978Y49499D01*
X44015Y49425D01*
Y49315D01*
X43941Y49242D01*
X43831Y49205D01*
X43684D02*X43831D01*
X43684D02*X43573Y49242D01*
X43500Y49315D01*
X44246Y49977D02*Y49205D01*
Y49977D02*X44504D01*
X44614Y49940D01*
X44688Y49867D01*
X44724Y49793D01*
X44761Y49683D01*
Y49499D01*
X44724Y49389D01*
X44688Y49315D01*
X44614Y49242D01*
X44504Y49205D01*
X44246D02*X44504D01*
X45287Y49977D02*X44993Y49205D01*
X45287Y49977D02*X45581Y49205D01*
X45103Y49462D02*X45471D01*
X44015Y52367D02*X43941Y52440D01*
X43831Y52477D01*
X43684D02*X43831D01*
X43684D02*X43573Y52440D01*
X43500Y52367D01*
Y52293D01*
X43536Y52219D01*
X43573Y52183D01*
X43647Y52146D01*
X43868Y52073D01*
X43941Y52036D01*
X43978Y51999D01*
X44015Y51925D01*
Y51815D01*
X43941Y51742D01*
X43831Y51705D01*
X43684D02*X43831D01*
X43684D02*X43573Y51742D01*
X43500Y51815D01*
X44798Y52293D02*X44761Y52367D01*
X44687Y52440D01*
X44614Y52477D01*
X44467D02*X44614D01*
X44467D02*X44393Y52440D01*
X44320Y52367D01*
X44283Y52293D01*
X44246Y52183D01*
Y51999D01*
X44283Y51889D01*
X44320Y51815D01*
X44393Y51742D01*
X44467Y51705D01*
X44614D01*
X44687Y51742D01*
X44761Y51815D01*
X44798Y51889D01*
X45030Y52477D02*Y51705D01*
X45471D01*
X43757Y54977D02*Y54205D01*
X43500Y54977D02*X44015D01*
X44246D02*X44761Y54205D01*
Y54977D02*X44246Y54205D01*
X43500Y57527D02*Y56755D01*
Y57527D02*X43831D01*
X43941Y57490D01*
X43978Y57453D01*
X44015Y57380D01*
Y57306D01*
X43978Y57233D01*
X43941Y57196D01*
X43831Y57159D01*
X43500D02*X43831D01*
X43757D02*X44015Y56755D01*
X44246Y57527D02*X44761Y56755D01*
Y57527D02*X44246Y56755D01*
X43500Y60127D02*X43693D01*
X43597D02*Y59355D01*
X43500D02*X43693D01*
X43925Y60127D02*Y59355D01*
Y60127D02*X44439Y59355D01*
Y60127D02*Y59355D01*
X44928Y60127D02*Y59355D01*
X44671Y60127D02*X45186D01*
X43500Y62577D02*Y61805D01*
Y62577D02*X43831D01*
X43941Y62540D01*
X43978Y62503D01*
X44015Y62430D01*
Y62319D01*
X43978Y62246D01*
X43941Y62209D01*
X43831Y62173D01*
X43500D02*X43831D01*
X44246Y62577D02*X44430Y61805D01*
X44614Y62577D02*X44430Y61805D01*
X44614Y62577D02*X44798Y61805D01*
X44982Y62577D02*X44798Y61805D01*
X45213Y62577D02*Y61805D01*
Y62577D02*X45507Y61805D01*
X45802Y62577D02*X45507Y61805D01*
X45802Y62577D02*Y61805D01*
X41801Y77220D02*X42807D01*
X41801Y77651D02*Y77220D01*
Y77651D02*X41849Y77795D01*
X41897Y77843D01*
X41993Y77890D01*
X42089D01*
X42185Y77843D01*
X42233Y77795D01*
X42281Y77651D01*
Y77220D01*
Y77555D02*X42807Y77890D01*
X41801Y78192D02*X42807D01*
X41801Y78815D02*Y78192D01*
X42281Y78575D02*Y78192D01*
X42807Y78815D02*Y78192D01*
X41945Y79787D02*X41849Y79691D01*
X41801Y79548D01*
Y79356D01*
X41849Y79212D01*
X41945Y79117D01*
X42041D01*
X42137Y79164D01*
X42185Y79212D01*
X42233Y79308D01*
X42328Y79596D01*
X42376Y79691D01*
X42424Y79739D01*
X42520Y79787D01*
X42664D01*
X42759Y79691D01*
X42807Y79548D01*
Y79356D01*
X42759Y79212D01*
X42664Y79117D01*
X41801Y80089D02*X42807D01*
X41801Y80711D02*Y80089D01*
X42281Y80472D02*Y80089D01*
X42807Y80711D02*Y80089D01*
X41801Y81348D02*X42807D01*
X41801Y81684D02*Y81013D01*
X15965Y54867D02*X15891Y54940D01*
X15781Y54977D01*
X15634D02*X15781D01*
X15634D02*X15523Y54940D01*
X15450Y54867D01*
Y54793D01*
X15486Y54719D01*
X15523Y54683D01*
X15597Y54646D01*
X15818Y54573D01*
X15891Y54536D01*
X15928Y54499D01*
X15965Y54425D01*
Y54315D01*
X15891Y54242D01*
X15781Y54205D01*
X15634D02*X15781D01*
X15634D02*X15523Y54242D01*
X15450Y54315D01*
X16748Y54793D02*X16711Y54867D01*
X16637Y54940D01*
X16564Y54977D01*
X16417D02*X16564D01*
X16417D02*X16343Y54940D01*
X16270Y54867D01*
X16233Y54793D01*
X16196Y54683D01*
Y54499D01*
X16233Y54389D01*
X16270Y54315D01*
X16343Y54242D01*
X16417Y54205D01*
X16564D01*
X16637Y54242D01*
X16711Y54315D01*
X16748Y54389D01*
X16980Y54977D02*Y54205D01*
X17494Y54977D02*X16980Y54462D01*
X17163Y54646D02*X17494Y54205D01*
X14900Y49977D02*Y49205D01*
Y49977D02*X15194Y49205D01*
X15488Y49977D02*X15194Y49205D01*
X15488Y49977D02*Y49205D01*
X15941Y49977D02*X15867Y49940D01*
X15793Y49867D01*
X15757Y49793D01*
X15720Y49683D01*
Y49499D01*
X15757Y49388D01*
Y49389D02*X15793Y49315D01*
X15867Y49242D01*
X15941Y49205D01*
X16088D01*
X16161Y49242D01*
X16235Y49315D01*
X16272Y49389D01*
X16308Y49499D01*
Y49683D02*Y49499D01*
Y49683D02*X16272Y49793D01*
X16235Y49867D01*
X16161Y49940D01*
X16088Y49977D01*
X15941D02*X16088D01*
X17054Y49867D02*X16981Y49940D01*
X16871Y49977D01*
X16723D02*X16871D01*
X16723D02*X16613Y49940D01*
X16540Y49867D01*
Y49793D01*
X16576Y49719D01*
X16613Y49683D01*
X16687Y49646D01*
X16907Y49573D01*
X16981Y49536D01*
X17018Y49499D01*
X17054Y49425D01*
Y49315D01*
X16981Y49242D01*
X16871Y49205D01*
X16723D02*X16871D01*
X16723D02*X16613Y49242D01*
X16540Y49315D01*
X17286Y49977D02*X17479D01*
X17383D02*Y49205D01*
X17286D02*X17479D01*
X14900Y52427D02*Y51655D01*
Y52427D02*X15194Y51655D01*
X15488Y52427D02*X15194Y51655D01*
X15488Y52427D02*Y51655D01*
X15720Y52427D02*X15913D01*
X15817D02*Y51655D01*
X15720D02*X15913D01*
X16659Y52317D02*X16586Y52390D01*
X16476Y52427D01*
X16328D02*X16476D01*
X16328D02*X16218Y52390D01*
X16145Y52317D01*
Y52243D01*
X16181Y52169D01*
X16218Y52133D01*
X16292Y52096D01*
X16512Y52023D01*
X16586Y51986D01*
X16623Y51949D01*
X16659Y51875D01*
Y51765D01*
X16586Y51692D01*
X16476Y51655D01*
X16328D02*X16476D01*
X16328D02*X16218Y51692D01*
X16145Y51765D01*
X17112Y52427D02*X17038Y52390D01*
X16964Y52317D01*
X16928Y52243D01*
X16891Y52133D01*
Y51949D01*
X16928Y51838D01*
Y51839D02*X16964Y51765D01*
X17038Y51692D01*
X17112Y51655D01*
X17259D01*
X17332Y51692D01*
X17406Y51765D01*
X17443Y51839D01*
X17479Y51949D01*
Y52133D02*Y51949D01*
Y52133D02*X17443Y52243D01*
X17406Y52317D01*
X17332Y52390D01*
X17259Y52427D01*
X17112D02*X17259D01*
X15331Y47379D02*Y46717D01*
X15000Y47048D02*X15662D01*
X15967Y47427D02*X16371D01*
X16150Y47133D01*
X16261D01*
X16334Y47096D01*
X16371Y47059D01*
X16408Y46949D01*
Y46876D01*
X16371Y46765D01*
X16298Y46692D01*
X16187Y46655D01*
X16077D02*X16187D01*
X16077D02*X15967Y46692D01*
X15930Y46729D01*
X15893Y46802D01*
X16676Y46713D02*X16640Y46676D01*
X16676Y46639D01*
X16713Y46676D01*
X16676Y46713D01*
X17018Y47427D02*X17423D01*
X17202Y47133D01*
X17312D01*
X17386Y47096D01*
X17423Y47059D01*
X17459Y46949D01*
Y46876D01*
X17423Y46765D01*
X17349Y46692D01*
X17239Y46655D01*
X17128D02*X17239D01*
X17128D02*X17018Y46692D01*
X16981Y46729D01*
X16945Y46802D01*
X16394Y62627D02*X16100Y61855D01*
X16394Y62627D02*X16688Y61855D01*
X16210Y62112D02*X16578D01*
X16920Y62627D02*Y61855D01*
Y62627D02*X17435Y61855D01*
Y62627D02*Y61855D01*
X15500Y60077D02*Y59305D01*
Y60077D02*X15831D01*
X15941Y60040D01*
X15978Y60003D01*
X16015Y59930D01*
Y59856D01*
X15978Y59783D01*
X15941Y59746D01*
X15831Y59709D01*
X15500D02*X15831D01*
X15757D02*X16015Y59305D01*
X16761Y59967D02*X16687Y60040D01*
X16577Y60077D01*
X16430D02*X16577D01*
X16430D02*X16320Y60040D01*
X16246Y59967D01*
Y59893D01*
X16283Y59819D01*
X16320Y59783D01*
X16393Y59746D01*
X16614Y59673D01*
X16687Y59636D01*
X16724Y59599D01*
X16761Y59525D01*
Y59415D01*
X16687Y59342D01*
X16577Y59305D01*
X16430D02*X16577D01*
X16430D02*X16320Y59342D01*
X16246Y59415D01*
X17250Y60077D02*Y59305D01*
X16993Y60077D02*X17507D01*
X16702Y57343D02*X16665Y57417D01*
X16591Y57490D01*
X16518Y57527D01*
X16370D02*X16518D01*
X16370D02*X16297Y57490D01*
X16223Y57417D01*
X16187Y57343D01*
X16150Y57233D01*
Y57049D01*
X16187Y56939D01*
X16223Y56865D01*
X16297Y56792D01*
X16370Y56755D01*
X16518D01*
X16591Y56792D01*
X16665Y56865D01*
X16702Y56939D01*
X17448Y57417D02*X17374Y57490D01*
X17264Y57527D01*
X17117D02*X17264D01*
X17117D02*X17007Y57490D01*
X16933Y57417D01*
Y57343D01*
X16970Y57269D01*
X17007Y57233D01*
X17080Y57196D01*
X17301Y57123D01*
X17374Y57086D01*
X17411Y57049D01*
X17448Y56975D01*
Y56865D01*
X17374Y56792D01*
X17264Y56755D01*
X17117D02*X17264D01*
X17117D02*X17007Y56792D01*
X16933Y56865D01*
X16002Y44693D02*X15965Y44767D01*
X15891Y44840D01*
X15818Y44877D01*
X15671D02*X15818D01*
X15671D02*X15597Y44840D01*
X15524Y44767D01*
X15487Y44693D01*
X15450Y44583D01*
Y44399D01*
X15487Y44289D01*
X15524Y44215D01*
X15597Y44142D01*
X15671Y44105D01*
X15818D01*
X15891Y44142D01*
X15965Y44215D01*
X16002Y44289D01*
Y44399D02*Y44289D01*
X15818Y44399D02*X16002D01*
X16233Y44877D02*Y44105D01*
Y44877D02*X16748Y44105D01*
Y44877D02*Y44105D01*
X16980Y44877D02*Y44105D01*
Y44877D02*X17237D01*
X17347Y44840D01*
X17421Y44767D01*
X17457Y44693D01*
X17494Y44583D01*
Y44399D01*
X17457Y44289D01*
X17421Y44215D01*
X17347Y44142D01*
X17237Y44105D01*
X16980D02*X17237D01*
X21699Y34620D02*Y34369D01*
X20693Y34494D02*X21699D01*
X20693Y34620D02*Y34369D01*
X21459Y33348D02*X21555Y33396D01*
X21651Y33492D01*
X21699Y33588D01*
Y33780D02*Y33588D01*
Y33780D02*X21651Y33875D01*
X21555Y33971D01*
X21459Y34019D01*
X21315Y34067D01*
X21076D02*X21315D01*
X21076D02*X20932Y34019D01*
X20836Y33971D01*
X20741Y33875D01*
X20693Y33780D01*
Y33588D01*
X20741Y33492D01*
X20836Y33396D01*
X20932Y33348D01*
X21555Y32376D02*X21651Y32472D01*
X21699Y32616D01*
Y32807D02*Y32616D01*
Y32807D02*X21651Y32951D01*
X21555Y33047D01*
X21459D02*X21555D01*
X21459D02*X21363Y32999D01*
X21315Y32951D01*
X21267Y32855D01*
X21172Y32568D01*
X21124Y32472D01*
X21076Y32424D01*
X20980Y32376D01*
X20836D02*X20980D01*
X20836D02*X20741Y32472D01*
X20693Y32616D01*
Y32807D02*Y32616D01*
Y32807D02*X20741Y32951D01*
X20836Y33047D01*
X20693Y32074D02*X21699D01*
Y31643D01*
X21651Y31500D01*
X21603Y31452D01*
X21507Y31404D01*
X21363D02*X21507D01*
X21363D02*X21267Y31452D01*
X21219Y31500D01*
X21172Y31643D01*
Y32074D02*Y31643D01*
X18630Y81170D02*X19349D01*
X18630D02*X18486Y81122D01*
X18391Y81026D01*
X18343Y80883D01*
Y80787D01*
X18391Y80643D01*
X18486Y80547D01*
X18630Y80500D01*
X19349D01*
X19205Y79527D02*X19301Y79623D01*
X19349Y79767D01*
Y79958D02*Y79767D01*
Y79958D02*X19301Y80102D01*
X19205Y80198D01*
X19109D02*X19205D01*
X19109D02*X19013Y80150D01*
X18965Y80102D01*
X18917Y80006D01*
X18822Y79719D01*
X18774Y79623D01*
X18726Y79575D01*
X18630Y79527D01*
X18486D02*X18630D01*
X18486D02*X18391Y79623D01*
X18343Y79767D01*
Y79958D02*Y79767D01*
Y79958D02*X18391Y80102D01*
X18486Y80198D01*
X18343Y79226D02*X19349D01*
Y78603D01*
X18869Y79226D02*Y78843D01*
X18343Y79226D02*Y78603D01*
Y78301D02*X19349D01*
Y77870D01*
X19301Y77727D01*
X19253Y77679D01*
X19157Y77631D01*
X19061D02*X19157D01*
X19061D02*X18965Y77679D01*
X18917Y77727D01*
X18869Y77870D01*
Y78301D02*Y77870D01*
Y77966D02*X18343Y77631D01*
X15250Y69430D02*Y68668D01*
Y69430D02*X15577D01*
X15685Y69393D01*
X15722Y69357D01*
X15758Y69284D01*
Y69212D01*
X15722Y69139D01*
X15685Y69103D01*
X15577Y69067D01*
X15250D02*X15577D01*
X15504D02*X15758Y68668D01*
X15986Y69430D02*Y68668D01*
Y69430D02*X16458D01*
X15986Y69067D02*X16277D01*
X16900Y65727D02*Y64955D01*
X17341D01*
X17573Y65727D02*Y64955D01*
Y65727D02*X18051D01*
X17573Y65359D02*X17867D01*
X17573Y64955D02*X18051D01*
X18282Y65727D02*Y64955D01*
Y65727D02*X18540D01*
X18650Y65690D01*
X18724Y65617D01*
X18760Y65543D01*
X18797Y65433D01*
Y65249D01*
X18760Y65139D01*
X18724Y65065D01*
X18650Y64992D01*
X18540Y64955D01*
X18282D02*X18540D01*
X17465Y73017D02*X17391Y73090D01*
X17281Y73127D01*
X17134D02*X17281D01*
X17134D02*X17023Y73090D01*
X16950Y73017D01*
Y72943D01*
X16986Y72869D01*
X17023Y72833D01*
X17097Y72796D01*
X17318Y72723D01*
X17391Y72686D01*
X17428Y72649D01*
X17465Y72575D01*
Y72465D01*
X17391Y72392D01*
X17281Y72355D01*
X17134D02*X17281D01*
X17134D02*X17023Y72392D01*
X16950Y72465D01*
X17696Y73127D02*Y72355D01*
Y73127D02*X18174D01*
X17696Y72759D02*X17990D01*
X17696Y72355D02*X18174D01*
X18406Y73127D02*Y72355D01*
Y73127D02*X18921Y72355D01*
Y73127D02*Y72355D01*
X19667Y73017D02*X19593Y73090D01*
X19483Y73127D01*
X19336D02*X19483D01*
X19336D02*X19226Y73090D01*
X19152Y73017D01*
Y72943D01*
X19189Y72869D01*
X19226Y72833D01*
X19299Y72796D01*
X19520Y72723D01*
X19593Y72686D01*
X19630Y72649D01*
X19667Y72575D01*
Y72465D01*
X19593Y72392D01*
X19483Y72355D01*
X19336D02*X19483D01*
X19336D02*X19226Y72392D01*
X19152Y72465D01*
X20119Y73127D02*X20046Y73090D01*
X19972Y73017D01*
X19935Y72943D01*
X19899Y72833D01*
Y72649D01*
X19935Y72538D01*
Y72539D02*X19972Y72465D01*
X20046Y72392D01*
X20119Y72355D01*
X20266D01*
X20340Y72392D01*
X20413Y72465D01*
X20450Y72539D01*
X20487Y72649D01*
Y72833D02*Y72649D01*
Y72833D02*X20450Y72943D01*
X20413Y73017D01*
X20340Y73090D01*
X20266Y73127D01*
X20119D02*X20266D01*
X20718D02*Y72355D01*
Y73127D02*X21049D01*
X21159Y73090D01*
X21196Y73053D01*
X21233Y72980D01*
Y72906D01*
X21196Y72833D01*
X21159Y72796D01*
X21049Y72759D01*
X20718D02*X21049D01*
X20976D02*X21233Y72355D01*
G54D67*X36900Y52370D02*X38900D01*
Y48870D01*
X36900D02*X38900D01*
X36900Y52370D02*Y48870D01*
X37150Y53045D02*X38650D01*
X37150Y56045D02*X38650D01*
X37150Y54145D02*Y53045D01*
X38650Y54145D02*Y53045D01*
X37150Y56045D02*Y54945D01*
X38650Y56045D02*Y54945D01*
X38250Y60620D02*X39750D01*
X38250Y63620D02*X39750D01*
X38250Y61720D02*Y60620D01*
X39750Y61720D02*Y60620D01*
X38250Y63620D02*Y62520D01*
X39750Y63620D02*Y62520D01*
X39950Y68620D02*X41450D01*
X39950Y65620D02*X41450D01*
Y68620D02*Y67520D01*
X39950Y68620D02*Y67520D01*
X41450Y66720D02*Y65620D01*
X39950Y66720D02*Y65620D01*
G54D65*X43512Y81552D02*Y77552D01*
X46762Y78302D02*Y77552D01*
Y78302D02*X47362D01*
Y80802D02*Y78302D01*
X46762Y80802D02*X47362D01*
X46762Y81552D02*Y80802D01*
G54D68*X40080Y87630D02*G75*G03X40080Y87630I3100J0D01*G01*
X41453D02*G75*G03X41453Y87630I1727J0D01*G01*
G54D67*X39100Y83870D02*Y82370D01*
X42100Y83870D02*Y82370D01*
X39100Y83870D02*X40200D01*
X39100Y82370D02*X40200D01*
X41000Y83870D02*X42100D01*
X41000Y82370D02*X42100D01*
X41875Y68095D02*Y66145D01*
Y68095D02*X42220D01*
X41875Y66145D02*X42220D01*
X45125Y68095D02*Y66145D01*
X44780Y68095D02*X45125D01*
X44780Y66145D02*X45125D01*
X45445Y68770D02*G75*G03X45245Y68570I0J-200D01*G01*
X45645D02*G75*G03X45445Y68770I-200J0D01*G01*
Y68370D02*G75*G03X45645Y68570I0J200D01*G01*
X45245D02*G75*G03X45445Y68370I200J0D01*G01*
X41800Y72770D02*X43300D01*
X41800Y69770D02*X43300D01*
Y72770D02*Y71670D01*
X41800Y72770D02*Y71670D01*
X43300Y70870D02*Y69770D01*
X41800Y70870D02*Y69770D01*
X43300Y72770D02*X44800D01*
X43300Y69770D02*X44800D01*
Y72770D02*Y71670D01*
X43300Y72770D02*Y71670D01*
X44800Y70870D02*Y69770D01*
X43300Y70870D02*Y69770D01*
G54D65*X38057Y73680D02*Y69280D01*
X40857D01*
Y73680D02*Y69280D01*
Y73680D02*X40557Y73980D01*
X38057Y73680D02*X38357Y73980D01*
X40557D01*
X38257Y73880D02*X40657D01*
X38157Y73780D02*X40757D01*
X38085Y80082D02*Y76432D01*
Y80082D02*X41235D01*
Y76432D01*
X38085D02*X41235D01*
X37805Y76767D02*Y76152D01*
X38420D01*
G54D67*X21200Y44320D02*X23200D01*
X21200Y47820D02*Y44320D01*
Y47820D02*X23200D01*
Y44320D01*
X21650Y64545D02*X23150D01*
X21650Y67545D02*X23150D01*
X21650Y65645D02*Y64545D01*
X23150Y65645D02*Y64545D01*
X21650Y67545D02*Y66445D01*
X23150Y67545D02*Y66445D01*
X41275Y43180D02*X42545D01*
X41275D02*X40640Y43815D01*
Y45085D02*Y43815D01*
Y45085D02*X41275Y45720D01*
X40640Y46355D01*
Y47625D02*Y46355D01*
Y47625D02*X41275Y48260D01*
X40640Y48895D01*
Y50165D02*Y48895D01*
Y50165D02*X41275Y50800D01*
X40640Y51435D01*
Y52705D02*Y51435D01*
Y52705D02*X41275Y53340D01*
X40640Y53975D01*
Y55245D02*Y53975D01*
Y55245D02*X41275Y55880D01*
X40640Y56515D01*
Y57785D02*Y56515D01*
Y57785D02*X41275Y58420D01*
X40640Y59055D01*
Y60325D02*Y59055D01*
Y60325D02*X41275Y60960D01*
X40640Y61595D01*
Y62865D02*Y61595D01*
Y62865D02*X41275Y63500D01*
X42545D01*
X43180Y62865D01*
Y61595D01*
X42545Y60960D01*
X43180Y60325D01*
Y59055D01*
X42545Y58420D01*
X43180Y57785D01*
Y56515D01*
X42545Y55880D01*
X43180Y55245D01*
Y53975D01*
X42545Y53340D01*
X43180Y52705D01*
Y51435D01*
X42545Y50800D01*
X43180Y50165D01*
Y48895D01*
X42545Y48260D01*
X43180Y47625D01*
Y46355D01*
X42545Y45720D01*
X43180Y45085D01*
Y43815D01*
X42545Y43180D01*
X25533Y75495D02*Y73545D01*
X25878D01*
X28783Y75495D02*Y73545D01*
X28438D02*X28783D01*
X25533Y75495D02*X26828D01*
X28783D02*X27488D01*
X28450Y47570D02*X29950D01*
X28450Y44570D02*X29950D01*
Y47570D02*Y46470D01*
X28450Y47570D02*Y46470D01*
X29950Y45670D02*Y44570D01*
X28450Y45670D02*Y44570D01*
G54D65*X27875Y55445D02*Y55895D01*
X28325D01*
X27875Y50745D02*X28325D01*
X27875Y51195D02*Y50745D01*
X33025Y51195D02*Y50745D01*
X32575D02*X33025D01*
X32575Y55895D02*X33025D01*
Y55445D01*
X27875Y55895D02*X27655Y56115D01*
G54D67*X36750Y60620D02*X38250D01*
X36750Y63620D02*X38250D01*
X36750Y61720D02*Y60620D01*
X38250Y61720D02*Y60620D01*
X36750Y63620D02*Y62520D01*
X38250Y63620D02*Y62520D01*
X18415Y63500D02*X19685D01*
X20320Y62865D01*
Y61595D01*
X19685Y60960D01*
X20320Y60325D01*
Y59055D01*
X19685Y58420D01*
X20320Y57785D01*
Y56515D01*
X19685Y55880D01*
X20320Y55245D01*
Y53975D01*
X19685Y53340D01*
X20320Y52705D01*
Y51435D01*
X19685Y50800D01*
X20320Y50165D01*
Y48895D01*
X19685Y48260D01*
X20320Y47625D01*
Y46355D01*
X19685Y45720D01*
X20320Y45085D01*
Y43815D01*
X19685Y43180D01*
X18415D01*
X17780Y43815D01*
Y45085D01*
X18415Y45720D01*
X17780Y46355D01*
Y47625D01*
X18415Y48260D01*
X17780Y48895D01*
Y50165D01*
X18415Y50800D01*
X17780Y51435D01*
Y52705D01*
X18415Y53340D01*
X17780Y53975D01*
Y55245D01*
X18415Y55880D01*
X17780Y56515D01*
Y57785D01*
X18415Y58420D01*
X17780Y59055D01*
Y60325D01*
X18415Y60960D01*
X17780Y61595D01*
Y62865D01*
X18415Y63500D01*
X21196Y52732D02*Y51182D01*
X22746D01*
X26500Y45270D02*X28000D01*
X26500Y48270D02*X28000D01*
X26500Y46370D02*Y45270D01*
X28000Y46370D02*Y45270D01*
X26500Y48270D02*Y47170D01*
X28000Y48270D02*Y47170D01*
X24000Y45270D02*X25500D01*
X24000Y48270D02*X25500D01*
X24000Y46370D02*Y45270D01*
X25500Y46370D02*Y45270D01*
X24000Y48270D02*Y47170D01*
X25500Y48270D02*Y47170D01*
X29950Y47570D02*X31450D01*
X29950Y44570D02*X31450D01*
Y47570D02*Y46470D01*
X29950Y47570D02*Y46470D01*
X31450Y45670D02*Y44570D01*
X29950Y45670D02*Y44570D01*
G54D65*X35280Y23160D02*Y19460D01*
X25680Y23160D02*Y19460D01*
X26780D01*
X25680Y23160D02*X26780D01*
X34180Y19460D02*X35280D01*
X34180Y23160D02*X35280D01*
G54D67*X21256Y36622D02*X22756D01*
X21256Y39622D02*X22756D01*
X21256Y36622D02*Y37722D01*
X22756Y36622D02*Y37722D01*
X21256Y39622D02*Y38522D01*
X22756Y39622D02*Y38522D01*
X18415Y40640D02*X19685D01*
X20320Y40005D01*
Y38735D01*
X19685Y38100D01*
X18415Y40640D02*X17780Y40005D01*
Y38735D01*
X18415Y38100D01*
X19685D02*X20320Y37465D01*
Y36195D01*
X19685Y35560D01*
X18415Y38100D02*X17780Y37465D01*
Y36195D01*
X18415Y35560D01*
X19685D02*X20320Y34925D01*
Y33655D01*
X19685Y33020D01*
X18415Y35560D02*X17780Y34925D01*
Y33655D01*
X18415Y33020D01*
X19685D02*X20320Y32385D01*
Y31115D01*
X19685Y30480D01*
X18415Y33020D02*X17780Y32385D01*
Y31115D01*
X18415Y30480D01*
X19685D02*X20320Y29845D01*
Y28575D01*
X19685Y27940D01*
X18415Y30480D02*X17780Y29845D01*
Y28575D01*
X18415Y27940D01*
X19685D02*X20320Y27305D01*
Y26035D01*
X19685Y25400D01*
X18415Y27940D02*X17780Y27305D01*
Y26035D01*
X18415Y25400D01*
X19685D01*
G54D65*X34530Y41024D02*X38930D01*
X34530D02*Y38224D01*
X38930D01*
X39230Y38524D01*
X38930Y41024D02*X39230Y40724D01*
Y38524D02*Y40724D01*
X39130Y38424D02*Y40824D01*
X39030Y40924D02*Y38324D01*
X34130Y31040D02*X39530D01*
Y24840D01*
X34130D01*
Y31040D01*
G54D67*X40910Y29690D02*X42910D01*
Y26190D01*
X40910D02*X42910D01*
X40910Y29690D02*Y26190D01*
G54D65*X34480Y36148D02*X34880D01*
X34480D02*Y33448D01*
X34880D01*
X38780D02*X39180D01*
Y36148D01*
X38780D01*
X34330Y33298D02*G75*G03X34130Y33098I0J-200D01*G01*
G75*G03X34330Y32898I200J0D01*G01*
G75*G03X34530Y33098I0J200D01*G01*
G75*G03X34330Y33298I-200J0D01*G01*
X41060Y34910D02*X42760D01*
X41060D02*Y32410D01*
X42760D01*
Y34910D02*Y32410D01*
X41060Y34410D02*X42760D01*
G54D68*X40080Y21590D02*G75*G03X40080Y21590I3100J0D01*G01*
X41453D02*G75*G03X41453Y21590I1727J0D01*G01*
X14680D02*G75*G03X14680Y21590I3100J0D01*G01*
X16053D02*G75*G03X16053Y21590I1727J0D01*G01*
G54D67*X36500Y82470D02*X38500D01*
X36500Y85970D02*Y82470D01*
Y85970D02*X38500D01*
Y82470D01*
X36750Y86420D02*X38250D01*
X36750Y89420D02*X38250D01*
X36750Y87520D02*Y86420D01*
X38250Y87520D02*Y86420D01*
X36750Y89420D02*Y88320D01*
X38250Y89420D02*Y88320D01*
X22950Y85970D02*X24450D01*
X22950Y82970D02*X24450D01*
Y85970D02*Y84870D01*
X22950Y85970D02*Y84870D01*
X24450Y84070D02*Y82970D01*
X22950Y84070D02*Y82970D01*
G54D65*X17448Y81452D02*Y77452D01*
X14198Y81452D02*Y80702D01*
X13598D02*X14198D01*
X13598D02*Y78202D01*
X14198D01*
Y77452D01*
G54D67*X25880Y84780D02*Y83230D01*
X27030D01*
X33930D02*X35080D01*
Y84780D01*
Y90480D02*Y94930D01*
X25880D02*Y90480D01*
Y90830D02*X35080D01*
X33230Y94930D02*X35080D01*
X32130D02*X25880D01*
X32130D02*G75*G03X32680Y94380I550J0D01*G01*
G75*G03X33230Y94930I0J550D01*G01*
G54D68*X14680Y87630D02*G75*G03X14680Y87630I3100J0D01*G01*
X16053D02*G75*G03X16053Y87630I1727J0D01*G01*
G54D67*X20750Y72020D02*Y70420D01*
X17050Y72020D02*Y70420D01*
X16750Y72020D02*Y70420D01*
X20750D01*
X16750Y72020D02*X20750D01*
Y69820D02*Y68220D01*
X17050Y69820D02*Y68220D01*
X16750Y69820D02*Y68220D01*
X20750D01*
X16750Y69820D02*X20750D01*
Y67620D02*Y66020D01*
X17050Y67620D02*Y66020D01*
X16750Y67620D02*Y66020D01*
X20750D01*
X16750Y67620D02*X20750D01*
X24750Y58470D02*Y56970D01*
X21750Y58470D02*Y56970D01*
X23650D02*X24750D01*
X23650Y58470D02*X24750D01*
X21750Y56970D02*X22850D01*
X21750Y58470D02*X22850D01*
X30450Y59895D02*X31950D01*
X30450Y62895D02*X31950D01*
X30450Y59895D02*Y60995D01*
X31950Y59895D02*Y60995D01*
X30450Y62895D02*Y61795D01*
X31950Y62895D02*Y61795D01*
X31395Y69555D02*Y67605D01*
X31740D01*
X34645Y69555D02*Y67605D01*
X34300D02*X34645D01*
X31395Y69555D02*X32690D01*
X34645D02*X33350D01*
X35064Y70080D02*X36564D01*
X35064Y67080D02*X36564D01*
Y70080D02*Y68980D01*
X35064Y70080D02*Y68980D01*
X36564Y68180D02*Y67080D01*
X35064Y68180D02*Y67080D01*
X31520Y64758D02*Y63258D01*
X34520Y64758D02*Y63258D01*
X31520Y64758D02*X32620D01*
X31520Y63258D02*X32620D01*
X33420Y64758D02*X34520D01*
X33420Y63258D02*X34520D01*
X31520Y66282D02*Y64782D01*
X34520Y66282D02*Y64782D01*
X31520Y66282D02*X32620D01*
X31520Y64782D02*X32620D01*
X33420Y66282D02*X34520D01*
X33420Y64782D02*X34520D01*
X25678Y64758D02*Y63258D01*
X28678Y64758D02*Y63258D01*
X25678Y64758D02*X26778D01*
X25678Y63258D02*X26778D01*
X27578Y64758D02*X28678D01*
X27578Y63258D02*X28678D01*
X25678Y66282D02*Y64782D01*
X28678Y66282D02*Y64782D01*
X25678Y66282D02*X26778D01*
X25678Y64782D02*X26778D01*
X27578Y66282D02*X28678D01*
X27578Y64782D02*X28678D01*
X21750Y56970D02*Y55470D01*
X24750Y56970D02*Y55470D01*
X21750Y56970D02*X22850D01*
X21750Y55470D02*X22850D01*
X23650Y56970D02*X24750D01*
X23650Y55470D02*X24750D01*
X29222Y70080D02*X30722D01*
X29222Y67080D02*X30722D01*
Y70080D02*Y68980D01*
X29222Y70080D02*Y68980D01*
X30722Y68180D02*Y67080D01*
X29222Y68180D02*Y67080D01*
X25553Y69555D02*Y67605D01*
X25898D01*
X28803Y69555D02*Y67605D01*
X28458D02*X28803D01*
X25553Y69555D02*X26848D01*
X28803D02*X27508D01*
X35044Y76020D02*X36544D01*
X35044Y73020D02*X36544D01*
Y76020D02*Y74920D01*
X35044Y76020D02*Y74920D01*
X36544Y74120D02*Y73020D01*
X35044Y74120D02*Y73020D01*
X31375Y75495D02*Y73545D01*
X31720D01*
X34625Y75495D02*Y73545D01*
X34280D02*X34625D01*
X31375Y75495D02*X32670D01*
X34625D02*X33330D01*
X29202Y76020D02*X30702D01*
X29202Y73020D02*X30702D01*
Y76020D02*Y74920D01*
X29202Y76020D02*Y74920D01*
X30702Y74120D02*Y73020D01*
X29202Y74120D02*Y73020D01*
G54D66*X24871Y21713D02*X24797Y21787D01*
X24685Y21824D01*
X24536D02*X24685D01*
X24536D02*X24424Y21787D01*
X24350Y21713D01*
Y21638D01*
X24387Y21564D01*
X24424Y21526D01*
X24499Y21489D01*
X24723Y21415D01*
X24797Y21377D01*
X24834Y21340D01*
X24871Y21266D01*
Y21154D01*
X24797Y21079D01*
X24685Y21042D01*
X24536D02*X24685D01*
X24536D02*X24424Y21079D01*
X24350Y21154D01*
X25106Y21676D02*X25180Y21713D01*
X25292Y21824D01*
Y21042D01*
X21498Y36181D02*Y35531D01*
Y36181D02*X21777D01*
X21869Y36150D01*
X21900Y36119D01*
X21931Y36058D01*
Y35996D01*
X21900Y35934D01*
X21869Y35903D01*
X21777Y35872D01*
X21498D02*X21777D01*
X21715D02*X21931Y35531D01*
X22529Y35965D02*X22498Y35872D01*
X22436Y35810D01*
X22343Y35779D01*
X22312D02*X22343D01*
X22312D02*X22219Y35810D01*
X22157Y35872D01*
X22126Y35965D01*
Y35996D02*Y35965D01*
Y35996D02*X22157Y36089D01*
X22219Y36151D01*
X22312Y36181D01*
X22343D01*
X22436Y36151D01*
X22498Y36089D01*
X22529Y35965D01*
Y35810D01*
X22498Y35655D01*
X22436Y35562D01*
X22343Y35531D01*
X22281D02*X22343D01*
X22281D02*X22188Y35562D01*
X22157Y35624D01*
X33459Y39838D02*X33421Y39913D01*
X33347Y39987D01*
X33273Y40024D01*
X33123D02*X33273D01*
X33123D02*X33049Y39987D01*
X32974Y39913D01*
X32937Y39838D01*
X32900Y39726D01*
Y39540D01*
X32937Y39428D01*
X32974Y39354D01*
X33049Y39279D01*
X33123Y39242D01*
X33273D01*
X33347Y39279D01*
X33421Y39354D01*
X33459Y39428D01*
X33731Y39876D02*Y39838D01*
Y39876D02*X33768Y39950D01*
X33805Y39987D01*
X33880Y40024D01*
X34029D01*
X34103Y39987D01*
X34140Y39950D01*
X34178Y39876D01*
Y39801D01*
X34140Y39726D01*
X34066Y39615D01*
X33693Y39242D01*
X34215D01*
X38450Y24524D02*Y23742D01*
X38897D01*
X39132Y24376D02*X39206Y24413D01*
X39318Y24524D01*
Y23742D01*
X41964Y25703D02*X41933Y25764D01*
X41871Y25826D01*
X41810Y25857D01*
X41686D02*X41810D01*
X41686D02*X41624Y25826D01*
X41562Y25764D01*
X41531Y25703D01*
X41500Y25610D01*
Y25455D01*
X41531Y25362D01*
X41562Y25300D01*
X41624Y25238D01*
X41686Y25207D01*
X41810D01*
X41871Y25238D01*
X41933Y25300D01*
X41964Y25362D01*
X42160Y25734D02*X42221Y25765D01*
X42314Y25857D01*
Y25207D01*
X33000Y35024D02*Y34466D01*
X33037Y34354D01*
X33112Y34279D01*
X33224Y34242D01*
X33298D01*
X33410Y34279D01*
X33484Y34354D01*
X33521Y34466D01*
Y35024D02*Y34466D01*
X33756Y34876D02*X33830Y34913D01*
X33942Y35024D01*
Y34242D01*
X43150Y33807D02*Y33157D01*
Y33807D02*X43367D01*
X43460Y33776D01*
X43522Y33714D01*
X43552Y33653D01*
X43583Y33560D01*
Y33405D01*
X43552Y33312D01*
X43522Y33250D01*
X43460Y33188D01*
X43367Y33157D01*
X43150D02*X43367D01*
X43778Y33684D02*X43840Y33715D01*
X43933Y33807D01*
Y33157D01*
X37214Y81953D02*X37183Y82014D01*
X37121Y82076D01*
X37060Y82107D01*
X36936D02*X37060D01*
X36936D02*X36874Y82076D01*
X36812Y82014D01*
X36781Y81953D01*
X36750Y81860D01*
Y81705D01*
X36781Y81612D01*
X36812Y81550D01*
X36874Y81488D01*
X36936Y81457D01*
X37060D01*
X37121Y81488D01*
X37183Y81550D01*
X37214Y81612D01*
X37410Y81984D02*X37471Y82015D01*
X37564Y82107D01*
Y81457D01*
X37821Y82107D02*X38162D01*
X37976Y81860D01*
X38069D01*
X38131Y81829D01*
X38162Y81798D01*
X38193Y81705D01*
Y81643D01*
X38162Y81550D01*
X38100Y81488D01*
X38007Y81457D01*
X37914D02*X38007D01*
X37914D02*X37821Y81488D01*
X37790Y81519D01*
X37759Y81581D01*
X37164Y90253D02*X37133Y90314D01*
X37071Y90376D01*
X37010Y90407D01*
X36886D02*X37010D01*
X36886D02*X36824Y90376D01*
X36762Y90314D01*
X36731Y90253D01*
X36700Y90160D01*
Y90005D01*
X36731Y89912D01*
X36762Y89850D01*
X36824Y89788D01*
X36886Y89757D01*
X37010D01*
X37071Y89788D01*
X37133Y89850D01*
X37164Y89912D01*
X37360Y90284D02*X37421Y90315D01*
X37514Y90407D01*
Y89757D01*
X37740Y90284D02*Y90253D01*
Y90284D02*X37771Y90345D01*
X37802Y90377D01*
X37864Y90407D01*
X37988D01*
X38050Y90377D01*
X38081Y90345D01*
X38112Y90284D01*
Y90222D01*
X38081Y90160D01*
X38019Y90067D01*
X37709Y89757D01*
X38143D01*
X44371Y83463D02*X44297Y83537D01*
X44185Y83574D01*
X44036D02*X44185D01*
X44036D02*X43924Y83537D01*
X43850Y83463D01*
Y83388D01*
X43887Y83314D01*
X43924Y83276D01*
X43999Y83239D01*
X44223Y83165D01*
X44297Y83127D01*
X44334Y83090D01*
X44371Y83016D01*
Y82904D01*
X44297Y82829D01*
X44185Y82792D01*
X44036D02*X44185D01*
X44036D02*X43924Y82829D01*
X43850Y82904D01*
X44643Y83426D02*Y83388D01*
Y83426D02*X44681Y83500D01*
X44718Y83537D01*
X44792Y83574D01*
X44941D01*
X45016Y83537D01*
X45053Y83500D01*
X45090Y83426D01*
Y83351D01*
X45053Y83276D01*
X44979Y83165D01*
X44606Y82792D01*
X45128D01*
X39614Y84703D02*X39583Y84764D01*
X39521Y84826D01*
X39460Y84857D01*
X39336D02*X39460D01*
X39336D02*X39274Y84826D01*
X39212Y84764D01*
X39181Y84703D01*
X39150Y84610D01*
Y84455D01*
X39181Y84362D01*
X39212Y84300D01*
X39274Y84238D01*
X39336Y84207D01*
X39460D01*
X39521Y84238D01*
X39583Y84300D01*
X39614Y84362D01*
X39810Y84734D02*X39871Y84765D01*
X39964Y84857D01*
Y84207D01*
X40314Y84857D02*X40221Y84827D01*
X40190Y84765D01*
Y84703D01*
X40221Y84641D01*
X40283Y84610D01*
X40407Y84579D01*
X40500Y84548D01*
X40562Y84486D01*
X40593Y84424D01*
Y84331D01*
X40562Y84269D01*
X40531Y84238D01*
X40438Y84207D01*
X40314D02*X40438D01*
X40314D02*X40221Y84238D01*
X40190Y84269D01*
X40159Y84331D01*
Y84424D02*Y84331D01*
Y84424D02*X40190Y84486D01*
X40252Y84548D01*
X40345Y84579D01*
X40469Y84610D01*
X40531Y84641D01*
X40562Y84703D01*
Y84765D02*Y84703D01*
Y84765D02*X40531Y84827D01*
X40438Y84857D01*
X40314D02*X40438D01*
X35300Y66757D02*Y66107D01*
Y66757D02*X35579D01*
X35671Y66726D01*
X35702Y66695D01*
X35733Y66634D01*
Y66572D01*
X35702Y66510D01*
X35671Y66479D01*
X35579Y66448D01*
X35300D02*X35579D01*
X35517D02*X35733Y66107D01*
X36300Y66665D02*X36269Y66727D01*
X36176Y66757D01*
X36114D02*X36176D01*
X36114D02*X36021Y66727D01*
X35959Y66634D01*
X35928Y66479D01*
Y66324D01*
X35959Y66200D01*
X36021Y66138D01*
X36114Y66107D01*
X36145D01*
X36238Y66138D01*
X36300Y66200D01*
X36331Y66293D01*
Y66324D02*Y66293D01*
Y66324D02*X36300Y66417D01*
X36238Y66479D01*
X36145Y66510D01*
X36114D02*X36145D01*
X36114D02*X36021Y66479D01*
X35959Y66417D01*
X35928Y66324D01*
X38112Y68738D02*X38086Y68790D01*
X38034Y68843D01*
X37982Y68869D01*
X37877D02*X37982D01*
X37877D02*X37825Y68843D01*
X37772Y68790D01*
X37746Y68738D01*
X37720Y68660D01*
Y68529D01*
X37746Y68451D01*
X37772Y68399D01*
X37825Y68346D01*
X37877Y68320D01*
X37982D01*
X38034Y68346D01*
X38086Y68399D01*
X38112Y68451D01*
X38277Y68765D02*X38329Y68791D01*
X38407Y68869D01*
Y68320D01*
X38938Y68869D02*X38676Y68320D01*
X38572Y68869D02*X38938D01*
X35300Y72707D02*Y72057D01*
Y72707D02*X35579D01*
X35671Y72676D01*
X35702Y72645D01*
X35733Y72584D01*
Y72522D01*
X35702Y72460D01*
X35671Y72429D01*
X35579Y72398D01*
X35300D02*X35579D01*
X35517D02*X35733Y72057D01*
X36083Y72707D02*X35990Y72677D01*
X35959Y72615D01*
Y72553D01*
X35990Y72491D01*
X36052Y72460D01*
X36176Y72429D01*
X36269Y72398D01*
X36331Y72336D01*
X36362Y72274D01*
Y72181D01*
X36331Y72119D01*
X36300Y72088D01*
X36207Y72057D01*
X36083D02*X36207D01*
X36083D02*X35990Y72088D01*
X35959Y72119D01*
X35928Y72181D01*
Y72274D02*Y72181D01*
Y72274D02*X35959Y72336D01*
X36021Y72398D01*
X36114Y72429D01*
X36238Y72460D01*
X36300Y72491D01*
X36331Y72553D01*
Y72615D02*Y72553D01*
Y72615D02*X36300Y72677D01*
X36207Y72707D01*
X36083D02*X36207D01*
X41950Y73707D02*Y73057D01*
Y73707D02*X42229D01*
X42321Y73676D01*
X42352Y73645D01*
X42383Y73584D01*
Y73522D01*
X42352Y73460D01*
X42321Y73429D01*
X42229Y73398D01*
X41950D02*X42229D01*
X42167D02*X42383Y73057D01*
X42578Y73584D02*X42640Y73615D01*
X42733Y73707D01*
Y73057D01*
X42928Y73584D02*X42990Y73615D01*
X43083Y73707D01*
Y73057D01*
X43600Y73707D02*Y73057D01*
Y73707D02*X43879D01*
X43971Y73676D01*
X44002Y73645D01*
X44033Y73584D01*
Y73522D01*
X44002Y73460D01*
X43971Y73429D01*
X43879Y73398D01*
X43600D02*X43879D01*
X43817D02*X44033Y73057D01*
X44228Y73584D02*X44290Y73615D01*
X44383Y73707D01*
Y73057D01*
X44609Y73584D02*Y73553D01*
Y73584D02*X44640Y73645D01*
X44671Y73677D01*
X44733Y73707D01*
X44857D01*
X44919Y73677D01*
X44950Y73645D01*
X44981Y73584D01*
Y73522D01*
X44950Y73460D01*
X44888Y73367D01*
X44578Y73057D01*
X45012D01*
X41258Y76075D02*Y75647D01*
X41286Y75561D01*
X41343Y75504D01*
X41429Y75475D01*
X41486D01*
X41571Y75504D01*
X41629Y75561D01*
X41657Y75647D01*
Y76075D02*Y75647D01*
X42179Y75989D02*X42151Y76046D01*
X42065Y76075D01*
X42008D02*X42065D01*
X42008D02*X41922Y76046D01*
X41865Y75961D01*
X41837Y75818D01*
Y75675D01*
X41865Y75561D01*
X41922Y75504D01*
X42008Y75475D01*
X42037D01*
X42122Y75504D01*
X42179Y75561D01*
X42208Y75647D01*
Y75675D02*Y75647D01*
Y75675D02*X42179Y75761D01*
X42122Y75818D01*
X42037Y75846D01*
X42008D02*X42037D01*
X42008D02*X41922Y75818D01*
X41865Y75761D01*
X41837Y75675D01*
X40514Y65103D02*X40483Y65164D01*
X40421Y65226D01*
X40360Y65257D01*
X40236D02*X40360D01*
X40236D02*X40174Y65226D01*
X40112Y65164D01*
X40081Y65103D01*
X40050Y65010D01*
Y64855D01*
X40081Y64762D01*
X40112Y64700D01*
X40174Y64638D01*
X40236Y64607D01*
X40360D01*
X40421Y64638D01*
X40483Y64700D01*
X40514Y64762D01*
X40710Y65134D02*X40771Y65165D01*
X40864Y65257D01*
Y64607D01*
X41121Y65257D02*X41431D01*
X41121D02*X41090Y64979D01*
X41121Y65010D01*
X41214Y65041D01*
X41307D01*
X41400Y65010D01*
X41462Y64948D01*
X41493Y64855D01*
Y64793D01*
X41462Y64700D01*
X41400Y64638D01*
X41307Y64607D01*
X41214D02*X41307D01*
X41214D02*X41121Y64638D01*
X41090Y64669D01*
X41059Y64731D01*
X42550Y64627D02*Y64075D01*
X42587Y63965D01*
X42660Y63892D01*
X42771Y63855D01*
X42844D01*
X42954Y63892D01*
X43028Y63965D01*
X43065Y64075D01*
Y64627D02*Y64075D01*
X43370Y64627D02*X43738D01*
X43370D02*X43333Y64296D01*
X43370Y64333D01*
X43480Y64370D01*
X43591D01*
X43701Y64333D01*
X43774Y64259D01*
X43811Y64149D01*
Y64076D01*
X43774Y63965D01*
X43701Y63892D01*
X43591Y63855D01*
X43480D02*X43591D01*
X43480D02*X43370Y63892D01*
X43333Y63929D01*
X43296Y64002D01*
X21650Y64207D02*Y63557D01*
Y64207D02*X21929D01*
X22021Y64176D01*
X22052Y64145D01*
X22083Y64084D01*
Y64022D01*
X22052Y63960D01*
X22021Y63929D01*
X21929Y63898D01*
X21650D02*X21929D01*
X21867D02*X22083Y63557D01*
X22278Y64084D02*X22340Y64115D01*
X22433Y64207D01*
Y63557D01*
X22814Y64207D02*X22721Y64177D01*
X22659Y64084D01*
X22628Y63929D01*
Y63836D01*
X22659Y63681D01*
X22721Y63588D01*
X22814Y63557D01*
X22876D01*
X22969Y63588D01*
X23031Y63681D01*
X23062Y63836D01*
Y63929D02*Y63836D01*
Y63929D02*X23031Y64084D01*
X22969Y64177D01*
X22876Y64207D01*
X22814D02*X22876D01*
X24450Y64257D02*Y63607D01*
Y64257D02*X24729D01*
X24821Y64226D01*
X24852Y64195D01*
X24883Y64134D01*
Y64072D01*
X24852Y64010D01*
X24821Y63979D01*
X24729Y63948D01*
X24450D02*X24729D01*
X24667D02*X24883Y63607D01*
X25078Y64134D02*X25140Y64165D01*
X25233Y64257D01*
Y63607D01*
X24350Y65757D02*Y65107D01*
Y65757D02*X24629D01*
X24721Y65726D01*
X24752Y65695D01*
X24783Y65634D01*
Y65572D01*
X24752Y65510D01*
X24721Y65479D01*
X24629Y65448D01*
X24350D02*X24629D01*
X24567D02*X24783Y65107D01*
X25040Y65757D02*X25381D01*
X25195Y65510D01*
X25288D01*
X25350Y65479D01*
X25381Y65448D01*
X25412Y65355D01*
Y65293D01*
X25381Y65200D01*
X25319Y65138D01*
X25226Y65107D01*
X25133D02*X25226D01*
X25133D02*X25040Y65138D01*
X25009Y65169D01*
X24978Y65231D01*
X20200Y65607D02*Y64957D01*
Y65607D02*X20417D01*
X20510Y65576D01*
X20572Y65514D01*
X20602Y65453D01*
X20633Y65360D01*
Y65205D01*
X20602Y65112D01*
X20572Y65050D01*
X20510Y64988D01*
X20417Y64957D01*
X20200D02*X20417D01*
X21138Y65607D02*X20828Y65174D01*
X21293D01*
X21138Y65607D02*Y64957D01*
X31323Y70824D02*X31249Y70787D01*
X31174Y70713D01*
X31137Y70638D01*
X31100Y70526D01*
Y70340D01*
X31137Y70228D01*
X31174Y70154D01*
X31249Y70079D01*
X31323Y70042D01*
X31473D01*
X31547Y70079D01*
X31621Y70154D01*
X31659Y70228D01*
X31696Y70340D01*
Y70526D02*Y70340D01*
Y70526D02*X31659Y70638D01*
X31621Y70713D01*
X31547Y70787D01*
X31473Y70824D01*
X31323D02*X31473D01*
X31435Y70191D02*X31659Y69968D01*
X32005Y70824D02*X32415D01*
X32191Y70526D01*
X32303D01*
X32377Y70489D01*
X32415Y70452D01*
X32452Y70340D01*
Y70266D01*
X32415Y70154D01*
X32340Y70079D01*
X32228Y70042D01*
X32117D02*X32228D01*
X32117D02*X32005Y70079D01*
X31968Y70117D01*
X31931Y70191D01*
X29400Y72707D02*Y72057D01*
Y72707D02*X29679D01*
X29771Y72676D01*
X29802Y72645D01*
X29833Y72584D01*
Y72522D01*
X29802Y72460D01*
X29771Y72429D01*
X29679Y72398D01*
X29400D02*X29679D01*
X29617D02*X29833Y72057D01*
X30338Y72707D02*X30028Y72274D01*
X30493D01*
X30338Y72707D02*Y72057D01*
X30250Y64357D02*Y63707D01*
Y64357D02*X30529D01*
X30621Y64326D01*
X30652Y64295D01*
X30683Y64234D01*
Y64172D01*
X30652Y64110D01*
X30621Y64079D01*
X30529Y64048D01*
X30250D02*X30529D01*
X30467D02*X30683Y63707D01*
X30940Y64357D02*X31250D01*
X30940D02*X30909Y64079D01*
X30940Y64110D01*
X31033Y64141D01*
X31126D01*
X31219Y64110D01*
X31281Y64048D01*
X31312Y63955D01*
Y63893D01*
X31281Y63800D01*
X31219Y63738D01*
X31126Y63707D01*
X31033D02*X31126D01*
X31033D02*X30940Y63738D01*
X30909Y63769D01*
X30878Y63831D01*
X30250Y65557D02*Y64907D01*
Y65557D02*X30529D01*
X30621Y65526D01*
X30652Y65495D01*
X30683Y65434D01*
Y65372D01*
X30652Y65310D01*
X30621Y65279D01*
X30529Y65248D01*
X30250D02*X30529D01*
X30467D02*X30683Y64907D01*
X31312Y65557D02*X31002Y64907D01*
X30878Y65557D02*X31312D01*
X29450Y66857D02*Y66207D01*
Y66857D02*X29729D01*
X29821Y66826D01*
X29852Y66795D01*
X29883Y66734D01*
Y66672D01*
X29852Y66610D01*
X29821Y66579D01*
X29729Y66548D01*
X29450D02*X29729D01*
X29667D02*X29883Y66207D01*
X30109Y66734D02*Y66703D01*
Y66734D02*X30140Y66795D01*
X30171Y66827D01*
X30233Y66857D01*
X30357D01*
X30419Y66827D01*
X30450Y66795D01*
X30481Y66734D01*
Y66672D01*
X30450Y66610D01*
X30388Y66517D01*
X30078Y66207D01*
X30512D01*
X25573Y70824D02*X25499Y70787D01*
X25424Y70713D01*
X25387Y70638D01*
X25350Y70526D01*
Y70340D01*
X25387Y70228D01*
X25424Y70154D01*
X25499Y70079D01*
X25573Y70042D01*
X25723D01*
X25797Y70079D01*
X25871Y70154D01*
X25909Y70228D01*
X25946Y70340D01*
Y70526D02*Y70340D01*
Y70526D02*X25909Y70638D01*
X25871Y70713D01*
X25797Y70787D01*
X25723Y70824D01*
X25573D02*X25723D01*
X25685Y70191D02*X25909Y69968D01*
X26181Y70676D02*X26255Y70713D01*
X26367Y70824D01*
Y70042D01*
X21034Y71603D02*Y70953D01*
Y71603D02*X21251D01*
X21344Y71572D01*
X21406Y71510D01*
X21436Y71449D01*
X21467Y71356D01*
Y71201D01*
X21436Y71108D01*
X21406Y71046D01*
X21344Y70984D01*
X21251Y70953D01*
X21034D02*X21251D01*
X21693Y71480D02*Y71449D01*
Y71480D02*X21724Y71541D01*
X21755Y71573D01*
X21817Y71603D01*
X21941D01*
X22003Y71573D01*
X22034Y71541D01*
X22065Y71480D01*
Y71418D01*
X22034Y71356D01*
X21972Y71263D01*
X21662Y70953D01*
X22096D01*
X21000Y69257D02*Y68607D01*
Y69257D02*X21217D01*
X21310Y69226D01*
X21372Y69164D01*
X21402Y69103D01*
X21433Y69010D01*
Y68855D01*
X21402Y68762D01*
X21372Y68700D01*
X21310Y68638D01*
X21217Y68607D01*
X21000D02*X21217D01*
X21690Y69257D02*X22031D01*
X21845Y69010D01*
X21938D01*
X22000Y68979D01*
X22031Y68948D01*
X22062Y68855D01*
Y68793D01*
X22031Y68700D01*
X21969Y68638D01*
X21876Y68607D01*
X21783D02*X21876D01*
X21783D02*X21690Y68638D01*
X21659Y68669D01*
X21628Y68731D01*
X31323Y76674D02*X31249Y76637D01*
X31174Y76563D01*
X31137Y76488D01*
X31100Y76376D01*
Y76190D01*
X31137Y76078D01*
X31174Y76004D01*
X31249Y75929D01*
X31323Y75892D01*
X31473D01*
X31547Y75929D01*
X31621Y76004D01*
X31659Y76078D01*
X31696Y76190D01*
Y76376D02*Y76190D01*
Y76376D02*X31659Y76488D01*
X31621Y76563D01*
X31547Y76637D01*
X31473Y76674D01*
X31323D02*X31473D01*
X31435Y76041D02*X31659Y75818D01*
X32303Y76674D02*X31931Y76153D01*
X32489D01*
X32303Y76674D02*Y75892D01*
X25523Y76724D02*X25449Y76687D01*
X25374Y76613D01*
X25337Y76538D01*
X25300Y76426D01*
Y76240D01*
X25337Y76128D01*
X25374Y76054D01*
X25449Y75979D01*
X25523Y75942D01*
X25673D01*
X25747Y75979D01*
X25821Y76054D01*
X25859Y76128D01*
X25896Y76240D01*
Y76426D02*Y76240D01*
Y76426D02*X25859Y76538D01*
X25821Y76613D01*
X25747Y76687D01*
X25673Y76724D01*
X25523D02*X25673D01*
X25635Y76091D02*X25859Y75868D01*
X26168Y76576D02*Y76538D01*
Y76576D02*X26205Y76650D01*
X26242Y76687D01*
X26317Y76724D01*
X26466D01*
X26540Y76687D01*
X26578Y76650D01*
X26615Y76576D01*
Y76501D01*
X26578Y76426D01*
X26503Y76315D01*
X26131Y75942D01*
X26652D01*
X23589Y86753D02*X23558Y86814D01*
X23496Y86876D01*
X23435Y86907D01*
X23311D02*X23435D01*
X23311D02*X23249Y86876D01*
X23187Y86814D01*
X23156Y86753D01*
X23125Y86660D01*
Y86505D01*
X23156Y86412D01*
X23187Y86350D01*
X23249Y86288D01*
X23311Y86257D01*
X23435D01*
X23496Y86288D01*
X23558Y86350D01*
X23589Y86412D01*
X23785Y86784D02*X23846Y86815D01*
X23939Y86907D01*
Y86257D01*
X24134Y86784D02*X24196Y86815D01*
X24289Y86907D01*
Y86257D01*
X16321Y83363D02*X16247Y83437D01*
X16135Y83474D01*
X15986D02*X16135D01*
X15986D02*X15874Y83437D01*
X15800Y83363D01*
Y83288D01*
X15837Y83214D01*
X15874Y83176D01*
X15949Y83139D01*
X16173Y83065D01*
X16247Y83027D01*
X16284Y82990D01*
X16321Y82916D01*
Y82804D01*
X16247Y82729D01*
X16135Y82692D01*
X15986D02*X16135D01*
X15986D02*X15874Y82729D01*
X15800Y82804D01*
X16630Y83474D02*X17040D01*
X16817Y83176D01*
X16929D01*
X17003Y83139D01*
X17040Y83102D01*
X17078Y82990D01*
Y82916D01*
X17040Y82804D01*
X16966Y82729D01*
X16854Y82692D01*
X16742D02*X16854D01*
X16742D02*X16630Y82729D01*
X16593Y82767D01*
X16556Y82841D01*
X25400Y82707D02*Y82243D01*
X25431Y82150D01*
X25493Y82088D01*
X25586Y82057D01*
X25648D01*
X25741Y82088D01*
X25802Y82150D01*
X25833Y82243D01*
Y82707D02*Y82243D01*
X26090Y82707D02*X26431D01*
X26245Y82460D01*
X26338D01*
X26400Y82429D01*
X26431Y82398D01*
X26462Y82305D01*
Y82243D01*
X26431Y82150D01*
X26369Y82088D01*
X26276Y82057D01*
X26183D02*X26276D01*
X26183D02*X26090Y82088D01*
X26059Y82119D01*
X26028Y82181D01*
X37614Y48403D02*X37583Y48464D01*
X37521Y48526D01*
X37460Y48557D01*
X37336D02*X37460D01*
X37336D02*X37274Y48526D01*
X37212Y48464D01*
X37181Y48403D01*
X37150Y48310D01*
Y48155D01*
X37181Y48062D01*
X37212Y48000D01*
X37274Y47938D01*
X37336Y47907D01*
X37460D01*
X37521Y47938D01*
X37583Y48000D01*
X37614Y48062D01*
X37810Y48434D02*X37871Y48465D01*
X37964Y48557D01*
Y47907D01*
X38469Y48557D02*X38159Y48124D01*
X38624D01*
X38469Y48557D02*Y47907D01*
X37864Y56903D02*X37833Y56964D01*
X37771Y57026D01*
X37710Y57057D01*
X37586D02*X37710D01*
X37586D02*X37524Y57026D01*
X37462Y56964D01*
X37431Y56903D01*
X37400Y56810D01*
Y56655D01*
X37431Y56562D01*
X37462Y56500D01*
X37524Y56438D01*
X37586Y56407D01*
X37710D01*
X37771Y56438D01*
X37833Y56500D01*
X37864Y56562D01*
X38431Y56965D02*X38400Y57027D01*
X38307Y57057D01*
X38245D02*X38307D01*
X38245D02*X38152Y57027D01*
X38090Y56934D01*
X38060Y56779D01*
Y56624D01*
X38090Y56500D01*
X38152Y56438D01*
X38245Y56407D01*
X38276D01*
X38369Y56438D01*
X38431Y56500D01*
X38462Y56593D01*
Y56624D02*Y56593D01*
Y56624D02*X38431Y56717D01*
X38369Y56779D01*
X38276Y56810D01*
X38245D02*X38276D01*
X38245D02*X38152Y56779D01*
X38090Y56717D01*
X38060Y56624D01*
X38550Y60307D02*Y59657D01*
Y60307D02*X38829D01*
X38921Y60276D01*
X38952Y60245D01*
X38983Y60184D01*
Y60122D01*
X38952Y60060D01*
X38921Y60029D01*
X38829Y59998D01*
X38550D02*X38829D01*
X38767D02*X38983Y59657D01*
X39178Y60184D02*X39240Y60215D01*
X39333Y60307D01*
Y59657D01*
X39838Y60307D02*X39528Y59874D01*
X39993D01*
X39838Y60307D02*Y59657D01*
X36650Y60307D02*Y59657D01*
Y60307D02*X36929D01*
X37021Y60276D01*
X37052Y60245D01*
X37083Y60184D01*
Y60122D01*
X37052Y60060D01*
X37021Y60029D01*
X36929Y59998D01*
X36650D02*X36929D01*
X36867D02*X37083Y59657D01*
X37278Y60184D02*X37340Y60215D01*
X37433Y60307D01*
Y59657D01*
X37690Y60307D02*X38031D01*
X37845Y60060D01*
X37938D01*
X38000Y60029D01*
X38031Y59998D01*
X38062Y59905D01*
Y59843D01*
X38031Y59750D01*
X37969Y59688D01*
X37876Y59657D01*
X37783D02*X37876D01*
X37783D02*X37690Y59688D01*
X37659Y59719D01*
X37628Y59781D01*
X26952Y48993D02*X26921Y49054D01*
X26859Y49116D01*
X26798Y49147D01*
X26674D02*X26798D01*
X26674D02*X26612Y49116D01*
X26550Y49054D01*
X26519Y48993D01*
X26488Y48900D01*
Y48745D01*
X26519Y48652D01*
X26550Y48590D01*
X26612Y48528D01*
X26674Y48497D01*
X26798D01*
X26859Y48528D01*
X26921Y48590D01*
X26952Y48652D01*
X27148Y49024D02*X27209Y49055D01*
X27302Y49147D01*
Y48497D01*
X27683Y49147D02*X27590Y49117D01*
X27528Y49024D01*
X27497Y48869D01*
Y48776D01*
X27528Y48621D01*
X27590Y48528D01*
X27683Y48497D01*
X27745D01*
X27838Y48528D01*
X27900Y48621D01*
X27931Y48776D01*
Y48869D02*Y48776D01*
Y48869D02*X27900Y49024D01*
X27838Y49117D01*
X27745Y49147D01*
X27683D02*X27745D01*
X24706Y48993D02*X24675Y49054D01*
X24613Y49116D01*
X24552Y49147D01*
X24428D02*X24552D01*
X24428D02*X24366Y49116D01*
X24304Y49054D01*
X24273Y48993D01*
X24242Y48900D01*
Y48745D01*
X24273Y48652D01*
X24304Y48590D01*
X24366Y48528D01*
X24428Y48497D01*
X24552D01*
X24613Y48528D01*
X24675Y48590D01*
X24706Y48652D01*
X25304Y48931D02*X25273Y48838D01*
X25211Y48776D01*
X25118Y48745D01*
X25087D02*X25118D01*
X25087D02*X24994Y48776D01*
X24932Y48838D01*
X24902Y48931D01*
Y48962D02*Y48931D01*
Y48962D02*X24932Y49055D01*
X24994Y49117D01*
X25087Y49147D01*
X25118D01*
X25211Y49117D01*
X25273Y49055D01*
X25304Y48931D01*
Y48776D01*
X25273Y48621D01*
X25211Y48528D01*
X25118Y48497D01*
X25056D02*X25118D01*
X25056D02*X24963Y48528D01*
X24932Y48590D01*
X22500Y50757D02*Y50293D01*
X22531Y50200D01*
X22593Y50138D01*
X22686Y50107D01*
X22748D01*
X22841Y50138D01*
X22902Y50200D01*
X22933Y50293D01*
Y50757D02*Y50293D01*
X23159Y50634D02*Y50603D01*
Y50634D02*X23190Y50695D01*
X23221Y50727D01*
X23283Y50757D01*
X23407D01*
X23469Y50727D01*
X23500Y50695D01*
X23531Y50634D01*
Y50572D01*
X23500Y50510D01*
X23438Y50417D01*
X23128Y50107D01*
X23562D01*
X21964Y43853D02*X21933Y43914D01*
X21871Y43976D01*
X21810Y44007D01*
X21686D02*X21810D01*
X21686D02*X21624Y43976D01*
X21562Y43914D01*
X21531Y43853D01*
X21500Y43760D01*
Y43605D01*
X21531Y43512D01*
X21562Y43450D01*
X21624Y43388D01*
X21686Y43357D01*
X21810D01*
X21871Y43388D01*
X21933Y43450D01*
X21964Y43512D01*
X22160Y43884D02*X22221Y43915D01*
X22314Y44007D01*
Y43357D01*
X22881Y43915D02*X22850Y43977D01*
X22757Y44007D01*
X22695D02*X22757D01*
X22695D02*X22602Y43977D01*
X22540Y43884D01*
X22509Y43729D01*
Y43574D01*
X22540Y43450D01*
X22602Y43388D01*
X22695Y43357D01*
X22726D01*
X22819Y43388D01*
X22881Y43450D01*
X22912Y43543D01*
Y43574D02*Y43543D01*
Y43574D02*X22881Y43667D01*
X22819Y43729D01*
X22726Y43760D01*
X22695D02*X22726D01*
X22695D02*X22602Y43729D01*
X22540Y43667D01*
X22509Y43574D01*
X25650Y33807D02*X26083Y33157D01*
Y33807D02*X25650Y33157D01*
X26278Y33684D02*X26340Y33715D01*
X26433Y33807D01*
Y33157D01*
X25514Y57903D02*X25483Y57964D01*
X25421Y58026D01*
X25360Y58057D01*
X25236D02*X25360D01*
X25236D02*X25174Y58026D01*
X25112Y57964D01*
X25081Y57903D01*
X25050Y57810D01*
Y57655D01*
X25081Y57562D01*
X25112Y57500D01*
X25174Y57438D01*
X25236Y57407D01*
X25360D01*
X25421Y57438D01*
X25483Y57500D01*
X25514Y57562D01*
X25864Y58057D02*X25771Y58027D01*
X25740Y57965D01*
Y57903D01*
X25771Y57841D01*
X25833Y57810D01*
X25957Y57779D01*
X26050Y57748D01*
X26112Y57686D01*
X26143Y57624D01*
Y57531D01*
X26112Y57469D01*
X26081Y57438D01*
X25988Y57407D01*
X25864D02*X25988D01*
X25864D02*X25771Y57438D01*
X25740Y57469D01*
X25710Y57531D01*
Y57624D02*Y57531D01*
Y57624D02*X25740Y57686D01*
X25802Y57748D01*
X25895Y57779D01*
X26019Y57810D01*
X26081Y57841D01*
X26112Y57903D01*
Y57965D02*Y57903D01*
Y57965D02*X26081Y58027D01*
X25988Y58057D01*
X25864D02*X25988D01*
X31114Y59503D02*X31083Y59564D01*
X31021Y59626D01*
X30960Y59657D01*
X30836D02*X30960D01*
X30836D02*X30774Y59626D01*
X30712Y59564D01*
X30681Y59503D01*
X30650Y59410D01*
Y59255D01*
X30681Y59162D01*
X30712Y59100D01*
X30774Y59038D01*
X30836Y59007D01*
X30960D01*
X31021Y59038D01*
X31083Y59100D01*
X31114Y59162D01*
X31743Y59657D02*X31433Y59007D01*
X31310Y59657D02*X31743D01*
X25514Y56403D02*X25483Y56464D01*
X25421Y56526D01*
X25360Y56557D01*
X25236D02*X25360D01*
X25236D02*X25174Y56526D01*
X25112Y56464D01*
X25081Y56403D01*
X25050Y56310D01*
Y56155D01*
X25081Y56062D01*
X25112Y56000D01*
X25174Y55938D01*
X25236Y55907D01*
X25360D01*
X25421Y55938D01*
X25483Y56000D01*
X25514Y56062D01*
X25771Y56557D02*X26112D01*
X25926Y56310D01*
X26019D01*
X26081Y56279D01*
X26112Y56248D01*
X26143Y56155D01*
Y56093D01*
X26112Y56000D01*
X26050Y55938D01*
X25957Y55907D01*
X25864D02*X25957D01*
X25864D02*X25771Y55938D01*
X25740Y55969D01*
X25710Y56031D01*
X30664Y44103D02*X30633Y44164D01*
X30571Y44226D01*
X30510Y44257D01*
X30386D02*X30510D01*
X30386D02*X30324Y44226D01*
X30262Y44164D01*
X30231Y44103D01*
X30200Y44010D01*
Y43855D01*
X30231Y43762D01*
X30262Y43700D01*
X30324Y43638D01*
X30386Y43607D01*
X30510D01*
X30571Y43638D01*
X30633Y43700D01*
X30664Y43762D01*
X30921Y44257D02*X31231D01*
X30921D02*X30890Y43979D01*
X30921Y44010D01*
X31014Y44041D01*
X31107D01*
X31200Y44010D01*
X31262Y43948D01*
X31293Y43855D01*
Y43793D01*
X31262Y43700D01*
X31200Y43638D01*
X31107Y43607D01*
X31014D02*X31107D01*
X31014D02*X30921Y43638D01*
X30890Y43669D01*
X30860Y43731D01*
X29064Y44103D02*X29033Y44164D01*
X28971Y44226D01*
X28910Y44257D01*
X28786D02*X28910D01*
X28786D02*X28724Y44226D01*
X28662Y44164D01*
X28631Y44103D01*
X28600Y44010D01*
Y43855D01*
X28631Y43762D01*
X28662Y43700D01*
X28724Y43638D01*
X28786Y43607D01*
X28910D01*
X28971Y43638D01*
X29033Y43700D01*
X29064Y43762D01*
X29569Y44257D02*X29260Y43824D01*
X29724D01*
X29569Y44257D02*Y43607D01*
M02*
