G04 start of page 14 for group -3984 idx -3984 *
G04 Title: (unknown), fab *
G04 Creator: pcb 1.99z *
G04 CreationDate: Tue Jan  9 22:59:25 2018 UTC *
G04 For: matt *
G04 Format: Gerber/RS-274X *
G04 PCB-Dimensions (mm): 60.96 109.22 *
G04 PCB-Coordinate-Origin: lower left *
%MOMM*%
%FSLAX43Y43*%
%LNFAB*%
%ADD88C,0.254*%
%ADD87C,0.152*%
%ADD86R,0.203X0.203*%
G54D86*X42774Y88036D02*X43586D01*
X42774D02*Y87224D01*
X43586D01*
Y88036D02*Y87224D01*
X17374Y88036D02*X18186D01*
X17374D02*Y87224D01*
X18186D01*
Y88036D02*Y87224D01*
X42774Y21996D02*X43586D01*
X42774D02*Y21184D01*
X43586D01*
Y21996D02*Y21184D01*
X17374Y21996D02*X18186D01*
X17374D02*Y21184D01*
X18186D01*
Y21996D02*Y21184D01*
X3404Y112484D02*X4216D01*
X3404D02*Y111671D01*
X4216D01*
Y112484D02*Y111671D01*
G54D87*X34290Y112649D02*X34870Y111923D01*
Y111125D01*
X35451Y112649D02*X34870Y111923D01*
X35909Y112649D02*Y111125D01*
Y112649D02*X36852D01*
X35909Y111923D02*X36489D01*
X35909Y111125D02*X36852D01*
X38325Y112431D02*X38180Y112576D01*
X37962Y112649D01*
X37672D02*X37962D01*
X37672D02*X37454Y112576D01*
X37309Y112431D01*
Y112286D01*
X37381Y112141D01*
X37454Y112068D01*
X37599Y111996D01*
X38035Y111851D01*
X38180Y111778D01*
X38252Y111706D01*
X38325Y111560D01*
Y111342D01*
X38180Y111198D01*
X37962Y111125D01*
X37672D02*X37962D01*
X37672D02*X37454Y111198D01*
X37309Y111342D01*
X25617Y112649D02*X24892Y111633D01*
X25980D01*
X25617Y112649D02*Y111125D01*
X11865Y112649D02*X11648Y112577D01*
X11502Y112359D01*
X11430Y111996D01*
Y111778D01*
X11502Y111415D01*
X11648Y111198D01*
X11865Y111125D01*
X12011D01*
X12228Y111198D01*
X12373Y111415D01*
X12446Y111778D01*
Y111996D02*Y111778D01*
Y111996D02*X12373Y112359D01*
X12228Y112577D01*
X12011Y112649D01*
X11865D02*X12011D01*
X12976Y111239D02*X12903Y111167D01*
X12976Y111095D01*
X13048Y111167D01*
X12976Y111239D01*
X13505Y112359D02*X13650Y112432D01*
X13868Y112649D01*
Y111125D01*
X14398Y112359D02*Y112286D01*
Y112359D02*X14470Y112504D01*
X14542Y112577D01*
X14688Y112649D01*
X14978D01*
X15123Y112577D01*
X15196Y112504D01*
X15268Y112359D01*
Y112214D01*
X15196Y112068D01*
X15051Y111851D01*
X14325Y111125D01*
X15341D01*
X15871Y112359D02*Y112286D01*
Y112359D02*X15943Y112504D01*
X16015Y112577D01*
X16161Y112649D01*
X16451D01*
X16596Y112577D01*
X16669Y112504D01*
X16741Y112359D01*
Y112214D01*
X16669Y112068D01*
X16524Y111851D01*
X15798Y111125D01*
X16814D01*
X27777Y19660D02*G75*G03X28183Y19660I203J0D01*G01*
G75*G03X27777Y19660I-203J0D01*G01*
X30277D02*G75*G03X30683Y19660I203J0D01*G01*
G75*G03X30277Y19660I-203J0D01*G01*
X32777D02*G75*G03X33183Y19660I203J0D01*G01*
G75*G03X32777Y19660I-203J0D01*G01*
Y22860D02*G75*G03X33183Y22860I203J0D01*G01*
G75*G03X32777Y22860I-203J0D01*G01*
X30277D02*G75*G03X30683Y22860I203J0D01*G01*
G75*G03X30277Y22860I-203J0D01*G01*
X27777D02*G75*G03X28183Y22860I203J0D01*G01*
G75*G03X27777Y22860I-203J0D01*G01*
X18720Y39370D02*G75*G03X19126Y39370I203J0D01*G01*
G75*G03X18720Y39370I-203J0D01*G01*
X18974Y36830D02*G75*G03X19380Y36830I203J0D01*G01*
G75*G03X18974Y36830I-203J0D01*G01*
X18720Y34290D02*G75*G03X19126Y34290I203J0D01*G01*
G75*G03X18720Y34290I-203J0D01*G01*
X18974Y31750D02*G75*G03X19380Y31750I203J0D01*G01*
G75*G03X18974Y31750I-203J0D01*G01*
X18720Y29210D02*G75*G03X19126Y29210I203J0D01*G01*
G75*G03X18720Y29210I-203J0D01*G01*
X18974Y26670D02*G75*G03X19380Y26670I203J0D01*G01*
G75*G03X18974Y26670I-203J0D01*G01*
X18847Y62230D02*G75*G03X19253Y62230I203J0D01*G01*
G75*G03X18847Y62230I-203J0D01*G01*
Y59690D02*G75*G03X19253Y59690I203J0D01*G01*
G75*G03X18847Y59690I-203J0D01*G01*
Y57150D02*G75*G03X19253Y57150I203J0D01*G01*
G75*G03X18847Y57150I-203J0D01*G01*
Y54610D02*G75*G03X19253Y54610I203J0D01*G01*
G75*G03X18847Y54610I-203J0D01*G01*
Y52070D02*G75*G03X19253Y52070I203J0D01*G01*
G75*G03X18847Y52070I-203J0D01*G01*
Y49530D02*G75*G03X19253Y49530I203J0D01*G01*
G75*G03X18847Y49530I-203J0D01*G01*
Y46990D02*G75*G03X19253Y46990I203J0D01*G01*
G75*G03X18847Y46990I-203J0D01*G01*
Y44450D02*G75*G03X19253Y44450I203J0D01*G01*
G75*G03X18847Y44450I-203J0D01*G01*
X41707D02*G75*G03X42113Y44450I203J0D01*G01*
G75*G03X41707Y44450I-203J0D01*G01*
Y46990D02*G75*G03X42113Y46990I203J0D01*G01*
G75*G03X41707Y46990I-203J0D01*G01*
Y49530D02*G75*G03X42113Y49530I203J0D01*G01*
G75*G03X41707Y49530I-203J0D01*G01*
Y52070D02*G75*G03X42113Y52070I203J0D01*G01*
G75*G03X41707Y52070I-203J0D01*G01*
Y54610D02*G75*G03X42113Y54610I203J0D01*G01*
G75*G03X41707Y54610I-203J0D01*G01*
Y57150D02*G75*G03X42113Y57150I203J0D01*G01*
G75*G03X41707Y57150I-203J0D01*G01*
Y59690D02*G75*G03X42113Y59690I203J0D01*G01*
G75*G03X41707Y59690I-203J0D01*G01*
Y62230D02*G75*G03X42113Y62230I203J0D01*G01*
G75*G03X41707Y62230I-203J0D01*G01*
X3607Y115888D02*G75*G03X4013Y115888I203J0D01*G01*
G75*G03X3607Y115888I-203J0D01*G01*
X34290Y116459D02*X34870Y115733D01*
Y114935D01*
X35451Y116459D02*X34870Y115733D01*
X35909Y116459D02*Y114935D01*
Y116459D02*X36852D01*
X35909Y115733D02*X36489D01*
X35909Y114935D02*X36852D01*
X38325Y116241D02*X38180Y116386D01*
X37962Y116459D01*
X37672D02*X37962D01*
X37672D02*X37454Y116386D01*
X37309Y116241D01*
Y116096D01*
X37381Y115951D01*
X37454Y115878D01*
X37599Y115806D01*
X38035Y115661D01*
X38180Y115588D01*
X38252Y115516D01*
X38325Y115370D01*
Y115152D01*
X38180Y115008D01*
X37962Y114935D01*
X37672D02*X37962D01*
X37672D02*X37454Y115008D01*
X37309Y115152D01*
X24964Y116169D02*Y116096D01*
Y116169D02*X25037Y116314D01*
X25109Y116387D01*
X25255Y116459D01*
X25545D01*
X25690Y116387D01*
X25763Y116314D01*
X25835Y116169D01*
Y116024D01*
X25763Y115878D01*
X25617Y115661D01*
X24892Y114935D01*
X25908D01*
X26728Y116459D02*X26510Y116387D01*
X26437Y116242D01*
Y116096D01*
X26510Y115951D01*
X26655Y115878D01*
X26945Y115806D01*
X27163Y115734D01*
X27308Y115588D01*
X27381Y115443D01*
Y115225D01*
X27308Y115080D01*
X27235Y115008D01*
X27018Y114935D01*
X26728D02*X27018D01*
X26728D02*X26510Y115008D01*
X26437Y115080D01*
X26365Y115225D01*
Y115443D02*Y115225D01*
Y115443D02*X26437Y115588D01*
X26582Y115734D01*
X26800Y115806D01*
X27090Y115878D01*
X27235Y115951D01*
X27308Y116096D01*
Y116242D02*Y116096D01*
Y116242D02*X27235Y116387D01*
X27018Y116459D01*
X26728D02*X27018D01*
X11865D02*X11648Y116387D01*
X11502Y116169D01*
X11430Y115806D01*
Y115588D01*
X11502Y115225D01*
X11648Y115008D01*
X11865Y114935D01*
X12011D01*
X12228Y115008D01*
X12373Y115225D01*
X12446Y115588D01*
Y115806D02*Y115588D01*
Y115806D02*X12373Y116169D01*
X12228Y116387D01*
X12011Y116459D01*
X11865D02*X12011D01*
X12976Y115049D02*X12903Y114977D01*
X12976Y114905D01*
X13048Y114977D01*
X12976Y115049D01*
X13941Y116459D02*X13723Y116387D01*
X13578Y116169D01*
X13505Y115806D01*
Y115588D01*
X13578Y115225D01*
X13723Y115008D01*
X13941Y114935D01*
X14086D01*
X14303Y115008D01*
X14449Y115225D01*
X14521Y115588D01*
Y115806D02*Y115588D01*
Y115806D02*X14449Y116169D01*
X14303Y116387D01*
X14086Y116459D01*
X13941D02*X14086D01*
X15123D02*X15922D01*
X15486Y115878D01*
X15704D01*
X15849Y115806D01*
X15922Y115734D01*
X15994Y115516D01*
Y115371D01*
X15922Y115153D01*
X15777Y115008D01*
X15559Y114935D01*
X15341D02*X15559D01*
X15341D02*X15123Y115008D01*
X15051Y115080D01*
X14979Y115225D01*
X17395Y115951D02*X17322Y115734D01*
X17177Y115588D01*
X16959Y115516D01*
X16887D02*X16959D01*
X16887D02*X16669Y115588D01*
X16524Y115734D01*
X16452Y115951D01*
Y116024D02*Y115951D01*
Y116024D02*X16524Y116242D01*
X16669Y116387D01*
X16887Y116459D01*
X16959D01*
X17177Y116387D01*
X17322Y116242D01*
X17395Y115951D01*
Y115588D01*
X17322Y115225D01*
X17177Y115008D01*
X16959Y114935D01*
X16814D02*X16959D01*
X16814D02*X16596Y115008D01*
X16524Y115153D01*
X30175Y79645D02*X30785Y79035D01*
X30175D02*X30785Y79645D01*
X30175Y27645D02*X30785Y27035D01*
X30175D02*X30785Y27645D01*
X3505Y120002D02*X4115Y119393D01*
X3505D02*X4115Y120002D01*
X34290Y120269D02*X34870Y119543D01*
Y118745D01*
X35451Y120269D02*X34870Y119543D01*
X35909Y120269D02*Y118745D01*
Y120269D02*X36852D01*
X35909Y119543D02*X36489D01*
X35909Y118745D02*X36852D01*
X38325Y120051D02*X38180Y120196D01*
X37962Y120269D01*
X37672D02*X37962D01*
X37672D02*X37454Y120196D01*
X37309Y120051D01*
Y119906D01*
X37381Y119761D01*
X37454Y119688D01*
X37599Y119616D01*
X38035Y119471D01*
X38180Y119398D01*
X38252Y119326D01*
X38325Y119180D01*
Y118962D01*
X38180Y118818D01*
X37962Y118745D01*
X37672D02*X37962D01*
X37672D02*X37454Y118818D01*
X37309Y118962D01*
X24964Y119979D02*Y119906D01*
Y119979D02*X25037Y120124D01*
X25109Y120197D01*
X25255Y120269D01*
X25545D01*
X25690Y120197D01*
X25763Y120124D01*
X25835Y119979D01*
Y119834D01*
X25763Y119688D01*
X25617Y119471D01*
X24892Y118745D01*
X25908D01*
X11865Y120269D02*X11648Y120197D01*
X11502Y119979D01*
X11430Y119616D01*
Y119398D01*
X11502Y119035D01*
X11648Y118818D01*
X11865Y118745D01*
X12011D01*
X12228Y118818D01*
X12373Y119035D01*
X12446Y119398D01*
Y119616D02*Y119398D01*
Y119616D02*X12373Y119979D01*
X12228Y120197D01*
X12011Y120269D01*
X11865D02*X12011D01*
X12976Y118859D02*X12903Y118787D01*
X12976Y118715D01*
X13048Y118787D01*
X12976Y118859D01*
X13941Y120269D02*X13723Y120197D01*
X13578Y119979D01*
X13505Y119616D01*
Y119398D01*
X13578Y119035D01*
X13723Y118818D01*
X13941Y118745D01*
X14086D01*
X14303Y118818D01*
X14449Y119035D01*
X14521Y119398D01*
Y119616D02*Y119398D01*
Y119616D02*X14449Y119979D01*
X14303Y120197D01*
X14086Y120269D01*
X13941D02*X14086D01*
X15123D02*X15922D01*
X15486Y119688D01*
X15704D01*
X15849Y119616D01*
X15922Y119544D01*
X15994Y119326D01*
Y119181D01*
X15922Y118963D01*
X15777Y118818D01*
X15559Y118745D01*
X15341D02*X15559D01*
X15341D02*X15123Y118818D01*
X15051Y118890D01*
X14979Y119035D01*
X16596Y120269D02*X17395D01*
X16959Y119688D01*
X17177D01*
X17322Y119616D01*
X17395Y119544D01*
X17467Y119326D01*
Y119181D01*
X17395Y118963D01*
X17250Y118818D01*
X17032Y118745D01*
X16814D02*X17032D01*
X16814D02*X16596Y118818D01*
X16524Y118890D01*
X16452Y119035D01*
X44550Y80926D02*Y80114D01*
X44144Y80520D02*X44956D01*
X44550Y78926D02*Y78114D01*
X44144Y78520D02*X44956D01*
X44550Y76926D02*Y76114D01*
X44144Y76520D02*X44956D01*
X44550Y74926D02*Y74114D01*
X44144Y74520D02*X44956D01*
X3810Y123914D02*Y123101D01*
X3404Y123508D02*X4216D01*
X34290Y124079D02*X34870Y123353D01*
Y122555D01*
X35451Y124079D02*X34870Y123353D01*
X35909Y124079D02*Y122555D01*
Y124079D02*X36852D01*
X35909Y123353D02*X36489D01*
X35909Y122555D02*X36852D01*
X38325Y123861D02*X38180Y124006D01*
X37962Y124079D01*
X37672D02*X37962D01*
X37672D02*X37454Y124006D01*
X37309Y123861D01*
Y123716D01*
X37381Y123571D01*
X37454Y123498D01*
X37599Y123426D01*
X38035Y123281D01*
X38180Y123208D01*
X38252Y123136D01*
X38325Y122990D01*
Y122772D01*
X38180Y122628D01*
X37962Y122555D01*
X37672D02*X37962D01*
X37672D02*X37454Y122628D01*
X37309Y122772D01*
X25617Y124079D02*X24892Y123063D01*
X25980D01*
X25617Y124079D02*Y122555D01*
X11865Y124079D02*X11648Y124007D01*
X11502Y123789D01*
X11430Y123426D01*
Y123208D01*
X11502Y122845D01*
X11648Y122628D01*
X11865Y122555D01*
X12011D01*
X12228Y122628D01*
X12373Y122845D01*
X12446Y123208D01*
Y123426D02*Y123208D01*
Y123426D02*X12373Y123789D01*
X12228Y124007D01*
X12011Y124079D01*
X11865D02*X12011D01*
X12976Y122669D02*X12903Y122597D01*
X12976Y122525D01*
X13048Y122597D01*
X12976Y122669D01*
X13941Y124079D02*X13723Y124007D01*
X13578Y123789D01*
X13505Y123426D01*
Y123208D01*
X13578Y122845D01*
X13723Y122628D01*
X13941Y122555D01*
X14086D01*
X14303Y122628D01*
X14449Y122845D01*
X14521Y123208D01*
Y123426D02*Y123208D01*
Y123426D02*X14449Y123789D01*
X14303Y124007D01*
X14086Y124079D01*
X13941D02*X14086D01*
X15123D02*X15922D01*
X15486Y123498D01*
X15704D01*
X15849Y123426D01*
X15922Y123354D01*
X15994Y123136D01*
Y122991D01*
X15922Y122773D01*
X15777Y122628D01*
X15559Y122555D01*
X15341D02*X15559D01*
X15341D02*X15123Y122628D01*
X15051Y122700D01*
X14979Y122845D01*
X16452Y123789D02*X16596Y123862D01*
X16814Y124079D01*
Y122555D01*
X38250Y41620D02*Y41214D01*
Y41620D02*X38602Y41823D01*
X38250Y41620D02*X37898Y41823D01*
X38250Y42370D02*Y41964D01*
Y42370D02*X38602Y42573D01*
X38250Y42370D02*X37898Y42573D01*
X38250Y43120D02*Y42714D01*
Y43120D02*X38602Y43323D01*
X38250Y43120D02*X37898Y43323D01*
X37500Y43120D02*Y42714D01*
Y43120D02*X37852Y43323D01*
X37500Y43120D02*X37148Y43323D01*
X37500Y42370D02*Y41964D01*
Y42370D02*X37852Y42573D01*
X37500Y42370D02*X37148Y42573D01*
X37500Y41620D02*Y41214D01*
Y41620D02*X37852Y41823D01*
X37500Y41620D02*X37148Y41823D01*
X29500Y54270D02*Y53864D01*
Y54270D02*X29852Y54473D01*
X29500Y54270D02*X29148Y54473D01*
X29500Y52370D02*Y51964D01*
Y52370D02*X29852Y52573D01*
X29500Y52370D02*X29148Y52573D01*
X31400Y52370D02*Y51964D01*
Y52370D02*X31752Y52573D01*
X31400Y52370D02*X31048Y52573D01*
X31400Y54270D02*Y53864D01*
Y54270D02*X31752Y54473D01*
X31400Y54270D02*X31048Y54473D01*
X33950Y72120D02*Y71714D01*
Y72120D02*X34302Y72323D01*
X33950Y72120D02*X33598Y72323D01*
X34700Y72120D02*Y71714D01*
Y72120D02*X35052Y72323D01*
X34700Y72120D02*X34348Y72323D01*
X28100Y72120D02*Y71714D01*
Y72120D02*X28452Y72323D01*
X28100Y72120D02*X27748Y72323D01*
X28850Y72120D02*Y71714D01*
Y72120D02*X29202Y72323D01*
X28850Y72120D02*X28498Y72323D01*
X39250Y53770D02*Y53364D01*
Y53770D02*X39602Y53973D01*
X39250Y53770D02*X38898Y53973D01*
X32200Y59270D02*Y58864D01*
Y59270D02*X32552Y59473D01*
X32200Y59270D02*X31848Y59473D01*
X30250Y59820D02*Y59414D01*
Y59820D02*X30602Y60023D01*
X30250Y59820D02*X29898Y60023D01*
X36650Y64820D02*Y64414D01*
Y64820D02*X37002Y65023D01*
X36650Y64820D02*X36298Y65023D01*
X31300Y57520D02*Y57114D01*
Y57520D02*X31652Y57723D01*
X31300Y57520D02*X30948Y57723D01*
X23250Y56970D02*Y56564D01*
Y56970D02*X23602Y57173D01*
X23250Y56970D02*X22898Y57173D01*
X44150Y59670D02*Y59264D01*
Y59670D02*X44502Y59873D01*
X44150Y59670D02*X43798Y59873D01*
X34300Y49920D02*Y49514D01*
Y49920D02*X34652Y50123D01*
X34300Y49920D02*X33948Y50123D01*
X34300Y49120D02*Y48714D01*
Y49120D02*X34652Y49323D01*
X34300Y49120D02*X33948Y49323D01*
X31700Y46820D02*Y46414D01*
Y46820D02*X32052Y47023D01*
X31700Y46820D02*X31348Y47023D01*
X28700Y49570D02*Y49164D01*
Y49570D02*X29052Y49773D01*
X28700Y49570D02*X28348Y49773D01*
X21100Y49570D02*Y49164D01*
Y49570D02*X21452Y49773D01*
X21100Y49570D02*X20748Y49773D01*
X30950Y73720D02*Y73314D01*
Y73720D02*X31302Y73923D01*
X30950Y73720D02*X30598Y73923D01*
X24950Y81420D02*Y81014D01*
Y81420D02*X25302Y81623D01*
X24950Y81420D02*X24598Y81623D01*
X30450Y53320D02*Y52914D01*
Y53320D02*X30802Y53523D01*
X30450Y53320D02*X30098Y53523D01*
X26450Y54920D02*Y54514D01*
Y54920D02*X26802Y55123D01*
X26450Y54920D02*X26098Y55123D01*
X26050Y54270D02*Y53864D01*
Y54270D02*X26402Y54473D01*
X26050Y54270D02*X25698Y54473D01*
X33950Y55970D02*Y55564D01*
Y55970D02*X34302Y56173D01*
X33950Y55970D02*X33598Y56173D01*
X34600Y55570D02*Y55164D01*
Y55570D02*X34952Y55773D01*
X34600Y55570D02*X34248Y55773D01*
X22860Y88900D02*Y88494D01*
Y88900D02*X23212Y89103D01*
X22860Y88900D02*X22508Y89103D01*
X28575Y88900D02*Y88494D01*
Y88900D02*X28927Y89103D01*
X28575Y88900D02*X28223Y89103D01*
X33020Y88900D02*Y88494D01*
Y88900D02*X33372Y89103D01*
X33020Y88900D02*X32668Y89103D01*
X30480Y86360D02*Y85954D01*
Y86360D02*X30832Y86563D01*
X30480Y86360D02*X30128Y86563D01*
X39370Y89535D02*Y89129D01*
Y89535D02*X39722Y89738D01*
X39370Y89535D02*X39018Y89738D01*
X22225Y75565D02*Y75159D01*
Y75565D02*X22577Y75768D01*
X22225Y75565D02*X21873Y75768D01*
X31115Y70485D02*Y70079D01*
Y70485D02*X31467Y70688D01*
X31115Y70485D02*X30763Y70688D01*
X24765Y67310D02*Y66904D01*
Y67310D02*X25117Y67513D01*
X24765Y67310D02*X24413Y67513D01*
X40640Y64770D02*Y64364D01*
Y64770D02*X40992Y64973D01*
X40640Y64770D02*X40288Y64973D01*
X27305Y61595D02*Y61189D01*
Y61595D02*X27657Y61798D01*
X27305Y61595D02*X26953Y61798D01*
X33020Y60960D02*Y60554D01*
Y60960D02*X33372Y61163D01*
X33020Y60960D02*X32668Y61163D01*
X34925Y59055D02*Y58649D01*
Y59055D02*X35277Y59258D01*
X34925Y59055D02*X34573Y59258D01*
X35560Y50165D02*Y49759D01*
Y50165D02*X35912Y50368D01*
X35560Y50165D02*X35208Y50368D01*
X25400Y50800D02*Y50394D01*
Y50800D02*X25752Y51003D01*
X25400Y50800D02*X25048Y51003D01*
X34925Y44450D02*Y44044D01*
Y44450D02*X35277Y44653D01*
X34925Y44450D02*X34573Y44653D01*
X23495Y41910D02*Y41504D01*
Y41910D02*X23847Y42113D01*
X23495Y41910D02*X23143Y42113D01*
X29210Y36830D02*Y36424D01*
Y36830D02*X29562Y37033D01*
X29210Y36830D02*X28858Y37033D01*
X32385Y32385D02*Y31979D01*
Y32385D02*X32737Y32588D01*
X32385Y32385D02*X32033Y32588D01*
X24130Y26670D02*Y26264D01*
Y26670D02*X24482Y26873D01*
X24130Y26670D02*X23778Y26873D01*
X36830Y21590D02*Y21184D01*
Y21590D02*X37182Y21793D01*
X36830Y21590D02*X36478Y21793D01*
X38735Y27940D02*Y27534D01*
Y27940D02*X39087Y28143D01*
X38735Y27940D02*X38383Y28143D01*
X36830Y27940D02*Y27534D01*
Y27940D02*X37182Y28143D01*
X36830Y27940D02*X36478Y28143D01*
X34925Y27940D02*Y27534D01*
Y27940D02*X35277Y28143D01*
X34925Y27940D02*X34573Y28143D01*
X43815Y29845D02*Y29439D01*
Y29845D02*X44167Y30048D01*
X43815Y29845D02*X43463Y30048D01*
X34150Y37920D02*Y37514D01*
Y37920D02*X34502Y38123D01*
X34150Y37920D02*X33798Y38123D01*
X31750Y40640D02*Y40234D01*
Y40640D02*X32102Y40843D01*
X31750Y40640D02*X31398Y40843D01*
X35550Y51530D02*Y51124D01*
Y51530D02*X35902Y51733D01*
X35550Y51530D02*X35198Y51733D01*
X22950Y48620D02*Y48214D01*
Y48620D02*X23302Y48823D01*
X22950Y48620D02*X22598Y48823D01*
X27550Y54570D02*Y54164D01*
Y54570D02*X27902Y54773D01*
X27550Y54570D02*X27198Y54773D01*
X27450Y55320D02*Y54914D01*
Y55320D02*X27802Y55523D01*
X27450Y55320D02*X27098Y55523D01*
X35800Y55970D02*Y55564D01*
Y55970D02*X36152Y56173D01*
X35800Y55970D02*X35448Y56173D01*
X36400Y55420D02*Y55014D01*
Y55420D02*X36752Y55623D01*
X36400Y55420D02*X36048Y55623D01*
X39400Y57820D02*Y57414D01*
Y57820D02*X39752Y58023D01*
X39400Y57820D02*X39048Y58023D01*
X39400Y51520D02*Y51114D01*
Y51520D02*X39752Y51723D01*
X39400Y51520D02*X39048Y51723D01*
X36300Y48120D02*Y47714D01*
Y48120D02*X36652Y48323D01*
X36300Y48120D02*X35948Y48323D01*
X34650Y54820D02*Y54414D01*
Y54820D02*X35002Y55023D01*
X34650Y54820D02*X34298Y55023D01*
X33450Y52120D02*Y51714D01*
Y52120D02*X33802Y52323D01*
X33450Y52120D02*X33098Y52323D01*
X36400Y54620D02*Y54214D01*
Y54620D02*X36752Y54823D01*
X36400Y54620D02*X36048Y54823D01*
X34350Y54070D02*Y53664D01*
Y54070D02*X34702Y54273D01*
X34350Y54070D02*X33998Y54273D01*
X44450Y64320D02*Y63914D01*
Y64320D02*X44802Y64523D01*
X44450Y64320D02*X44098Y64523D01*
X38650Y77720D02*Y77314D01*
Y77720D02*X39002Y77923D01*
X38650Y77720D02*X38298Y77923D01*
X37750Y79420D02*Y79014D01*
Y79420D02*X38102Y79623D01*
X37750Y79420D02*X37398Y79623D01*
X39550Y79270D02*Y78864D01*
Y79270D02*X39902Y79473D01*
X39550Y79270D02*X39198Y79473D01*
X40350Y79270D02*Y78864D01*
Y79270D02*X40702Y79473D01*
X40350Y79270D02*X39998Y79473D01*
X42550Y64720D02*Y64314D01*
Y64720D02*X42902Y64923D01*
X42550Y64720D02*X42198Y64923D01*
X43900Y69520D02*Y69114D01*
Y69520D02*X44252Y69723D01*
X43900Y69520D02*X43548Y69723D01*
X30000Y66220D02*Y65814D01*
Y66220D02*X30352Y66423D01*
X30000Y66220D02*X29648Y66423D01*
X35300Y66370D02*Y65964D01*
Y66370D02*X35652Y66573D01*
X35300Y66370D02*X34948Y66573D01*
X17650Y53270D02*Y52864D01*
Y53270D02*X18002Y53473D01*
X17650Y53270D02*X17298Y53473D01*
X20800Y63570D02*Y63164D01*
Y63570D02*X21152Y63773D01*
X20800Y63570D02*X20448Y63773D01*
X35050Y63220D02*Y62814D01*
Y63220D02*X35402Y63423D01*
X35050Y63220D02*X34698Y63423D01*
X21450Y70120D02*Y69714D01*
Y70120D02*X21802Y70323D01*
X21450Y70120D02*X21098Y70323D01*
X21450Y67920D02*Y67514D01*
Y67920D02*X21802Y68123D01*
X21450Y67920D02*X21098Y68123D01*
X20900Y78720D02*Y78314D01*
Y78720D02*X21252Y78923D01*
X20900Y78720D02*X20548Y78923D01*
X27900Y75320D02*Y74914D01*
Y75320D02*X28252Y75523D01*
X27900Y75320D02*X27548Y75523D01*
X28700Y75320D02*Y74914D01*
Y75320D02*X29052Y75523D01*
X28700Y75320D02*X28348Y75523D01*
X41600Y67870D02*Y67464D01*
Y67870D02*X41952Y68073D01*
X41600Y67870D02*X41248Y68073D01*
X30550Y58570D02*Y58164D01*
Y58570D02*X30902Y58773D01*
X30550Y58570D02*X30198Y58773D01*
X35800Y73120D02*Y72714D01*
Y73120D02*X36152Y73323D01*
X35800Y73120D02*X35448Y73323D01*
X42100Y78320D02*Y77914D01*
Y78320D02*X42452Y78523D01*
X42100Y78320D02*X41748Y78523D01*
X27750Y80320D02*Y79914D01*
Y80320D02*X28102Y80523D01*
X27750Y80320D02*X27398Y80523D01*
X16550Y42770D02*Y42364D01*
Y42770D02*X16902Y42973D01*
X16550Y42770D02*X16198Y42973D01*
X23250Y58820D02*Y58414D01*
Y58820D02*X23602Y59023D01*
X23250Y58820D02*X22898Y59023D01*
X18850Y73770D02*Y73364D01*
Y73770D02*X19202Y73973D01*
X18850Y73770D02*X18498Y73973D01*
X18850Y83370D02*Y82964D01*
Y83370D02*X19202Y83573D01*
X18850Y83370D02*X18498Y83573D01*
X44600Y71670D02*Y71264D01*
Y71670D02*X44952Y71873D01*
X44600Y71670D02*X44248Y71873D01*
X39750Y44820D02*Y44414D01*
Y44820D02*X40102Y45023D01*
X39750Y44820D02*X39398Y45023D01*
X16200Y26070D02*Y25664D01*
Y26070D02*X16552Y26273D01*
X16200Y26070D02*X15848Y26273D01*
X24100Y60770D02*Y60364D01*
Y60770D02*X24452Y60973D01*
X24100Y60770D02*X23748Y60973D01*
X22700Y68120D02*Y67714D01*
Y68120D02*X23052Y68323D01*
X22700Y68120D02*X22348Y68323D01*
X22900Y72620D02*Y72214D01*
Y72620D02*X23252Y72823D01*
X22900Y72620D02*X22548Y72823D01*
X25150Y77470D02*Y77064D01*
Y77470D02*X25502Y77673D01*
X25150Y77470D02*X24798Y77673D01*
X39057Y71580D02*Y71174D01*
Y71580D02*X39409Y71783D01*
X39057Y71580D02*X38705Y71783D01*
X36500Y81220D02*Y80814D01*
Y81220D02*X36852Y81423D01*
X36500Y81220D02*X36148Y81423D01*
X3810Y127318D02*Y126911D01*
Y127318D02*X4162Y127521D01*
X3810Y127318D02*X3458Y127521D01*
X34290Y127889D02*X34870Y127163D01*
Y126365D01*
X35451Y127889D02*X34870Y127163D01*
X35909Y127889D02*Y126365D01*
Y127889D02*X36852D01*
X35909Y127163D02*X36489D01*
X35909Y126365D02*X36852D01*
X38325Y127671D02*X38180Y127816D01*
X37962Y127889D01*
X37672D02*X37962D01*
X37672D02*X37454Y127816D01*
X37309Y127671D01*
Y127526D01*
X37381Y127381D01*
X37454Y127308D01*
X37599Y127236D01*
X38035Y127091D01*
X38180Y127018D01*
X38252Y126946D01*
X38325Y126800D01*
Y126582D01*
X38180Y126438D01*
X37962Y126365D01*
X37672D02*X37962D01*
X37672D02*X37454Y126438D01*
X37309Y126582D01*
X24892Y127599D02*X25037Y127672D01*
X25255Y127889D01*
Y126365D01*
X26147Y127889D02*X25930Y127817D01*
X25784Y127599D01*
X25712Y127236D01*
Y127018D01*
X25784Y126655D01*
X25930Y126438D01*
X26147Y126365D01*
X26293D01*
X26510Y126438D01*
X26655Y126655D01*
X26728Y127018D01*
Y127236D02*Y127018D01*
Y127236D02*X26655Y127599D01*
X26510Y127817D01*
X26293Y127889D01*
X26147D02*X26293D01*
X28201D02*X27475Y126365D01*
X27185Y127889D02*X28201D01*
X11865D02*X11648Y127817D01*
X11502Y127599D01*
X11430Y127236D01*
Y127018D01*
X11502Y126655D01*
X11648Y126438D01*
X11865Y126365D01*
X12011D01*
X12228Y126438D01*
X12373Y126655D01*
X12446Y127018D01*
Y127236D02*Y127018D01*
Y127236D02*X12373Y127599D01*
X12228Y127817D01*
X12011Y127889D01*
X11865D02*X12011D01*
X12976Y126479D02*X12903Y126407D01*
X12976Y126335D01*
X13048Y126407D01*
X12976Y126479D01*
X13941Y127889D02*X13723Y127817D01*
X13578Y127599D01*
X13505Y127236D01*
Y127018D01*
X13578Y126655D01*
X13723Y126438D01*
X13941Y126365D01*
X14086D01*
X14303Y126438D01*
X14449Y126655D01*
X14521Y127018D01*
Y127236D02*Y127018D01*
Y127236D02*X14449Y127599D01*
X14303Y127817D01*
X14086Y127889D01*
X13941D02*X14086D01*
X14979Y127599D02*X15123Y127672D01*
X15341Y127889D01*
Y126365D01*
X15871Y127599D02*Y127526D01*
Y127599D02*X15944Y127744D01*
X16016Y127817D01*
X16161Y127889D01*
X16451D01*
X16597Y127817D01*
X16669Y127744D01*
X16742Y127599D01*
Y127454D01*
X16669Y127308D01*
X16524Y127091D01*
X15798Y126365D01*
X16814D01*
X1016Y131481D02*X871Y131626D01*
X653Y131699D01*
X363D02*X653D01*
X363D02*X145Y131626D01*
X0Y131481D01*
Y131336D01*
X72Y131191D01*
X145Y131118D01*
X290Y131046D01*
X726Y130901D01*
X871Y130828D01*
X943Y130756D01*
X1016Y130610D01*
Y130393D01*
X871Y130248D01*
X653Y130175D01*
X363D02*X653D01*
X363D02*X145Y130248D01*
X0Y130393D01*
X1545Y131191D02*X1981Y130175D01*
X2416Y131191D02*X1981Y130175D01*
X1836Y129886D01*
X1691Y129740D01*
X1545Y129667D01*
X1473D02*X1545D01*
X2874Y131191D02*Y130175D01*
Y130901D02*X3091Y131119D01*
X3236Y131191D01*
X3454D01*
X3599Y131119D01*
X3671Y130901D01*
Y130175D01*
Y130901D02*X3889Y131119D01*
X4034Y131191D01*
X4252D01*
X4397Y131119D01*
X4470Y130901D01*
Y130175D01*
X4927Y131699D02*Y130175D01*
Y130974D02*X5072Y131119D01*
X5217Y131191D01*
X5435D01*
X5579Y131119D01*
X5725Y130974D01*
X5798Y130756D01*
Y130611D01*
X5725Y130393D01*
X5579Y130248D01*
X5435Y130175D01*
X5217D02*X5435D01*
X5217D02*X5072Y130248D01*
X4927Y130393D01*
X6618Y131191D02*X6472Y131119D01*
X6327Y130974D01*
X6255Y130756D01*
Y130611D01*
X6327Y130393D01*
X6472Y130248D01*
X6618Y130175D01*
X6835D01*
X6980Y130248D01*
X7125Y130393D01*
X7198Y130611D01*
Y130756D02*Y130611D01*
Y130756D02*X7125Y130974D01*
X6980Y131119D01*
X6835Y131191D01*
X6618D02*X6835D01*
X7655Y131699D02*Y130175D01*
X0Y129413D02*X8112D01*
X10414Y131699D02*Y130175D01*
Y131699D02*X10922D01*
X11140Y131626D01*
X11285Y131481D01*
X11357Y131336D01*
X11430Y131118D01*
Y130755D01*
X11357Y130538D01*
X11285Y130393D01*
X11140Y130248D01*
X10922Y130175D01*
X10414D02*X10922D01*
X11959Y131195D02*Y130179D01*
X11887Y131703D02*X11959Y131630D01*
X12032Y131703D01*
X11959Y131775D01*
X11887Y131703D01*
X13360Y131191D02*Y130175D01*
Y130974D02*X13215Y131119D01*
X13070Y131191D01*
X12852D02*X13070D01*
X12852D02*X12707Y131119D01*
X12562Y130974D01*
X12489Y130756D01*
Y130611D01*
X12562Y130393D01*
X12707Y130248D01*
X12852Y130175D01*
X13070D01*
X13215Y130248D01*
X13360Y130393D01*
X13818Y131191D02*Y130175D01*
Y130901D02*X14035Y131119D01*
X14180Y131191D01*
X14398D01*
X14543Y131119D01*
X14615Y130901D01*
Y130175D01*
Y130901D02*X14833Y131119D01*
X14978Y131191D01*
X15196D01*
X15341Y131119D01*
X15414Y130901D01*
Y130175D01*
X15943Y130289D02*X15871Y130217D01*
X15943Y130145D01*
X16015Y130217D01*
X15943Y130289D01*
X17666Y132080D02*X17521Y131935D01*
X17376Y131717D01*
X17230Y131427D01*
X17158Y131064D01*
Y130774D01*
X17230Y130411D01*
X17376Y130121D01*
X17521Y129903D01*
X17666Y129758D01*
X18124Y131699D02*X18505D01*
X18314D02*Y130175D01*
X18124D02*X18505D01*
X18962Y131191D02*Y130175D01*
Y130901D02*X19180Y131119D01*
X19324Y131191D01*
X19542D01*
X19687Y131119D01*
X19760Y130901D01*
Y130175D01*
X21088Y130974D02*X20943Y131119D01*
X20798Y131191D01*
X20580D02*X20798D01*
X20580D02*X20435Y131119D01*
X20290Y130974D01*
X20217Y130756D01*
Y130611D01*
X20290Y130393D01*
X20435Y130248D01*
X20580Y130175D01*
X20798D01*
X20943Y130248D01*
X21088Y130393D01*
X21545Y131699D02*Y130175D01*
Y130901D02*X21762Y131119D01*
X21908Y131191D01*
X22125D01*
X22271Y131119D01*
X22343Y130901D01*
Y130175D01*
X22801Y132080D02*X22945Y131935D01*
X23091Y131717D01*
X23236Y131427D01*
X23308Y131064D01*
Y130774D01*
X23236Y130411D01*
X23091Y130121D01*
X22945Y129903D01*
X22801Y129758D01*
X10414Y129413D02*X23765D01*
X25219Y131336D02*X25146Y131481D01*
X25001Y131626D01*
X24856Y131699D01*
X24565D02*X24856D01*
X24565D02*X24420Y131626D01*
X24275Y131481D01*
X24202Y131336D01*
X24130Y131118D01*
Y130755D01*
X24202Y130538D01*
X24275Y130393D01*
X24420Y130248D01*
X24565Y130175D01*
X24856D01*
X25001Y130248D01*
X25146Y130393D01*
X25219Y130538D01*
X26038Y131191D02*X25893Y131119D01*
X25748Y130974D01*
X25676Y130756D01*
Y130611D01*
X25748Y130393D01*
X25893Y130248D01*
X26038Y130175D01*
X26256D01*
X26401Y130248D01*
X26546Y130393D01*
X26619Y130611D01*
Y130756D02*Y130611D01*
Y130756D02*X26546Y130974D01*
X26401Y131119D01*
X26256Y131191D01*
X26038D02*X26256D01*
X27076D02*Y130466D01*
X27148Y130248D01*
X27294Y130175D01*
X27511D01*
X27657Y130248D01*
X27874Y130466D01*
Y131191D02*Y130175D01*
X28331Y131191D02*Y130175D01*
Y130901D02*X28549Y131119D01*
X28694Y131191D01*
X28912D01*
X29057Y131119D01*
X29130Y130901D01*
Y130175D01*
X29805Y131699D02*Y130465D01*
X29877Y130248D01*
X30022Y130175D01*
X30167D01*
X29587Y131191D02*X30095D01*
X24130Y129413D02*X30625D01*
X33020Y131699D02*Y130175D01*
Y131699D02*X33673D01*
X33891Y131626D01*
X33963Y131554D01*
X34036Y131409D01*
Y131191D01*
X33963Y131046D01*
X33891Y130973D01*
X33673Y130901D01*
X33020D02*X33673D01*
X34493Y131699D02*Y130175D01*
X35821Y131191D02*Y130175D01*
Y130974D02*X35676Y131119D01*
X35531Y131191D01*
X35313D02*X35531D01*
X35313D02*X35168Y131119D01*
X35023Y130974D01*
X34950Y130756D01*
Y130611D01*
X35023Y130393D01*
X35168Y130248D01*
X35313Y130175D01*
X35531D01*
X35676Y130248D01*
X35821Y130393D01*
X36496Y131699D02*Y130465D01*
X36568Y130248D01*
X36714Y130175D01*
X36859D01*
X36278Y131191D02*X36786D01*
X37316Y130756D02*X38186D01*
Y130901D02*Y130756D01*
Y130901D02*X38114Y131046D01*
X38042Y131119D01*
X37896Y131191D01*
X37679D02*X37896D01*
X37679D02*X37533Y131119D01*
X37388Y130974D01*
X37316Y130756D01*
Y130611D01*
X37388Y130393D01*
X37533Y130248D01*
X37679Y130175D01*
X37896D01*
X38042Y130248D01*
X38186Y130393D01*
X39514Y131699D02*Y130175D01*
Y130974D02*X39369Y131119D01*
X39224Y131191D01*
X39006D02*X39224D01*
X39006D02*X38861Y131119D01*
X38716Y130974D01*
X38644Y130756D01*
Y130611D01*
X38716Y130393D01*
X38861Y130248D01*
X39006Y130175D01*
X39224D01*
X39369Y130248D01*
X39514Y130393D01*
X39971Y131409D02*Y131336D01*
Y131409D02*X40044Y131554D01*
X40116Y131626D01*
X40261Y131699D01*
X40551D01*
X40697Y131626D01*
X40769Y131554D01*
X40841Y131409D01*
Y131264D01*
X40769Y131119D01*
X40697Y131046D01*
X40406Y130901D01*
Y130683D01*
Y130321D02*X40334Y130248D01*
X40406Y130175D01*
X40478Y130248D01*
X40406Y130321D01*
X33020Y129413D02*X41299D01*
X508Y135509D02*Y133985D01*
X0Y135509D02*X1016D01*
X1473D02*Y133985D01*
Y134711D02*X1690Y134929D01*
X1836Y135001D01*
X2053D01*
X2198Y134929D01*
X2271Y134711D01*
Y133985D01*
X2728Y134566D02*X3599D01*
Y134711D02*Y134566D01*
Y134711D02*X3526Y134856D01*
X3454Y134929D01*
X3309Y135001D01*
X3091D02*X3309D01*
X3091D02*X2946Y134929D01*
X2800Y134784D01*
X2728Y134566D01*
Y134421D01*
X2800Y134203D01*
X2946Y134058D01*
X3091Y133985D01*
X3309D01*
X3454Y134058D01*
X3599Y134203D01*
X4056Y135001D02*Y133985D01*
Y134566D02*X4128Y134784D01*
X4274Y134929D01*
X4418Y135001D01*
X4636D01*
X5094Y134566D02*X5964D01*
Y134711D02*Y134566D01*
Y134711D02*X5891Y134856D01*
X5819Y134929D01*
X5674Y135001D01*
X5456D02*X5674D01*
X5456D02*X5311Y134929D01*
X5166Y134784D01*
X5094Y134566D01*
Y134421D01*
X5166Y134203D01*
X5311Y134058D01*
X5456Y133985D01*
X5674D01*
X5819Y134058D01*
X5964Y134203D01*
X7978Y135001D02*Y133985D01*
Y134784D02*X7832Y134929D01*
X7687Y135001D01*
X7469D02*X7687D01*
X7469D02*X7325Y134929D01*
X7179Y134784D01*
X7107Y134566D01*
Y134421D01*
X7179Y134203D01*
X7325Y134058D01*
X7469Y133985D01*
X7687D01*
X7832Y134058D01*
X7978Y134203D01*
X8435Y135001D02*Y133985D01*
Y134566D02*X8507Y134784D01*
X8653Y134929D01*
X8798Y135001D01*
X9015D01*
X9473Y134566D02*X10343D01*
Y134711D02*Y134566D01*
Y134711D02*X10271Y134856D01*
X10198Y134929D01*
X10053Y135001D01*
X9835D02*X10053D01*
X9835D02*X9690Y134929D01*
X9545Y134784D01*
X9473Y134566D01*
Y134421D01*
X9545Y134203D01*
X9690Y134058D01*
X9835Y133985D01*
X10053D01*
X10198Y134058D01*
X10343Y134203D01*
X11631Y135509D02*X12357D01*
X11631D02*X11558Y134856D01*
X11631Y134928D01*
X11849Y135001D01*
X12066D01*
X12284Y134928D01*
X12429Y134784D01*
X12502Y134566D01*
Y134421D01*
X12429Y134203D01*
X12284Y134058D01*
X12066Y133985D01*
X11849D02*X12066D01*
X11849D02*X11631Y134058D01*
X11558Y134130D01*
X11486Y134275D01*
X14515Y135509D02*Y133985D01*
Y134784D02*X14370Y134929D01*
X14225Y135001D01*
X14008D02*X14225D01*
X14008D02*X13862Y134929D01*
X13717Y134784D01*
X13645Y134566D01*
Y134421D01*
X13717Y134203D01*
X13862Y134058D01*
X14008Y133985D01*
X14225D01*
X14370Y134058D01*
X14515Y134203D01*
X15045Y135005D02*Y133989D01*
X14972Y135513D02*X15045Y135440D01*
X15117Y135513D01*
X15045Y135585D01*
X14972Y135513D01*
X16010Y135509D02*X16155D01*
X16010D02*X15865Y135437D01*
X15792Y135219D01*
Y133985D01*
X15575Y135001D02*X16083D01*
X17048Y135509D02*X17192D01*
X17048D02*X16902Y135437D01*
X16829Y135219D01*
Y133985D01*
X16612Y135001D02*X17120D01*
X17649Y134566D02*X18520D01*
Y134711D02*Y134566D01*
Y134711D02*X18447Y134856D01*
X18375Y134929D01*
X18230Y135001D01*
X18012D02*X18230D01*
X18012D02*X17867Y134929D01*
X17721Y134784D01*
X17649Y134566D01*
Y134421D01*
X17721Y134203D01*
X17867Y134058D01*
X18012Y133985D01*
X18230D01*
X18375Y134058D01*
X18520Y134203D01*
X18977Y135001D02*Y133985D01*
Y134566D02*X19049Y134784D01*
X19195Y134929D01*
X19340Y135001D01*
X19557D01*
X20015Y134566D02*X20885D01*
Y134711D02*Y134566D01*
Y134711D02*X20813Y134856D01*
X20740Y134929D01*
X20595Y135001D01*
X20377D02*X20595D01*
X20377D02*X20232Y134929D01*
X20087Y134784D01*
X20015Y134566D01*
Y134421D01*
X20087Y134203D01*
X20232Y134058D01*
X20377Y133985D01*
X20595D01*
X20740Y134058D01*
X20885Y134203D01*
X21342Y135001D02*Y133985D01*
Y134711D02*X21560Y134929D01*
X21705Y135001D01*
X21923D01*
X22067Y134929D01*
X22140Y134711D01*
Y133985D01*
X22815Y135509D02*Y134275D01*
X22887Y134058D01*
X23033Y133985D01*
X23178D01*
X22597Y135001D02*X23105D01*
X25191Y135509D02*Y133985D01*
Y134784D02*X25046Y134929D01*
X24901Y135001D01*
X24684D02*X24901D01*
X24684D02*X24538Y134929D01*
X24393Y134784D01*
X24321Y134566D01*
Y134421D01*
X24393Y134203D01*
X24538Y134058D01*
X24684Y133985D01*
X24901D01*
X25046Y134058D01*
X25191Y134203D01*
X25648Y135001D02*Y133985D01*
Y134566D02*X25721Y134784D01*
X25866Y134929D01*
X26011Y135001D01*
X26229D01*
X26759Y135005D02*Y133989D01*
X26686Y135513D02*X26759Y135440D01*
X26831Y135513D01*
X26759Y135585D01*
X26686Y135513D01*
X27289Y135509D02*Y133985D01*
X27746Y135509D02*Y133985D01*
X29687Y134784D02*X29614Y134929D01*
X29396Y135001D01*
X29179D02*X29396D01*
X29179D02*X28961Y134929D01*
X28889Y134784D01*
X28961Y134638D01*
X29106Y134566D01*
X29469Y134493D01*
X29614Y134421D01*
X29687Y134276D01*
Y134203D01*
X29614Y134058D01*
X29396Y133985D01*
X29179D02*X29396D01*
X29179D02*X28961Y134058D01*
X28889Y134203D01*
X30216Y135005D02*Y133989D01*
X30144Y135513D02*X30216Y135440D01*
X30289Y135513D01*
X30216Y135585D01*
X30144Y135513D01*
X31544Y135001D02*X30746Y133985D01*
Y135001D02*X31544D01*
X30746Y133985D02*X31544D01*
X32002Y134566D02*X32872D01*
Y134711D02*Y134566D01*
Y134711D02*X32799Y134856D01*
X32727Y134929D01*
X32582Y135001D01*
X32364D02*X32582D01*
X32364D02*X32219Y134929D01*
X32074Y134784D01*
X32002Y134566D01*
Y134421D01*
X32074Y134203D01*
X32219Y134058D01*
X32364Y133985D01*
X32582D01*
X32727Y134058D01*
X32872Y134203D01*
X34127Y134784D02*X34054Y134929D01*
X33836Y135001D01*
X33619D02*X33836D01*
X33619D02*X33401Y134929D01*
X33329Y134784D01*
X33401Y134638D01*
X33546Y134566D01*
X33909Y134493D01*
X34054Y134421D01*
X34127Y134276D01*
Y134203D01*
X34054Y134058D01*
X33836Y133985D01*
X33619D02*X33836D01*
X33619D02*X33401Y134058D01*
X33329Y134203D01*
X35270Y135001D02*Y134276D01*
X35342Y134058D01*
X35488Y133985D01*
X35705D01*
X35850Y134058D01*
X36068Y134276D01*
Y135001D02*Y133985D01*
X37323Y134784D02*X37251Y134929D01*
X37033Y135001D01*
X36815D02*X37033D01*
X36815D02*X36597Y134929D01*
X36525Y134784D01*
X36597Y134638D01*
X36742Y134566D01*
X37105Y134493D01*
X37251Y134421D01*
X37323Y134276D01*
Y134203D01*
X37251Y134058D01*
X37033Y133985D01*
X36815D02*X37033D01*
X36815D02*X36597Y134058D01*
X36525Y134203D01*
X37780Y134566D02*X38650D01*
Y134711D02*Y134566D01*
Y134711D02*X38578Y134856D01*
X38506Y134929D01*
X38360Y135001D01*
X38143D02*X38360D01*
X38143D02*X37997Y134929D01*
X37852Y134784D01*
X37780Y134566D01*
Y134421D01*
X37852Y134203D01*
X37997Y134058D01*
X38143Y133985D01*
X38360D01*
X38506Y134058D01*
X38650Y134203D01*
X39978Y135509D02*Y133985D01*
Y134784D02*X39833Y134929D01*
X39688Y135001D01*
X39470D02*X39688D01*
X39470D02*X39325Y134929D01*
X39180Y134784D01*
X39108Y134566D01*
Y134421D01*
X39180Y134203D01*
X39325Y134058D01*
X39470Y133985D01*
X39688D01*
X39833Y134058D01*
X39978Y134203D01*
X41193Y135005D02*Y133989D01*
X41121Y135513D02*X41193Y135440D01*
X41266Y135513D01*
X41193Y135585D01*
X41121Y135513D01*
X41723Y135001D02*Y133985D01*
Y134711D02*X41941Y134929D01*
X42086Y135001D01*
X42304D01*
X42449Y134929D01*
X42521Y134711D01*
Y133985D01*
X43882Y135509D02*Y134275D01*
X43954Y134058D01*
X44100Y133985D01*
X44245D01*
X43664Y135001D02*X44172D01*
X44702Y135509D02*Y133985D01*
Y134711D02*X44919Y134929D01*
X45065Y135001D01*
X45282D01*
X45428Y134929D01*
X45500Y134711D01*
Y133985D01*
X46030Y135005D02*Y133989D01*
X45958Y135513D02*X46030Y135440D01*
X46103Y135513D01*
X46030Y135585D01*
X45958Y135513D01*
X47358Y134784D02*X47285Y134929D01*
X47067Y135001D01*
X46850D02*X47067D01*
X46850D02*X46632Y134929D01*
X46560Y134784D01*
X46632Y134638D01*
X46777Y134566D01*
X47140Y134493D01*
X47285Y134421D01*
X47358Y134276D01*
Y134203D01*
X47285Y134058D01*
X47067Y133985D01*
X46850D02*X47067D01*
X46850D02*X46632Y134058D01*
X46560Y134203D01*
X48501Y135509D02*Y133985D01*
X49829Y135001D02*Y133985D01*
Y134784D02*X49683Y134929D01*
X49539Y135001D01*
X49321D02*X49539D01*
X49321D02*X49176Y134929D01*
X49030Y134784D01*
X48958Y134566D01*
Y134421D01*
X49030Y134203D01*
X49176Y134058D01*
X49321Y133985D01*
X49539D01*
X49683Y134058D01*
X49829Y134203D01*
X50359Y135001D02*X50794Y133985D01*
X51229Y135001D02*X50794Y133985D01*
X50649Y133696D01*
X50504Y133550D01*
X50359Y133477D01*
X50286D02*X50359D01*
X52049Y135001D02*X51904Y134929D01*
X51759Y134784D01*
X51687Y134566D01*
Y134421D01*
X51759Y134203D01*
X51904Y134058D01*
X52049Y133985D01*
X52267D01*
X52412Y134058D01*
X52557Y134203D01*
X52630Y134421D01*
Y134566D02*Y134421D01*
Y134566D02*X52557Y134784D01*
X52412Y134929D01*
X52267Y135001D01*
X52049D02*X52267D01*
X53087D02*Y134276D01*
X53159Y134058D01*
X53305Y133985D01*
X53522D01*
X53668Y134058D01*
X53885Y134276D01*
Y135001D02*Y133985D01*
X54560Y135509D02*Y134275D01*
X54632Y134058D01*
X54778Y133985D01*
X54923D01*
X54342Y135001D02*X54850D01*
X55525Y134027D02*X55453Y133955D01*
X55380Y134027D01*
X55453Y134099D01*
X55525Y134027D01*
Y133882D01*
X55380Y133737D01*
X56668Y135219D02*X56813Y135292D01*
X57031Y135509D01*
Y133985D01*
X58214Y135509D02*X57488Y134493D01*
X58576D01*
X58214Y135509D02*Y133985D01*
X59179Y135509D02*X59904D01*
X59179D02*X59106Y134856D01*
X59179Y134928D01*
X59396Y135001D01*
X59614D01*
X59832Y134928D01*
X59977Y134784D01*
X60050Y134566D01*
Y134421D01*
X59977Y134203D01*
X59832Y134058D01*
X59614Y133985D01*
X59396D02*X59614D01*
X59396D02*X59179Y134058D01*
X59106Y134130D01*
X59033Y134275D01*
X61193Y135509D02*Y133985D01*
Y134711D02*X61410Y134929D01*
X61555Y135001D01*
X61773D01*
X61918Y134929D01*
X61991Y134711D01*
Y133985D01*
X62811Y135001D02*X62665Y134929D01*
X62520Y134784D01*
X62448Y134566D01*
Y134421D01*
X62520Y134203D01*
X62665Y134058D01*
X62811Y133985D01*
X63028D01*
X63173Y134058D01*
X63318Y134203D01*
X63391Y134421D01*
Y134566D02*Y134421D01*
Y134566D02*X63318Y134784D01*
X63173Y134929D01*
X63028Y135001D01*
X62811D02*X63028D01*
X63848Y135509D02*Y133985D01*
X64305Y134566D02*X65176D01*
Y134711D02*Y134566D01*
Y134711D02*X65103Y134856D01*
X65031Y134929D01*
X64886Y135001D01*
X64668D02*X64886D01*
X64668D02*X64523Y134929D01*
X64377Y134784D01*
X64305Y134566D01*
Y134421D01*
X64377Y134203D01*
X64523Y134058D01*
X64668Y133985D01*
X64886D01*
X65031Y134058D01*
X65176Y134203D01*
X66431Y134784D02*X66358Y134929D01*
X66140Y135001D01*
X65923D02*X66140D01*
X65923D02*X65705Y134929D01*
X65633Y134784D01*
X65705Y134638D01*
X65850Y134566D01*
X66213Y134493D01*
X66358Y134421D01*
X66431Y134276D01*
Y134203D01*
X66358Y134058D01*
X66140Y133985D01*
X65923D02*X66140D01*
X65923D02*X65705Y134058D01*
X65633Y134203D01*
X67792Y135509D02*Y134275D01*
X67864Y134058D01*
X68009Y133985D01*
X68154D01*
X67574Y135001D02*X68081D01*
X68974D02*X68829Y134929D01*
X68683Y134784D01*
X68611Y134566D01*
Y134421D01*
X68683Y134203D01*
X68829Y134058D01*
X68974Y133985D01*
X69192D01*
X69337Y134058D01*
X69482Y134203D01*
X69554Y134421D01*
Y134566D02*Y134421D01*
Y134566D02*X69482Y134784D01*
X69337Y134929D01*
X69192Y135001D01*
X68974D02*X69192D01*
X70230Y135509D02*Y134275D01*
X70302Y134058D01*
X70447Y133985D01*
X70592D01*
X70012Y135001D02*X70520D01*
X71920D02*Y133985D01*
Y134784D02*X71775Y134929D01*
X71630Y135001D01*
X71412D02*X71630D01*
X71412D02*X71267Y134929D01*
X71122Y134784D01*
X71050Y134566D01*
Y134421D01*
X71122Y134203D01*
X71267Y134058D01*
X71412Y133985D01*
X71630D01*
X71775Y134058D01*
X71920Y134203D01*
X72378Y135509D02*Y133985D01*
G54D88*X17780Y91440D02*X43180D01*
Y17780D02*X17780D01*
X13970Y87630D02*Y21590D01*
X46990D02*Y87630D01*
X17780Y91440D02*G75*G03X13970Y87630I0J-3810D01*G01*
X46990D02*G75*G03X43180Y91440I-3810J0D01*G01*
X46990Y21590D02*G75*G02X43180Y17780I-3810J0D01*G01*
X13970Y21590D02*G75*G03X17780Y17780I3810J0D01*G01*
G54D87*X7143Y-889D02*Y-2413D01*
Y-889D02*X7796D01*
X8013Y-962D01*
X8086Y-1034D01*
X8158Y-1180D01*
Y-1324D01*
X8086Y-1470D01*
X8013Y-1542D01*
X7796Y-1615D01*
X7143D02*X7796D01*
X8013Y-1687D01*
X8086Y-1760D01*
X8158Y-1905D01*
Y-2123D01*
X8086Y-2268D01*
X8013Y-2340D01*
X7796Y-2413D01*
X7143D02*X7796D01*
X8978Y-1397D02*X8833Y-1469D01*
X8688Y-1614D01*
X8616Y-1832D01*
Y-1977D01*
X8688Y-2195D01*
X8833Y-2340D01*
X8978Y-2413D01*
X9196D01*
X9341Y-2340D01*
X9486Y-2195D01*
X9559Y-1977D01*
Y-1832D02*Y-1977D01*
Y-1832D02*X9486Y-1614D01*
X9341Y-1469D01*
X9196Y-1397D01*
X8978D02*X9196D01*
X10887D02*Y-2413D01*
Y-1614D02*X10741Y-1469D01*
X10597Y-1397D01*
X10379D02*X10597D01*
X10379D02*X10234Y-1469D01*
X10088Y-1614D01*
X10016Y-1832D01*
Y-1977D01*
X10088Y-2195D01*
X10234Y-2340D01*
X10379Y-2413D01*
X10597D01*
X10741Y-2340D01*
X10887Y-2195D01*
X11344Y-1397D02*Y-2413D01*
Y-1832D02*X11416Y-1614D01*
X11562Y-1469D01*
X11707Y-1397D01*
X11925D01*
X13252Y-889D02*Y-2413D01*
Y-1614D02*X13107Y-1469D01*
X12962Y-1397D01*
X12745D02*X12962D01*
X12745D02*X12599Y-1469D01*
X12454Y-1614D01*
X12382Y-1832D01*
Y-1977D01*
X12454Y-2195D01*
X12599Y-2340D01*
X12745Y-2413D01*
X12962D01*
X13107Y-2340D01*
X13252Y-2195D01*
X14758Y-1397D02*X14612Y-1469D01*
X14467Y-1614D01*
X14395Y-1832D01*
Y-1977D01*
X14467Y-2195D01*
X14612Y-2340D01*
X14758Y-2413D01*
X14975D01*
X15120Y-2340D01*
X15265Y-2195D01*
X15338Y-1977D01*
Y-1832D02*Y-1977D01*
Y-1832D02*X15265Y-1614D01*
X15120Y-1469D01*
X14975Y-1397D01*
X14758D02*X14975D01*
X15795D02*Y-2122D01*
X15868Y-2340D01*
X16013Y-2413D01*
X16231D01*
X16376Y-2340D01*
X16593Y-2122D01*
Y-1397D02*Y-2413D01*
X17269Y-889D02*Y-2123D01*
X17341Y-2340D01*
X17486Y-2413D01*
X17631D01*
X17051Y-1397D02*X17558D01*
X18088Y-889D02*Y-2413D01*
X18618Y-1393D02*Y-2409D01*
X18546Y-885D02*X18618Y-958D01*
X18691Y-885D01*
X18618Y-813D01*
X18546Y-885D01*
X19148Y-1397D02*Y-2413D01*
Y-1687D02*X19366Y-1469D01*
X19511Y-1397D01*
X19729D01*
X19873Y-1469D01*
X19946Y-1687D01*
Y-2413D01*
X20403Y-1832D02*X21274D01*
Y-1687D02*Y-1832D01*
Y-1687D02*X21201Y-1542D01*
X21129Y-1469D01*
X20984Y-1397D01*
X20766D02*X20984D01*
X20766D02*X20621Y-1469D01*
X20475Y-1614D01*
X20403Y-1832D01*
Y-1977D01*
X20475Y-2195D01*
X20621Y-2340D01*
X20766Y-2413D01*
X20984D01*
X21129Y-2340D01*
X21274Y-2195D01*
X22489Y-1393D02*Y-2409D01*
X22417Y-885D02*X22489Y-958D01*
X22562Y-885D01*
X22489Y-813D01*
X22417Y-885D01*
X23817Y-1614D02*X23744Y-1469D01*
X23526Y-1397D01*
X23309D02*X23526D01*
X23309D02*X23091Y-1469D01*
X23019Y-1614D01*
X23091Y-1760D01*
X23236Y-1832D01*
X23599Y-1905D01*
X23744Y-1977D01*
X23817Y-2122D01*
Y-2195D01*
X23744Y-2340D01*
X23526Y-2413D01*
X23309D02*X23526D01*
X23309D02*X23091Y-2340D01*
X23019Y-2195D01*
X25178Y-889D02*Y-2123D01*
X25250Y-2340D01*
X25395Y-2413D01*
X25540D01*
X24960Y-1397D02*X25468D01*
X25998Y-889D02*Y-2413D01*
Y-1687D02*X26215Y-1469D01*
X26360Y-1397D01*
X26578D01*
X26723Y-1469D01*
X26796Y-1687D01*
Y-2413D01*
X27253Y-1832D02*X28123D01*
Y-1687D02*Y-1832D01*
Y-1687D02*X28051Y-1542D01*
X27978Y-1469D01*
X27833Y-1397D01*
X27616D02*X27833D01*
X27616D02*X27470Y-1469D01*
X27325Y-1614D01*
X27253Y-1832D01*
Y-1977D01*
X27325Y-2195D01*
X27470Y-2340D01*
X27616Y-2413D01*
X27833D01*
X27978Y-2340D01*
X28123Y-2195D01*
X30137Y-1614D02*X29992Y-1469D01*
X29847Y-1397D01*
X29629D02*X29847D01*
X29629D02*X29484Y-1469D01*
X29339Y-1614D01*
X29266Y-1832D01*
Y-1977D01*
X29339Y-2195D01*
X29484Y-2340D01*
X29629Y-2413D01*
X29847D01*
X29992Y-2340D01*
X30137Y-2195D01*
X30594Y-1832D02*X31464D01*
Y-1687D02*Y-1832D01*
Y-1687D02*X31392Y-1542D01*
X31320Y-1469D01*
X31174Y-1397D01*
X30957D02*X31174D01*
X30957D02*X30811Y-1469D01*
X30666Y-1614D01*
X30594Y-1832D01*
Y-1977D01*
X30666Y-2195D01*
X30811Y-2340D01*
X30957Y-2413D01*
X31174D01*
X31320Y-2340D01*
X31464Y-2195D01*
X31922Y-1397D02*Y-2413D01*
Y-1687D02*X32140Y-1469D01*
X32284Y-1397D01*
X32502D01*
X32647Y-1469D01*
X32720Y-1687D01*
Y-2413D01*
X33395Y-889D02*Y-2123D01*
X33467Y-2340D01*
X33612Y-2413D01*
X33758D01*
X33177Y-1397D02*X33685D01*
X34215Y-1832D02*X35085D01*
Y-1687D02*Y-1832D01*
Y-1687D02*X35013Y-1542D01*
X34940Y-1469D01*
X34795Y-1397D01*
X34577D02*X34795D01*
X34577D02*X34432Y-1469D01*
X34287Y-1614D01*
X34215Y-1832D01*
Y-1977D01*
X34287Y-2195D01*
X34432Y-2340D01*
X34577Y-2413D01*
X34795D01*
X34940Y-2340D01*
X35085Y-2195D01*
X35542Y-1397D02*Y-2413D01*
Y-1832D02*X35615Y-1614D01*
X35760Y-1469D01*
X35905Y-1397D01*
X36123D01*
X36580Y-889D02*Y-2413D01*
X37110Y-1393D02*Y-2409D01*
X37037Y-885D02*X37110Y-958D01*
X37182Y-885D01*
X37110Y-813D01*
X37037Y-885D01*
X37640Y-1397D02*Y-2413D01*
Y-1687D02*X37858Y-1469D01*
X38002Y-1397D01*
X38220D01*
X38365Y-1469D01*
X38438Y-1687D01*
Y-2413D01*
X38895Y-1832D02*X39765D01*
Y-1687D02*Y-1832D01*
Y-1687D02*X39693Y-1542D01*
X39620Y-1469D01*
X39475Y-1397D01*
X39258D02*X39475D01*
X39258D02*X39112Y-1469D01*
X38967Y-1614D01*
X38895Y-1832D01*
Y-1977D01*
X38967Y-2195D01*
X39112Y-2340D01*
X39258Y-2413D01*
X39475D01*
X39620Y-2340D01*
X39765Y-2195D01*
X41271Y-1397D02*X41125Y-1469D01*
X40980Y-1614D01*
X40908Y-1832D01*
Y-1977D01*
X40980Y-2195D01*
X41125Y-2340D01*
X41271Y-2413D01*
X41488D01*
X41633Y-2340D01*
X41778Y-2195D01*
X41851Y-1977D01*
Y-1832D02*Y-1977D01*
Y-1832D02*X41778Y-1614D01*
X41633Y-1469D01*
X41488Y-1397D01*
X41271D02*X41488D01*
X42744Y-889D02*X42889D01*
X42744D02*X42598Y-961D01*
X42526Y-1179D01*
Y-2413D01*
X42308Y-1397D02*X42816D01*
X44249Y-889D02*Y-2123D01*
X44321Y-2340D01*
X44467Y-2413D01*
X44612D01*
X44032Y-1397D02*X44539D01*
X45069Y-889D02*Y-2413D01*
Y-1687D02*X45287Y-1469D01*
X45432Y-1397D01*
X45650D01*
X45795Y-1469D01*
X45868Y-1687D01*
Y-2413D01*
X46397Y-1393D02*Y-2409D01*
X46325Y-885D02*X46397Y-958D01*
X46470Y-885D01*
X46397Y-813D01*
X46325Y-885D01*
X47725Y-1614D02*X47653Y-1469D01*
X47435Y-1397D01*
X47217D02*X47435D01*
X47217D02*X46999Y-1469D01*
X46927Y-1614D01*
X46999Y-1760D01*
X47144Y-1832D01*
X47507Y-1905D01*
X47653Y-1977D01*
X47725Y-2122D01*
Y-2195D01*
X47653Y-2340D01*
X47435Y-2413D01*
X47217D02*X47435D01*
X47217D02*X46999Y-2340D01*
X46927Y-2195D01*
X48868Y-1397D02*Y-2921D01*
Y-1614D02*X49013Y-1469D01*
X49158Y-1397D01*
X49376D01*
X49521Y-1469D01*
X49666Y-1614D01*
X49739Y-1832D01*
Y-1977D01*
X49666Y-2195D01*
X49521Y-2340D01*
X49376Y-2413D01*
X49158D02*X49376D01*
X49158D02*X49013Y-2340D01*
X48868Y-2195D01*
X51067Y-1397D02*Y-2413D01*
Y-1614D02*X50921Y-1469D01*
X50777Y-1397D01*
X50559D02*X50777D01*
X50559D02*X50414Y-1469D01*
X50269Y-1614D01*
X50196Y-1832D01*
Y-1977D01*
X50269Y-2195D01*
X50414Y-2340D01*
X50559Y-2413D01*
X50777D01*
X50921Y-2340D01*
X51067Y-2195D01*
X51742Y-889D02*Y-2123D01*
X51814Y-2340D01*
X51960Y-2413D01*
X52105D01*
X51524Y-1397D02*X52032D01*
X52562Y-889D02*Y-2413D01*
Y-1687D02*X52779Y-1469D01*
X52925Y-1397D01*
X53142D01*
X53287Y-1469D01*
X53360Y-1687D01*
Y-2413D01*
X50800Y116459D02*Y114935D01*
Y116459D02*X51308D01*
X51526Y116386D01*
X51671Y116241D01*
X51743Y116096D01*
X51816Y115878D01*
Y115515D01*
X51743Y115298D01*
X51671Y115152D01*
X51526Y115008D01*
X51308Y114935D01*
X50800D02*X51308D01*
X53144Y115951D02*Y114935D01*
Y115734D02*X52998Y115879D01*
X52854Y115951D01*
X52636D02*X52854D01*
X52636D02*X52491Y115879D01*
X52345Y115734D01*
X52273Y115516D01*
Y115371D01*
X52345Y115153D01*
X52491Y115008D01*
X52636Y114935D01*
X52854D01*
X52998Y115008D01*
X53144Y115153D01*
X53819Y116459D02*Y115225D01*
X53891Y115008D01*
X54037Y114935D01*
X54182D01*
X53601Y115951D02*X54109D01*
X54639Y115516D02*X55509D01*
Y115661D02*Y115516D01*
Y115661D02*X55437Y115806D01*
X55364Y115879D01*
X55219Y115951D01*
X55002D02*X55219D01*
X55002D02*X54856Y115879D01*
X54711Y115734D01*
X54639Y115516D01*
Y115371D01*
X54711Y115153D01*
X54856Y115008D01*
X55002Y114935D01*
X55219D01*
X55364Y115008D01*
X55509Y115153D01*
X56039Y115545D02*X55966Y115472D01*
X56039Y115399D01*
X56111Y115472D01*
X56039Y115545D01*
Y115036D02*X55966Y114964D01*
X56039Y114892D01*
X56111Y114964D01*
X56039Y115036D01*
X57762Y116459D02*Y114935D01*
X57254Y116459D02*X58270D01*
X58727Y115951D02*Y115226D01*
X58800Y115008D01*
X58945Y114935D01*
X59163D01*
X59308Y115008D01*
X59525Y115226D01*
Y115951D02*Y114935D01*
X59982Y115516D02*X60853D01*
Y115661D02*Y115516D01*
Y115661D02*X60780Y115806D01*
X60708Y115879D01*
X60563Y115951D01*
X60345D02*X60563D01*
X60345D02*X60200Y115879D01*
X60054Y115734D01*
X59982Y115516D01*
Y115371D01*
X60054Y115153D01*
X60200Y115008D01*
X60345Y114935D01*
X60563D01*
X60708Y115008D01*
X60853Y115153D01*
X62721Y116459D02*Y115298D01*
X62649Y115080D01*
X62576Y115008D01*
X62431Y114935D01*
X62286D02*X62431D01*
X62286D02*X62141Y115008D01*
X62068Y115080D01*
X61996Y115298D01*
Y115443D02*Y115298D01*
X64050Y115951D02*Y114935D01*
Y115734D02*X63904Y115879D01*
X63759Y115951D01*
X63541D02*X63759D01*
X63541D02*X63397Y115879D01*
X63251Y115734D01*
X63179Y115516D01*
Y115371D01*
X63251Y115153D01*
X63397Y115008D01*
X63541Y114935D01*
X63759D01*
X63904Y115008D01*
X64050Y115153D01*
X64507Y115951D02*Y114935D01*
Y115661D02*X64725Y115879D01*
X64869Y115951D01*
X65087D01*
X65232Y115879D01*
X65305Y115661D01*
Y114935D01*
X68077Y115951D02*X68004Y115734D01*
X67859Y115588D01*
X67641Y115516D01*
X67569D02*X67641D01*
X67569D02*X67351Y115588D01*
X67206Y115734D01*
X67134Y115951D01*
Y116024D02*Y115951D01*
Y116024D02*X67206Y116242D01*
X67351Y116387D01*
X67569Y116459D01*
X67641D01*
X67859Y116387D01*
X68004Y116242D01*
X68077Y115951D01*
Y115588D01*
X68004Y115225D01*
X67859Y115008D01*
X67641Y114935D01*
X67496D02*X67641D01*
X67496D02*X67278Y115008D01*
X67206Y115153D01*
X69292Y116169D02*Y116096D01*
Y116169D02*X69365Y116314D01*
X69437Y116387D01*
X69582Y116459D01*
X69872D01*
X70018Y116387D01*
X70090Y116314D01*
X70163Y116169D01*
Y116024D01*
X70090Y115878D01*
X69945Y115661D01*
X69220Y114935D01*
X70236D01*
X70765Y116169D02*Y116096D01*
Y116169D02*X70838Y116314D01*
X70910Y116387D01*
X71055Y116459D01*
X71345D01*
X71491Y116387D01*
X71563Y116314D01*
X71636Y116169D01*
Y116024D01*
X71563Y115878D01*
X71418Y115661D01*
X70693Y114935D01*
X71709D01*
X72238Y115545D02*X72166Y115472D01*
X72238Y115399D01*
X72310Y115472D01*
X72238Y115545D01*
Y115036D02*X72166Y114964D01*
X72238Y114892D01*
X72310Y114964D01*
X72238Y115036D01*
X72913Y116459D02*X73639D01*
X72913D02*X72840Y115806D01*
X72913Y115878D01*
X73130Y115951D01*
X73348D01*
X73566Y115878D01*
X73711Y115734D01*
X73784Y115516D01*
Y115371D01*
X73711Y115153D01*
X73566Y115008D01*
X73348Y114935D01*
X73130D02*X73348D01*
X73130D02*X72913Y115008D01*
X72840Y115080D01*
X72768Y115225D01*
X75184Y115951D02*X75112Y115734D01*
X74966Y115588D01*
X74748Y115516D01*
X74676D02*X74748D01*
X74676D02*X74458Y115588D01*
X74313Y115734D01*
X74241Y115951D01*
Y116024D02*Y115951D01*
Y116024D02*X74313Y116242D01*
X74458Y116387D01*
X74676Y116459D01*
X74748D01*
X74966Y116387D01*
X75112Y116242D01*
X75184Y115951D01*
Y115588D01*
X75112Y115225D01*
X74966Y115008D01*
X74748Y114935D01*
X74604D02*X74748D01*
X74604D02*X74386Y115008D01*
X74313Y115153D01*
X75714Y115545D02*X75641Y115472D01*
X75714Y115399D01*
X75786Y115472D01*
X75714Y115545D01*
Y115036D02*X75641Y114964D01*
X75714Y114892D01*
X75786Y114964D01*
X75714Y115036D01*
X76316Y116169D02*Y116096D01*
Y116169D02*X76388Y116314D01*
X76460Y116387D01*
X76606Y116459D01*
X76896D01*
X77041Y116387D01*
X77114Y116314D01*
X77186Y116169D01*
Y116024D01*
X77114Y115878D01*
X76969Y115661D01*
X76243Y114935D01*
X77259D01*
X77861Y116459D02*X78587D01*
X77861D02*X77789Y115806D01*
X77861Y115878D01*
X78079Y115951D01*
X78297D01*
X78514Y115878D01*
X78660Y115734D01*
X78732Y115516D01*
Y115371D01*
X78660Y115153D01*
X78514Y115008D01*
X78297Y114935D01*
X78079D02*X78297D01*
X78079D02*X77861Y115008D01*
X77789Y115080D01*
X77716Y115225D01*
X79948Y116169D02*Y116096D01*
Y116169D02*X80020Y116314D01*
X80092Y116387D01*
X80238Y116459D01*
X80528D01*
X80673Y116387D01*
X80746Y116314D01*
X80818Y116169D01*
Y116024D01*
X80746Y115878D01*
X80601Y115661D01*
X79875Y114935D01*
X80891D01*
X81784Y116459D02*X81566Y116387D01*
X81421Y116169D01*
X81348Y115806D01*
Y115588D01*
X81421Y115225D01*
X81566Y115008D01*
X81784Y114935D01*
X81929D01*
X82146Y115008D01*
X82292Y115225D01*
X82364Y115588D01*
Y115806D02*Y115588D01*
Y115806D02*X82292Y116169D01*
X82146Y116387D01*
X81929Y116459D01*
X81784D02*X81929D01*
X82822Y116169D02*X82966Y116242D01*
X83184Y116459D01*
Y114935D01*
X84004Y116459D02*X83786Y116387D01*
X83714Y116242D01*
Y116096D01*
X83786Y115951D01*
X83931Y115878D01*
X84222Y115806D01*
X84440Y115734D01*
X84585Y115588D01*
X84657Y115443D01*
Y115225D01*
X84585Y115080D01*
X84512Y115008D01*
X84294Y114935D01*
X84004D02*X84294D01*
X84004D02*X83786Y115008D01*
X83714Y115080D01*
X83641Y115225D01*
Y115443D02*Y115225D01*
Y115443D02*X83714Y115588D01*
X83859Y115734D01*
X84077Y115806D01*
X84367Y115878D01*
X84512Y115951D01*
X84585Y116096D01*
Y116242D02*Y116096D01*
Y116242D02*X84512Y116387D01*
X84294Y116459D01*
X84004D02*X84294D01*
X85800D02*Y115370D01*
X85873Y115152D01*
X86018Y115008D01*
X86236Y114935D01*
X86380D01*
X86598Y115008D01*
X86744Y115152D01*
X86816Y115370D01*
Y116459D02*Y115370D01*
X87781Y116459D02*Y114935D01*
X87273Y116459D02*X88289D01*
X89835Y116096D02*X89762Y116241D01*
X89617Y116386D01*
X89472Y116459D01*
X89181D02*X89472D01*
X89181D02*X89037Y116386D01*
X88891Y116241D01*
X88819Y116096D01*
X88746Y115878D01*
Y115515D01*
X88819Y115298D01*
X88891Y115152D01*
X89037Y115008D01*
X89181Y114935D01*
X89472D01*
X89617Y115008D01*
X89762Y115152D01*
X89835Y115298D01*
X51381Y120269D02*X50800Y118745D01*
X51381Y120269D02*X51961Y118745D01*
X51018Y119253D02*X51744D01*
X52419Y119761D02*Y119036D01*
X52491Y118818D01*
X52636Y118745D01*
X52854D01*
X52999Y118818D01*
X53217Y119036D01*
Y119761D02*Y118745D01*
X53892Y120269D02*Y119035D01*
X53964Y118818D01*
X54109Y118745D01*
X54255D01*
X53674Y119761D02*X54182D01*
X54712Y120269D02*Y118745D01*
Y119471D02*X54929Y119689D01*
X55074Y119761D01*
X55292D01*
X55437Y119689D01*
X55510Y119471D01*
Y118745D01*
X56330Y119761D02*X56184Y119689D01*
X56039Y119544D01*
X55967Y119326D01*
Y119181D01*
X56039Y118963D01*
X56184Y118818D01*
X56330Y118745D01*
X56547D01*
X56692Y118818D01*
X56837Y118963D01*
X56910Y119181D01*
Y119326D02*Y119181D01*
Y119326D02*X56837Y119544D01*
X56692Y119689D01*
X56547Y119761D01*
X56330D02*X56547D01*
X57367D02*Y118745D01*
Y119326D02*X57440Y119544D01*
X57585Y119689D01*
X57730Y119761D01*
X57948D01*
X58478Y119355D02*X58405Y119282D01*
X58478Y119209D01*
X58550Y119282D01*
X58478Y119355D01*
Y118846D02*X58405Y118774D01*
X58478Y118702D01*
X58550Y118774D01*
X58478Y118846D01*
X59693Y120269D02*Y118745D01*
Y120269D02*X60273Y118745D01*
X60854Y120269D02*X60273Y118745D01*
X60854Y120269D02*Y118745D01*
X62182Y119761D02*Y118745D01*
Y119544D02*X62037Y119689D01*
X61892Y119761D01*
X61674D02*X61892D01*
X61674D02*X61529Y119689D01*
X61384Y119544D01*
X61311Y119326D01*
Y119181D01*
X61384Y118963D01*
X61529Y118818D01*
X61674Y118745D01*
X61892D01*
X62037Y118818D01*
X62182Y118963D01*
X62857Y120269D02*Y119035D01*
X62929Y118818D01*
X63075Y118745D01*
X63220D01*
X62640Y119761D02*X63147D01*
X63895Y120269D02*Y119035D01*
X63967Y118818D01*
X64113Y118745D01*
X64258D01*
X63677Y119761D02*X64185D01*
X66127Y120269D02*Y119108D01*
X66054Y118890D01*
X65982Y118818D01*
X65836Y118745D01*
X65692D02*X65836D01*
X65692D02*X65546Y118818D01*
X65474Y118890D01*
X65401Y119108D01*
Y119253D02*Y119108D01*
X66584Y119326D02*X67454D01*
Y119471D02*Y119326D01*
Y119471D02*X67382Y119616D01*
X67309Y119689D01*
X67164Y119761D01*
X66947D02*X67164D01*
X66947D02*X66801Y119689D01*
X66656Y119544D01*
X66584Y119326D01*
Y119181D01*
X66656Y118963D01*
X66801Y118818D01*
X66947Y118745D01*
X67164D01*
X67309Y118818D01*
X67454Y118963D01*
X67911Y119761D02*Y118745D01*
Y119471D02*X68129Y119689D01*
X68274Y119761D01*
X68492D01*
X68637Y119689D01*
X68710Y119471D01*
Y118745D01*
X69167Y120269D02*Y118745D01*
X69892Y119761D02*X69167Y119035D01*
X69457Y119326D02*X69965Y118745D01*
X70495Y119765D02*Y118749D01*
X70422Y120273D02*X70495Y120200D01*
X70567Y120273D01*
X70495Y120345D01*
X70422Y120273D01*
X71025Y119761D02*Y118745D01*
Y119471D02*X71242Y119689D01*
X71387Y119761D01*
X71605D01*
X71750Y119689D01*
X71823Y119471D01*
Y118745D01*
X73078Y119544D02*X73005Y119689D01*
X72787Y119761D01*
X72570D02*X72787D01*
X72570D02*X72352Y119689D01*
X72280Y119544D01*
X72352Y119398D01*
X72497Y119326D01*
X72860Y119253D01*
X73005Y119181D01*
X73078Y119036D01*
Y118963D01*
X73005Y118818D01*
X72787Y118745D01*
X72570D02*X72787D01*
X72570D02*X72352Y118818D01*
X72280Y118963D01*
X51308Y124079D02*Y122555D01*
X50800Y124079D02*X51816D01*
X52345Y123575D02*Y122559D01*
X52273Y124083D02*X52345Y124010D01*
X52418Y124083D01*
X52345Y124155D01*
X52273Y124083D01*
X53093Y124079D02*Y122845D01*
X53165Y122628D01*
X53311Y122555D01*
X53456D01*
X52875Y123571D02*X53383D01*
X53913Y124079D02*Y122555D01*
X54370Y123136D02*X55241D01*
Y123281D02*Y123136D01*
Y123281D02*X55168Y123426D01*
X55096Y123499D01*
X54951Y123571D01*
X54733D02*X54951D01*
X54733D02*X54588Y123499D01*
X54442Y123354D01*
X54370Y123136D01*
Y122991D01*
X54442Y122773D01*
X54588Y122628D01*
X54733Y122555D01*
X54951D01*
X55096Y122628D01*
X55241Y122773D01*
X55770Y123165D02*X55698Y123092D01*
X55770Y123019D01*
X55843Y123092D01*
X55770Y123165D01*
Y122656D02*X55698Y122584D01*
X55770Y122512D01*
X55843Y122584D01*
X55770Y122656D01*
X57493Y124460D02*X57348Y124315D01*
X57203Y124097D01*
X57058Y123807D01*
X56986Y123444D01*
Y123154D01*
X57058Y122791D01*
X57203Y122501D01*
X57348Y122283D01*
X57493Y122138D01*
X57951Y123571D02*Y122846D01*
X58023Y122628D01*
X58169Y122555D01*
X58386D01*
X58531Y122628D01*
X58749Y122846D01*
Y123571D02*Y122555D01*
X59206Y123571D02*Y122555D01*
Y123281D02*X59424Y123499D01*
X59569Y123571D01*
X59787D01*
X59931Y123499D01*
X60004Y123281D01*
Y122555D01*
X60461Y124079D02*Y122555D01*
X61187Y123571D02*X60461Y122845D01*
X60751Y123136D02*X61260Y122555D01*
X61717Y123571D02*Y122555D01*
Y123281D02*X61935Y123499D01*
X62079Y123571D01*
X62297D01*
X62442Y123499D01*
X62515Y123281D01*
Y122555D01*
X63335Y123571D02*X63189Y123499D01*
X63044Y123354D01*
X62972Y123136D01*
Y122991D01*
X63044Y122773D01*
X63189Y122628D01*
X63335Y122555D01*
X63552D01*
X63697Y122628D01*
X63842Y122773D01*
X63915Y122991D01*
Y123136D02*Y122991D01*
Y123136D02*X63842Y123354D01*
X63697Y123499D01*
X63552Y123571D01*
X63335D02*X63552D01*
X64372D02*X64662Y122555D01*
X64953Y123571D02*X64662Y122555D01*
X64953Y123571D02*X65243Y122555D01*
X65533Y123571D02*X65243Y122555D01*
X65990Y123571D02*Y122555D01*
Y123281D02*X66208Y123499D01*
X66353Y123571D01*
X66571D01*
X66716Y123499D01*
X66789Y123281D01*
Y122555D01*
X67246Y124460D02*X67390Y124315D01*
X67536Y124097D01*
X67681Y123807D01*
X67753Y123444D01*
Y123154D01*
X67681Y122791D01*
X67536Y122501D01*
X67390Y122283D01*
X67246Y122138D01*
X68896Y123317D02*X69849D01*
X70992Y124079D02*Y122555D01*
Y124079D02*X71935D01*
X70992Y123353D02*X71572D01*
X73263Y123571D02*Y122555D01*
Y123354D02*X73117Y123499D01*
X72973Y123571D01*
X72755D02*X72973D01*
X72755D02*X72610Y123499D01*
X72464Y123354D01*
X72392Y123136D01*
Y122991D01*
X72464Y122773D01*
X72610Y122628D01*
X72755Y122555D01*
X72973D01*
X73117Y122628D01*
X73263Y122773D01*
X73720Y124079D02*Y122555D01*
Y123354D02*X73865Y123499D01*
X74010Y123571D01*
X74228D01*
X74373Y123499D01*
X74518Y123354D01*
X74591Y123136D01*
Y122991D01*
X74518Y122773D01*
X74373Y122628D01*
X74228Y122555D01*
X74010D02*X74228D01*
X74010D02*X73865Y122628D01*
X73720Y122773D01*
X75048Y123571D02*Y122555D01*
Y123136D02*X75121Y123354D01*
X75266Y123499D01*
X75411Y123571D01*
X75629D01*
X76158Y123575D02*Y122559D01*
X76086Y124083D02*X76158Y124010D01*
X76231Y124083D01*
X76158Y124155D01*
X76086Y124083D01*
X77559Y123354D02*X77414Y123499D01*
X77269Y123571D01*
X77051D02*X77269D01*
X77051D02*X76906Y123499D01*
X76761Y123354D01*
X76688Y123136D01*
Y122991D01*
X76761Y122773D01*
X76906Y122628D01*
X77051Y122555D01*
X77269D01*
X77414Y122628D01*
X77559Y122773D01*
X78887Y123571D02*Y122555D01*
Y123354D02*X78742Y123499D01*
X78597Y123571D01*
X78379D02*X78597D01*
X78379D02*X78234Y123499D01*
X78089Y123354D01*
X78016Y123136D01*
Y122991D01*
X78089Y122773D01*
X78234Y122628D01*
X78379Y122555D01*
X78597D01*
X78742Y122628D01*
X78887Y122773D01*
X79563Y124079D02*Y122845D01*
X79635Y122628D01*
X79780Y122555D01*
X79925D01*
X79345Y123571D02*X79852D01*
X80455Y123575D02*Y122559D01*
X80382Y124083D02*X80455Y124010D01*
X80528Y124083D01*
X80455Y124155D01*
X80382Y124083D01*
X81348Y123571D02*X81202Y123499D01*
X81057Y123354D01*
X80985Y123136D01*
Y122991D01*
X81057Y122773D01*
X81202Y122628D01*
X81348Y122555D01*
X81565D01*
X81710Y122628D01*
X81855Y122773D01*
X81928Y122991D01*
Y123136D02*Y122991D01*
Y123136D02*X81855Y123354D01*
X81710Y123499D01*
X81565Y123571D01*
X81348D02*X81565D01*
X82385D02*Y122555D01*
Y123281D02*X82603Y123499D01*
X82748Y123571D01*
X82966D01*
X83110Y123499D01*
X83183Y123281D01*
Y122555D01*
X84326Y124079D02*Y122555D01*
Y124079D02*X84834D01*
X85052Y124006D01*
X85197Y123861D01*
X85270Y123716D01*
X85342Y123498D01*
Y123135D01*
X85270Y122918D01*
X85197Y122772D01*
X85052Y122628D01*
X84834Y122555D01*
X84326D02*X84834D01*
X85799Y123571D02*Y122555D01*
Y123136D02*X85872Y123354D01*
X86017Y123499D01*
X86162Y123571D01*
X86380D01*
X87708D02*Y122555D01*
Y123354D02*X87562Y123499D01*
X87418Y123571D01*
X87200D02*X87418D01*
X87200D02*X87055Y123499D01*
X86910Y123354D01*
X86837Y123136D01*
Y122991D01*
X86910Y122773D01*
X87055Y122628D01*
X87200Y122555D01*
X87418D01*
X87562Y122628D01*
X87708Y122773D01*
X88165Y123571D02*X88455Y122555D01*
X88745Y123571D02*X88455Y122555D01*
X88745Y123571D02*X89036Y122555D01*
X89326Y123571D02*X89036Y122555D01*
X89856Y123575D02*Y122559D01*
X89783Y124083D02*X89856Y124010D01*
X89928Y124083D01*
X89856Y124155D01*
X89783Y124083D01*
X90386Y123571D02*Y122555D01*
Y123281D02*X90604Y123499D01*
X90748Y123571D01*
X90966D01*
X91111Y123499D01*
X91184Y123281D01*
Y122555D01*
X92512Y123571D02*Y122411D01*
X92439Y122193D01*
X92366Y122120D01*
X92222Y122048D01*
X92004D02*X92222D01*
X92004D02*X91859Y122120D01*
X92512Y123354D02*X92366Y123499D01*
X92222Y123571D01*
X92004D02*X92222D01*
X92004D02*X91859Y123499D01*
X91713Y123354D01*
X91641Y123136D01*
Y122991D01*
X91713Y122773D01*
X91859Y122628D01*
X92004Y122555D01*
X92222D01*
X92366Y122628D01*
X92512Y122773D01*
M02*
