M48
METRIC,000.000
T43C0.300
T42C3.100
T41C0.850
T40C1.000
%
T43
X017650Y053270
X020320Y083185
X020800Y063570
X021100Y049570
X021450Y071220
X021450Y069020
X022225Y075565
X022860Y088900
X022950Y048620
X023250Y056970
X023495Y041910
X024130Y079375
X024130Y026670
X024400Y059920
X024765Y067310
X024950Y081420
X025400Y050800
X026050Y054270
X026450Y054920
X027305Y061595
X027450Y055320
X027550Y054570
X028100Y072120
X028575Y088900
X028700Y049570
X028850Y072120
X029210Y036830
X029500Y054270
X029500Y052370
X030000Y066220
X030250Y059820
X030450Y053320
X030480Y086360
X030650Y058520
X030750Y077220
X030950Y073720
X031115Y070485
X031300Y057520
X031400Y054270
X031400Y052370
X031500Y077220
X031700Y046820
X031750Y040640
X032200Y059270
X032385Y032385
X033020Y088900
X033020Y060960
X033450Y052120
X033950Y072120
X033950Y055970
X034290Y040640
X034290Y039370
X034290Y037465
X034300Y049920
X034300Y049170
X034400Y054120
X034600Y055570
X034650Y054820
X034700Y072120
X034900Y080120
X034925Y059055
X034925Y044450
X034925Y027940
X035050Y063220
X035300Y066370
X035450Y083320
X035550Y051530
X035560Y050165
X035650Y080120
X035800Y073070
X035850Y055920
X036300Y048120
X036400Y055420
X036400Y054670
X036650Y064820
X036830Y027940
X036830Y021590
X037500Y043120
X037500Y042370
X037500Y041620
X037750Y079420
X038250Y043120
X038250Y042370
X038250Y041620
X038650Y077720
X038735Y027940
X039150Y086520
X039150Y085770
X039250Y053770
X039370Y089535
X039400Y057820
X039400Y051520
X039650Y079320
X040640Y064770
X040750Y079320
X041800Y069420
X041800Y068670
X042200Y080320
X042545Y040005
X042550Y064720
X042600Y060970
X042750Y055820
X043815Y029845
X043900Y069520
X044000Y075170
X044150Y059670
X044450Y064320
T41
X030480Y079340
X030480Y027340
T40
X018923Y039370
X018923Y034290
X018923Y029210
X019050Y062230
X019050Y059690
X019050Y057150
X019050Y054610
X019050Y052070
X019050Y049530
X019050Y046990
X019050Y044450
X019177Y036830
X019177Y031750
X019177Y026670
X027980Y022860
X027980Y019660
X030480Y022860
X030480Y019660
X032980Y022860
X032980Y019660
X041910Y062230
X041910Y059690
X041910Y057150
X041910Y054610
X041910Y052070
X041910Y049530
X041910Y046990
X041910Y044450
T42
X017780Y087630
X017780Y021590
X043180Y087630
X043180Y021590
M30
