G04 start of page 9 for group -4062 idx -4062 *
G04 Title: (unknown), soldermask *
G04 Creator: pcb 1.99z *
G04 CreationDate: Tue Jan  9 22:59:25 2018 UTC *
G04 For: matt *
G04 Format: Gerber/RS-274X *
G04 PCB-Dimensions (mm): 60.96 109.22 *
G04 PCB-Coordinate-Origin: lower left *
%MOMM*%
%FSLAX43Y43*%
%LNBOTTOMMASK*%
%ADD72C,2.352*%
%ADD71C,1.580*%
%ADD70C,1.552*%
%ADD69C,2.393*%
%ADD68C,2.647*%
%ADD67C,1.752*%
%ADD66C,0.002*%
%ADD65C,2.552*%
%ADD64C,3.054*%
G54D64*X17780Y87630D03*
G54D65*X30480Y79340D03*
G54D66*G36*
X18047Y40246D02*Y38494D01*
X19799D01*
Y40246D01*
X18047D01*
G37*
G54D67*X19177Y36830D03*
X18923Y34290D03*
X19177Y31750D03*
X18923Y29210D03*
X41910Y49530D03*
Y52070D03*
Y54610D03*
Y57150D03*
Y59690D03*
Y62230D03*
G54D68*X43180Y87630D03*
G54D69*Y21590D03*
G54D70*X44550Y80520D03*
Y78520D03*
Y76520D03*
Y74520D03*
G54D67*X41910Y44450D03*
Y46990D03*
G54D71*X17780Y21590D03*
G54D67*X19177Y26670D03*
G54D65*X30480Y27340D03*
G54D72*X32980Y22860D03*
X30480D03*
X27980D03*
Y19660D03*
X30480D03*
X32980D03*
G54D67*X19050Y49530D03*
Y46990D03*
Y44450D03*
Y62230D03*
Y59690D03*
Y57150D03*
Y54610D03*
Y52070D03*
G54D66*G36*
X15800Y81990D02*Y80570D01*
X19760D01*
Y81990D01*
X15800D01*
G37*
G36*
Y79450D02*Y78030D01*
X19760D01*
Y79450D01*
X15800D01*
G37*
G36*
X41200Y36270D02*Y34850D01*
X45160D01*
Y36270D01*
X41200D01*
G37*
G36*
Y38810D02*Y37390D01*
X45160D01*
Y38810D01*
X41200D01*
G37*
M02*
