G04 start of page 11 for group -4015 idx -4015 *
G04 Title: (unknown), toppaste *
G04 Creator: pcb 1.99z *
G04 CreationDate: Wed Nov 29 11:54:27 2017 UTC *
G04 For: matt *
G04 Format: Gerber/RS-274X *
G04 PCB-Dimensions (mm): 60.96 109.22 *
G04 PCB-Coordinate-Origin: lower left *
%MOMM*%
%FSLAX43Y43*%
%LNTOPPASTE*%
%ADD75C,0.500*%
%ADD74C,0.350*%
%ADD73C,0.002*%
G54D73*G36*
X21476Y45795D02*Y44546D01*
X22924D01*
Y45795D01*
X21476D01*
G37*
G36*
Y47595D02*Y46345D01*
X22924D01*
Y47595D01*
X21476D01*
G37*
G36*
X36776Y83945D02*Y82696D01*
X38224D01*
Y83945D01*
X36776D01*
G37*
G36*
Y85744D02*Y84495D01*
X38224D01*
Y85744D01*
X36776D01*
G37*
G36*
X37118Y89038D02*Y88352D01*
X37882D01*
Y89038D01*
X37118D01*
G37*
G36*
Y87488D02*Y86802D01*
X37882D01*
Y87488D01*
X37118D01*
G37*
G36*
X35955Y40799D02*X34805D01*
Y38449D01*
X35955D01*
Y40799D01*
G37*
G36*
X38855D02*X37705D01*
Y38449D01*
X38855D01*
Y40799D01*
G37*
G54D74*X37545Y25965D02*X37980Y26510D01*
X38565Y26880D01*
X39260Y27070D01*
X35680Y26510D02*X36115Y25965D01*
X35095Y26880D02*X35680Y26510D01*
X34400Y27070D02*X35095Y26880D01*
X37545Y29915D02*X37980Y29370D01*
X38565Y29000D01*
X39260Y28810D01*
X35680Y29370D02*X36115Y29915D01*
X35095Y29000D02*X35680Y29370D01*
X34400Y28810D02*X35095Y29000D01*
G54D73*G36*
X34255Y25965D02*Y24965D01*
X39405D01*
Y25965D01*
X34255D01*
G37*
G36*
Y30915D02*Y29915D01*
X39405D01*
Y30915D01*
X34255D01*
G37*
G36*
X38075Y29915D02*Y29100D01*
X39405D01*
Y29915D01*
X38075D01*
G37*
G36*
X34255D02*Y29100D01*
X35585D01*
Y29915D01*
X34255D01*
G37*
G36*
Y26780D02*Y25965D01*
X35585D01*
Y26780D01*
X34255D01*
G37*
G36*
X38075D02*Y25965D01*
X39405D01*
Y26780D01*
X38075D01*
G37*
G36*
X38665Y27090D02*Y26780D01*
X39405D01*
Y27090D01*
X38665D01*
G37*
G36*
X34255D02*Y26780D01*
X34995D01*
Y27090D01*
X34255D01*
G37*
G36*
Y29100D02*Y28790D01*
X34995D01*
Y29100D01*
X34255D01*
G37*
G36*
X38665D02*Y28790D01*
X39405D01*
Y29100D01*
X38665D01*
G37*
G36*
X38075Y29915D02*X37685D01*
Y29465D01*
X38075D01*
Y29915D01*
G37*
G36*
X35975D02*X35585D01*
Y29465D01*
X35975D01*
Y29915D01*
G37*
G36*
Y26415D02*X35585D01*
Y25965D01*
X35975D01*
Y26415D01*
G37*
G36*
X38075D02*X37685D01*
Y25965D01*
X38075D01*
Y26415D01*
G37*
G36*
X41186Y29464D02*Y28215D01*
X42634D01*
Y29464D01*
X41186D01*
G37*
G36*
Y27665D02*Y26416D01*
X42634D01*
Y27665D01*
X41186D01*
G37*
G36*
X37176Y52144D02*Y50895D01*
X38624D01*
Y52144D01*
X37176D01*
G37*
G36*
Y50345D02*Y49096D01*
X38624D01*
Y50345D01*
X37176D01*
G37*
G36*
X22018Y67162D02*Y66478D01*
X22782D01*
Y67162D01*
X22018D01*
G37*
G36*
Y65612D02*Y64927D01*
X22782D01*
Y65612D01*
X22018D01*
G37*
G36*
X21624Y39240D02*Y38554D01*
X22388D01*
Y39240D01*
X21624D01*
G37*
G36*
Y37690D02*Y37004D01*
X22388D01*
Y37690D01*
X21624D01*
G37*
G36*
X23318Y84038D02*Y83352D01*
X24082D01*
Y84038D01*
X23318D01*
G37*
G36*
Y85588D02*Y84902D01*
X24082D01*
Y85588D01*
X23318D01*
G37*
G36*
X16073Y81927D02*Y81077D01*
X17023D01*
Y81927D01*
X16073D01*
G37*
G36*
X14473D02*Y81077D01*
X15423D01*
Y81927D01*
X14473D01*
G37*
G36*
Y77827D02*Y76977D01*
X15423D01*
Y77827D01*
X14473D01*
G37*
G36*
X16073D02*Y76977D01*
X17023D01*
Y77827D01*
X16073D01*
G37*
G36*
X43937Y77927D02*Y77077D01*
X44887D01*
Y77927D01*
X43937D01*
G37*
G36*
X45537D02*Y77077D01*
X46487D01*
Y77927D01*
X45537D01*
G37*
G36*
Y82027D02*Y81177D01*
X46487D01*
Y82027D01*
X45537D01*
G37*
G36*
X43937D02*Y81177D01*
X44887D01*
Y82027D01*
X43937D01*
G37*
G36*
X25505Y85555D02*Y84905D01*
X26955D01*
Y85555D01*
X25505D01*
G37*
G36*
Y86755D02*Y86105D01*
X26955D01*
Y86755D01*
X25505D01*
G37*
G36*
Y87955D02*Y87305D01*
X26955D01*
Y87955D01*
X25505D01*
G37*
G36*
Y89155D02*Y88505D01*
X26955D01*
Y89155D01*
X25505D01*
G37*
G36*
Y90355D02*Y89705D01*
X26955D01*
Y90355D01*
X25505D01*
G37*
G36*
X27805Y84305D02*X27155D01*
Y82855D01*
X27805D01*
Y84305D01*
G37*
G36*
X29005D02*X28355D01*
Y82855D01*
X29005D01*
Y84305D01*
G37*
G36*
X30205D02*X29555D01*
Y82855D01*
X30205D01*
Y84305D01*
G37*
G36*
X31405D02*X30755D01*
Y82855D01*
X31405D01*
Y84305D01*
G37*
G36*
X32605D02*X31955D01*
Y82855D01*
X32605D01*
Y84305D01*
G37*
G36*
X33805D02*X33155D01*
Y82855D01*
X33805D01*
Y84305D01*
G37*
G36*
X34005Y85555D02*Y84905D01*
X35455D01*
Y85555D01*
X34005D01*
G37*
G36*
Y86755D02*Y86105D01*
X35455D01*
Y86755D01*
X34005D01*
G37*
G36*
Y87955D02*Y87305D01*
X35455D01*
Y87955D01*
X34005D01*
G37*
G36*
Y89155D02*Y88505D01*
X35455D01*
Y89155D01*
X34005D01*
G37*
G36*
Y90355D02*Y89705D01*
X35455D01*
Y90355D01*
X34005D01*
G37*
G36*
X26868Y47888D02*Y47202D01*
X27632D01*
Y47888D01*
X26868D01*
G37*
G36*
Y46338D02*Y45652D01*
X27632D01*
Y46338D01*
X26868D01*
G37*
G36*
X24368Y47888D02*Y47202D01*
X25132D01*
Y47888D01*
X24368D01*
G37*
G36*
Y46338D02*Y45652D01*
X25132D01*
Y46338D01*
X24368D01*
G37*
G54D75*X36110Y34418D02*X36350Y34178D01*
X37310D02*X37550Y34418D01*
X37310Y35418D02*X37550Y35178D01*
X36110D02*X36350Y35418D01*
G54D73*G36*
X35655Y37373D02*X35005D01*
Y35923D01*
X35655D01*
Y37373D01*
G37*
G36*
Y33673D02*X35005D01*
Y32223D01*
X35655D01*
Y33673D01*
G37*
G36*
X35855Y35173D02*Y34423D01*
X37805D01*
Y35173D01*
X35855D01*
G37*
G36*
X38655Y37373D02*X38005D01*
Y35923D01*
X38655D01*
Y37373D01*
G37*
G36*
Y33673D02*X38005D01*
Y32223D01*
X38655D01*
Y33673D01*
G37*
G36*
X37305Y37373D02*X36355D01*
Y34973D01*
X37305D01*
Y37373D01*
G37*
G36*
X37205Y34573D02*X36455D01*
Y32323D01*
X37205D01*
Y34573D01*
G37*
G36*
X42235Y36085D02*X41585D01*
Y34935D01*
X42235D01*
Y36085D01*
G37*
G36*
Y32385D02*X41585D01*
Y31235D01*
X42235D01*
Y32385D01*
G37*
G36*
X22818Y58102D02*X22132D01*
Y57338D01*
X22818D01*
Y58102D01*
G37*
G36*
X24368D02*X23682D01*
Y57338D01*
X24368D01*
Y58102D01*
G37*
G36*
X30818Y62512D02*Y61828D01*
X31582D01*
Y62512D01*
X30818D01*
G37*
G36*
Y60962D02*Y60278D01*
X31582D01*
Y60962D01*
X30818D01*
G37*
G36*
X37518Y55662D02*Y54978D01*
X38282D01*
Y55662D01*
X37518D01*
G37*
G36*
Y54112D02*Y53428D01*
X38282D01*
Y54112D01*
X37518D01*
G37*
G36*
X32294Y68104D02*X31846D01*
Y66706D01*
X32294D01*
Y68104D01*
G37*
G36*
X33244Y70454D02*X32796D01*
Y69056D01*
X33244D01*
Y70454D01*
G37*
G36*
X34194Y68104D02*X33746D01*
Y66706D01*
X34194D01*
Y68104D01*
G37*
G36*
X34138Y64390D02*X33452D01*
Y63626D01*
X34138D01*
Y64390D01*
G37*
G36*
X32588D02*X31902D01*
Y63626D01*
X32588D01*
Y64390D01*
G37*
G36*
X34138Y65914D02*X33452D01*
Y65150D01*
X34138D01*
Y65914D01*
G37*
G36*
X32588D02*X31902D01*
Y65150D01*
X32588D01*
Y65914D01*
G37*
G36*
X35432Y68148D02*Y67462D01*
X36196D01*
Y68148D01*
X35432D01*
G37*
G36*
Y69698D02*Y69012D01*
X36196D01*
Y69698D01*
X35432D01*
G37*
G36*
X28296Y64390D02*X27610D01*
Y63626D01*
X28296D01*
Y64390D01*
G37*
G36*
X26746D02*X26060D01*
Y63626D01*
X26746D01*
Y64390D01*
G37*
G36*
X28296Y65914D02*X27610D01*
Y65150D01*
X28296D01*
Y65914D01*
G37*
G36*
X26746D02*X26060D01*
Y65150D01*
X26746D01*
Y65914D01*
G37*
G36*
X29590Y68148D02*Y67462D01*
X30354D01*
Y68148D01*
X29590D01*
G37*
G36*
Y69698D02*Y69012D01*
X30354D01*
Y69698D01*
X29590D01*
G37*
G36*
X26452Y68104D02*X26004D01*
Y66706D01*
X26452D01*
Y68104D01*
G37*
G36*
X27402Y70454D02*X26954D01*
Y69056D01*
X27402D01*
Y70454D01*
G37*
G36*
X28352Y68104D02*X27904D01*
Y66706D01*
X28352D01*
Y68104D01*
G37*
G36*
X17275Y71795D02*Y70645D01*
X18425D01*
Y71795D01*
X17275D01*
G37*
G36*
X19375D02*Y70645D01*
X20525D01*
Y71795D01*
X19375D01*
G37*
G36*
X17275Y69595D02*Y68445D01*
X18425D01*
Y69595D01*
X17275D01*
G37*
G36*
X19375D02*Y68445D01*
X20525D01*
Y69595D01*
X19375D01*
G37*
G36*
X17275Y67395D02*Y66245D01*
X18425D01*
Y67395D01*
X17275D01*
G37*
G36*
X19375D02*Y66245D01*
X20525D01*
Y67395D01*
X19375D01*
G37*
G36*
X22621Y54607D02*X21771D01*
Y53657D01*
X22621D01*
Y54607D01*
G37*
G36*
X24721D02*X23871D01*
Y53657D01*
X24721D01*
Y54607D01*
G37*
G36*
X22621Y52707D02*X21771D01*
Y51757D01*
X22621D01*
Y52707D01*
G37*
G36*
X24721D02*X23871D01*
Y51757D01*
X24721D01*
Y52707D01*
G37*
G36*
X24368Y56602D02*X23682D01*
Y55838D01*
X24368D01*
Y56602D01*
G37*
G36*
X22818D02*X22132D01*
Y55838D01*
X22818D01*
Y56602D01*
G37*
G36*
X35412Y74088D02*Y73402D01*
X36176D01*
Y74088D01*
X35412D01*
G37*
G36*
Y75638D02*Y74952D01*
X36176D01*
Y75638D01*
X35412D01*
G37*
G36*
X32274Y74044D02*X31826D01*
Y72646D01*
X32274D01*
Y74044D01*
G37*
G36*
X33224Y76394D02*X32776D01*
Y74996D01*
X33224D01*
Y76394D01*
G37*
G36*
X34174Y74044D02*X33726D01*
Y72646D01*
X34174D01*
Y74044D01*
G37*
G36*
X29570Y74088D02*Y73402D01*
X30334D01*
Y74088D01*
X29570D01*
G37*
G36*
Y75638D02*Y74952D01*
X30334D01*
Y75638D01*
X29570D01*
G37*
G36*
X26432Y74044D02*X25984D01*
Y72646D01*
X26432D01*
Y74044D01*
G37*
G36*
X27382Y76394D02*X26934D01*
Y74996D01*
X27382D01*
Y76394D01*
G37*
G36*
X28332Y74044D02*X27884D01*
Y72646D01*
X28332D01*
Y74044D01*
G37*
G36*
X25181Y44421D02*X24279D01*
Y42019D01*
X25181D01*
Y44421D01*
G37*
G36*
X27721D02*X26819D01*
Y42019D01*
X27721D01*
Y44421D01*
G37*
G36*
X27076Y40046D02*X24924D01*
Y34394D01*
X27076D01*
Y40046D01*
G37*
G36*
X30318Y45638D02*Y44952D01*
X31082D01*
Y45638D01*
X30318D01*
G37*
G36*
Y47188D02*Y46502D01*
X31082D01*
Y47188D01*
X30318D01*
G37*
G36*
X28818Y45638D02*Y44952D01*
X29582D01*
Y45638D01*
X28818D01*
G37*
G36*
Y47188D02*Y46502D01*
X29582D01*
Y47188D01*
X28818D01*
G37*
G36*
X28074Y55696D02*Y55444D01*
X28326D01*
Y55696D01*
X28074D01*
G37*
G36*
Y55196D02*Y54944D01*
X28326D01*
Y55196D01*
X28074D01*
G37*
G36*
Y54696D02*Y54444D01*
X28326D01*
Y54696D01*
X28074D01*
G37*
G36*
Y54196D02*Y53944D01*
X28326D01*
Y54196D01*
X28074D01*
G37*
G36*
Y53696D02*Y53444D01*
X28326D01*
Y53696D01*
X28074D01*
G37*
G36*
Y53196D02*Y52944D01*
X28326D01*
Y53196D01*
X28074D01*
G37*
G36*
Y52696D02*Y52444D01*
X28326D01*
Y52696D01*
X28074D01*
G37*
G36*
Y52196D02*Y51944D01*
X28326D01*
Y52196D01*
X28074D01*
G37*
G36*
Y51696D02*Y51444D01*
X28326D01*
Y51696D01*
X28074D01*
G37*
G36*
Y51196D02*Y50944D01*
X28326D01*
Y51196D01*
X28074D01*
G37*
G36*
X28574D02*Y50944D01*
X28826D01*
Y51196D01*
X28574D01*
G37*
G36*
X29074D02*Y50944D01*
X29326D01*
Y51196D01*
X29074D01*
G37*
G36*
X29574D02*Y50944D01*
X29826D01*
Y51196D01*
X29574D01*
G37*
G36*
X30074D02*Y50944D01*
X30326D01*
Y51196D01*
X30074D01*
G37*
G36*
X30574D02*Y50944D01*
X30826D01*
Y51196D01*
X30574D01*
G37*
G36*
X31074D02*Y50944D01*
X31326D01*
Y51196D01*
X31074D01*
G37*
G36*
X31574D02*Y50944D01*
X31826D01*
Y51196D01*
X31574D01*
G37*
G36*
X32074D02*Y50944D01*
X32326D01*
Y51196D01*
X32074D01*
G37*
G36*
X32574D02*Y50944D01*
X32826D01*
Y51196D01*
X32574D01*
G37*
G36*
Y51696D02*Y51444D01*
X32826D01*
Y51696D01*
X32574D01*
G37*
G36*
Y52196D02*Y51944D01*
X32826D01*
Y52196D01*
X32574D01*
G37*
G36*
Y52696D02*Y52444D01*
X32826D01*
Y52696D01*
X32574D01*
G37*
G36*
Y53196D02*Y52944D01*
X32826D01*
Y53196D01*
X32574D01*
G37*
G36*
Y53696D02*Y53444D01*
X32826D01*
Y53696D01*
X32574D01*
G37*
G36*
Y54196D02*Y53944D01*
X32826D01*
Y54196D01*
X32574D01*
G37*
G36*
Y54696D02*Y54444D01*
X32826D01*
Y54696D01*
X32574D01*
G37*
G36*
Y55196D02*Y54944D01*
X32826D01*
Y55196D01*
X32574D01*
G37*
G36*
Y55696D02*Y55444D01*
X32826D01*
Y55696D01*
X32574D01*
G37*
G36*
X32074D02*Y55444D01*
X32326D01*
Y55696D01*
X32074D01*
G37*
G36*
X31574D02*Y55444D01*
X31826D01*
Y55696D01*
X31574D01*
G37*
G36*
X31074D02*Y55444D01*
X31326D01*
Y55696D01*
X31074D01*
G37*
G36*
X30574D02*Y55444D01*
X30826D01*
Y55696D01*
X30574D01*
G37*
G36*
X30074D02*Y55444D01*
X30326D01*
Y55696D01*
X30074D01*
G37*
G36*
X29574D02*Y55444D01*
X29826D01*
Y55696D01*
X29574D01*
G37*
G36*
X29074D02*Y55444D01*
X29326D01*
Y55696D01*
X29074D01*
G37*
G36*
X28574D02*Y55444D01*
X28826D01*
Y55696D01*
X28574D01*
G37*
G36*
X29361Y55046D02*X28724D01*
Y51594D01*
X29361D01*
Y55046D01*
G37*
G36*
X30301D02*X29659D01*
Y51594D01*
X30301D01*
Y55046D01*
G37*
G36*
X31241D02*X30599D01*
Y51594D01*
X31241D01*
Y55046D01*
G37*
G36*
X32176D02*X31539D01*
Y51594D01*
X32176D01*
Y55046D01*
G37*
G36*
X41718Y83502D02*X41032D01*
Y82738D01*
X41718D01*
Y83502D01*
G37*
G36*
X40168D02*X39482D01*
Y82738D01*
X40168D01*
Y83502D01*
G37*
G36*
X38618Y63238D02*Y62552D01*
X39382D01*
Y63238D01*
X38618D01*
G37*
G36*
Y61688D02*Y61002D01*
X39382D01*
Y61688D01*
X38618D01*
G37*
G36*
X37118Y63238D02*Y62552D01*
X37882D01*
Y63238D01*
X37118D01*
G37*
G36*
Y61688D02*Y61002D01*
X37882D01*
Y61688D01*
X37118D01*
G37*
G36*
X40318Y66688D02*Y66002D01*
X41082D01*
Y66688D01*
X40318D01*
G37*
G36*
Y68238D02*Y67552D01*
X41082D01*
Y68238D01*
X40318D01*
G37*
G36*
X44674Y68994D02*X44226D01*
Y67596D01*
X44674D01*
Y68994D01*
G37*
G36*
X43724D02*X43276D01*
Y67596D01*
X43724D01*
Y68994D01*
G37*
G36*
X42774D02*X42326D01*
Y67596D01*
X42774D01*
Y68994D01*
G37*
G36*
Y66644D02*X42326D01*
Y65246D01*
X42774D01*
Y66644D01*
G37*
G36*
X43724D02*X43276D01*
Y65246D01*
X43724D01*
Y66644D01*
G37*
G36*
X44674D02*X44226D01*
Y65246D01*
X44674D01*
Y66644D01*
G37*
G36*
X42168Y70838D02*Y70152D01*
X42932D01*
Y70838D01*
X42168D01*
G37*
G36*
Y72388D02*Y71702D01*
X42932D01*
Y72388D01*
X42168D01*
G37*
G36*
X43668Y70838D02*Y70152D01*
X44432D01*
Y70838D01*
X43668D01*
G37*
G36*
Y72388D02*Y71702D01*
X44432D01*
Y72388D01*
X43668D01*
G37*
G36*
X38282Y70705D02*Y69556D01*
X40632D01*
Y70705D01*
X38282D01*
G37*
G36*
Y73605D02*Y72456D01*
X40632D01*
Y73605D01*
X38282D01*
G37*
G36*
X38885Y76007D02*X38485D01*
Y74607D01*
X38885D01*
Y76007D01*
G37*
G36*
X39535D02*X39135D01*
Y74607D01*
X39535D01*
Y76007D01*
G37*
G36*
X40185D02*X39785D01*
Y74607D01*
X40185D01*
Y76007D01*
G37*
G36*
X40835D02*X40435D01*
Y74607D01*
X40835D01*
Y76007D01*
G37*
G36*
Y81907D02*X40435D01*
Y80507D01*
X40835D01*
Y81907D01*
G37*
G36*
X40185D02*X39785D01*
Y80507D01*
X40185D01*
Y81907D01*
G37*
G36*
X39535D02*X39135D01*
Y80507D01*
X39535D01*
Y81907D01*
G37*
G36*
X38885D02*X38485D01*
Y80507D01*
X38885D01*
Y81907D01*
G37*
M02*
